<?xml version="1.0" encoding="UTF-8" standalone="no"?>
<svg
   xmlns:dc="http://purl.org/dc/elements/1.1/"
   xmlns:cc="http://creativecommons.org/ns#"
   xmlns:rdf="http://www.w3.org/1999/02/22-rdf-syntax-ns#"
   xmlns:svg="http://www.w3.org/2000/svg"
   xmlns="http://www.w3.org/2000/svg"
   xmlns:xlink="http://www.w3.org/1999/xlink"
   xmlns:sodipodi="http://sodipodi.sourceforge.net/DTD/sodipodi-0.dtd"
   xmlns:inkscape="http://www.inkscape.org/namespaces/inkscape"
   version="1.1"
   id="svg2"
   width="30"
   height="30"
   viewBox="0 0 30 30"
   sodipodi:docname="adobe.svg"
   inkscape:version="1.0.1 (3bc2e813f5, 2020-09-07)">
  <metadata
     id="metadata8">
    <rdf:RDF>
      <cc:Work
         rdf:about="">
        <dc:format>image/svg+xml</dc:format>
        <dc:type
           rdf:resource="http://purl.org/dc/dcmitype/StillImage" />
        <dc:title></dc:title>
      </cc:Work>
    </rdf:RDF>
  </metadata>
  <defs
     id="defs6">
    <linearGradient
       inkscape:collect="always"
       id="linearGradient887">
      <stop
         style="stop-color:#c00000;stop-opacity:1"
         offset="0"
         id="stop883" />
      <stop
         style="stop-color:#631111;stop-opacity:1"
         offset="1"
         id="stop885" />
    </linearGradient>
    <linearGradient
       inkscape:collect="always"
       id="linearGradient855">
      <stop
         style="stop-color:#4c525a;stop-opacity:1"
         offset="0"
         id="stop851" />
      <stop
         style="stop-color:#000000;stop-opacity:1"
         offset="1"
         id="stop853" />
    </linearGradient>
    <clipPath
       clipPathUnits="userSpaceOnUse"
       id="clipPath839">
      <path
         style="fill:#000000"
         d="M 4.2035198,94.75 C 4.4941798,39.604235 4.5427621,38.395678 6.6783144,33.185816 11.320985,21.859622 21.831803,11.230436 32.747915,6.8226291 38.496376,4.5014634 38.535442,4.4998178 94.75,4.2107526 L 151,3.9215051 V 45.960753 c 0,39.025902 -0.33973,44.534641 -2.52811,40.99376 -0.35538,-0.575018 -0.58826,-18.800018 -0.5175,-40.5 L 148.08304,7 94.29152,7.0108243 C 49.796182,7.0197779 39.660728,7.2762724 35.643628,8.4950065 30.800399,9.9643768 24.072216,13.559768 22.861803,15.325329 22.510795,15.837325 21.712146,15.94013 21.087027,15.553786 20.461908,15.167441 20.074096,15.278261 20.225223,15.800053 20.376351,16.321845 19.15,18.287588 17.5,20.168371 12.689569,25.65163 9.8762647,29.951988 9.4071667,32.538908 9.1669214,33.863781 8.5270268,36.113814 7.9851786,37.538983 7.3824801,39.1242 7,61.069578 7,94.0651 V 148 h 70.538461 70.538459 l -0.14977,-19.75 c -0.1188,-15.66578 0.16886,-20.57718 1.39107,-23.75 1.45522,-3.77768 1.54477,-2.5966 1.61132,21.25 L 151,151 H 77.45352 3.9070395 Z M 115,143.087 c -3.025,-0.32285 -5.3875,-0.9245 -5.25,-1.337 0.1375,-0.4125 0.25,-1.17416 0.25,-1.69258 0,-0.51842 0.91946,-0.76551 2.04325,-0.54909 3.70365,0.71326 8.95675,2.87893 8.95675,3.69256 0,0.43951 -0.1125,0.72576 -0.25,0.63611 -0.1375,-0.0896 -2.725,-0.42714 -5.75,-0.75 z m 21,0.37146 c 0,-1.20052 7.05961,-20.72585 8.05707,-22.28411 0.79384,-1.24014 0.92726,0.14096 0.51447,5.32565 -0.30653,3.85 -0.56052,9.3625 -0.56443,12.25 L 144,144 h -4 c -2.2,0 -4,-0.24369 -4,-0.54154 z m -16.78434,-11.67029 c -2.90639,-1.14516 -5.11689,-2.57847 -4.91223,-3.18514 0.20466,-0.60667 -0.33383,-1.623 -1.19664,-2.25851 -1.28013,-0.94289 -1.02029,-1.06648 1.41223,-0.67171 2.41785,0.39238 2.69762,0.26225 1.48098,-0.68885 -1.7288,-1.35149 -1.85785,-1.37899 6.64586,1.41616 5.11928,1.6827 5.1401,1.70669 4.03076,4.64566 -1.29979,3.44353 -0.74553,3.38838 -7.46096,0.74239 z M 126,117.42152 c -1.925,-0.78448 -4.27675,-1.69992 -5.22611,-2.03431 -1.34788,-0.47476 -1.50451,-1.02203 -0.71481,-2.49759 0.81544,-1.52367 0.66557,-1.89259 -0.7739,-1.90493 -1.49177,-0.0128 -1.54298,-0.16848 -0.31157,-0.94722 0.94778,-0.59937 1.71075,-0.54819 2.13819,0.14343 0.36553,0.59143 1.10872,0.80085 1.65153,0.46537 0.54282,-0.33548 3.09635,0.10878 5.67452,0.98725 3.35995,1.14485 4.52821,2.01255 4.12487,3.06364 -0.3095,0.80653 -0.56272,2.10461 -0.56272,2.88463 0,1.73613 -1.44094,1.69764 -6,-0.16027 z M 37.5,110 c 0.339919,-0.55 -0.10234,-1 -0.982796,-1 -0.880457,0 -2.566867,-0.9 -3.747579,-2 -1.180711,-1.1 -3.213453,-2 -4.517203,-2 -1.351024,0 -2.10033,-0.43707 -1.742341,-1.01631 0.345464,-0.55897 1.005055,-0.78335 1.465759,-0.49862 0.460703,0.28473 0.560307,-0.49543 0.221341,-1.73369 -0.469475,-1.71502 -0.699057,-1.854749 -0.963668,-0.58652 -0.191052,0.91567 -1.05782,1.93748 -1.926151,2.27069 -1.398352,0.5366 -1.390231,0.34633 0.07106,-1.66486 C 26.28583,100.52181 27.317786,98.825 27.671652,98 28.700136,95.602208 46.974767,68 47.533794,68 48.296308,68 57,81.691847 57,82.891364 c 0,0.572635 -1.830165,3.868837 -4.067033,7.324895 L 48.865934,96.5 54.432967,96.799904 60,97.099808 V 104.0499 111 H 48.440983 C 40.989616,111 37.101593,110.64464 37.5,110 Z m 35.433607,-4.25 C 65.325029,93.413449 63.008398,88.102228 66.5,91 c 1.257573,1.043693 1.5,0.882075 1.5,-1 0,-1.711924 0.304236,-1.992396 1.281461,-1.181371 0.960159,0.796861 1.759603,0.352099 3.188448,-1.773856 1.048842,-1.560557 2.497184,-2.610895 3.218538,-2.334085 0.721354,0.276809 1.321559,-0.107355 1.333789,-0.853699 0.02749,-1.677979 2.0463,0.84805 10.726799,13.4219 3.713031,5.378391 7.368352,10.665891 8.122937,11.750001 C 97.210855,110.95246 96.989831,111 86.707746,111 H 76.171549 Z M 131,102.46657 c -3.025,-1.31244 -5.05,-2.41863 -4.5,-2.45821 0.55,-0.03958 0.26267,-0.633079 -0.63851,-1.318882 -1.48528,-1.130309 -1.43331,-1.343755 0.55576,-2.282446 1.61714,-0.763165 3.49471,-0.619473 7.13851,0.546314 4.31588,1.380808 4.90882,1.894629 4.6655,4.042984 -0.43511,3.84181 -1.3335,4.02472 -7.22126,1.47024 z m -3,-22.556637 c -13.65729,-4.983936 -15.89323,-5.875504 -21.75,-8.672683 -3.6934,-1.763957 -4.40462,-3.703208 -1,-2.726651 6.30148,1.807475 36.48024,11.838915 37.96276,12.61885 1.82259,0.958838 1.3761,3.927981 -0.56975,3.788786 C 142.01436,84.873265 135.425,82.619529 128,79.909933 Z M 66.403144,64.416295 C 65.356415,62.976111 63.0375,59.845275 61.25,57.458881 59.4625,55.072487 58,52.816664 58,52.445942 58,51.408465 70.398298,32.734781 72.437793,30.700474 73.955365,29.186763 75.731562,28.936555 83.620954,29.125131 88.779429,29.248431 93,29.473098 93,29.624392 93,29.775685 88.1625,37.165391 82.25,46.045959 76.3375,54.926528 70.781415,63.281979 69.903144,64.61363 l -1.596856,2.421182 z M 40.938058,56.75303 c -1.340932,-1.785834 -6.157406,-8.648334 -10.703276,-15.25 L 21.969565,29.5 31.159766,29.210159 C 36.214376,29.050746 40.90507,29.13333 41.58353,29.39368 42.744986,29.839372 50.092906,40.587518 54.132743,47.75 55.932156,50.940294 55.929404,51 53.982916,51 52.886991,51 52,51.670974 52,52.5 c 0,0.825 -0.45,1.5 -1,1.5 -0.55,0 -1,0.727484 -1,1.616631 0,1.135149 -0.607898,1.457663 -2.041084,1.082876 -1.653575,-0.432419 -1.925563,-0.169781 -1.432612,1.383369 C 46.866589,59.155019 46.66432,60 46.067388,60 45.480324,60 45,59.325 45,58.5 45,57.675 44.564123,57 44.031385,57 c -0.532739,0 -0.709594,0.675 -0.393011,1.5 0.918666,2.394005 -0.07242,1.752822 -2.700316,-1.74697 z"
         id="path841" />
    </clipPath>
    <linearGradient
       inkscape:collect="always"
       xlink:href="#linearGradient855"
       id="linearGradient857"
       x1="2.314043"
       y1="25.171953"
       x2="48.647446"
       y2="25.171953"
       gradientUnits="userSpaceOnUse"
       gradientTransform="matrix(0.61054454,0,0,0.61054454,-0.07066193,-1.1580181)" />
    <linearGradient
       inkscape:collect="always"
       xlink:href="#linearGradient887"
       id="linearGradient857-6"
       x1="2.314043"
       y1="25.171953"
       x2="48.647446"
       y2="25.171953"
       gradientUnits="userSpaceOnUse" />
    <filter
       inkscape:collect="always"
       style="color-interpolation-filters:sRGB"
       id="filter965"
       x="-0.042120993"
       width="1.084242"
       y="-0.055786334"
       height="1.1115727">
      <feGaussianBlur
         inkscape:collect="always"
         stdDeviation="0.81317039"
         id="feGaussianBlur967" />
    </filter>
  </defs>
  <sodipodi:namedview
     pagecolor="#ffffff"
     bordercolor="#666666"
     borderopacity="1"
     objecttolerance="10"
     gridtolerance="10"
     guidetolerance="10"
     inkscape:pageopacity="0"
     inkscape:pageshadow="2"
     inkscape:window-width="1920"
     inkscape:window-height="1017"
     id="namedview4"
     showgrid="false"
     inkscape:zoom="9.4422476"
     inkscape:cx="20.007556"
     inkscape:cy="28.714717"
     inkscape:window-x="-8"
     inkscape:window-y="-8"
     inkscape:window-maximized="1"
     inkscape:current-layer="g10"
     inkscape:document-rotation="0" />
  <g
     inkscape:groupmode="layer"
     inkscape:label="Image"
     id="g10">
    <path
       style="opacity:0.9;fill:url(#linearGradient857-6);fill-opacity:1;stroke-width:0.231894;filter:url(#filter965)"
       d="M 13.772398,42.335402 C 8.4629216,41.16162 3.9095025,36.634735 2.6455462,31.273386 c -0.443613,-1.88168 -0.441725,-5.227669 0.00402,-7.118613 0.4627736,-1.963194 1.9325971,-4.741236 3.3498075,-6.331312 1.5100572,-1.694248 3.9039853,-3.305001 5.9902313,-4.030526 1.783839,-0.620357 4.841387,-1.071356 5.88546,-0.868125 0.497193,0.09678 0.862557,-0.08406 1.795106,-0.8885 C 24.817664,7.595954 31.906005,6.449455 38.056658,9.0624 45.356459,12.163531 49.83889,20.494192 48.369,28.228032 c -0.721021,3.793659 -2.170173,6.484706 -5.055606,9.388173 -1.730293,1.741108 -2.318029,2.164739 -4.405989,3.175754 -3.715292,1.798983 -4.447723,1.891101 -14.863904,1.869475 -6.463054,-0.01343 -9.258403,-0.10215 -10.2711,-0.326032 z m 21.672334,-2.59241 c 3.92382,-1.019531 7.512711,-4.043079 9.509584,-8.011575 C 47.985085,25.708196 46.719615,18.79359 41.72405,14.081026 37.099499,9.718457 30.166988,8.778924 24.555483,11.754242 c -0.829021,0.439562 -1.864026,1.103976 -2.300009,1.476476 l -0.792697,0.677273 1.042232,0.446752 c 0.573229,0.245715 1.532812,0.752098 2.132408,1.125296 l 1.090177,0.678543 1.331758,-0.660081 c 6.182495,-3.064329 13.830801,1.038655 14.914155,8.000798 0.620729,3.9891 -1.477321,8.558482 -4.930593,10.738438 -3.037058,1.917211 -7.438481,1.974857 -10.632276,0.139255 -0.573938,-0.329866 -3.037016,-2.562053 -5.473505,-4.960417 -4.726162,-4.652217 -4.901364,-4.763552 -6.331957,-4.023764 -0.795947,0.4116 -1.29066,1.510219 -1.073234,2.383352 0.198733,0.798062 7.313992,8.038189 9.284334,9.447269 4.003443,2.86304 8.134457,3.687238 12.628456,2.51956 z m -12.408156,0.194311 c -0.121165,-0.105448 -0.898591,-0.669572 -1.727613,-1.253605 -0.829022,-0.584032 -1.919812,-1.489099 -2.423979,-2.011268 -0.738086,-0.764432 -1.078712,-0.949389 -1.74846,-0.949389 -2.429619,0 -5.321599,-1.440725 -6.67505,-3.325369 -1.1597346,-1.6149 -1.5594204,-2.84707 -1.5540585,-4.790929 0.0081,-2.932457 1.4502595,-5.308031 4.0918875,-6.740241 1.380044,-0.748215 1.601869,-0.796324 3.671774,-0.796324 3.224468,0 4.028852,0.453733 7.824355,4.413537 2.917039,3.04331 3.01843,3.123028 3.972181,3.123028 1.640381,0 2.727581,-1.540851 2.120801,-3.005745 C 30.434,24.228207 28.830803,22.48073 27.025756,20.717713 22.609327,16.404117 20.923306,15.566026 16.63753,15.553906 8.6709947,15.531376 2.7645845,23.070823 4.7355816,30.746571 c 1.115128,4.342689 4.5599883,7.89666 8.7471054,9.024152 1.337112,0.360056 9.948716,0.510204 9.553889,0.16658 z"
       id="path837-9"
       transform="matrix(0.61054454,0,0,0.61054454,-0.07066193,-1.1580181)" />
    <path
       style="fill:url(#linearGradient857);fill-opacity:1;stroke-width:0.141582"
       d="M 8.3380004,24.68963 C 5.0963284,23.972984 2.3162633,21.209119 1.5445617,17.935777 1.2737162,16.786927 1.2748689,14.744052 1.547016,13.589546 1.8295599,12.390929 2.7269527,10.69481 3.5922227,9.7239984 4.5141799,8.6895844 5.9757794,7.7061484 7.2495259,7.2631834 8.338639,6.8844274 10.205408,6.6090725 10.842861,6.7331544 c 0.303559,0.05909 0.52663,-0.05132 1.095993,-0.5424692 3.142773,-2.7110351 7.470521,-3.4110236 11.225769,-1.8157046 4.456853,1.8933787 7.193577,6.9796174 6.296144,11.7014714 -0.440216,2.316198 -1.324987,3.959202 -3.086673,5.731898 -1.056421,1.063024 -1.41526,1.32167 -2.690052,1.938939 -2.268352,1.09836 -2.715533,1.154602 -9.075076,1.141398 -3.945982,-0.0082 -5.6526671,-0.06237 -6.2709637,-0.199057 z M 21.569926,23.106848 C 23.965592,22.484379 26.15677,20.638368 27.37595,18.215425 29.22637,14.53798 28.453744,10.316305 25.403729,7.4390754 22.580235,4.775533 18.347628,4.2019059 14.921554,6.0184702 14.4154,6.2868423 13.783483,6.6924964 13.517296,6.9199244 l -0.483977,0.413505 0.636329,0.272762 c 0.349982,0.15002 0.93585,0.45919 1.30193,0.687044 l 0.665602,0.41428 0.813098,-0.403008 c 3.774688,-1.8709097 8.44432,0.634145 9.105755,4.8848426 0.378983,2.435523 -0.90197,5.225335 -3.010346,6.556295 -1.854259,1.170543 -4.541524,1.205738 -6.491478,0.08502 C 15.703794,19.629267 14.199975,18.266418 12.71239,16.80211 9.826858,13.961724 9.7198892,13.893749 8.8464485,14.345423 c -0.4859611,0.2513 -0.7880054,0.922056 -0.6552572,1.455142 0.1213354,0.487253 4.4655177,4.907672 5.6684997,5.767979 2.44428,1.748013 4.966448,2.251223 7.710235,1.538304 z m -7.575732,0.118636 c -0.07398,-0.06438 -0.54863,-0.408804 -1.054785,-0.765382 -0.506155,-0.356578 -1.172131,-0.909161 -1.479947,-1.227969 -0.450635,-0.466719 -0.658602,-0.579644 -1.067513,-0.579644 -1.4833904,0 -3.249073,-0.879627 -4.0754151,-2.030286 C 5.608464,17.636235 5.3644381,16.88394 5.3677117,15.697128 c 0.00495,-1.790396 0.8854482,-3.24079 2.4982798,-4.115218 0.8425783,-0.456818 0.9780124,-0.486191 2.2417815,-0.486191 1.968681,0 2.459794,0.277024 4.777117,2.694661 1.780982,1.858076 1.842886,1.906748 2.425194,1.906748 1.001525,0 1.665309,-0.940759 1.294843,-1.835142 -0.09428,-0.227605 -1.0731,-1.294518 -2.175161,-2.370918 C 13.733339,8.8574264 12.703948,8.3457344 10.087291,8.3383344 5.2233663,8.3245744 1.6172398,12.927746 2.8206214,17.614132 c 0.6808353,2.651406 2.7840759,4.821263 5.3404976,5.509647 0.8163664,0.21983 6.074134,0.311502 5.833075,0.101705 z"
       id="path837" />
  </g>
</svg>
