<?xml version="1.0" encoding="UTF-8" standalone="no"?>
<svg
   xmlns:dc="http://purl.org/dc/elements/1.1/"
   xmlns:cc="http://creativecommons.org/ns#"
   xmlns:rdf="http://www.w3.org/1999/02/22-rdf-syntax-ns#"
   xmlns:svg="http://www.w3.org/2000/svg"
   xmlns="http://www.w3.org/2000/svg"
   xmlns:xlink="http://www.w3.org/1999/xlink"
   xmlns:sodipodi="http://sodipodi.sourceforge.net/DTD/sodipodi-0.dtd"
   xmlns:inkscape="http://www.inkscape.org/namespaces/inkscape"
   version="1.1"
   id="svg2"
   width="30"
   height="30"
   viewBox="0 0 30 30"
   sodipodi:docname="Alliansys.svg"
   inkscape:version="1.0.1 (3bc2e813f5, 2020-09-07)">
  <metadata
     id="metadata8">
    <rdf:RDF>
      <cc:Work
         rdf:about="">
        <dc:format>image/svg+xml</dc:format>
        <dc:type
           rdf:resource="http://purl.org/dc/dcmitype/StillImage" />
        <dc:title></dc:title>
      </cc:Work>
    </rdf:RDF>
  </metadata>
  <defs
     id="defs6">
    <linearGradient
       inkscape:collect="always"
       id="linearGradient899">
      <stop
         style="stop-color:#c00000;stop-opacity:1"
         offset="0"
         id="stop895" />
      <stop
         style="stop-color:#631111;stop-opacity:1"
         offset="1"
         id="stop897" />
    </linearGradient>
    <linearGradient
       inkscape:collect="always"
       id="linearGradient843">
      <stop
         style="stop-color:#4c525a;stop-opacity:1;"
         offset="0"
         id="stop839" />
      <stop
         style="stop-color:#000000;stop-opacity:1"
         offset="1"
         id="stop841" />
    </linearGradient>
    <linearGradient
       inkscape:collect="always"
       xlink:href="#linearGradient843"
       id="linearGradient845"
       x1="3.3059514"
       y1="23.573011"
       x2="45.791607"
       y2="23.573011"
       gradientUnits="userSpaceOnUse"
       gradientTransform="matrix(0.69972157,0,0,0.84158856,-2.5194423,-4.6104335)" />
    <linearGradient
       inkscape:collect="always"
       xlink:href="#linearGradient899"
       id="linearGradient845-2"
       x1="3.3059514"
       y1="23.573011"
       x2="45.791607"
       y2="23.573011"
       gradientUnits="userSpaceOnUse"
       gradientTransform="matrix(1.1387612,0,0,1.3696425,-3.101482,-7.402777)" />
    <filter
       inkscape:collect="always"
       style="color-interpolation-filters:sRGB"
       id="filter977"
       x="-0.046609566"
       width="1.093219"
       y="-0.049475942"
       height="1.0989519">
      <feGaussianBlur
         inkscape:collect="always"
         stdDeviation="0.93959076"
         id="feGaussianBlur979" />
    </filter>
  </defs>
  <sodipodi:namedview
     pagecolor="#ffffff"
     bordercolor="#666666"
     borderopacity="1"
     objecttolerance="10"
     gridtolerance="10"
     guidetolerance="10"
     inkscape:pageopacity="0"
     inkscape:pageshadow="2"
     inkscape:window-width="1920"
     inkscape:window-height="1017"
     id="namedview4"
     showgrid="false"
     inkscape:zoom="4.9712496"
     inkscape:cx="43.220516"
     inkscape:cy="53.683267"
     inkscape:window-x="-8"
     inkscape:window-y="-8"
     inkscape:window-maximized="1"
     inkscape:current-layer="g10"
     inkscape:document-rotation="0" />
  <g
     inkscape:groupmode="layer"
     inkscape:label="Image"
     id="g10">
    <path
       style="opacity:0.9;fill:url(#linearGradient845-2);fill-opacity:1;stroke-width:0.381723;filter:url(#filter977)"
       d="M 19.023861,47.071873 C 14.104629,45.478674 8.92495,40.282432 6.470123,34.478003 6.068112,33.527448 5.477314,31.495801 5.157239,29.963229 4.749246,28.009694 4.354733,27.034772 3.837472,26.701813 3.431676,26.440607 3.060502,26.258724 3.012644,26.297632 c -0.04786,0.03891 -0.596061,0.06758 -1.218228,0.06372 l -1.13121,-0.007 2.482267,-2.923413 c 3.243563,-3.820006 3.59996,-3.824645 7.208627,-0.09383 1.501277,1.552093 2.519367,2.856538 2.262421,2.898769 -0.256947,0.04222 -1.073701,0.196378 -1.815007,0.342553 l -1.347831,0.265773 0.165633,1.767434 c 0.242903,2.591955 1.200145,4.7004 3.433376,7.562425 3.748232,4.803594 7.833786,6.804192 13.092186,6.410924 5.152684,-0.385362 9.425309,-3.666601 13.19238,-10.131321 0.460582,-0.790409 0.539205,-0.751276 2.032828,1.011808 l 1.553722,1.834015 -0.594481,1.232743 c -2.414542,5.00699 -8.227382,9.816896 -12.986201,10.745598 -3.086948,0.602433 -8.134363,0.501709 -10.319265,-0.205917 z m 20.709624,-19.71518 c -1.483626,-1.751594 -2.697503,-3.255683 -2.697503,-3.342421 0,-0.08674 0.69178,-0.157706 1.537288,-0.157706 1.824041,0 1.973441,-0.328711 1.42701,-3.139758 C 39.143244,16.307879 37.112286,13.067604 33.337906,10.087384 31.894769,8.9478946 29.924079,7.7876593 28.958596,7.5090837 26.733831,6.8671625 21.389289,7.2082568 19.304833,8.1251983 17.118954,9.0867544 12.868198,13.059374 11.406136,15.507069 l -1.236877,2.070703 -0.965398,-0.8268 C 8.672892,16.296234 7.970641,15.432556 7.643304,14.831687 7.065583,13.771208 7.076941,13.689226 8.031001,12.033391 9.2317,9.949499 13.108864,5.9669259 15.391801,4.4724774 c 2.463411,-1.6125929 5.366322,-2.3858502 8.925925,-2.3776266 6.525608,0.015074 11.041493,2.0800056 15.005863,6.8615699 2.727665,3.2899303 4.200265,6.3956923 5.201771,10.9706843 0.347106,1.585582 0.781031,3.118358 0.96428,3.406168 0.183261,0.287812 1.058012,0.526234 1.943889,0.529826 l 1.610686,0.0066 -2.958546,3.327457 c -1.627199,1.830101 -3.115184,3.331251 -3.306621,3.335889 -0.191427,0.0046 -1.561936,-1.42469 -3.045563,-3.176283 z"
       id="path837-7"
       transform="matrix(0.61445856,0,0,0.61445856,-0.61370941,-0.06177604)" />
    <path
       style="fill:url(#linearGradient845);fill-opacity:1;stroke-width:0.234553"
       d="M 11.075665,28.861982 C 8.0530007,27.883027 4.8703019,24.690152 3.3619125,21.123571 3.1148932,20.539494 2.7518728,19.291131 2.5552,18.349429 2.3045051,17.149063 2.062093,16.550014 1.7442578,16.345424 c -0.2493451,-0.1605 -0.4774158,-0.27226 -0.506823,-0.248352 -0.029409,0.02391 -0.36625458,0.04153 -0.74855018,0.03915 l -0.69508168,-0.0043 1.52525016,-1.796316 C 3.312088,11.98837 3.5310792,11.98552 5.7484554,14.277946 6.6709285,15.231643 7.2965026,16.03317 7.13862,16.059119 6.9807367,16.085059 6.4788752,16.179785 6.0233734,16.269604 l -0.8281867,0.163306 0.1017745,1.086015 c 0.1492541,1.592649 0.7374399,2.888201 2.1096678,4.646797 2.3031332,2.95161 4.813537,4.180894 8.044606,3.939247 3.166111,-0.236789 5.791462,-2.252974 8.106171,-6.225277 0.283008,-0.485673 0.331319,-0.461628 1.249088,0.621714 l 0.954698,1.126927 -0.365284,0.757469 c -1.483636,3.076588 -5.055385,6.032076 -7.979482,6.602725 -1.896802,0.37017 -4.998229,0.308279 -6.340761,-0.126528 z M 23.800871,16.747821 c -0.911627,-1.076282 -1.657504,-2.000483 -1.657504,-2.05378 0,-0.0533 0.42507,-0.0969 0.9446,-0.0969 1.120797,0 1.212597,-0.20198 0.876838,-1.929252 C 23.438192,9.9587823 22.190253,7.9677676 19.871052,6.1365459 18.984305,5.4363769 17.773397,4.7234604 17.180148,4.5522873 15.813122,4.1578532 12.529122,4.3674416 11.248311,4.9308641 9.9051785,5.5217005 7.2932651,7.9627106 6.3948885,9.4667177 L 5.6348783,10.739079 5.0416811,10.231045 C 4.7154227,9.9516269 4.2839187,9.4209326 4.0827836,9.0517235 3.7277981,8.4001031 3.7347772,8.3497285 4.3210074,7.3322865 5.0587872,6.0518213 7.4411443,3.6046952 8.8439145,2.6864185 10.357579,1.695547 12.141297,1.2204124 14.328526,1.2254655 c 4.009715,0.00926 6.78454,1.2780772 9.220481,4.2161503 1.676037,2.0215258 2.580888,3.9298879 3.196272,6.7410312 0.213283,0.974274 0.479912,1.916101 0.59251,2.092949 0.112607,0.176848 0.650105,0.323349 1.19444,0.325556 l 0.9897,0.0041 -1.817904,2.044585 c -0.999847,1.124521 -1.914152,2.046916 -2.031782,2.049765 -0.117624,0.0028 -0.959745,-0.875413 -1.871372,-1.951694 z"
       id="path837" />
  </g>
</svg>
