<?xml version="1.0" encoding="UTF-8" standalone="no"?>
<svg
   xmlns:dc="http://purl.org/dc/elements/1.1/"
   xmlns:cc="http://creativecommons.org/ns#"
   xmlns:rdf="http://www.w3.org/1999/02/22-rdf-syntax-ns#"
   xmlns:svg="http://www.w3.org/2000/svg"
   xmlns="http://www.w3.org/2000/svg"
   xmlns:xlink="http://www.w3.org/1999/xlink"
   xmlns:sodipodi="http://sodipodi.sourceforge.net/DTD/sodipodi-0.dtd"
   xmlns:inkscape="http://www.inkscape.org/namespaces/inkscape"
   version="1.1"
   id="svg2"
   width="30"
   height="30"
   viewBox="0 0 30.000001 30"
   sodipodi:docname="anglais.svg"
   inkscape:version="1.0.1 (3bc2e813f5, 2020-09-07)">
  <metadata
     id="metadata8">
    <rdf:RDF>
      <cc:Work
         rdf:about="">
        <dc:format>image/svg+xml</dc:format>
        <dc:type
           rdf:resource="http://purl.org/dc/dcmitype/StillImage" />
        <dc:title></dc:title>
      </cc:Work>
    </rdf:RDF>
  </metadata>
  <defs
     id="defs6">
    <linearGradient
       inkscape:collect="always"
       id="linearGradient878">
      <stop
         style="stop-color:#c00000;stop-opacity:1"
         offset="0"
         id="stop874" />
      <stop
         style="stop-color:#631111;stop-opacity:1"
         offset="1"
         id="stop876" />
    </linearGradient>
    <linearGradient
       inkscape:collect="always"
       id="linearGradient870">
      <stop
         style="stop-color:#4c525a;stop-opacity:1;"
         offset="0"
         id="stop866" />
      <stop
         style="stop-color:#000000;stop-opacity:1"
         offset="1"
         id="stop868" />
    </linearGradient>
    <clipPath
       clipPathUnits="userSpaceOnUse"
       id="clipPath841">
      <path
         style="opacity:0.9;fill:none;fill-rule:evenodd;stroke:#631111;stroke-width:0.654474;stroke-linecap:round;paint-order:fill markers stroke"
         id="path843"
         sodipodi:type="arc"
         sodipodi:cx="-36.172001"
         sodipodi:cy="68.333511"
         sodipodi:rx="46.931301"
         sodipodi:ry="47.062164"
         sodipodi:start="0.051149492"
         sodipodi:end="0"
         sodipodi:open="true"
         sodipodi:arc-type="arc"
         d="M 10.697921,70.739668 A 46.931301,47.062164 0 0 1 -37.971943,115.36105 46.931301,47.062164 0 0 1 -83.087955,67.13004 46.931301,47.062164 0 0 1 -35.571889,21.275195 46.931301,47.062164 0 0 1 10.7593,68.333511" />
    </clipPath>
    <clipPath
       clipPathUnits="userSpaceOnUse"
       id="clipPath841-0">
      <path
         style="opacity:0.9;fill:none;fill-rule:evenodd;stroke:#631111;stroke-width:0.654474;stroke-linecap:round;paint-order:fill markers stroke"
         id="path843-7"
         sodipodi:type="arc"
         sodipodi:cx="-36.172001"
         sodipodi:cy="68.333511"
         sodipodi:rx="46.931301"
         sodipodi:ry="47.062164"
         sodipodi:start="0.051149492"
         sodipodi:end="0"
         sodipodi:open="true"
         sodipodi:arc-type="arc"
         d="M 10.697921,70.739668 A 46.931301,47.062164 0 0 1 -37.971943,115.36105 46.931301,47.062164 0 0 1 -83.087955,67.13004 46.931301,47.062164 0 0 1 -35.571889,21.275195 46.931301,47.062164 0 0 1 10.7593,68.333511" />
    </clipPath>
    <linearGradient
       inkscape:collect="always"
       xlink:href="#linearGradient870"
       id="linearGradient872"
       x1="-83.103302"
       y1="68.279083"
       x2="10.7593"
       y2="68.279083"
       gradientUnits="userSpaceOnUse" />
    <linearGradient
       inkscape:collect="always"
       xlink:href="#linearGradient878"
       id="linearGradient880"
       x1="-83.103302"
       y1="68.279083"
       x2="10.7593"
       y2="68.279083"
       gradientUnits="userSpaceOnUse" />
    <filter
       inkscape:collect="always"
       style="color-interpolation-filters:sRGB"
       id="filter990"
       x="-0.03597967"
       width="1.0719593"
       y="-0.072081454"
       height="1.1441629">
      <feGaussianBlur
         inkscape:collect="always"
         stdDeviation="2.8256037"
         id="feGaussianBlur992" />
    </filter>
  </defs>
  <sodipodi:namedview
     pagecolor="#ffffff"
     bordercolor="#666666"
     borderopacity="1"
     objecttolerance="10"
     gridtolerance="10"
     guidetolerance="10"
     inkscape:pageopacity="0"
     inkscape:pageshadow="2"
     inkscape:window-width="1904"
     inkscape:window-height="1001"
     id="namedview4"
     showgrid="false"
     inkscape:zoom="7.158249"
     inkscape:cx="34.723679"
     inkscape:cy="48.155449"
     inkscape:window-x="0"
     inkscape:window-y="0"
     inkscape:window-maximized="0"
     inkscape:current-layer="g10"
     inkscape:document-rotation="0" />
  <g
     inkscape:groupmode="layer"
     inkscape:label="Image"
     id="g10">
    <path
       style="opacity:0.9;fill:url(#linearGradient880);fill-opacity:1;stroke-width:0.32;filter:url(#filter990)"
       d="m -126.28432,115.15288 c 0.0735,-0.0735 13.70319,-7.06055 30.288167,-15.526779 l 30.15452,-15.393136 6.21047,0.08678 6.21047,0.08678 -30.2512,15.440001 -30.251187,15.439994 h -6.24744 c -3.43609,0 -6.1873,-0.0601 -6.1138,-0.13364 z m 20.79969,0.0244 c 0.23025,-0.18867 53.227867,-27.367682 53.742797,-27.561167 0.39102,-0.146928 0.47736,0.05887 0.42927,1.023255 -0.0331,0.663942 -0.0734,6.931168 -0.0895,13.927172 l -0.0293,12.72001 h -27.09333 c -14.90133,0 -27.033327,-0.0492 -26.959997,-0.10926 z M -44.711303,96.56655 V 77.846529 h -42.4 -42.399997 v -9.6 -9.6 h 42.399997 42.4 V 39.926528 21.206529 h 9.60494 9.60493 l -0.0151,18.639999 -0.0151,18.640001 42.25014,0.08118 42.25014,0.08117 v 9.597648 9.597648 l -42.25013,0.08117 -42.25014,0.08118 0.0151,18.640001 0.0151,18.639994 h -9.60493 -9.60493 V 96.566526 Z m 25.6,4.8 c 0,-7.656 0.0588,-13.920001 0.13064,-13.920001 0.12228,0 52.58688,26.946841 53.62936,27.545081 0.27115,0.15561 -11.31988,0.27969 -26.6399997,0.28519 l -27.1200003,0.01 z m 44.96,-1.603354 -30.3999997,-15.50952 7.47325,-0.0036 7.4732497,-0.0036 24.27976,12.24 24.27976,12.240004 0.007,3.28 0.007,3.27997 -1.36,-0.007 c -1.1565,-0.006 -5.90884,-2.32765 -31.76,-15.516435 z M -129.5113,94.16655 v -9.920001 l 19.76,0.0068 19.759997,0.0068 -4.64,2.421885 c -5.568217,2.906291 -34.489247,17.404516 -34.718657,17.404516 -0.0887,0 -0.16134,-4.464 -0.16134,-9.92 z m 171.839997,1.71831 c -8.888,-4.504531 -17.672,-8.958496 -19.52,-9.897699 l -3.36,-1.707642 19.76,-0.01648 19.76,-0.01649 v 9.920001 c 0,5.456 -0.108,9.91738 -0.24,9.91418 -0.132,-0.003 -7.512,-3.69134 -16.4,-8.19587 z M -129.5113,42.326548 c 0,-5.456 0.0765,-9.92 0.16991,-9.92 0.30605,0 39.190087,19.536413 39.190087,19.690181 0,0.0824 -8.856,0.14982 -19.679997,0.14982 h -19.68 z m 24.4,-2.336924 -24.4,-12.221121 v -3.280997 -3.280977 h 1.40489 c 1.22185,0 5.29715,1.98494 31.279997,15.235442 16.43131,8.379493 30.09111,15.359114 30.35511,15.510269 0.2775,0.158884 -2.625,0.27138 -6.88,0.266656 l -7.36,-0.0082 -24.399997,-12.221091 z m 87.946667,12.149338 c 0.0733,-0.05917 13.7527403,-7.043173 30.3987,-15.52 l 30.26537,-15.412413 6.37463,0.002 6.37463,0.002 -2.08,1.070709 c -1.144,0.58889 -14.83939,7.571969 -30.43419,15.517955 L -4.6196827,52.246549 h -6.3391403 c -3.48653,0 -6.27915,-0.04841 -6.20581,-0.107587 z m 43.81333,-3.605252 c 9.05078,-4.647214 31.94239,-16.127162 32.1584,-16.127162 0.0889,0 0.1616,4.464 0.1616,9.92 v 9.920001 l -19.76,-0.008 -19.76,-0.008 z m -105.28,-13.412177 -27.039997,-13.909869 27.119997,-0.0026 27.12,-0.0026 v 13.413807 c 0,7.377606 0.0874,13.641606 0.19424,13.920001 0.10683,0.278394 0.0708,0.502764 -0.08,0.498599 -0.15083,-0.0042 -12.44224,-6.267014 -27.31424,-13.917443 z m 59.52,0.005 V 21.206534 l 27.1200003,0.0149 27.1199997,0.0149 -1.6,0.831201 c -7.34761,3.817091 -52.44638,26.979 -52.53107,26.979 -0.0599,0 -0.10893,-6.264001 -0.10893,-13.920002 z"
       id="path837-4"
       clip-path="url(#clipPath841-0)"
       transform="matrix(0.2967199,0,0,0.2967199,25.795654,-5.0063896)" />
    <path
       style="fill:url(#linearGradient872);fill-opacity:1;stroke-width:0.32"
       d="m -126.28432,115.15288 c 0.0735,-0.0735 13.70319,-7.06055 30.288167,-15.526779 l 30.15452,-15.393136 6.21047,0.08678 6.21047,0.08678 -30.2512,15.440001 -30.251187,15.439994 h -6.24744 c -3.43609,0 -6.1873,-0.0601 -6.1138,-0.13364 z m 20.79969,0.0244 c 0.23025,-0.18867 53.227867,-27.367682 53.742797,-27.561167 0.39102,-0.146928 0.47736,0.05887 0.42927,1.023255 -0.0331,0.663942 -0.0734,6.931168 -0.0895,13.927172 l -0.0293,12.72001 h -27.09333 c -14.90133,0 -27.033327,-0.0492 -26.959997,-0.10926 z M -44.711303,96.56655 V 77.846529 h -42.4 -42.399997 v -9.6 -9.6 h 42.399997 42.4 V 39.926528 21.206529 h 9.60494 9.60493 l -0.0151,18.639999 -0.0151,18.640001 42.25014,0.08118 42.25014,0.08117 v 9.597648 9.597648 l -42.25013,0.08117 -42.25014,0.08118 0.0151,18.640001 0.0151,18.639994 h -9.60493 -9.60493 V 96.566526 Z m 25.6,4.8 c 0,-7.656 0.0588,-13.920001 0.13064,-13.920001 0.12228,0 52.58688,26.946841 53.62936,27.545081 0.27115,0.15561 -11.31988,0.27969 -26.6399997,0.28519 l -27.1200003,0.01 z m 44.96,-1.603354 -30.3999997,-15.50952 7.47325,-0.0036 7.4732497,-0.0036 24.27976,12.24 24.27976,12.240004 0.007,3.28 0.007,3.27997 -1.36,-0.007 c -1.1565,-0.006 -5.90884,-2.32765 -31.76,-15.516435 z M -129.5113,94.16655 v -9.920001 l 19.76,0.0068 19.759997,0.0068 -4.64,2.421885 c -5.568217,2.906291 -34.489247,17.404516 -34.718657,17.404516 -0.0887,0 -0.16134,-4.464 -0.16134,-9.92 z m 171.839997,1.71831 c -8.888,-4.504531 -17.672,-8.958496 -19.52,-9.897699 l -3.36,-1.707642 19.76,-0.01648 19.76,-0.01649 v 9.920001 c 0,5.456 -0.108,9.91738 -0.24,9.91418 -0.132,-0.003 -7.512,-3.69134 -16.4,-8.19587 z M -129.5113,42.326548 c 0,-5.456 0.0765,-9.92 0.16991,-9.92 0.30605,0 39.190087,19.536413 39.190087,19.690181 0,0.0824 -8.856,0.14982 -19.679997,0.14982 h -19.68 z m 24.4,-2.336924 -24.4,-12.221121 v -3.280997 -3.280977 h 1.40489 c 1.22185,0 5.29715,1.98494 31.279997,15.235442 16.43131,8.379493 30.09111,15.359114 30.35511,15.510269 0.2775,0.158884 -2.625,0.27138 -6.88,0.266656 l -7.36,-0.0082 -24.399997,-12.221091 z m 87.946667,12.149338 c 0.0733,-0.05917 13.7527403,-7.043173 30.3987,-15.52 l 30.26537,-15.412413 6.37463,0.002 6.37463,0.002 -2.08,1.070709 c -1.144,0.58889 -14.83939,7.571969 -30.43419,15.517955 L -4.6196827,52.246549 h -6.3391403 c -3.48653,0 -6.27915,-0.04841 -6.20581,-0.107587 z m 43.81333,-3.605252 c 9.05078,-4.647214 31.94239,-16.127162 32.1584,-16.127162 0.0889,0 0.1616,4.464 0.1616,9.92 v 9.920001 l -19.76,-0.008 -19.76,-0.008 z m -105.28,-13.412177 -27.039997,-13.909869 27.119997,-0.0026 27.12,-0.0026 v 13.413807 c 0,7.377606 0.0874,13.641606 0.19424,13.920001 0.10683,0.278394 0.0708,0.502764 -0.08,0.498599 -0.15083,-0.0042 -12.44224,-6.267014 -27.31424,-13.917443 z m 59.52,0.005 V 21.206534 l 27.1200003,0.0149 27.1199997,0.0149 -1.6,0.831201 c -7.34761,3.817091 -52.44638,26.979 -52.53107,26.979 -0.0599,0 -0.10893,-6.264001 -0.10893,-13.920002 z"
       id="path837"
       clip-path="url(#clipPath841)"
       transform="matrix(0.2967199,0,0,0.2967199,25.795654,-5.0063896)" />
  </g>
</svg>
