<?xml version="1.0" encoding="UTF-8" standalone="no"?>
<svg
   xmlns:dc="http://purl.org/dc/elements/1.1/"
   xmlns:cc="http://creativecommons.org/ns#"
   xmlns:rdf="http://www.w3.org/1999/02/22-rdf-syntax-ns#"
   xmlns:svg="http://www.w3.org/2000/svg"
   xmlns="http://www.w3.org/2000/svg"
   xmlns:xlink="http://www.w3.org/1999/xlink"
   xmlns:sodipodi="http://sodipodi.sourceforge.net/DTD/sodipodi-0.dtd"
   xmlns:inkscape="http://www.inkscape.org/namespaces/inkscape"
   version="1.1"
   id="svg2"
   width="30"
   height="30"
   viewBox="0 0 30 30"
   sodipodi:docname="excel.svg"
   inkscape:version="1.0.1 (3bc2e813f5, 2020-09-07)">
  <metadata
     id="metadata8">
    <rdf:RDF>
      <cc:Work
         rdf:about="">
        <dc:format>image/svg+xml</dc:format>
        <dc:type
           rdf:resource="http://purl.org/dc/dcmitype/StillImage" />
        <dc:title></dc:title>
      </cc:Work>
    </rdf:RDF>
  </metadata>
  <defs
     id="defs6">
    <linearGradient
       inkscape:collect="always"
       id="linearGradient875">
      <stop
         style="stop-color:#c00000;stop-opacity:1"
         offset="0"
         id="stop871" />
      <stop
         style="stop-color:#631111;stop-opacity:1"
         offset="1"
         id="stop873" />
    </linearGradient>
    <linearGradient
       inkscape:collect="always"
       id="linearGradient843">
      <stop
         style="stop-color:#4c525a;stop-opacity:1"
         offset="0"
         id="stop839" />
      <stop
         style="stop-color:#333333;stop-opacity:1"
         offset="1"
         id="stop841" />
    </linearGradient>
    <linearGradient
       inkscape:collect="always"
       xlink:href="#linearGradient843"
       id="linearGradient845"
       x1="1.7824807"
       y1="15.100207"
       x2="28.997658"
       y2="15.100207"
       gradientUnits="userSpaceOnUse" />
    <linearGradient
       inkscape:collect="always"
       xlink:href="#linearGradient875"
       id="linearGradient845-9"
       x1="1.7824807"
       y1="15.100207"
       x2="28.997658"
       y2="15.100207"
       gradientUnits="userSpaceOnUse" />
    <filter
       inkscape:collect="always"
       style="color-interpolation-filters:sRGB"
       id="filter953"
       x="-0.047997212"
       width="1.0959944"
       y="-0.048002788"
       height="1.0960056">
      <feGaussianBlur
         inkscape:collect="always"
         stdDeviation="0.54427092"
         id="feGaussianBlur955" />
    </filter>
  </defs>
  <sodipodi:namedview
     pagecolor="#ffffff"
     bordercolor="#666666"
     borderopacity="1"
     objecttolerance="10"
     gridtolerance="10"
     guidetolerance="10"
     inkscape:pageopacity="0"
     inkscape:pageshadow="2"
     inkscape:window-width="1920"
     inkscape:window-height="1017"
     id="namedview4"
     showgrid="false"
     inkscape:zoom="14.006146"
     inkscape:cx="22.648109"
     inkscape:cy="21.508645"
     inkscape:window-x="-8"
     inkscape:window-y="-8"
     inkscape:window-maximized="1"
     inkscape:current-layer="g10" />
  <g
     inkscape:groupmode="layer"
     inkscape:label="Image"
     id="g10">
    <path
       style="opacity:0.9;fill:url(#linearGradient845-9);fill-opacity:1;stroke-width:0.0307162;filter:url(#filter953)"
       d="M 16.77204,28.584578 C 16.139422,28.460043 15.545139,28.34539 15.036579,28.249771 14.86764,28.218001 14.397684,28.127739 13.992231,28.049182 13.586778,27.970622 13.082266,27.873819 12.871092,27.834068 12.659919,27.794318 12.155407,27.697824 11.749954,27.619631 11.344501,27.541449 10.694856,27.416719 10.306296,27.342449 9.917738,27.268189 9.019291,27.096134 8.309749,26.960094 7.600206,26.824064 5.84478,26.487668 4.408801,26.212568 L 1.797931,25.712372 1.790231,15.11116 1.782531,4.5099508 1.943834,4.4777408 c 0.08872,-0.01771 0.527594,-0.101678 0.975282,-0.186581 0.447687,-0.0849 0.876176,-0.16765 0.952199,-0.183878 0.07602,-0.01621 0.400845,-0.079 0.721829,-0.139488 0.320983,-0.06049 0.79094,-0.150307 1.044348,-0.199574 0.253408,-0.04926 0.723365,-0.139275 1.044349,-0.200023 0.320983,-0.06076 0.970629,-0.184926 1.443657,-0.275946 0.473029,-0.09102 1.157231,-0.222251 1.520449,-0.291632 0.363218,-0.06938 1.047418,-0.20072 1.520447,-0.291858 0.473029,-0.09114 0.970629,-0.186563 1.105781,-0.21204 0.135151,-0.02549 0.605107,-0.115471 1.044348,-0.199965 0.43924,-0.08449 1.524287,-0.292183 2.411215,-0.461524 0.886928,-0.169341 1.643696,-0.315345 1.681708,-0.324453 l 0.06912,-0.01656 V 15.102039 c 0,12.940775 -0.0026,13.607654 -0.05376,13.604132 -0.02956,-0.0021 -0.323287,-0.05675 -0.652718,-0.121606 z m -8.686579,-9.09755 c 1.270481,-2.376836 1.346512,-2.525737 1.438168,-2.816637 0.05035,-0.159826 0.09155,-0.315327 0.09155,-0.34556 0,-0.131543 0.05734,-0.03527 0.119784,0.201136 0.03721,0.140854 0.112767,0.344732 0.167903,0.453058 0.167452,0.329005 1.648065,3.134368 1.745344,3.306962 l 0.09089,0.161264 h 1.395329 c 0.767431,0 1.395329,-0.0074 1.395329,-0.01645 0,-0.009 -0.267609,-0.454821 -0.594687,-0.990598 -0.327077,-0.535774 -1.059656,-1.737174 -1.627952,-2.669768 l -1.033266,-1.695631 0.987108,-1.637068 c 0.542908,-0.900389 1.253344,-2.07939 1.578746,-2.619991 l 0.591639,-0.9829202 -1.308551,-0.008 c -1.022005,-0.0062 -1.316277,9.03e-4 -1.343834,0.03072 -0.101519,0.111437 -1.681159,3.1887212 -1.828596,3.5622742 -0.09144,0.231668 -0.174818,0.421718 -0.185293,0.422341 -0.01047,9.02e-4 -0.03722,-0.06452 -0.05944,-0.144768 C 9.642962,13.471001 9.462832,13.04987 9.170269,12.445708 9.023015,12.141617 8.681373,11.429773 8.411065,10.863827 8.140756,10.297884 7.91542,9.8304208 7.910316,9.8250198 c -0.01233,-0.01304 -2.85044,-0.0065 -2.863548,0.0067 -0.0056,0.0056 0.07768,0.160651 0.185079,0.3445572 0.23985,0.410702 0.410426,0.706158 1.769641,3.065146 0.592835,1.028901 1.077883,1.883524 1.077883,1.899174 0,0.01567 -0.743932,1.198789 -1.653181,2.629191 -0.909251,1.430402 -1.66338,2.61801 -1.675843,2.639126 -0.018,0.0305 0.270147,0.03833 1.399774,0.03806 H 7.572555 Z M 18.55316,25.50773 c -1.86e-4,-0.03801 -0.0019,-0.739496 -0.0037,-1.558848 l -0.0033,-1.489725 1.57021,-0.008 1.57021,-0.008 v -1.043774 -1.043789 l -1.570647,-0.008 -1.570647,-0.008 0.0046,-1.026987 c 0.0026,-0.564838 0.01249,-1.0348 0.02205,-1.044346 0.0096,-0.0095 0.655495,-0.01857 1.435426,-0.02004 0.779933,-0.0014 1.476988,-0.0049 1.549011,-0.0077 l 0.130952,-0.005 -0.0081,-1.03667 -0.0081,-1.03667 -1.558843,-0.008 -1.558843,-0.008 -5.52e-4,-0.268482 c -2.76e-4,-0.147667 -0.0017,-0.600222 -0.003,-1.005673 -0.0013,-0.405453 -0.0011,-0.75447 5.52e-4,-0.775585 0.0024,-0.03017 0.338325,-0.0384 1.569486,-0.0384 h 1.566523 v -1.04407 -1.044067 l -1.568666,-0.008 -1.568663,-0.008 8.33e-4,-0.675755 c 4.6e-4,-0.37167 0.0014,-0.838175 0.0022,-1.03667 l 0.0014,-0.3609142 h 1.582278 1.582278 l -0.0081,-1.067389 -0.0081,-1.067386 -1.576546,-0.01537 -1.576545,-0.01537 0.0012,-1.028993 c 6.44e-4,-0.565934 0.0017,-1.260678 0.0024,-1.543856 l 0.0012,-0.514862 4.876184,0.0081 4.876185,0.0081 0.162165,0.07328 c 0.09643,0.04358 0.216682,0.133919 0.296654,0.222874 0.255672,0.284368 0.232294,-0.738799 0.232294,10.1670032 v 9.730386 l -0.06351,0.169741 c -0.08346,0.22308 -0.283161,0.422776 -0.506239,0.506236 -0.168961,0.06322 -0.192069,0.06352 -5.021738,0.06352 h -4.852008 l -3.68e-4,-0.06912 z m 8.355203,-4.108284 V 20.3551 h -2.088699 -2.088696 v 1.044346 1.044346 h 2.088696 2.088699 z m -0.268768,-3.159324 0.268768,-0.0044 v -1.044388 -1.044348 h -2.088699 -2.088696 v 1.043196 1.043193 l 0.284123,0.0088 c 0.27475,0.0086 3.078605,0.0069 3.624504,-0.0021 z m 0.268768,-5.226178 v -1.044346 h -2.088699 -2.088696 v 1.044346 1.044348 h 2.088696 2.088699 z m 0,-4.1773852 v -1.044358 h -2.088699 -2.088696 v 1.044358 1.044346 h 2.088696 2.088699 z"
       id="path837-6" />
    <path
       style="fill:url(#linearGradient845);stroke-width:0.0307162;fill-opacity:1"
       d="M 16.77204,28.584578 C 16.139422,28.460043 15.545139,28.34539 15.036579,28.249771 14.86764,28.218004 14.397684,28.127739 13.992231,28.049182 13.586778,27.970619 13.082266,27.873819 12.871092,27.834068 12.659919,27.794319 12.155407,27.697824 11.749954,27.619631 11.344501,27.541449 10.694856,27.416719 10.306296,27.342449 9.9177376,27.268189 9.0192909,27.096134 8.3097484,26.960094 7.6002059,26.824064 5.8447793,26.487668 4.4088001,26.212568 L 1.7979306,25.712372 1.7902056,15.11116 1.7824807,4.5099508 1.943784,4.4777458 c 0.088717,-0.01771 0.5275936,-0.101678 0.9752816,-0.186581 0.4476874,-0.0849 0.8761762,-0.16765 0.9521991,-0.183878 0.076023,-0.01621 0.400845,-0.079 0.7218289,-0.139488 0.3209831,-0.06049 0.7909402,-0.150307 1.0443479,-0.199574 0.2534084,-0.04926 0.7233648,-0.139275 1.0443487,-0.200023 0.3209831,-0.06076 0.9706295,-0.184926 1.4436578,-0.275946 0.4730283,-0.09102 1.1572306,-0.222251 1.5204482,-0.291632 0.3632188,-0.06938 1.0474188,-0.20072 1.5204478,-0.291858 0.473029,-0.09114 0.970629,-0.186563 1.105781,-0.21204 0.135151,-0.02549 0.605107,-0.115471 1.044348,-0.199965 0.43924,-0.08449 1.524287,-0.292183 2.411215,-0.461524 0.886928,-0.169341 1.643696,-0.315345 1.681708,-0.324453 l 0.06912,-0.01656 V 15.102044 c 0,12.940775 -0.0026,13.607654 -0.05376,13.604132 -0.02956,-0.0021 -0.323287,-0.05675 -0.652718,-0.121606 z m -8.6865791,-9.09755 c 1.270481,-2.376836 1.3465116,-2.525737 1.4381676,-2.816637 0.050354,-0.159826 0.091555,-0.315327 0.091555,-0.34556 0,-0.131543 0.057337,-0.03527 0.1197843,0.201136 0.037209,0.140854 0.1127667,0.344732 0.1679025,0.453058 0.1674527,0.329005 1.6480657,3.134368 1.7453447,3.306962 l 0.09089,0.161264 h 1.395329 c 0.767431,0 1.395329,-0.0074 1.395329,-0.01645 0,-0.009 -0.267609,-0.454821 -0.594687,-0.990598 -0.327077,-0.535774 -1.059656,-1.737174 -1.627952,-2.669768 l -1.033266,-1.695631 0.987108,-1.637068 c 0.542908,-0.900389 1.253344,-2.07939 1.578746,-2.619991 l 0.591639,-0.9829202 -1.308551,-0.008 c -1.022005,-0.0062 -1.316277,9.03e-4 -1.343834,0.03072 -0.101519,0.111437 -1.681159,3.1887212 -1.828596,3.5622742 -0.091437,0.231668 -0.1748181,0.421718 -0.1852936,0.422341 -0.010473,9.02e-4 -0.037223,-0.06452 -0.05944,-0.144768 C 9.6429631,13.471001 9.4628368,13.04987 9.1702735,12.445708 9.0230194,12.141617 8.6813774,11.429773 8.4110693,10.863827 8.1407605,10.297884 7.9154242,9.8304208 7.9103207,9.8250198 c -0.012333,-0.01304 -2.8504405,-0.0065 -2.8635486,0.0067 -0.00562,0.0056 0.077681,0.160651 0.1850798,0.3445572 0.2398499,0.410702 0.4104252,0.706158 1.7696402,3.065146 0.5928358,1.028901 1.0778832,1.883524 1.0778832,1.899174 0,0.01567 -0.7439322,1.198789 -1.6531812,2.629191 -0.9092505,1.430402 -1.6633796,2.61801 -1.6758423,2.639126 -0.017997,0.0305 0.2701465,0.03833 1.3997734,0.03806 H 7.5725593 Z M 18.55316,25.50773 c -1.86e-4,-0.03801 -0.0019,-0.739496 -0.0037,-1.558848 l -0.0033,-1.489725 1.57021,-0.008 1.57021,-0.008 v -1.043774 -1.043789 l -1.570647,-0.008 -1.570647,-0.008 0.0046,-1.026987 c 0.0026,-0.564838 0.01249,-1.0348 0.02205,-1.044346 0.0096,-0.0095 0.655495,-0.01857 1.435426,-0.02004 0.779933,-0.0014 1.476988,-0.0049 1.549011,-0.0077 l 0.130952,-0.005 -0.0081,-1.03667 -0.0081,-1.03667 -1.558843,-0.008 -1.558843,-0.008 -5.52e-4,-0.268482 c -2.76e-4,-0.147667 -0.0017,-0.600222 -0.003,-1.005673 -0.0013,-0.405453 -0.0011,-0.75447 5.52e-4,-0.775585 0.0024,-0.03017 0.338325,-0.0384 1.569486,-0.0384 h 1.566523 v -1.04407 -1.044067 l -1.568666,-0.008 -1.568663,-0.008 8.33e-4,-0.675755 c 4.6e-4,-0.37167 0.0014,-0.838175 0.0022,-1.03667 l 0.0014,-0.3609142 h 1.582278 1.582278 l -0.0081,-1.067389 -0.0081,-1.067386 -1.576546,-0.01537 -1.576545,-0.01537 0.0012,-1.028993 c 6.44e-4,-0.565934 0.0017,-1.260678 0.0024,-1.543856 l 0.0012,-0.514862 4.876184,0.0081 4.876185,0.0081 0.162165,0.07328 c 0.09643,0.04358 0.216682,0.133919 0.296654,0.222874 0.255672,0.284368 0.232294,-0.738799 0.232294,10.1670032 v 9.730386 l -0.06351,0.169741 c -0.08346,0.22308 -0.283161,0.422776 -0.506239,0.506236 -0.168961,0.06322 -0.192069,0.06352 -5.021738,0.06352 h -4.852008 l -3.68e-4,-0.06912 z m 8.355203,-4.108284 V 20.3551 h -2.088699 -2.088696 v 1.044346 1.044346 h 2.088696 2.088699 z m -0.268768,-3.159324 0.268768,-0.0044 v -1.044388 -1.044348 h -2.088699 -2.088696 v 1.043196 1.043193 l 0.284123,0.0088 c 0.27475,0.0086 3.078605,0.0069 3.624504,-0.0021 z m 0.268768,-5.226178 v -1.044346 h -2.088699 -2.088696 v 1.044346 1.044348 h 2.088696 2.088699 z m 0,-4.1773852 v -1.044358 h -2.088699 -2.088696 v 1.044358 1.044346 h 2.088696 2.088699 z"
       id="path837" />
  </g>
</svg>
