<?xml version="1.0" encoding="UTF-8" standalone="no"?>
<svg
   xmlns:dc="http://purl.org/dc/elements/1.1/"
   xmlns:cc="http://creativecommons.org/ns#"
   xmlns:rdf="http://www.w3.org/1999/02/22-rdf-syntax-ns#"
   xmlns:svg="http://www.w3.org/2000/svg"
   xmlns="http://www.w3.org/2000/svg"
   xmlns:xlink="http://www.w3.org/1999/xlink"
   xmlns:sodipodi="http://sodipodi.sourceforge.net/DTD/sodipodi-0.dtd"
   xmlns:inkscape="http://www.inkscape.org/namespaces/inkscape"
   version="1.1"
   id="svg2"
   width="30"
   height="30"
   viewBox="0 0 30 30"
   sodipodi:docname="gimp.svg"
   inkscape:version="1.0.1 (3bc2e813f5, 2020-09-07)">
  <metadata
     id="metadata8">
    <rdf:RDF>
      <cc:Work
         rdf:about="">
        <dc:format>image/svg+xml</dc:format>
        <dc:type
           rdf:resource="http://purl.org/dc/dcmitype/StillImage" />
        <dc:title></dc:title>
      </cc:Work>
    </rdf:RDF>
  </metadata>
  <defs
     id="defs6">
    <linearGradient
       inkscape:collect="always"
       id="linearGradient885">
      <stop
         style="stop-color:#c00000;stop-opacity:1"
         offset="0"
         id="stop881" />
      <stop
         style="stop-color:#631111;stop-opacity:1"
         offset="1"
         id="stop883" />
    </linearGradient>
    <linearGradient
       inkscape:collect="always"
       id="linearGradient853">
      <stop
         style="stop-color:#4c525a;stop-opacity:1"
         offset="0"
         id="stop849" />
      <stop
         style="stop-color:#000000;stop-opacity:1"
         offset="1"
         id="stop851" />
    </linearGradient>
    <linearGradient
       inkscape:collect="always"
       xlink:href="#linearGradient853"
       id="linearGradient855"
       x1="33.990368"
       y1="105.79487"
       x2="102.76295"
       y2="105.79487"
       gradientUnits="userSpaceOnUse"
       gradientTransform="matrix(0.41984766,0,0,0.49629826,-13.6135,-38.017229)" />
    <linearGradient
       inkscape:collect="always"
       xlink:href="#linearGradient885"
       id="linearGradient855-3"
       x1="33.990368"
       y1="105.79487"
       x2="102.76295"
       y2="105.79487"
       gradientUnits="userSpaceOnUse"
       gradientTransform="translate(-31.841259,-80.463722)" />
    <filter
       inkscape:collect="always"
       style="color-interpolation-filters:sRGB"
       id="filter963"
       x="-0.042745266"
       width="1.0854905"
       y="-0.054727759"
       height="1.1094555">
      <feGaussianBlur
         inkscape:collect="always"
         stdDeviation="1.224876"
         id="feGaussianBlur965" />
    </filter>
  </defs>
  <sodipodi:namedview
     pagecolor="#ffffff"
     bordercolor="#666666"
     borderopacity="1"
     objecttolerance="10"
     gridtolerance="10"
     guidetolerance="10"
     inkscape:pageopacity="0"
     inkscape:pageshadow="2"
     inkscape:window-width="1920"
     inkscape:window-height="1017"
     id="namedview4"
     showgrid="false"
     inkscape:zoom="9.3946167"
     inkscape:cx="23.744542"
     inkscape:cy="32.947066"
     inkscape:window-x="-8"
     inkscape:window-y="-8"
     inkscape:window-maximized="1"
     inkscape:current-layer="g10"
     inkscape:document-rotation="0" />
  <g
     inkscape:groupmode="layer"
     inkscape:label="Image"
     id="g10">
    <path
       style="opacity:0.9;fill:url(#linearGradient855-3);fill-opacity:1;stroke-width:0.155173;filter:url(#filter963)"
       d="m 69.175861,51.848638 c -3.732958,-1.08932 -6.707668,-2.80273 -7.539796,-4.34286 -0.384505,-0.71166 -0.701995,-1.91135 -0.704253,-2.66114 l -0.0019,-0.62481 -1.149673,-0.26437 c -2.61056,-0.6003 -6.619304,-1.98647 -9.018021,-3.11831 l -1.208173,-0.57008 -0.774022,0.46283 c -1.644605,0.98339 -4.07173,1.88543 -6.482745,2.40931 -2.105417,0.45748 -6.86657,0.56029 -9.479798,0.20472 -4.491949,-0.61121 -9.550478,-2.17406 -13.591462,-4.19914 -1.79876,-0.90142 -4.45024,-2.48864 -5.57445,-3.33696 -0.35037,-0.26438 -0.76867,-0.43603 -1.06258,-0.43603 -0.812381,0 -2.112081,-0.31745 -3.171781,-0.77472 -6.58453,-2.84124 -9.55304,-11.53445 -5.25368,-15.385291 2.15928,-1.93402 5.21177,-2.13213 8.377481,-0.54371 1.20578,0.60501 1.43691,0.60515 1.45097,9.1e-4 0.003,-0.12527 0.21809,-0.59741 0.47816,-1.04921 l 0.47285,-0.82149 v -6.58098 c 0,-3.6195301 0.0535,-6.5795701 0.11893,-6.5778801 0.0654,0.002 0.76117,0.93784 1.54611,2.08033 3.15963,4.5988101 7.412356,7.7962901 11.067289,8.3211201 0.625471,0.0898 0.788056,0.0405 1.675415,-0.50874 1.436554,-0.88908 2.676111,-1.25748 4.543048,-1.35021 1.737004,-0.0863 2.969595,0.12961 4.454386,0.78018 l 0.808152,0.3541 1.820979,-0.50121 c 6.374042,-1.75443 11.415394,-5.4310101 13.541231,-9.8754301 1.965207,-4.10858 2.253768,-4.46592 3.606355,-4.46592 0.622721,0 0.814406,0.078 1.274286,0.51832 0.469947,0.45000002 0.574583,0.69522002 0.793721,1.86010002 0.822983,4.37477998 0.897515,12.12703008 0.174942,18.19648008 -0.814513,6.841701 -2.390306,11.895481 -4.820583,15.460271 -0.44098,0.64683 -0.801781,1.22761 -0.801781,1.29062 0,0.063 0.481674,0.34143 1.070386,0.61871 1.657752,0.7808 4.271928,2.24486 5.645169,3.16157 l 1.2447,0.83089 0.95904,-0.41212 c 0.83284,-0.35789 1.10724,-0.40285 2.08539,-0.34167 1.81259,0.11338 3.394188,1.09937 4.028278,2.51128 0.65337,1.45484 1.14015,5.01658 1.14121,8.35016 6.3e-4,1.97445 0.12864,1.87678 -1.74379,1.33038 z m -1.271748,-4.29134 c -0.004,-1.15463 -0.25498,-2.80752 -0.57694,-3.80185 -0.755,-2.33174 -3.54046,-1.78608 -3.54229,0.69392 -7.9e-4,1.07208 0.28753,1.67128 1.15667,2.40386 0.73156,0.61661 2.40114,1.56565 2.76748,1.57313 0.13644,0.003 0.19724,-0.26808 0.19508,-0.86906 z m -25.606819,-7.22157 c 1.355583,-0.33119 4.36083,-1.40024 4.36083,-1.55127 0,-0.0272 -0.716056,-0.49864 -1.591235,-1.04772 l -1.591235,-0.99834 h -1.70337 c -2.014166,0 -3.698056,-0.18323 -6.293741,-0.68485 -1.938433,-0.37461 -6.886544,-1.6786 -7.088598,-1.86808 -0.0612,-0.0574 1.544379,-0.0826 3.567951,-0.0561 6.877201,0.0902 11.418753,-0.50252 12.555426,-1.63859 0.386655,-0.38645 0.433356,-0.53059 0.363674,-1.12255 -0.04397,-0.37355 -0.299685,-1.12882 -0.568259,-1.67838 -0.268571,-0.54956 -0.436914,-0.9992 -0.374095,-0.9992 0.249824,0 1.895573,1.12678 2.622826,1.79575 0.82055,0.75479 1.360062,1.67106 1.365778,2.31955 0.0032,0.36502 0.153617,0.45004 1.974717,1.11632 1.084179,0.39666 2.042976,0.67874 2.13066,0.62685 0.08768,-0.0519 0.487688,-0.56716 0.888896,-1.14505 2.500059,-3.60099 4.173303,-9.4387 4.854564,-16.936881 0.218403,-2.40382 0.232789,-10.4944201 0.02174,-12.2234701 l -0.139009,-1.13884 -0.404595,0.83515 C 54.773708,9.0519169 49.589634,13.086447 42.81201,15.176627 l -1.071047,0.3303 0.407533,0.63198 c 2.389125,3.704851 1.890102,8.109271 -1.260608,11.126231 -3.620088,3.46642 -9.158449,3.53117 -12.900651,0.15082 l -1.072683,-0.96896 -0.55456,0.44654 c -0.783963,0.63127 -2.285899,1.28376 -3.457004,1.50183 -0.959225,0.17862 -2.810562,0.12984 -3.400932,-0.0896 -0.24638,-0.0916 -0.27772,0.005 -0.27939,0.86212 -0.004,1.82007 -0.75851,3.59083 -1.99698,4.68395 l -0.67321,0.59421 1.22369,0.75164 c 4.40693,2.70693 9.617952,4.54322 15.561608,5.48368 0.479691,0.0759 2.335026,0.11635 4.122966,0.0899 2.862679,-0.0424 3.440129,-0.0944 4.836556,-0.43554 z m -27.395256,-8.1846 c 0.98273,-0.62273 1.48893,-1.73313 1.48312,-3.25337 -0.009,-2.24418 -0.9711,-4.30652 -2.86765,-6.1443 -1.3517,-1.30981 -3.017431,-2.2059 -4.362521,-2.34685 -0.78604,-0.0824 -0.78867,-0.0812 -0.30483,0.1342 0.63498,0.2827 1.40184,1.18227 1.6303,1.91243 0.57585,1.84044 -0.26831,4.01151 -1.77187,4.55702 -1.18034,0.42823 -2.41768,-0.0765 -3.13929,-1.28057 -0.57787,-0.96422 -0.61865,-0.51358 -0.0817,0.90288 0.99288,2.61925 3.26235,4.90275 5.69514,5.73036 1.232011,0.41911 2.870971,0.32578 3.719321,-0.2118 z m 19.625051,-5.4849 c -2.457256,-1.29742 -2.99904,-4.04123 -1.241813,-6.28904 0.466215,-0.59638 0.741479,-0.65098 0.524298,-0.104 -0.375534,0.9458 0.04722,2.05037 0.965157,2.52177 2.385606,1.22511 4.472764,-2.17619 2.162938,-3.524791 l -0.507672,-0.29641 0.416145,-6e-4 c 1.267554,-0.002 2.698051,0.926751 3.436806,2.230711 l 0.499426,0.88152 0.0042,-0.99738 c 0.01045,-2.467421 -1.458777,-4.699431 -3.773332,-5.732351 -0.800396,-0.35719 -1.094197,-0.40211 -2.644754,-0.40439 -1.591697,-0.002 -1.823317,0.0346 -2.646978,0.42188 -0.496456,0.23345 -1.257423,0.7299 -1.691041,1.10321 -3.309882,2.84954 -2.573377,8.082401 1.409578,10.015041 1.006376,0.48832 1.725391,0.64699 3.007729,0.66371 l 1.030741,0.0134 -0.951454,-0.50236 z m -13.262601,-1.28478 c -0.65422,-0.32623 -0.97208,-0.61548 -1.3766,-1.25272 -0.4877,-0.76827 -0.52212,-0.90793 -0.47315,-1.91984 0.0445,-0.91987 0.12715,-1.1923 0.52597,-1.7342 0.55619,-0.75572 0.98242,-0.994261 0.69418,-0.38849 -0.48355,1.01623 0.42584,2.227 1.672661,2.227 1.752134,0 2.447562,-2.16476 0.983968,-3.062941 l -0.499023,-0.30624 0.586557,0.0794 c 0.322606,0.0437 0.84251,0.19572 1.155344,0.33787 0.312831,0.14215 0.591228,0.232421 0.618657,0.200611 0.02743,-0.0318 0.128808,-0.365141 0.225287,-0.740731 0.168658,-0.65658 0.156807,-0.70128 -0.307543,-1.16003 -1.791442,-1.76985 -4.946068,-1.89531 -6.922558,-0.27531 -0.97518,0.79928 -1.6414,2.197631 -1.64901,3.461141 -0.005,0.86988 0.05,1.0661 0.41848,1.48538 0.23348,0.2657 0.66481,0.94 0.9585,1.49844 0.2937,0.55844 0.70358,1.12175 0.91086,1.2518 0.63258,0.39688 1.74433,0.70812 2.55671,0.71576 l 0.771341,0.007 -0.850631,-0.42417 z m -2.09257,-11.558031 0.81954,-0.25179 -1.00688,-0.94377 c -0.55378,-0.51907 -1.04746,-0.94377 -1.09705,-0.94377 -0.0496,0 -0.0902,0.58812 -0.0902,1.30693 0,1.18588 0.0257,1.2966 0.27751,1.19555 0.15263,-0.0613 0.6463,-0.22467 1.09705,-0.36315 z"
       id="path839-6"
       transform="matrix(0.41984765,0,0,0.49629826,-0.24502198,1.9167762)" />
    <path
       style="fill:url(#linearGradient855);fill-opacity:1;stroke-width:0.0708329"
       d="m 28.798301,27.64916 c -1.567273,-0.540628 -2.816198,-1.39099 -3.165565,-2.155353 -0.161434,-0.353196 -0.294731,-0.948601 -0.29568,-1.320719 L 25.336288,23.862996 24.8536,23.731789 c -1.096038,-0.297928 -2.779099,-0.985882 -3.786195,-1.547612 l -0.507249,-0.28293 -0.324971,0.229702 c -0.690483,0.488055 -1.709506,0.935736 -2.721765,1.195737 -0.883955,0.227046 -2.882914,0.27807 -3.980071,0.101602 C 11.647414,23.124945 9.5236022,22.349305 7.8270047,21.344262 7.0717994,20.896889 5.9585824,20.109155 5.4865853,19.688134 5.3394548,19.556923 5.1638325,19.471733 5.0404351,19.471733 c -0.3410758,0 -0.8867518,-0.157549 -1.3316643,-0.384491 -2.7644996,-1.410103 -4.01082153,-5.724528 -2.2057453,-7.635694 0.9065686,-0.959851 2.1881494,-1.058172 3.5172654,-0.269842 0.5062438,0.300265 0.603283,0.300335 0.6091861,4.51e-4 0.00124,-0.06217 0.091565,-0.296493 0.2007548,-0.520721 L 6.0287565,10.253732 V 6.9876083 c 0,-1.7963667 0.02246,-3.2654296 0.049935,-3.2645908 0.027457,9.935e-4 0.3195747,0.4654483 0.6491301,1.0324641 1.3265636,2.2823818 3.1120603,3.8692852 4.6465764,4.1297572 0.262602,0.04457 0.330863,0.0201 0.703419,-0.252487 0.603133,-0.4412481 1.123558,-0.6240844 1.907388,-0.6701059 0.729277,-0.042833 1.246777,0.064325 1.870163,0.3872014 l 0.339301,0.1757394 0.764534,-0.2487497 c 2.676126,-0.8707202 4.792726,-2.695401 5.685254,-4.9011588 0.825088,-2.0390812 0.946239,-2.2164284 1.514119,-2.2164284 0.261448,0 0.341927,0.038712 0.535007,0.2572414 0.197305,0.2233342 0.241237,0.3450364 0.333242,0.9231644 0.345527,2.1711956 0.376819,6.0186241 0.07345,9.0308764 -0.341972,3.395525 -1.003565,5.903707 -2.023911,7.672906 -0.185144,0.32102 -0.336626,0.609261 -0.336626,0.640532 0,0.03127 0.202229,0.169451 0.449399,0.307065 0.696003,0.38751 1.793559,1.114121 2.370111,1.569082 l 0.522585,0.412369 0.40265,-0.204534 c 0.349666,-0.177621 0.464872,-0.199934 0.875546,-0.169571 0.761012,0.05627 1.425042,0.545616 1.691263,1.246344 0.274316,0.722035 0.47869,2.48972 0.479135,4.14417 2.64e-4,0.979916 0.05401,0.931443 -0.732126,0.660265 z m -0.53394,-2.129784 c -0.0017,-0.573041 -0.107053,-1.393368 -0.242227,-1.886851 -0.316985,-1.157239 -1.486454,-0.886429 -1.487222,0.344391 -3.32e-4,0.532071 0.120719,0.829453 0.485625,1.193032 0.307144,0.306021 1.008113,0.777029 1.16192,0.780741 0.05729,0.0015 0.08281,-0.133048 0.0819,-0.431313 z M 17.513398,21.935323 c 0.569138,-0.164369 1.830884,-0.694936 1.830884,-0.769892 0,-0.0135 -0.300634,-0.247474 -0.668076,-0.519982 L 18.00813,20.149974 h -0.715156 c -0.845643,0 -1.55262,-0.09094 -2.642413,-0.339889 -0.813846,-0.185919 -2.891299,-0.833086 -2.976131,-0.927125 -0.0257,-0.02849 0.648404,-0.04099 1.497996,-0.02784 2.887376,0.04477 4.794137,-0.249399 5.271366,-0.813229 0.162336,-0.191794 0.181944,-0.263332 0.152688,-0.55712 -0.01846,-0.185392 -0.125822,-0.560231 -0.238583,-0.832977 -0.112758,-0.272746 -0.183437,-0.495901 -0.157062,-0.495901 0.104888,0 0.795851,0.559219 1.101187,0.891228 0.344506,0.3746 0.571019,0.829344 0.573419,1.151188 0.0014,0.181159 0.0645,0.223354 0.82908,0.554028 0.45519,0.196861 0.857739,0.336857 0.894552,0.311105 0.03681,-0.02576 0.204755,-0.281481 0.373202,-0.568287 1.049643,-1.787165 1.752151,-4.68441 2.038177,-8.405744 0.0917,-1.1930072 0.09774,-5.2083586 0.0091,-6.0664829 L 23.961216,3.4577213 23.791348,3.8722047 C 22.751591,6.409227 20.57507,8.4115572 17.7295,9.4489098 l -0.449676,0.163928 0.171102,0.313646 c 1.003068,1.8387102 0.793555,4.0246162 -0.529264,5.5219282 -1.519885,1.720379 -3.845153,1.752513 -5.416308,0.07485 L 11.054991,15.04237 10.82216,15.263987 c -0.329145,0.313298 -0.9597297,0.637127 -1.4514153,0.745355 -0.4027284,0.08865 -1.1800082,0.06444 -1.4278738,-0.04447 -0.1034416,-0.04546 -0.1166001,0.0025 -0.1173009,0.427869 -0.00166,0.903298 -0.318459,1.782123 -0.8384273,2.324636 L 6.704497,19.012283 7.2182601,19.38532 c 1.8502392,1.343445 4.0380749,2.254793 6.5335049,2.721541 0.201398,0.03767 0.980356,0.05774 1.731018,0.04462 1.201889,-0.02104 1.44433,-0.04685 2.030617,-0.216159 z M 6.0115636,17.873321 C 6.4241606,17.56426 6.6366871,17.013171 6.6342477,16.258679 6.630463,15.144896 6.2265341,14.12136 5.4302721,13.209273 4.862764,12.559217 4.1634112,12.114489 3.5986783,12.044536 c -0.330017,-0.0409 -0.3311212,-0.0403 -0.1279822,0.0666 0.2665949,0.140304 0.5885592,0.586758 0.6844777,0.949135 0.2417692,0.913408 -0.1126494,1.990906 -0.7439155,2.261641 -0.495563,0.212531 -1.0150573,-0.03796 -1.3180235,-0.635544 -0.2426174,-0.478541 -0.2597388,-0.254889 -0.034302,0.448098 0.4168583,1.299929 1.36969,2.433226 2.3910912,2.843967 0.5172565,0.208004 1.2053701,0.161685 1.5615477,-0.105115 z m 8.2395324,-2.722147 c -1.031674,-0.643907 -1.25914,-2.005655 -0.521373,-3.121239 0.19574,-0.295983 0.311309,-0.323081 0.220125,-0.05161 -0.157667,0.469399 0.01983,1.017595 0.40522,1.25155 1.00159,0.608021 1.877879,-1.080039 0.908104,-1.749348 l -0.213145,-0.147107 0.174718,-2.98e-4 c 0.532179,-10e-4 1.13277,0.459945 1.442935,1.107098 l 0.209682,0.437497 0.0018,-0.494998 c 0.0044,-1.224576 -0.612464,-2.332319 -1.584224,-2.8449512 -0.336045,-0.177272 -0.459396,-0.199567 -1.110394,-0.200698 -0.66827,-10e-4 -0.765516,0.01717 -1.111328,0.209379 -0.208435,0.11586 -0.527925,0.362242 -0.709979,0.5475162 -1.389646,1.414222 -1.080426,4.011281 0.591808,4.970447 0.422524,0.242352 0.724401,0.3211 1.262788,0.329398 l 0.432754,0.0066 -0.399466,-0.24932 z M 8.682823,14.51354 C 8.4081507,14.351632 8.2746978,14.208078 8.1048609,13.891818 7.9001014,13.510526 7.8856501,13.441214 7.9062102,12.939004 c 0.018681,-0.45653 0.053383,-0.591737 0.220827,-0.86068 0.2335154,-0.375063 0.4124671,-0.493451 0.29145,-0.192807 -0.2030173,0.504353 0.1787878,1.105256 0.702263,1.105256 0.7356292,0 1.0276028,-1.074367 0.4131164,-1.520132 l -0.2095136,-0.151987 0.2462648,0.0394 c 0.1354452,0.02168 0.3537258,0.09713 0.4850682,0.167684 0.131342,0.07055 0.248226,0.11535 0.259742,0.09956 0.01151,-0.01578 0.05408,-0.181219 0.09459,-0.367623 0.07081,-0.32586 0.06583,-0.348044 -0.129121,-0.575721 C 9.5287602,9.8035848 8.2042978,9.7413198 7.3744731,10.545318 c -0.4094268,0.396681 -0.6891381,1.09068 -0.6923327,1.717758 -0.00213,0.43172 0.020994,0.529104 0.1756973,0.737191 0.098026,0.131867 0.2791194,0.466521 0.4024244,0.743674 0.1233092,0.277153 0.2953963,0.556723 0.382422,0.621266 0.2655877,0.196971 0.732353,0.351439 1.0734289,0.355231 l 0.3238458,0.0035 -0.3571357,-0.210515 z M 7.8042624,8.7773138 8.1483448,8.6523508 7.7256087,8.1839596 C 7.4931051,7.926346 7.2858346,7.7155681 7.2650143,7.7155681 c -0.020822,0 -0.037871,0.2918834 -0.037871,0.648627 0,0.5885507 0.010792,0.6435007 0.116512,0.5933497 0.064081,-0.03043 0.2713477,-0.111503 0.4605938,-0.180231 z"
       id="path839" />
  </g>
</svg>
