<?xml version="1.0" encoding="UTF-8" standalone="no"?>
<svg
   xmlns:dc="http://purl.org/dc/elements/1.1/"
   xmlns:cc="http://creativecommons.org/ns#"
   xmlns:rdf="http://www.w3.org/1999/02/22-rdf-syntax-ns#"
   xmlns:svg="http://www.w3.org/2000/svg"
   xmlns="http://www.w3.org/2000/svg"
   xmlns:xlink="http://www.w3.org/1999/xlink"
   xmlns:sodipodi="http://sodipodi.sourceforge.net/DTD/sodipodi-0.dtd"
   xmlns:inkscape="http://www.inkscape.org/namespaces/inkscape"
   version="1.1"
   id="svg2"
   width="30"
   height="30"
   viewBox="0 0 30 30"
   sodipodi:docname="inkscape.svg"
   inkscape:version="1.0.1 (3bc2e813f5, 2020-09-07)">
  <metadata
     id="metadata8">
    <rdf:RDF>
      <cc:Work
         rdf:about="">
        <dc:format>image/svg+xml</dc:format>
        <dc:type
           rdf:resource="http://purl.org/dc/dcmitype/StillImage" />
        <dc:title></dc:title>
      </cc:Work>
    </rdf:RDF>
  </metadata>
  <defs
     id="defs6">
    <linearGradient
       inkscape:collect="always"
       id="linearGradient875">
      <stop
         style="stop-color:#c00000;stop-opacity:1"
         offset="0"
         id="stop871" />
      <stop
         style="stop-color:#631111;stop-opacity:1"
         offset="1"
         id="stop873" />
    </linearGradient>
    <linearGradient
       inkscape:collect="always"
       id="linearGradient843">
      <stop
         style="stop-color:#4c525a;stop-opacity:1"
         offset="0"
         id="stop839" />
      <stop
         style="stop-color:#000000;stop-opacity:1"
         offset="1"
         id="stop841" />
    </linearGradient>
    <linearGradient
       inkscape:collect="always"
       xlink:href="#linearGradient843"
       id="linearGradient845"
       x1="2.156508"
       y1="24.643744"
       x2="48.316109"
       y2="24.643744"
       gradientUnits="userSpaceOnUse"
       gradientTransform="matrix(0.59591199,0,0,0.59591199,-0.02493193,-0.2858205)" />
    <linearGradient
       inkscape:collect="always"
       xlink:href="#linearGradient875"
       id="linearGradient845-3"
       x1="2.156508"
       y1="24.643744"
       x2="48.316109"
       y2="24.643744"
       gradientUnits="userSpaceOnUse" />
    <filter
       inkscape:collect="always"
       style="color-interpolation-filters:sRGB"
       id="filter953"
       x="-0.048055179"
       width="1.0961103"
       y="-0.047944944"
       height="1.0958899">
      <feGaussianBlur
         inkscape:collect="always"
         stdDeviation="0.9242533"
         id="feGaussianBlur955" />
    </filter>
  </defs>
  <sodipodi:namedview
     pagecolor="#ffffff"
     bordercolor="#666666"
     borderopacity="1"
     objecttolerance="10"
     gridtolerance="10"
     guidetolerance="10"
     inkscape:pageopacity="0"
     inkscape:pageshadow="2"
     inkscape:window-width="1920"
     inkscape:window-height="1017"
     id="namedview4"
     showgrid="false"
     inkscape:zoom="4.0596241"
     inkscape:cx="79.074288"
     inkscape:cy="69.786473"
     inkscape:window-x="-8"
     inkscape:window-y="-8"
     inkscape:window-maximized="1"
     inkscape:current-layer="g10"
     inkscape:document-rotation="0" />
  <g
     inkscape:groupmode="layer"
     inkscape:label="Image"
     id="g10">
    <path
       style="opacity:0.9;fill:url(#linearGradient845-3);fill-opacity:1;stroke-width:0.107101;filter:url(#filter953)"
       d="m 23.299886,47.61203 c -0.58868,-0.259623 -0.838274,-0.573441 -1.060974,-1.333925 -0.475314,-1.623086 -1.064496,-2.093115 -3.195588,-2.549457 -1.825278,-0.390847 -2.647355,-0.892297 -2.647355,-1.614837 0,-0.314344 0.343028,-0.854569 0.959859,-1.511585 1.08707,-1.157893 1.356215,-1.755857 1.051241,-2.335426 C 18.096303,37.676303 16.650681,37.020883 12.785062,35.717912 8.979611,34.43522 7.58111,33.740615 7.58111,33.133226 c 0,-0.444769 0.538915,-0.843187 2.400229,-1.774464 1.013855,-0.507283 1.826115,-0.98457 1.951563,-1.146786 0.246657,-0.318861 0.279214,-0.708044 0.0738,-0.881418 C 11.696312,29.068576 10.317106,28.636196 7.669945,27.970993 4.668937,27.216865 3.485266,26.753335 2.811916,26.06856 1.495094,24.729394 2.166182,22.622645 4.792421,19.851168 5.3624,19.249659 9.326862,15.118195 13.602312,10.670134 18.972291,5.083368 21.550084,2.475654 21.939264,2.23638 22.948588,1.615806 23.33135,1.51832 24.785992,1.511365 c 1.119752,-0.0053 1.424728,0.03089 1.948669,0.231671 1.329783,0.509596 1.228669,0.411882 11.486305,11.101409 2.622099,2.732528 5.614622,5.843074 6.650001,6.912322 1.035381,1.069251 2.079571,2.187105 2.320437,2.484118 0.512364,0.631773 1.012726,1.658186 1.101629,2.259862 0.150998,1.021464 -0.447373,2.19288 -1.551098,3.036633 -1.453173,1.1109 -2.962567,1.776064 -7.613386,3.355089 -3.455502,1.173194 -4.782222,1.769133 -4.93259,2.21563 -0.170006,0.50476 0.29717,0.917824 2.320604,2.051931 1.099109,0.616026 1.863793,1.345506 1.862365,1.776686 0,0.45756 -0.444057,1.356349 -0.892352,1.812243 -0.550961,0.56033 -0.977858,0.748602 -2.717505,1.198475 -0.974419,0.251986 -1.890939,0.571113 -2.495769,0.869014 -0.968378,0.476953 -2.23531,1.44356 -2.567094,1.958539 -0.161026,0.249911 -0.164257,0.3123 -0.02854,0.551972 0.08417,0.14862 0.461679,0.436293 0.838944,0.639275 0.850355,0.45749 1.066384,0.652249 1.066384,0.96126 0,0.338989 -0.53552,0.781779 -1.651916,1.365842 -1.127934,0.590099 -2.486455,1.09032 -3.591692,1.322483 -1.028163,0.215983 -2.545402,0.214088 -3.039472,-0.0039 z m 2.208499,-14.343574 c 0.397613,-0.209105 0.68375,-0.553862 0.640997,-0.772375 -0.02937,-0.149486 -0.645612,-0.30806 -3.336139,-0.858287 -1.815166,-0.371208 -3.897464,-0.826938 -4.627324,-1.01273 -1.423007,-0.36222 -1.683761,-0.39802 -1.683761,-0.23115 0,0.452475 4.565229,2.341399 6.903204,2.856289 0.903387,0.198954 1.74552,0.206264 2.103023,0.01825 z m 2.460779,-19.829982 c 0.07229,0 0.723819,0.319579 1.447845,0.710179 0.723986,0.390595 1.321642,0.694362 1.328104,0.675029 0.0062,-0.01933 0.161908,-0.927475 0.34542,-2.018099 l 0.333632,-1.98295 1.685061,1.374558 c 1.281954,1.045755 1.707046,1.339239 1.777028,1.226917 0.145251,-0.233161 0.11026,-1.254059 -0.05604,-1.636185 C 34.626846,11.32066 34.511258,11.195154 30.646605,7.24533 28.346054,4.894057 27.126531,3.725693 26.791011,3.551409 26.045754,3.164287 25.046498,3.008776 24.29113,3.162349 23.00901,3.42301 22.834264,3.567196 18.918844,7.595357 c -4.010324,4.125856 -4.222116,4.401594 -4.222116,5.497105 0,0.520436 0.03945,0.623628 0.363336,0.953149 l 0.363376,0.36953 2.093585,-0.02932 2.093582,-0.02932 1.106663,-1.944094 c 0.60865,-1.069246 1.144758,-2.010205 1.191287,-2.091013 0.05176,-0.08991 0.364594,0.999797 0.806135,2.808131 0.396816,1.625281 0.739215,2.988107 0.760864,3.0285 0.02181,0.0404 1.011969,-0.554984 2.200738,-1.323064 1.18877,-0.768074 2.220541,-1.396502 2.292872,-1.396502 z m -15.94094,28.635904 c -1.134436,-0.731653 -1.040245,-1.84149 0.215275,-2.536429 1.321559,-0.731478 3.169745,-0.735173 3.841747,-0.0076 l 0.251565,0.272313 -0.252403,0.483876 c -0.358806,0.687808 -1.464252,1.70597 -2.086243,1.921504 -0.785912,0.272317 -1.405765,0.230284 -1.969941,-0.133591 z m 27.707761,-0.452937 c -0.769843,-0.413366 -0.924492,-1.339507 -0.351253,-2.103793 0.334134,-0.445525 0.552891,-0.465468 1.278596,-0.116561 0.932254,0.448195 1.555337,1.369532 1.291351,1.909514 -0.25425,0.520092 -1.503142,0.695063 -2.218694,0.310845 z m 2.201787,-3.713676 c -0.863613,-0.200647 -1.214951,-0.349583 -1.289254,-0.546494 -0.10439,-0.276625 0.169249,-0.775542 0.70477,-1.284936 0.678968,-0.64589 1.706712,-0.980538 2.773054,-0.902946 1.421371,0.103425 2.811401,1.106292 2.728329,1.968448 -0.02644,0.272991 -0.120282,0.372879 -0.562582,0.597772 -0.487313,0.247786 -0.662142,0.271915 -2.124043,0.293108 -1.046875,0.0152 -1.811557,-0.02765 -2.230274,-0.124946 z"
       id="path837-6"
       transform="matrix(0.59591199,0,0,0.59591199,-0.02493193,-0.2858205)" />
    <path
       style="fill:url(#linearGradient845);fill-opacity:1;stroke-width:0.0638228"
       d="m 13.85975,28.086757 c -0.350802,-0.154712 -0.499538,-0.34172 -0.632248,-0.794902 -0.283245,-0.967216 -0.634346,-1.247312 -1.904289,-1.519252 -1.087705,-0.23291 -1.5775904,-0.53173 -1.5775904,-0.9623 0,-0.187322 0.2044145,-0.509248 0.5719914,-0.900772 0.647798,-0.690002 0.808185,-1.046336 0.626447,-1.391708 C 10.758872,22.165938 9.8974086,21.775366 7.5938398,20.99891 5.3261257,20.234538 4.4927421,19.820615 4.4927421,19.458664 c 0,-0.265043 0.3211461,-0.502465 1.430325,-1.057424 C 6.527236,18.098944 7.0112715,17.814523 7.0860275,17.717857 7.2330133,17.527843 7.2524144,17.295925 7.1300058,17.192609 6.9450407,17.036491 6.1231553,16.77883 4.5456797,16.382428 2.7573434,15.933034 2.0519795,15.656811 1.6507221,15.248745 0.86601227,14.45072 1.2659215,13.195283 2.8309289,11.543727 3.1705865,11.18528 5.533057,8.7232914 8.0808489,6.0726385 11.280884,2.7434177 12.817022,1.1894501 13.048939,1.0468633 c 0.601468,-0.36980711 0.82956,-0.42790037 1.696399,-0.43204512 0.667274,-0.003188 0.849012,0.0184065 1.161235,0.13805589 0.792434,0.30367403 0.732179,0.2454456 6.844827,6.61546243 1.56254,1.6283462 3.345821,3.4819575 3.962815,4.1191355 0.616996,0.63718 1.239242,1.303322 1.382777,1.480316 0.305323,0.376481 0.603495,0.988133 0.656474,1.346679 0.08998,0.608702 -0.266595,1.306763 -0.924318,1.809566 -0.865964,0.661998 -1.76543,1.058378 -4.536908,1.999337 -2.059175,0.699121 -2.849784,1.054248 -2.93939,1.320321 -0.101308,0.300792 0.177087,0.546942 1.382876,1.22277 0.654972,0.367098 1.110656,0.801803 1.109806,1.058749 0,0.272665 -0.264619,0.808264 -0.531764,1.079937 -0.328324,0.333907 -0.582717,0.446101 -1.619394,0.714186 -0.580668,0.150161 -1.126833,0.340333 -1.487258,0.517856 -0.577068,0.284222 -1.332048,0.860234 -1.529762,1.167116 -0.09596,0.148925 -0.09788,0.186104 -0.01701,0.328927 0.05016,0.08856 0.27512,0.259992 0.499937,0.380952 0.506737,0.272624 0.635471,0.388683 0.635471,0.572826 0,0.202008 -0.319123,0.465872 -0.984396,0.813922 -0.67215,0.351647 -1.481709,0.649735 -2.140333,0.788083 -0.612694,0.128707 -1.516835,0.127578 -1.811258,-0.0023 z m 1.316071,-8.547507 c 0.236942,-0.124609 0.407454,-0.330053 0.381977,-0.460268 -0.0175,-0.08908 -0.384728,-0.183577 -1.988045,-0.511463 -1.081679,-0.221208 -2.322545,-0.492783 -2.757478,-0.603498 -0.8479866,-0.215852 -1.0033731,-0.237185 -1.0033731,-0.137745 0,0.269635 2.7204751,1.395267 4.1137021,1.702096 0.538339,0.11856 1.040176,0.122916 1.253217,0.01088 z M 16.642228,7.7223255 c 0.04308,0 0.431333,0.190441 0.862789,0.4232042 0.431431,0.2327603 0.787582,0.4137787 0.791433,0.4022579 0.0037,-0.011519 0.09648,-0.5526935 0.20584,-1.2026094 l 0.198815,-1.1816637 1.004148,0.8191162 c 0.763932,0.6231773 1.017249,0.798068 1.058952,0.731134 C 20.850762,7.5748212 20.82991,6.9664565 20.73081,6.738743 20.609621,6.4602948 20.540741,6.3855042 18.237748,4.0317567 16.866822,2.630605 16.140093,1.934363 15.940153,1.830505 15.496045,1.5998143 14.900577,1.5071437 14.450444,1.5986598 13.686413,1.7539904 13.58228,1.8399126 11.249034,4.2403423 8.8592339,6.6989897 8.7330245,6.8633053 8.7330245,7.5161328 c 0,0.3101341 0.023509,0.3716274 0.2165163,0.5679929 l 0.2165401,0.2202074 1.2475921,-0.017472 1.247591,-0.017472 0.659474,-1.1585083 c 0.362702,-0.6371771 0.682175,-1.1979059 0.709902,-1.2460603 0.03084,-0.053578 0.217266,0.595791 0.480385,1.6733989 0.236468,0.9685245 0.440508,1.7806488 0.453408,1.8047195 0.013,0.024075 0.603045,-0.3307216 1.311447,-0.7884297 0.708402,-0.4577045 1.323247,-0.8321923 1.366349,-0.8321923 z M 7.142831,24.786804 C 6.466807,24.350803 6.5229365,23.689438 7.2711159,23.275316 8.0586488,22.839419 9.160005,22.837217 9.5604591,23.270787 l 0.1499106,0.162274 -0.15041,0.288348 C 9.3461429,24.131282 8.6873944,24.738017 8.3167425,24.866456 7.8484081,25.028733 7.4790302,25.003685 7.142831,24.786848 Z m 16.511387,-0.26991 c -0.458759,-0.24633 -0.550916,-0.798229 -0.209316,-1.253676 0.199115,-0.265494 0.329475,-0.277378 0.761931,-0.06946 0.555541,0.267085 0.926844,0.816121 0.769531,1.137902 -0.15151,0.309929 -0.89574,0.414197 -1.322146,0.185237 z m 1.312071,-2.213025 c -0.514637,-0.119567 -0.724004,-0.20832 -0.768282,-0.325662 -0.06221,-0.164844 0.100858,-0.462155 0.419981,-0.765709 0.404605,-0.384893 1.01705,-0.584314 1.652496,-0.538076 0.847012,0.06163 1.675348,0.659253 1.625844,1.173022 -0.01576,0.162678 -0.07168,0.222203 -0.335249,0.356219 -0.290396,0.147659 -0.394578,0.162038 -1.265743,0.174667 -0.623845,0.0091 -1.079528,-0.01648 -1.329047,-0.07446 z"
       id="path837" />
  </g>
</svg>
