<?xml version="1.0" encoding="UTF-8" standalone="no"?>
<svg
   xmlns:dc="http://purl.org/dc/elements/1.1/"
   xmlns:cc="http://creativecommons.org/ns#"
   xmlns:rdf="http://www.w3.org/1999/02/22-rdf-syntax-ns#"
   xmlns:svg="http://www.w3.org/2000/svg"
   xmlns="http://www.w3.org/2000/svg"
   xmlns:xlink="http://www.w3.org/1999/xlink"
   xmlns:sodipodi="http://sodipodi.sourceforge.net/DTD/sodipodi-0.dtd"
   xmlns:inkscape="http://www.inkscape.org/namespaces/inkscape"
   version="1.1"
   id="svg2"
   width="30"
   height="30"
   viewBox="0 0 30 30"
   sodipodi:docname="krita.svg"
   inkscape:version="1.0.1 (3bc2e813f5, 2020-09-07)">
  <metadata
     id="metadata8">
    <rdf:RDF>
      <cc:Work
         rdf:about="">
        <dc:format>image/svg+xml</dc:format>
        <dc:type
           rdf:resource="http://purl.org/dc/dcmitype/StillImage" />
        <dc:title></dc:title>
      </cc:Work>
    </rdf:RDF>
  </metadata>
  <defs
     id="defs6">
    <linearGradient
       inkscape:collect="always"
       id="linearGradient875">
      <stop
         style="stop-color:#c00000;stop-opacity:1"
         offset="0"
         id="stop871" />
      <stop
         style="stop-color:#631111;stop-opacity:1"
         offset="1"
         id="stop873" />
    </linearGradient>
    <linearGradient
       inkscape:collect="always"
       id="linearGradient843">
      <stop
         style="stop-color:#4c525a;stop-opacity:1"
         offset="0"
         id="stop839" />
      <stop
         style="stop-color:#000000;stop-opacity:1"
         offset="1"
         id="stop841" />
    </linearGradient>
    <linearGradient
       inkscape:collect="always"
       xlink:href="#linearGradient843"
       id="linearGradient845"
       x1="0.59260315"
       y1="15.671315"
       x2="29.5058"
       y2="15.671315"
       gradientUnits="userSpaceOnUse" />
    <linearGradient
       inkscape:collect="always"
       xlink:href="#linearGradient875"
       id="linearGradient845-0"
       x1="25.009115"
       y1="13.315206"
       x2="4.1254263"
       y2="14.064877"
       gradientUnits="userSpaceOnUse" />
    <filter
       inkscape:collect="always"
       style="color-interpolation-filters:sRGB"
       id="filter953"
       x="-0.046497961"
       width="1.0929959"
       y="-0.04960232"
       height="1.0992046">
      <feGaussianBlur
         inkscape:collect="always"
         stdDeviation="0.56016863"
         id="feGaussianBlur955" />
    </filter>
  </defs>
  <sodipodi:namedview
     pagecolor="#ffffff"
     bordercolor="#666666"
     borderopacity="1"
     objecttolerance="10"
     gridtolerance="10"
     guidetolerance="10"
     inkscape:pageopacity="0"
     inkscape:pageshadow="2"
     inkscape:window-width="1920"
     inkscape:window-height="1017"
     id="namedview4"
     showgrid="false"
     inkscape:zoom="9.3374309"
     inkscape:cx="26.802151"
     inkscape:cy="26.135978"
     inkscape:window-x="-8"
     inkscape:window-y="-8"
     inkscape:window-maximized="1"
     inkscape:current-layer="g10" />
  <g
     inkscape:groupmode="layer"
     inkscape:label="Image"
     id="g10">
    <path
       style="opacity:0.9;fill:url(#linearGradient845-0);fill-opacity:1;stroke-width:0.128809;filter:url(#filter953)"
       d="M 14.531038,29.118268 C 11.655166,28.759041 8.779263,27.339272 6.720262,25.26225 2.396137,20.90029 1.646652,14.067588 4.91617,8.815321 5.103523,8.514357 5.291598,8.26801 5.334123,8.267883 c 0.04253,-1.26e-4 1.083176,1.086594 2.312559,2.414934 2.980657,3.220568 3.833613,4.036223 5.106433,4.883128 1.130114,0.75195 2.522032,1.32462 3.230677,1.329179 0.324039,0.0021 0.803529,0.275778 2.060941,1.176394 1.494789,1.070635 1.650917,1.22054 1.778295,1.707449 0.178503,0.682346 0.319889,0.949845 1.167977,2.209754 0.782629,1.162665 0.948781,1.768723 0.649422,2.368807 -0.10911,0.218705 -0.167108,0.397647 -0.128895,0.397647 0.03823,0 0.345495,-0.202616 0.682849,-0.450257 0.745246,-0.547064 1.197714,-1.122832 1.637816,-2.084136 0.961459,-2.100115 -0.251684,-4.807706 -2.154119,-4.807706 -0.324601,0 -0.680543,-0.25849 -1.962052,-1.42487 C 18.664302,15.030963 18.101914,14.421977 18.002435,14.13261 17.719489,13.309578 17.117737,12.448859 16.149186,11.481804 15.092375,10.426633 14.198675,9.814558 10.166073,7.384118 L 7.524652,5.792135 7.87203,5.506652 C 10.684047,3.195679 14.789004,2.14359 18.475037,2.78913 c 8.698646,1.523405 13.534031,10.925127 9.703689,18.867446 -1.382842,2.867348 -3.501088,4.958775 -6.396703,6.315705 -2.282947,1.069824 -4.745236,1.458979 -7.250985,1.145987 z m 3.123143,-2.377202 c 1.289585,-0.26637 2.52012,-0.829049 2.822506,-1.290629 0.467088,-0.712979 0.315957,-1.319941 -0.704289,-2.828563 -0.546585,-0.808236 -0.948838,-1.548221 -0.996405,-1.833009 -0.04385,-0.262677 -0.0897,-0.521639 -0.101839,-0.575473 -0.01211,-0.05383 -0.236502,0.04782 -0.498567,0.225898 -2.775437,1.885962 -6.230199,2.277462 -9.070865,1.027928 C 7.54354,20.780496 5.840657,19.38727 4.722572,17.881938 4.093315,17.034731 4.054723,17.096764 4.411701,18.381731 c 0.949378,3.417363 3.401185,6.247112 6.61763,7.637715 1.991707,0.861097 4.583059,1.143363 6.62485,0.72162 z m 0.388764,-8.910759 c -0.760559,-0.548279 -1.383666,-1.071634 -1.384694,-1.163013 -0.0059,-0.498298 0.922232,-1.701584 1.312054,-1.701584 0.06595,0 0.752315,0.560617 1.525263,1.245817 l 1.405347,1.245819 -0.60818,0.65411 c -0.334501,0.359762 -0.666405,0.667974 -0.737572,0.684917 -0.07113,0.01694 -0.751665,-0.417788 -1.512218,-0.966066 z M 2.976821,5.755788 C 1.638365,4.375261 0.661111,3.261776 0.610313,3.059381 0.49158,2.586328 0.991745,2.036842 1.456381,2.129876 c 0.371628,0.07441 5.861367,3.509373 5.861367,3.667491 0,0.05771 -0.463718,0.601082 -1.030475,1.207493 L 5.256806,8.107427 Z"
       id="path837-5" />
    <path
       style="fill:url(#linearGradient845);stroke-width:0.128809;fill-opacity:1"
       d="M 14.531038,29.118268 C 11.655166,28.759041 8.7792633,27.339272 6.7202628,25.26225 2.3961379,20.90029 1.6466531,14.067588 4.9161706,8.8153211 5.1035236,8.514357 5.2915989,8.2680103 5.3341237,8.2678834 c 0.042533,-1.262e-4 1.0831761,1.0865942 2.3125591,2.4149336 2.9806562,3.220568 3.8336122,4.036223 5.1064322,4.883128 1.130114,0.75195 2.522032,1.32462 3.230677,1.329179 0.324039,0.0021 0.803529,0.275778 2.060941,1.176394 1.494789,1.070635 1.650917,1.22054 1.778295,1.707449 0.178503,0.682346 0.319889,0.949845 1.167977,2.209754 0.782629,1.162665 0.948781,1.768723 0.649422,2.368807 -0.10911,0.218705 -0.167108,0.397647 -0.128895,0.397647 0.03823,0 0.345495,-0.202616 0.682849,-0.450257 0.745246,-0.547064 1.197714,-1.122832 1.637816,-2.084136 0.961459,-2.100115 -0.251684,-4.807706 -2.154119,-4.807706 -0.324601,0 -0.680543,-0.25849 -1.962052,-1.42487 C 18.664302,15.030963 18.101914,14.421977 18.002435,14.13261 17.719489,13.309578 17.117737,12.448859 16.149186,11.481804 15.092375,10.426633 14.198675,9.8145586 10.166074,7.3841181 L 7.5246528,5.7921351 7.8720302,5.5066525 C 10.684047,3.1956794 14.789004,2.1435898 18.475037,2.7891298 c 8.698646,1.5234056 13.534031,10.9251272 9.703689,18.8674462 -1.382842,2.867348 -3.501088,4.958775 -6.396703,6.315705 -2.282947,1.069824 -4.745236,1.458979 -7.250985,1.145987 z m 3.123143,-2.377202 c 1.289585,-0.26637 2.52012,-0.829049 2.822506,-1.290629 0.467088,-0.712979 0.315957,-1.319941 -0.704289,-2.828563 -0.546585,-0.808236 -0.948838,-1.548221 -0.996405,-1.833009 -0.04385,-0.262677 -0.0897,-0.521639 -0.101839,-0.575473 -0.01211,-0.05383 -0.236502,0.04782 -0.498567,0.225898 -2.775437,1.885962 -6.230199,2.277462 -9.0708645,1.027928 -1.561182,-0.686722 -3.2640652,-2.079948 -4.3821496,-3.58528 -0.6292568,-0.847207 -0.6678494,-0.785174 -0.3108713,0.499793 0.9493785,3.417363 3.4011848,6.247112 6.6176294,7.637715 1.991707,0.861097 4.583059,1.143363 6.62485,0.72162 z m 0.388764,-8.910759 c -0.760559,-0.548279 -1.383666,-1.071634 -1.384694,-1.163013 -0.0059,-0.498298 0.922232,-1.701584 1.312054,-1.701584 0.06595,0 0.752315,0.560617 1.525263,1.245817 l 1.405347,1.245819 -0.60818,0.65411 c -0.334501,0.359762 -0.666405,0.667974 -0.737572,0.684917 -0.07113,0.01694 -0.751665,-0.417788 -1.512218,-0.966066 z M 2.9768219,5.755788 C 1.6383655,4.3752611 0.66111121,3.2617764 0.61031346,3.0593811 0.49158093,2.5863282 0.99174571,2.0368421 1.4563819,2.1298759 c 0.3716273,0.07441 5.8613663,3.5093733 5.8613663,3.6674915 0,0.057706 -0.4637171,0.6010819 -1.0304742,1.2074931 L 5.2568071,8.107427 Z"
       id="path837" />
  </g>
</svg>
