<?xml version="1.0" encoding="UTF-8" standalone="no"?>
<svg
   xmlns:dc="http://purl.org/dc/elements/1.1/"
   xmlns:cc="http://creativecommons.org/ns#"
   xmlns:rdf="http://www.w3.org/1999/02/22-rdf-syntax-ns#"
   xmlns:svg="http://www.w3.org/2000/svg"
   xmlns="http://www.w3.org/2000/svg"
   xmlns:sodipodi="http://sodipodi.sourceforge.net/DTD/sodipodi-0.dtd"
   xmlns:inkscape="http://www.inkscape.org/namespaces/inkscape"
   version="1.1"
   id="svg2"
   width="100"
   height="60"
   viewBox="0 0 100 60"
   sodipodi:docname="maind.svg"
   inkscape:version="1.0.1 (3bc2e813f5, 2020-09-07)">
  <metadata
     id="metadata8">
    <rdf:RDF>
      <cc:Work
         rdf:about="">
        <dc:format>image/svg+xml</dc:format>
        <dc:type
           rdf:resource="http://purl.org/dc/dcmitype/StillImage" />
        <dc:title />
      </cc:Work>
    </rdf:RDF>
  </metadata>
  <defs
     id="defs6" />
  <sodipodi:namedview
     pagecolor="#ffffff"
     bordercolor="#666666"
     borderopacity="1"
     objecttolerance="10"
     gridtolerance="10"
     guidetolerance="10"
     inkscape:pageopacity="0"
     inkscape:pageshadow="2"
     inkscape:window-width="1920"
     inkscape:window-height="1017"
     id="namedview4"
     showgrid="false"
     inkscape:zoom="6.1652277"
     inkscape:cx="-11.23375"
     inkscape:cy="33.495994"
     inkscape:window-x="-8"
     inkscape:window-y="-8"
     inkscape:window-maximized="1"
     inkscape:current-layer="g10"
     inkscape:document-units="cm"
     inkscape:document-rotation="0" />
  <g
     inkscape:groupmode="layer"
     inkscape:label="Image"
     id="g10">
    <path
       style="fill:#000000;fill-opacity:1;stroke-width:0.213602"
       d="m 95.929518,48.80925 c 1.171813,-1.23573 1.734754,-3.388983 1.865964,-7.137417 0.07636,-2.180211 0.282356,-3.89152 0.704678,-5.853689 0.518344,-2.408098 0.59555,-3.259072 0.586911,-6.469882 -0.01104,-4.107416 -0.348266,-5.981015 -1.629814,-9.053616 C 96.337159,17.609079 93.25985,13.460661 92.146446,13.135348 91.93952,13.074558 87.991619,12.705026 83.373437,12.31343 L 74.976734,11.601428 73.82157,10.634801 C 70.262756,7.656866 60.612134,3.1592352 54.504767,1.6323085 L 52.451985,1.1190779 39.345921,1.0928167 C 29.190115,1.0723017 25.339792,1.1378877 22.241395,1.384113 20.042239,1.5589473 16.188987,1.8032078 13.678587,1.9269583 4.0262596,2.4028595 1.3975706,3.164314 1.3975706,5.4845106 c 0,1.5024267 0.8127099,2.5895994 2.517596,3.3675134 2.0401121,0.930967 4.2407112,1.275686 10.2172584,1.600645 2.8717,0.156075 5.621095,0.388454 6.109796,0.516209 0.488788,0.127634 2.810763,0.283759 5.160336,0.346537 l 4.271752,0.114355 -0.550921,0.605458 c -0.69168,0.759998 -0.736725,1.993514 -0.107632,2.935313 l 0.44345,0.663994 -0.980821,0.346389 c -1.424666,0.503064 -2.907273,1.793481 -3.387045,2.947863 -0.546987,1.315643 -0.493277,3.198042 0.123062,4.313842 0.492775,0.892615 2.044594,2.002889 4.404339,3.150627 1.162181,0.56526 1.224714,0.636651 1.284107,1.466729 0.03425,0.479919 0.311409,1.380891 0.615644,2.002189 1.186647,2.424194 2.793974,3.81215 4.713906,4.070706 1.007326,0.135516 1.050223,0.170885 1.43139,1.172556 0.7288,1.915508 2.328352,3.729035 3.720831,4.218581 1.488241,0.523151 5.257035,0.107077 9.087147,-1.003167 l 2.000163,-0.579779 1.989456,0.354662 c 1.094216,0.195065 2.989072,0.696899 4.210864,1.115123 1.814112,0.620972 2.620281,0.780267 4.397175,0.868597 2.518581,0.125059 5.303599,-0.181043 8.085716,-0.888618 1.074062,-0.273109 2.065581,-0.496803 2.20337,-0.496803 0.1421,0 0.317441,0.547185 0.405181,1.263887 0.198458,1.621131 0.828547,2.847151 1.94123,3.776592 1.190553,0.994539 2.363993,1.426668 5.504366,2.027192 1.455811,0.278557 5.214085,1.158932 8.351733,1.956761 3.137641,0.797823 5.777555,1.450634 5.866456,1.450634 0.08871,0 0.314978,-0.162369 0.502521,-0.359568 z M 91.10373,47.432697 c -1.466095,-0.480761 -3.365369,-1.040839 -4.220596,-1.244634 -1.955118,-0.465948 -2.153171,-0.624777 -0.993064,-0.796252 1.060238,-0.156917 2.471853,-0.776711 3.436538,-1.509313 0.657974,-0.499681 2.325473,-2.309684 2.330067,-2.529164 0.0012,-0.06234 -0.504793,0.326916 -1.124709,0.865202 -2.40798,2.09029 -5.292968,2.794146 -8.147133,1.987541 -0.397061,-0.112385 -0.721938,-0.276028 -0.721938,-0.363432 0,-0.08775 0.557922,-1.244675 1.239801,-2.571101 1.469139,-2.85778 2.827445,-6.576777 3.210431,-8.790195 0.354111,-2.046422 0.169408,-8.128863 -0.306976,-10.116377 -0.815287,-3.400218 -2.207645,-6.023326 -4.313631,-8.126539 -0.792934,-0.791912 -1.373522,-1.502853 -1.29021,-1.57993 0.306229,-0.283115 2.176877,0.871466 3.448469,2.12833 2.636653,2.606142 4.774601,7.924079 5.46713,13.598918 0.08694,0.713234 0.231142,1.22157 0.320279,1.129668 0.08913,-0.09196 0.350425,-0.814088 0.580569,-1.60488 0.640763,-2.201568 0.592019,-6.313407 -0.09686,-8.156555 -0.283407,-0.75818 -0.758112,-1.70969 -1.055158,-2.114386 -0.6929,-0.944093 -0.686089,-1.121445 0.0197,-0.508479 1.95063,1.694414 3.689386,6.492478 4.231793,11.677648 0.186896,1.786156 0.404036,1.593921 0.742636,-0.65743 0.458794,-3.05006 0.11714,-6.627064 -0.891649,-9.33849 -0.232537,-0.625149 -0.385053,-1.17171 -0.338815,-1.214574 0.164225,-0.151864 1.816843,1.752911 2.64227,3.04516 1.07367,1.680869 1.993179,3.891136 2.756586,6.626072 0.594241,2.129067 0.601044,2.221349 0.339217,4.642263 -0.146966,1.358501 -0.45708,3.278451 -0.689287,4.266518 -0.232212,0.988071 -0.490424,2.767005 -0.573828,3.953148 -0.08349,1.18616 -0.28447,2.8036 -0.447105,3.594387 -0.569904,2.772649 -1.764292,5.00164 -2.527244,4.716356 -0.199203,-0.07462 -1.561541,-0.528687 -3.027635,-1.00946 z M 86.620029,41.93718 c 2.438543,-1.223177 4.569834,-4.0286 5.679742,-7.476232 0.6231,-1.935648 0.581156,-2.556167 -0.06777,-0.998873 -1.297934,3.115608 -3.229713,5.847264 -5.524291,7.811547 -0.849706,0.727436 -1.507689,1.320027 -1.462302,1.317019 0.04561,-0.0031 0.663922,-0.297286 1.374429,-0.653485 z m -9.288766,-1.29662 c -1.466096,-1.110737 -2.696145,-2.039098 -2.733465,-2.063051 -0.03718,-0.0238 0.198897,-0.308087 0.525076,-0.631233 1.82203,-1.805971 3.858584,-5.123485 4.773785,-7.776435 0.751293,-2.177821 0.865567,-6.228484 0.240162,-8.51504 -0.823633,-3.011566 -2.642761,-6.282854 -4.687761,-8.429881 -0.49183,-0.516437 -0.377082,-0.27286 0.407722,0.864593 1.2009,1.740846 2.267492,3.95784 2.86452,5.954111 0.293275,0.980875 0.385205,2.065265 0.379127,4.477882 -0.0077,3.050141 -0.03825,3.265397 -0.733316,5.134833 -0.778841,2.094967 -2.08575,4.31735 -3.006732,5.11289 -0.494171,0.426805 -0.714093,0.475609 -1.670211,0.370913 -1.052455,-0.115256 -1.126392,-0.09013 -1.671437,0.570671 -0.313603,0.380229 -1.329214,1.160643 -2.256829,1.734316 l -1.686593,1.043074 h -2.183194 c -2.388688,0 -5.137064,-0.406191 -6.205404,-0.916931 -0.802139,-0.383549 -0.805766,-0.39866 -0.262633,-1.105286 0.573754,-0.746442 0.907131,-1.964083 0.762856,-2.786307 l -0.119991,-0.684079 1.30172,-0.147298 c 1.952403,-0.220834 4.482763,-1.061183 6.189715,-2.055673 l 1.521912,-0.886691 -1.264043,-0.242684 c -1.990967,-0.382162 -4.267338,-1.549161 -5.817206,-2.982201 -0.754007,-0.697147 -2.028966,-1.607816 -2.833301,-2.023732 -1.965373,-1.016269 -3.780716,-2.589956 -4.476161,-3.880349 -0.762856,-1.415423 -0.739433,-1.51879 0.322072,-1.425164 1.080461,0.09528 2.228498,-0.08533 2.734218,-0.429976 0.307075,-0.209388 -0.01037,-0.263792 -1.794053,-0.308583 -3.435348,-0.08651 -6.502726,-0.720523 -8.248966,-1.705181 -0.733983,-0.413872 -0.747834,-0.447318 -0.616343,-1.488484 0.07423,-0.585769 0.07325,-1.279308 -0.0012,-1.541108 -0.111618,-0.391626 -0.218733,-0.247145 -0.605231,0.814718 -0.556754,1.528534 -0.895814,1.755547 -3.771253,2.524171 -3.31774,0.886771 -5.681278,0.636015 -10.567078,-1.121202 -1.782105,-0.640909 -2.156546,-0.858067 -2.505425,-1.452973 -0.543045,-0.9255 -0.433479,-1.790068 0.288992,-2.286513 0.316394,-0.217465 1.565971,-0.619258 2.776785,-0.892944 l 2.201248,-0.497643 1.098204,1.053083 1.09821,1.053083 -0.802694,0.680147 c -1.550574,1.313947 -3.215596,1.343924 -5.343266,0.09623 -1.029746,-0.603823 -1.046489,-0.606543 -0.695568,-0.111284 0.991731,1.399516 3.311465,1.813201 5.202666,0.927827 2.54046,-1.18929 2.725314,-1.642568 1.232587,-3.022666 l -0.986747,-0.912189 0.668163,-0.215384 c 0.367234,-0.118324 2.067084,-0.845754 3.777101,-1.616346 3.905037,-1.7596785 4.987058,-2.0090224 6.709237,-1.546117 1.381218,0.371211 1.974142,0.979459 2.721428,2.79157 0.552814,1.341416 0.846143,1.523028 0.664624,0.412038 -0.08371,-0.507631 -0.374191,-1.293285 -0.647834,-1.745839 l -0.497259,-0.822835 5.562117,0.02462 5.562118,0.02462 4.199449,1.363763 c 2.309728,0.750079 4.235519,1.330431 4.279569,1.289688 C 68.853094,10.553645 63.7992,8.113418 62.225607,7.561356 L 60.670681,7.0158604 57.873801,7.2744998 C 54.240721,7.610533 50.678628,7.435084 47.608844,6.7687312 L 45.20954,6.2479543 43.095585,7.0830669 C 40.836043,7.975739 34.495426,9.320361 32.541971,9.321115 L 31.513869,9.321507 31.260256,7.742311 C 31.120747,6.8737441 30.97276,6.1319893 30.931903,6.0939319 30.890861,6.0561209 30.801864,6.5937794 30.732609,7.2893356 30.66385,7.984813 30.462055,8.688882 30.284179,8.853861 29.76928,9.330361 25.177287,9.64323 22.674874,9.372443 20.064909,9.08997 19.250706,8.725785 19.220612,7.827122 19.208252,7.462897 19.11896,6.9338158 19.020314,6.6513787 18.847931,6.1518727 18.841431,6.1549746 18.820014,6.7662785 18.807654,7.1118741 18.672532,7.548419 18.520063,7.736538 17.769887,8.660484 8.8417157,9.151305 5.9138257,8.429567 2.9651428,7.702721 2.1374937,7.0611767 2.1374937,5.5023697 c 0,-0.9526274 0.7452385,-1.5775342 2.389237,-2.0034917 1.4962838,-0.3873909 7.0731173,-0.8932492 11.4955233,-1.0425867 1.710413,-0.057499 4.709674,-0.2471284 6.664868,-0.4207288 2.873481,-0.2553127 6.13119,-0.3018713 16.99346,-0.2431854 l 13.438136,0.072303 2.554578,0.7766651 c 6.827481,2.0758477 14.980575,6.0229298 17.789865,8.6127098 1.013619,0.934411 1.030457,0.940614 3.109895,1.143101 1.149928,0.111929 2.306716,0.205078 2.570672,0.207209 0.818375,0.006 3.076288,3.653344 4.579733,7.39771 2.04755,5.099432 2.064321,8.907857 0.06871,15.628627 -0.799223,2.691811 -1.280668,3.935183 -2.399668,6.197414 -0.607917,1.229029 -0.728191,1.357212 -1.041605,1.110295 -0.195018,-0.153497 -1.553858,-1.187939 -3.01999,-2.298658 z m 2.25609,-0.74181 c -0.897026,-0.48215 -1.29499,-2.278851 -0.72748,-3.284492 0.280271,-0.496632 0.27115,-0.530876 -0.11784,-0.436912 -0.611778,0.147952 -1.299718,1.044883 -1.299718,1.694655 0,0.673489 0.691632,1.538456 1.56354,1.955351 0.725063,0.346881 1.202795,0.405397 0.581521,0.07125 z M 39.766687,36.792727 c -0.667362,-0.32731 -1.386347,-1.496985 -1.75396,-2.853548 l -0.147483,-0.54391 2.40638,-0.129159 c 4.707563,-0.252851 6.089089,-0.461644 7.959492,-1.202323 3.187679,-1.26222 8.487541,-1.870043 9.429923,-1.081484 0.250723,0.209586 0.455456,0.551416 0.455456,0.759814 0,0.498549 -0.09202,0.479968 -0.780588,-0.156071 -0.515909,-0.477193 -0.691101,-0.520216 -1.620569,-0.398361 -0.573135,0.07561 -1.491796,0.338954 -2.041614,0.586342 -0.857456,0.385878 -1.009847,0.549102 -1.071733,1.148693 -0.0484,0.471846 0.08167,0.891761 0.402143,1.292104 l 0.474042,0.593146 -0.513323,0.387463 c -0.916542,0.691974 -2.717826,1.609994 -3.419995,1.743024 -0.944593,0.179063 -1.613852,-0.369277 -2.005032,-1.642323 l -0.313402,-1.01845 0.0867,1.026948 c 0.0477,0.564829 0.156954,1.182298 0.241655,1.372175 0.207276,0.460893 -0.524116,0.546848 -4.211563,0.494933 -2.188839,-0.03115 -3.05476,-0.122484 -3.577731,-0.378993 z m 13.239364,-3.031342 c -0.577578,-1.289351 0.415148,-2.162962 2.565076,-2.257583 1.439069,-0.06317 1.573417,-0.02297 1.85676,0.55164 0.232089,0.470208 0.209319,0.62745 -0.154021,1.078313 -0.545222,0.676367 -1.673296,1.285724 -2.690386,1.453211 -0.92647,0.152466 -1.204272,0.0073 -1.577302,-0.825517 z M 33.209775,30.669754 c -0.501398,-0.247985 -1.439365,-1.730286 -1.616546,-2.553844 -0.246636,-1.150182 -0.01336,-1.236899 3.134332,-1.164423 2.767417,0.06413 2.950876,0.04024 7.06177,-0.917681 2.321325,-0.540757 4.064627,-1.013155 3.874043,-1.049848 -0.190324,-0.03691 -0.925212,0.07225 -1.632337,0.242884 -2.233136,0.53787 -5.766342,0.83635 -6.73205,0.568793 -1.158395,-0.320874 -1.692427,-1.190926 -1.692427,-2.757087 0,-0.783953 -0.07573,-1.131066 -0.217237,-0.99969 -0.271552,0.251059 -0.322873,1.959391 -0.0862,2.817576 l 0.178881,0.643062 -1.955558,-0.677505 c -1.075406,-0.372601 -3.104893,-0.976918 -4.50997,-1.342894 -1.405021,-0.365909 -2.675342,-0.801925 -2.822926,-0.968748 -0.516407,-0.583404 -0.811772,-2.37843 -0.524125,-3.183918 0.427219,-1.197059 1.84709,-2.340284 3.488735,-2.809115 l 1.424467,-0.406787 1.233285,0.765082 c 1.202939,0.746303 1.217839,0.767138 0.605231,0.847692 -0.373693,0.0493 0.180376,0.182981 1.371301,0.330583 2.140112,0.265576 3.571901,0.587978 4.109522,0.92576 0.287493,0.180899 0.274041,0.253785 -0.111101,0.53793 -0.433483,0.32102 -0.43149,0.326074 0.111101,0.217763 3.647484,-0.728144 7.514139,-0.703613 9.662946,0.06144 1.536821,0.547131 2.999468,1.763443 2.99745,2.49258 -0.0012,0.267408 -0.138154,0.728142 -0.304832,1.023798 l -0.303439,0.53754 1.716871,0.132485 c 4.375207,0.337371 6.280374,1.874426 4.906158,3.958214 -0.304931,0.462432 -0.795785,0.776093 -1.720699,1.099546 -1.457055,0.509607 -7.640245,1.84451 -8.552924,1.846536 -0.7865,0.0019 -1.451721,-0.799717 -1.643002,-1.979814 -0.09368,-0.580448 -0.228698,-0.85298 -0.359741,-0.731266 -0.131055,0.121574 -0.129042,0.605789 0.0077,1.299151 0.120093,0.607852 0.187833,1.133153 0.151969,1.167332 -0.03614,0.03357 -1.601795,0.141555 -3.479027,0.23867 -3.735179,0.193341 -7.141181,0.100443 -7.772008,-0.211767 z m 21.007628,-1.743272 c 0.726617,-0.278857 1.551346,-0.707067 1.832617,-0.951388 0.610149,-0.529983 0.674923,-1.503239 0.146784,-2.200658 -0.339115,-0.447466 -0.479173,-0.474817 -1.97441,-0.386078 -1.626194,0.09646 -2.82339,0.53664 -3.277786,1.204929 -0.529975,0.77993 0.623334,2.870697 1.572023,2.849012 0.208819,-0.0048 0.974282,-0.236889 1.70095,-0.515814 z m -2.701702,-0.482994 c -0.984001,-1.350091 -0.435775,-2.28759 1.579778,-2.700639 1.659488,-0.340145 2.608077,-0.202055 2.993469,0.436019 0.67673,1.120386 -0.0477,1.885407 -2.625193,2.771151 -1.082173,0.371908 -1.36054,0.299517 -1.948054,-0.506531 z m -7.288126,-4.210189 c -0.493274,-1.091765 0.0623,-2.346943 1.240458,-2.797832 0.929499,-0.356002 2.800949,-0.153991 3.359744,0.362638 0.246137,0.228019 0.528001,0.726035 0.624912,1.1068 l 0.176389,0.692305 0.02283,-0.77026 c 0.03718,-1.261678 -1.073341,-2.002586 -3.001593,-2.002586 -1.615149,0 -2.792829,0.755797 -3.194273,2.050013 -0.227705,0.733565 0.152964,1.705637 0.751071,1.917766 0.281016,0.09979 0.283506,0.02626 0.01998,-0.558927 z"
       id="path837" />
  </g>
</svg>
