<?xml version="1.0" encoding="UTF-8" standalone="no"?>
<svg
   xmlns:dc="http://purl.org/dc/elements/1.1/"
   xmlns:cc="http://creativecommons.org/ns#"
   xmlns:rdf="http://www.w3.org/1999/02/22-rdf-syntax-ns#"
   xmlns:svg="http://www.w3.org/2000/svg"
   xmlns="http://www.w3.org/2000/svg"
   xmlns:sodipodi="http://sodipodi.sourceforge.net/DTD/sodipodi-0.dtd"
   xmlns:inkscape="http://www.inkscape.org/namespaces/inkscape"
   version="1.1"
   id="svg2"
   width="100"
   height="60"
   viewBox="0 0 100 60"
   sodipodi:docname="maing.svg"
   inkscape:version="1.0.1 (3bc2e813f5, 2020-09-07)">
  <metadata
     id="metadata8">
    <rdf:RDF>
      <cc:Work
         rdf:about="">
        <dc:format>image/svg+xml</dc:format>
        <dc:type
           rdf:resource="http://purl.org/dc/dcmitype/StillImage" />
        <dc:title></dc:title>
      </cc:Work>
    </rdf:RDF>
  </metadata>
  <defs
     id="defs6" />
  <sodipodi:namedview
     pagecolor="#ffffff"
     bordercolor="#666666"
     borderopacity="1"
     objecttolerance="10"
     gridtolerance="10"
     guidetolerance="10"
     inkscape:pageopacity="0"
     inkscape:pageshadow="2"
     inkscape:window-width="1920"
     inkscape:window-height="1017"
     id="namedview4"
     showgrid="false"
     inkscape:zoom="6.0366215"
     inkscape:cx="-11.23375"
     inkscape:cy="33.495994"
     inkscape:window-x="-8"
     inkscape:window-y="-8"
     inkscape:window-maximized="1"
     inkscape:current-layer="g10"
     inkscape:document-units="cm"
     inkscape:document-rotation="0" />
  <g
     inkscape:groupmode="layer"
     inkscape:label="Image"
     id="g10">
    <path
       style="fill:#4c525a;stroke-width:0.212894;fill-opacity:1"
       d="M 4.529399,48.645331 C 3.3653461,47.409601 2.8061325,45.256348 2.6757913,41.507914 2.5999441,39.327703 2.3953057,37.616394 1.9757801,35.654225 1.4608683,33.246127 1.3841737,32.395153 1.3927548,29.184343 1.403721,25.076927 1.7387149,23.203328 3.0117766,20.130727 4.1244574,17.44516 7.1813882,13.296742 8.2874198,12.971429 8.4929752,12.910638 12.414734,12.541107 17.002335,12.149511 l 8.3411,-0.712002 1.147515,-0.966627 C 30.026197,7.4929473 39.612913,2.9953165 45.679837,1.4683898 l 2.039189,-0.51323054 13.019276,-0.0262612 c 10.088555,-0.020515 13.913381,0.045071 16.991261,0.29129624 2.184593,0.1748343 6.012329,0.4190948 8.506104,0.5428453 9.588411,0.4759012 12.199688,1.2373557 12.199688,3.5575523 0,1.5024267 -0.807326,2.5895994 -2.50092,3.3675134 -2.026603,0.930967 -4.21263,1.275686 -10.1496,1.6006447 -2.852684,0.156075 -5.583872,0.388454 -6.069337,0.516209 -0.485552,0.127634 -2.79215,0.283759 -5.126164,0.346537 l -4.243465,0.114355 0.547273,0.605458 c 0.6871,0.759998 0.731846,1.993514 0.106919,2.935313 l -0.440513,0.663994 0.974325,0.346389 c 1.415232,0.503064 2.888022,1.793481 3.364617,2.947863 0.543364,1.315643 0.49001,3.198042 -0.122247,4.313842 -0.489512,0.892615 -2.031055,2.002889 -4.375174,3.150627 -1.154486,0.56526 -1.216604,0.636651 -1.275603,1.466729 -0.03402,0.479919 -0.309348,1.380891 -0.611568,2.002189 -1.178789,2.424194 -2.775472,3.81215 -4.68269,4.070706 -1.000656,0.135516 -1.043269,0.170885 -1.421912,1.172556 -0.723974,1.915508 -2.312934,3.729035 -3.696192,4.218581 -1.478386,0.523151 -5.222223,0.107077 -9.026972,-1.003167 l -1.986918,-0.579779 -1.976282,0.354662 c -1.08697,0.195065 -2.969278,0.696899 -4.18298,1.115123 -1.802099,0.620972 -2.602929,0.780267 -4.368057,0.868597 -2.501903,0.125059 -5.268478,-0.181043 -8.032173,-0.888618 -1.066949,-0.273109 -2.051903,-0.496803 -2.188779,-0.496803 -0.141159,0 -0.315339,0.547185 -0.402498,1.263887 -0.197143,1.621131 -0.82306,2.847151 -1.928375,3.776592 -1.18267,0.994539 -2.348339,1.426668 -5.467917,2.027192 -1.44617,0.278557 -5.179557,1.158932 -8.296428,1.956761 -3.1168637,0.797823 -5.7392966,1.450634 -5.8276083,1.450634 -0.088122,0 -0.3128921,-0.162369 -0.4991938,-0.359568 z m 4.7938316,-1.376553 c 1.4563864,-0.480761 3.3430844,-1.040839 4.1926484,-1.244634 1.942171,-0.465948 2.138912,-0.624777 0.986488,-0.796252 -1.053218,-0.156917 -2.455486,-0.776711 -3.413782,-1.509313 -0.653617,-0.499681 -2.3100742,-2.309684 -2.3146379,-2.529164 -0.00121,-0.06234 0.5014508,0.326916 1.1172616,0.865202 2.3920343,2.09029 5.2579183,2.794146 8.0931833,1.987541 0.394431,-0.112385 0.717158,-0.276028 0.717158,-0.363432 0,-0.08775 -0.554228,-1.244675 -1.231592,-2.571101 -1.45941,-2.85778 -2.808722,-6.576777 -3.189172,-8.790195 -0.351766,-2.046422 -0.168285,-8.128863 0.304944,-10.116377 0.809888,-3.400218 2.193026,-6.023326 4.285066,-8.126539 0.787684,-0.791912 1.364427,-1.502853 1.281666,-1.57993 -0.304201,-0.283115 -2.162462,0.871466 -3.425633,2.12833 -2.619193,2.606142 -4.742984,7.924079 -5.430927,13.598918 -0.08637,0.713234 -0.229611,1.22157 -0.318159,1.129668 -0.08854,-0.09196 -0.348104,-0.814088 -0.576724,-1.60488 -0.6365199,-2.201568 -0.5880982,-6.313407 0.09622,-8.156555 0.281531,-0.75818 0.753092,-1.70969 1.048171,-2.114386 C 12.233722,16.531586 12.226956,16.354234 11.52584,16.9672 9.5881271,18.661614 7.8608854,23.459678 7.3220703,28.644848 7.136412,30.431004 6.9207097,30.238769 6.5843518,27.987418 6.1285954,24.937358 6.4679873,21.360354 7.4700972,18.648928 7.7010936,18.023779 7.8525999,17.477218 7.8066679,17.434354 7.64353,17.28249 6.0018566,19.187265 5.1818953,20.479514 4.1153342,22.160383 3.2019148,24.37065 2.4435635,27.105586 c -0.5903071,2.129067 -0.5970647,2.221349 -0.3369717,4.642263 0.1459925,1.358501 0.4540538,3.278451 0.6847231,4.266518 0.2306747,0.988071 0.4871763,2.767005 0.5700277,3.953148 0.082936,1.18616 0.2825857,2.8036 0.4441445,3.594387 0.5661306,2.772649 1.7526087,5.00164 2.5105088,4.716356 0.1978844,-0.07462 1.5512004,-0.528687 3.0075867,-1.00946 z m 4.4540104,-5.495517 c -2.422396,-1.223177 -4.5395731,-4.0286 -5.6421314,-7.476232 -0.6189735,-1.935648 -0.5773081,-2.556167 0.067314,-0.998873 1.2893383,3.115608 3.2083264,5.847264 5.4877094,7.811547 0.84408,0.727436 1.497706,1.320027 1.452619,1.317019 -0.04531,-0.0031 -0.659525,-0.297286 -1.365328,-0.653485 z m 9.227257,-1.29662 c 1.456387,-1.110737 2.678291,-2.039098 2.715363,-2.063051 0.03693,-0.0238 -0.197579,-0.308087 -0.521599,-0.631233 -1.809964,-1.805971 -3.833033,-5.123485 -4.742173,-7.776435 -0.746317,-2.177821 -0.859835,-6.228484 -0.238571,-8.51504 0.818178,-3.011566 2.625261,-6.282854 4.656719,-8.429881 0.488572,-0.516437 0.374585,-0.27286 -0.405023,0.864593 -1.192947,1.740846 -2.252476,3.95784 -2.845551,5.954111 -0.291333,0.980875 -0.382654,2.065265 -0.376616,4.477882 0.0077,3.050141 0.03799,3.265397 0.72846,5.134833 0.773683,2.094967 2.071938,4.31735 2.986821,5.11289 0.490899,0.426805 0.709365,0.475609 1.659152,0.370913 1.045484,-0.115256 1.118933,-0.09013 1.660368,0.570671 0.311527,0.380229 1.320412,1.160643 2.241884,1.734316 l 1.675424,1.043074 h 2.168738 c 2.37287,0 5.103047,-0.406191 6.164312,-0.916931 0.796827,-0.383549 0.80043,-0.39866 0.260894,-1.105286 -0.569955,-0.746442 -0.901124,-1.964083 -0.757805,-2.786307 l 0.119197,-0.684079 -1.2931,-0.147298 C 36.921917,32.463549 34.408313,31.6232 32.712665,30.62871 l -1.511834,-0.886691 1.255672,-0.242684 c 1.977783,-0.382162 4.23908,-1.549161 5.778685,-2.982201 0.749014,-0.697147 2.01553,-1.607816 2.814539,-2.023732 1.952358,-1.016269 3.75568,-2.589956 4.44652,-3.880349 0.757805,-1.415423 0.734537,-1.51879 -0.319939,-1.425164 -1.073306,0.09528 -2.213741,-0.08533 -2.716112,-0.429976 -0.305042,-0.209388 0.0103,-0.263792 1.782172,-0.308583 3.4126,-0.08651 6.459666,-0.720523 8.194342,-1.705181 0.729123,-0.413872 0.742882,-0.447318 0.612262,-1.488484 -0.07374,-0.585769 -0.07276,-1.279308 0.0012,-1.541108 0.110879,-0.391626 0.217285,-0.247145 0.601224,0.814718 0.553066,1.528534 0.889881,1.755547 3.746279,2.524171 3.295771,0.886771 5.643658,0.636015 10.497104,-1.121202 1.770304,-0.640909 2.142265,-0.858067 2.488834,-1.452973 0.539449,-0.9255 0.430609,-1.790068 -0.287079,-2.286513 -0.314298,-0.217465 -1.555601,-0.619258 -2.758396,-0.892944 l -2.186672,-0.497643 -1.090932,1.053083 -1.090937,1.053083 0.797378,0.680147 c 1.540306,1.313947 3.194302,1.343924 5.307883,0.09623 1.022927,-0.603823 1.039559,-0.606543 0.690962,-0.111284 -0.985164,1.399516 -3.289536,1.813201 -5.168214,0.927827 -2.523637,-1.18929 -2.707267,-1.642568 -1.224425,-3.022666 l 0.980213,-0.912189 -0.663738,-0.215384 C 63.324854,10.232694 61.63626,9.5052643 59.937566,8.7346723 56.058389,6.9749938 54.983532,6.7256499 53.272758,7.1885553 c -1.372072,0.371211 -1.96107,0.979459 -2.703407,2.79157 -0.549154,1.3414157 -0.84054,1.5230277 -0.660223,0.4120377 0.08315,-0.5076307 0.371713,-1.2932847 0.643544,-1.7458387 l 0.493966,-0.822835 -5.525285,0.02462 -5.525285,0.02462 -4.171641,1.363763 c -2.294433,0.750079 -4.207472,1.3304307 -4.25123,1.2896877 -0.146705,-0.136454 4.873722,-2.5766807 6.436895,-3.1287427 l 1.54463,-0.5454956 2.778358,0.2586394 c 3.609023,0.3360332 7.147528,0.1605842 10.196984,-0.5057686 l 2.383415,-0.5207769 2.099956,0.8351126 c 2.24458,0.8926721 8.54321,2.2372941 10.48373,2.2380481 l 1.021293,3.92e-4 0.251934,-1.579196 c 0.138585,-0.8685669 0.285591,-1.6103217 0.326178,-1.6483791 0.04077,-0.037811 0.129178,0.4998475 0.197975,1.1954037 0.0683,0.6954774 0.268762,1.3995464 0.445461,1.5645254 0.511489,0.4765 5.073074,0.789369 7.558915,0.518582 2.592683,-0.282473 3.401494,-0.646658 3.431389,-1.545321 0.01228,-0.364225 0.100979,-0.8933062 0.198972,-1.1757433 0.171241,-0.499506 0.177697,-0.4964041 0.198973,0.1148998 0.01228,0.3455956 0.146506,0.7821405 0.297965,0.9702595 0.745208,0.923946 9.614257,1.414767 12.522759,0.693029 2.929156,-0.726846 3.75133,-1.3683903 3.75133,-2.9271973 0,-0.9526274 -0.740309,-1.5775342 -2.373421,-2.0034917 C 93.840513,2.9475684 88.300609,2.4417101 83.907488,2.2923726 82.208401,2.2348734 79.229002,2.0452442 77.286755,1.8716438 74.432302,1.6163311 71.196165,1.5697725 60.405825,1.6284584 l -13.34915,0.072303 -2.537661,0.7766651 c -6.78227,2.0758477 -14.881375,6.0229298 -17.672061,8.6127095 -1.006907,0.934411 -1.023634,0.940614 -3.089302,1.143101 -1.142313,0.111929 -2.29144,0.205078 -2.553648,0.207209 -0.812957,0.006 -3.055918,3.653344 -4.549407,7.39771 -2.033991,5.099432 -2.050651,8.907857 -0.06826,15.628627 0.79393,2.691811 1.272188,3.935183 2.383778,6.197414 0.603891,1.229029 0.723369,1.357212 1.034707,1.110295 0.193727,-0.153497 1.543568,-1.187939 2.999992,-2.298658 z m -2.241151,-0.74181 c 0.891086,-0.48215 1.286415,-2.278851 0.722663,-3.284492 -0.278415,-0.496632 -0.269354,-0.530876 0.117059,-0.436912 0.607727,0.147952 1.291112,1.044883 1.291112,1.694655 0,0.673489 -0.687052,1.538456 -1.553187,1.955351 -0.720261,0.346881 -1.194829,0.405397 -0.57767,0.07125 z m 39.556975,-3.106023 c 0.662943,-0.32731 1.377167,-1.496985 1.742346,-2.853548 l 0.146506,-0.54391 -2.390445,-0.129159 c -4.67639,-0.252851 -6.048767,-0.461644 -7.906784,-1.202323 -3.166571,-1.26222 -8.431338,-1.870043 -9.367479,-1.081484 -0.249063,0.209586 -0.45244,0.551416 -0.45244,0.759814 0,0.498549 0.09141,0.479968 0.775419,-0.156071 0.512493,-0.477193 0.686524,-0.520216 1.609837,-0.398361 0.569341,0.07561 1.481918,0.338954 2.028095,0.586342 0.851778,0.385878 1.00316,0.549102 1.064636,1.148693 0.04808,0.471846 -0.08113,0.891761 -0.39948,1.292104 l -0.470903,0.593146 0.509924,0.387463 c 0.910473,0.691974 2.699829,1.609994 3.397348,1.743024 0.938338,0.179063 1.603165,-0.369277 1.991755,-1.642323 l 0.311326,-1.01845 -0.08613,1.026948 c -0.04739,0.564829 -0.155914,1.182298 -0.240054,1.372175 -0.205903,0.460893 0.520645,0.546848 4.183674,0.494933 2.174345,-0.03115 3.034532,-0.122484 3.554039,-0.378993 z M 47.168628,33.597466 c 0.573754,-1.289351 -0.412398,-2.162962 -2.548089,-2.257583 -1.42954,-0.06317 -1.562998,-0.02297 -1.844465,0.55164 -0.230552,0.470208 -0.207933,0.62745 0.153001,1.078313 0.541612,0.676367 1.662216,1.285724 2.67257,1.453211 0.920336,0.152466 1.196297,0.0073 1.566857,-0.825517 z m 19.665187,-3.091631 c 0.498077,-0.247985 1.429833,-1.730286 1.605841,-2.553844 0.245002,-1.150182 0.01327,-1.236899 -3.113577,-1.164423 -2.749091,0.06413 -2.931335,0.04024 -7.015007,-0.917681 -2.305954,-0.540757 -4.037711,-1.013155 -3.84839,-1.049848 0.189064,-0.03691 0.919086,0.07225 1.621529,0.242884 2.218348,0.53787 5.728157,0.83635 6.68747,0.568793 1.150724,-0.320874 1.68122,-1.190926 1.68122,-2.757087 0,-0.783953 0.07523,-1.131066 0.215799,-0.99969 0.269753,0.251059 0.320734,1.959391 0.08563,2.817576 l -0.177697,0.643062 1.942608,-0.677505 c 1.068285,-0.372601 3.084333,-0.976918 4.480105,-1.342894 1.395718,-0.365909 2.657626,-0.801925 2.804234,-0.968748 0.512987,-0.583404 0.806396,-2.37843 0.520653,-3.183918 -0.424389,-1.197059 -1.834858,-2.340284 -3.465632,-2.809115 l -1.415035,-0.406787 -1.225117,0.765082 c -1.194974,0.746303 -1.209775,0.767138 -0.601224,0.847692 0.371218,0.0493 -0.179181,0.182981 -1.36222,0.330583 -2.125941,0.265576 -3.548249,0.587978 -4.082309,0.92576 -0.285589,0.180899 -0.272226,0.253785 0.110365,0.53793 0.430613,0.32102 0.428633,0.326074 -0.110365,0.217763 -3.623331,-0.728144 -7.464381,-0.703613 -9.598958,0.06144 -1.526645,0.547131 -2.979606,1.763443 -2.977601,2.49258 0.0012,0.267408 0.137239,0.728142 0.302813,1.023798 l 0.301429,0.53754 -1.705501,0.132485 c -4.346235,0.337371 -6.238786,1.874426 -4.87367,3.958214 0.302912,0.462432 0.790515,0.776093 1.709304,1.099546 1.447407,0.509607 7.589652,1.84451 8.496288,1.846536 0.781291,0.0019 1.442107,-0.799717 1.632122,-1.979814 0.09306,-0.580448 0.227183,-0.85298 0.357358,-0.731266 0.130188,0.121574 0.128188,0.605789 -0.0077,1.299151 -0.119297,0.607852 -0.186588,1.133153 -0.150962,1.167332 0.0359,0.03357 1.591188,0.141555 3.455989,0.23867 3.710445,0.193341 7.093893,0.100443 7.720542,-0.211767 z M 45.965298,28.762563 c -0.721805,-0.278857 -1.541073,-0.707067 -1.820481,-0.951388 -0.606109,-0.529983 -0.670454,-1.503239 -0.145813,-2.200658 0.33687,-0.447466 0.476001,-0.474817 1.961336,-0.386078 1.615426,0.09646 2.804694,0.53664 3.256081,1.204929 0.526466,0.77993 -0.619207,2.870697 -1.561613,2.849012 -0.207436,-0.0048 -0.967831,-0.236889 -1.689686,-0.515814 z m 2.683811,-0.482994 c 0.977486,-1.350091 0.43289,-2.28759 -1.569316,-2.700639 -1.648499,-0.340145 -2.590806,-0.202055 -2.973646,0.436019 -0.67225,1.120386 0.04739,1.885407 2.607809,2.771151 1.075006,0.371908 1.35153,0.299517 1.935153,-0.506531 z m 7.239865,-4.210189 c 0.490008,-1.091765 -0.06189,-2.346943 -1.232243,-2.797832 -0.923344,-0.356002 -2.782402,-0.153991 -3.337496,0.362638 -0.244508,0.228019 -0.524505,0.726035 -0.620774,1.1068 l -0.175222,0.692305 -0.02268,-0.77026 c -0.03693,-1.261678 1.066233,-2.002586 2.981717,-2.002586 1.604453,0 2.774335,0.755797 3.173121,2.050013 0.226196,0.733565 -0.151952,1.705637 -0.746098,1.917766 -0.279156,0.09979 -0.281629,0.02626 -0.01984,-0.558927 z"
       id="path837" />
  </g>
</svg>
