<?xml version="1.0" encoding="UTF-8" standalone="no"?>
<svg
   xmlns:dc="http://purl.org/dc/elements/1.1/"
   xmlns:cc="http://creativecommons.org/ns#"
   xmlns:rdf="http://www.w3.org/1999/02/22-rdf-syntax-ns#"
   xmlns:svg="http://www.w3.org/2000/svg"
   xmlns="http://www.w3.org/2000/svg"
   xmlns:xlink="http://www.w3.org/1999/xlink"
   xmlns:sodipodi="http://sodipodi.sourceforge.net/DTD/sodipodi-0.dtd"
   xmlns:inkscape="http://www.inkscape.org/namespaces/inkscape"
   version="1.1"
   id="svg2"
   width="30"
   height="30"
   viewBox="0 0 30 30"
   sodipodi:docname="mcdo.svg"
   inkscape:version="1.0.1 (3bc2e813f5, 2020-09-07)">
  <metadata
     id="metadata8">
    <rdf:RDF>
      <cc:Work
         rdf:about="">
        <dc:format>image/svg+xml</dc:format>
        <dc:type
           rdf:resource="http://purl.org/dc/dcmitype/StillImage" />
        <dc:title></dc:title>
      </cc:Work>
    </rdf:RDF>
  </metadata>
  <defs
     id="defs6">
    <linearGradient
       inkscape:collect="always"
       id="linearGradient875">
      <stop
         style="stop-color:#c00000;stop-opacity:1"
         offset="0"
         id="stop871" />
      <stop
         style="stop-color:#631111;stop-opacity:1"
         offset="1"
         id="stop873" />
    </linearGradient>
    <linearGradient
       inkscape:collect="always"
       id="linearGradient843">
      <stop
         style="stop-color:#4c525a;stop-opacity:1"
         offset="0"
         id="stop839" />
      <stop
         style="stop-color:#000000;stop-opacity:1"
         offset="1"
         id="stop841" />
    </linearGradient>
    <linearGradient
       inkscape:collect="always"
       xlink:href="#linearGradient843"
       id="linearGradient845"
       x1="120.08092"
       y1="315.31503"
       x2="776.47479"
       y2="315.31503"
       gradientUnits="userSpaceOnUse"
       gradientTransform="matrix(0.04347522,0,0,0.04347522,-4.255428,1.0461148)" />
    <linearGradient
       inkscape:collect="always"
       xlink:href="#linearGradient875"
       id="linearGradient845-3"
       x1="120.08092"
       y1="315.31503"
       x2="776.47479"
       y2="315.31503"
       gradientUnits="userSpaceOnUse"
       gradientTransform="translate(-1e-5,11.44448)" />
    <filter
       inkscape:collect="always"
       style="color-interpolation-filters:sRGB"
       id="filter953"
       x="-0.043221738"
       width="1.0864435"
       y="-0.053966071"
       height="1.1079321">
      <feGaussianBlur
         inkscape:collect="always"
         stdDeviation="11.821035"
         id="feGaussianBlur955" />
    </filter>
  </defs>
  <sodipodi:namedview
     pagecolor="#ffffff"
     bordercolor="#666666"
     borderopacity="1"
     objecttolerance="10"
     gridtolerance="10"
     guidetolerance="10"
     inkscape:pageopacity="0"
     inkscape:pageshadow="2"
     inkscape:window-width="1920"
     inkscape:window-height="1017"
     id="namedview4"
     showgrid="false"
     inkscape:zoom="12.605531"
     inkscape:cx="15.229576"
     inkscape:cy="23.80432"
     inkscape:window-x="-8"
     inkscape:window-y="-8"
     inkscape:window-maximized="1"
     inkscape:current-layer="g10" />
  <g
     inkscape:groupmode="layer"
     inkscape:label="Image"
     id="g10">
    <path
       style="opacity:0.9;fill:url(#linearGradient845-3);fill-opacity:1;stroke-width:1.33333;filter:url(#filter953)"
       d="m 120.91253,546.86005 c 4.77155,-244.80377 68.30211,-450.35082 148.22891,-479.58056 11.1303,-4.07042 28.85626,-4.07995 39.90954,-0.0215 37.7697,13.86814 71.3552,60.81521 98.43915,137.60197 4.00921,11.36667 8.36653,24.74103 9.68293,29.72079 1.3164,4.97977 2.81554,8.57977 3.33139,8 0.51587,-0.57976 3.22789,-8.55412 6.02673,-17.72079 28.65319,-93.84399 71.89978,-153.44175 116.3345,-160.3196 22.77473,-3.5252 46.80601,7.70367 67.21757,31.40813 62.52645,72.61356 105.56321,250.66278 109.96849,454.95536 l 0.83474,38.7105 -37.53864,-0.044 -37.53866,-0.044 -0.0136,-18.6667 c -0.0207,-28.1603 -2.40078,-94.5801 -4.70633,-131.3333 C 630.5335,271.25556 603.44821,145.5109 570.53609,111.98044 556.52193,97.70298 546.16336,97.52274 532.5918,111.3202 c -11.92474,12.12324 -21.40303,30.6005 -31.22606,60.87302 -22.22396,68.48962 -38.37706,183.26139 -41.69276,296.23743 -0.44813,15.2694 -1.00646,28.9626 -1.24076,30.4292 -0.23428,1.4667 -0.47054,13.9167 -0.52504,27.6667 l -0.0991,25 h -37.33331 -37.33333 l -0.0276,-9 c -0.0579,-18.8328 -2.6543,-93.9638 -3.99736,-115.66665 C 370.31229,284.59144 348.13052,173.52721 318.80094,124.85995 309.356,109.18774 296.06937,99.6682 286.15337,101.46878 c -35.07703,6.36942 -66.22312,110.69802 -81.61775,273.39118 -5.39866,57.05411 -9.39253,136.56059 -9.39361,186.99999 -3.2e-4,14.85 -0.45057,27.0546 -1.00057,27.1213 -0.55,0.067 -17.43862,0.2167 -37.53027,0.3333 l -36.53026,0.2121 z m 625.47219,37.6666 c -2.91808,-2.6804 -5.15136,-6.2656 -5.85482,-9.399 -4.29056,-19.1114 18.91028,-30.9095 31.83518,-16.1888 3.54101,4.0329 4.10969,5.7107 4.10969,12.1244 0,6.8691 -0.39968,7.8435 -5.17647,12.6203 -4.78765,4.7877 -5.74054,5.1765 -12.68625,5.1765 -6.61597,0 -8.07125,-0.5158 -12.22733,-4.3334 z m 20.46766,-0.4142 c 3.82551,-2.6795 6.95708,-8.7706 6.95074,-13.5196 -0.007,-5.4398 -4.70584,-12.2755 -9.9413,-14.463 -6.34076,-2.6493 -11.94408,-1.1727 -16.87924,4.4481 -3.73645,4.2556 -4.07628,5.366 -3.49466,11.4189 0.51829,5.394 1.46384,7.4371 4.83658,10.4506 4.87042,4.3518 13.57516,5.134 18.52788,1.665 z m -15.71094,-13.1413 v -11.4445 h 5.42098 c 2.98155,0 6.58155,0.6211 8,1.3803 3.43352,1.8375 3.29562,7.2999 -0.24696,9.7812 l -2.82597,1.9794 2.82597,3.9687 c 3.14395,4.4153 3.45315,5.5571 1.5049,5.5571 -0.72659,0 -2.67659,-2.0926 -4.33334,-4.6502 -3.95772,-6.1097 -8.05261,-6.3638 -7.44608,-0.4619 0.25991,2.5289 -0.23432,4.4443 -1.23284,4.7777 -1.24712,0.4165 -1.66666,-2.3243 -1.66666,-10.8878 z m 11.73726,-5.2801 c -0.5695,-3.9915 -8.38128,-4.1434 -8.44996,-0.1644 -0.0595,3.443 1.42431,4.4158 5.53615,3.6297 2.47395,-0.4729 3.21501,-1.3542 2.91381,-3.4653 z"
       id="path837-4"
       inkscape:transform-center-x="-23.56799"
       inkscape:transform-center-y="-19.666004"
       transform="matrix(0.04347522,0,0,0.04347522,-4.2554288,0.54856436)" />
    <path
       style="fill:url(#linearGradient845);fill-opacity:1;stroke-width:0.0579667"
       d="M 1.0012706,24.323424 C 1.2087143,13.680527 3.9707179,4.7443244 7.4455539,3.473555 7.9294478,3.296592 8.7000845,3.2961778 9.1806287,3.4726721 c 1.6420463,0.6029201 3.1021823,2.6439538 4.2796633,5.9822753 0.174302,0.4941685 0.36374,1.0756226 0.420968,1.2921176 0.05723,0.216498 0.122406,0.373008 0.144833,0.347802 0.02245,-0.02521 0.140332,-0.371892 0.262014,-0.770415 1.245705,-4.079888 3.125858,-6.6709137 5.057668,-6.9699304 0.990136,-0.1532583 2.034902,0.3349192 2.9223,1.3654759 2.718349,3.1568902 4.589384,10.8976195 4.780902,19.7792845 l 0.03629,1.682948 -1.632,-0.002 -1.632003,-0.002 -6.81e-4,-0.811538 c -0.0011,-1.22432 -0.104375,-4.111934 -0.20461,-5.709787 C 23.157063,12.341214 21.979525,6.8744369 20.548665,5.4166924 19.939396,4.7959769 19.489053,4.7881412 18.899027,5.3879898 18.380596,5.9150507 17.968525,6.7183533 17.541469,8.0344572 16.575276,11.01206 15.873017,16.001786 15.728864,20.913443 c -0.01949,0.663842 -0.04376,1.259157 -0.05394,1.322919 -0.01017,0.06376 -0.02044,0.605031 -0.02283,1.202815 l -0.0044,1.086882 h -1.623023 -1.623076 l -0.0014,-0.391277 C 12.397855,23.316019 12.284886,20.049681 12.226494,19.106147 11.843763,12.920995 10.879406,8.0924531 9.6042953,5.9766328 9.1936769,5.2952806 8.6160374,4.8814164 8.1849347,4.9596966 6.6599541,5.2366094 5.3058719,9.7723177 4.6365852,16.845438 c -0.2347072,2.480441 -0.40834,5.937002 -0.4083877,8.129869 -1.33e-5,0.645605 -0.019591,1.176202 -0.0435,1.179103 -0.023908,0.0031 -0.7581483,0.0094 -1.6316359,0.01449 l -1.58816265,0.0092 z m 27.1925414,1.637564 c -0.126865,-0.116529 -0.223958,-0.272397 -0.254543,-0.408622 -0.186532,-0.830873 0.822129,-1.343798 1.384042,-0.703814 0.153947,0.175333 0.178672,0.248275 0.178672,0.527114 0,0.298633 -0.01737,0.340997 -0.225048,0.54867 -0.208146,0.208142 -0.249574,0.225045 -0.55154,0.225045 -0.287629,0 -0.350897,-0.02242 -0.531583,-0.188393 z m 0.889836,-0.018 c 0.166313,-0.116492 0.302459,-0.381302 0.302183,-0.587764 -3.05e-4,-0.236497 -0.204587,-0.533681 -0.432201,-0.628784 -0.275667,-0.115179 -0.519272,-0.05098 -0.733828,0.193382 -0.162443,0.185013 -0.177217,0.233286 -0.15193,0.496437 0.02251,0.234507 0.06364,0.323332 0.210271,0.454345 0.211741,0.189192 0.590183,0.2232 0.805505,0.07239 z m -0.683037,-0.57132 V 24.87412 h 0.235677 c 0.129622,0 0.286134,0.027 0.347801,0.06 0.149275,0.0799 0.143278,0.317365 -0.01074,0.425243 l -0.122859,0.08605 0.122859,0.172543 c 0.136683,0.191954 0.150127,0.241592 0.06542,0.241592 -0.0316,0 -0.116366,-0.09097 -0.188393,-0.202167 -0.17206,-0.265619 -0.350087,-0.276666 -0.323719,-0.02007 0.0113,0.109948 -0.01021,0.193219 -0.0536,0.207714 -0.05422,0.01809 -0.07246,-0.101052 -0.07246,-0.47335 z m 0.510278,-0.229552 c -0.02475,-0.17353 -0.364378,-0.180139 -0.367365,-0.0072 -0.0027,0.149683 0.06193,0.191978 0.240688,0.157805 0.107553,-0.02058 0.139771,-0.05888 0.126677,-0.150656 z"
       id="path837" />
  </g>
</svg>
