<?xml version="1.0" encoding="UTF-8" standalone="no"?>
<svg
   xmlns:dc="http://purl.org/dc/elements/1.1/"
   xmlns:cc="http://creativecommons.org/ns#"
   xmlns:rdf="http://www.w3.org/1999/02/22-rdf-syntax-ns#"
   xmlns:svg="http://www.w3.org/2000/svg"
   xmlns="http://www.w3.org/2000/svg"
   xmlns:xlink="http://www.w3.org/1999/xlink"
   xmlns:sodipodi="http://sodipodi.sourceforge.net/DTD/sodipodi-0.dtd"
   xmlns:inkscape="http://www.inkscape.org/namespaces/inkscape"
   version="1.1"
   id="svg2"
   width="30"
   height="30"
   viewBox="0 0 30 30"
   sodipodi:docname="openoffice.svg"
   inkscape:version="1.0.1 (3bc2e813f5, 2020-09-07)">
  <metadata
     id="metadata8">
    <rdf:RDF>
      <cc:Work
         rdf:about="">
        <dc:format>image/svg+xml</dc:format>
        <dc:type
           rdf:resource="http://purl.org/dc/dcmitype/StillImage" />
        <dc:title></dc:title>
      </cc:Work>
    </rdf:RDF>
  </metadata>
  <defs
     id="defs6">
    <linearGradient
       inkscape:collect="always"
       id="linearGradient875">
      <stop
         style="stop-color:#c00000;stop-opacity:1"
         offset="0"
         id="stop871" />
      <stop
         style="stop-color:#631111;stop-opacity:1"
         offset="1"
         id="stop873" />
    </linearGradient>
    <linearGradient
       inkscape:collect="always"
       id="linearGradient843">
      <stop
         style="stop-color:#4c525a;stop-opacity:1"
         offset="0"
         id="stop839" />
      <stop
         style="stop-color:#000000;stop-opacity:1"
         offset="1"
         id="stop841" />
    </linearGradient>
    <linearGradient
       inkscape:collect="always"
       xlink:href="#linearGradient843"
       id="linearGradient845"
       x1="0.52628447"
       y1="15.259694"
       x2="29.457371"
       y2="15.259694"
       gradientUnits="userSpaceOnUse" />
    <linearGradient
       inkscape:collect="always"
       xlink:href="#linearGradient875"
       id="linearGradient845-5"
       x1="0.52628446"
       y1="15.259694"
       x2="29.457371"
       y2="15.259694"
       gradientUnits="userSpaceOnUse" />
    <filter
       inkscape:collect="always"
       style="color-interpolation-filters:sRGB"
       id="filter953"
       x="-0.048000799"
       width="1.0960016"
       y="-0.047999201"
       height="1.0959984">
      <feGaussianBlur
         inkscape:collect="always"
         stdDeviation="0.57863137"
         id="feGaussianBlur955" />
    </filter>
  </defs>
  <sodipodi:namedview
     pagecolor="#ffffff"
     bordercolor="#666666"
     borderopacity="1"
     objecttolerance="10"
     gridtolerance="10"
     guidetolerance="10"
     inkscape:pageopacity="0"
     inkscape:pageshadow="2"
     inkscape:window-width="1920"
     inkscape:window-height="1017"
     id="namedview4"
     showgrid="false"
     inkscape:zoom="6.6025607"
     inkscape:cx="48.358598"
     inkscape:cy="23.401349"
     inkscape:window-x="-8"
     inkscape:window-y="-8"
     inkscape:window-maximized="1"
     inkscape:current-layer="g10" />
  <g
     inkscape:groupmode="layer"
     inkscape:label="Image"
     id="g10">
    <path
       style="opacity:0.9;fill:url(#linearGradient845-5);fill-opacity:1;stroke-width:0.128808;filter:url(#filter953)"
       d="M 13.056297,29.606067 C 8.419217,29.026849 4.1028794,25.902792 1.9964334,21.601214 c -0.328496,-0.670821 -0.597266,-1.256137 -0.597266,-1.300701 0,-0.145312 1.454451,-0.08434 2.662671,0.111615 2.7291016,0.442626 5.2086596,1.530383 6.9263116,3.038501 l 0.434921,0.381865 0.786556,-0.950898 c 2.682786,-3.243323 6.782643,-4.980654 11.753647,-4.980654 1.661712,0 1.780614,-0.0163 1.780614,-0.244035 0,-0.195805 -0.248209,-0.322128 -1.255877,-0.639167 -0.690734,-0.217322 -1.596137,-0.454607 -2.012005,-0.527301 -3.610064,-0.631035 -7.357167,0.05846 -10.460109,1.924753 l -1.0404,0.625755 -1.278146,-0.436663 C 7.796845,17.955 6.199721,17.730587 4.1041374,17.818375 c -0.956401,0.04007 -2.073321,0.154629 -2.482046,0.254588 -0.408726,0.09996 -0.771616,0.135664 -0.806421,0.07935 -0.03481,-0.05631 -0.130786,-0.720609 -0.213289,-1.476206 C 0.2286924,13.253731 1.2475204,9.507083 3.3015684,6.75009 8.772091,-0.59258 19.216499,-1.249984 25.487984,5.353606 c 5.29248,5.572743 5.292521,14.241406 9.5e-5,19.813549 -3.260301,3.432614 -7.725108,5.026828 -12.431782,4.438915 z m 5.646672,-18.095792 c 0.867798,-0.780226 1.722255,-1.262951 2.983465,-1.68551 0.925555,-0.310102 1.223887,-0.346039 2.930329,-0.353 1.325916,-0.0054 1.899879,-0.05188 1.899918,-0.153836 8e-5,-0.211313 -1.662807,-0.795712 -2.74437,-0.96447 -1.64468,-0.256623 -3.842739,0.07766 -5.263809,0.80053 C 18.037509,9.393573 18.032679,9.393267 17.34923,9.080529 15.143507,8.071202 12.420974,8.052017 10.14809,9.029779 9.794141,9.182044 9.528427,9.371018 9.557613,9.449722 c 0.02919,0.07871 0.132767,0.123269 0.230179,0.09903 0.09741,-0.02424 0.78573,-0.04364 1.529596,-0.04312 1.491867,0.0011 2.835168,0.252594 4.057453,0.759826 0.863072,0.358162 2.311015,1.337065 2.427772,1.641332 0.109933,0.28648 0.170244,0.25992 0.900356,-0.396515 z"
       id="path837-8" />
    <path
       style="fill:url(#linearGradient845);stroke-width:0.128808;fill-opacity:1"
       d="M 13.056297,29.606068 C 8.4192184,29.02685 4.10288,25.902793 1.9964342,21.601215 1.667938,20.930394 1.399168,20.345077 1.399168,20.300513 c 0,-0.145312 1.4544505,-0.08434 2.6626711,0.111615 2.7291015,0.442627 5.2086601,1.530384 6.9263109,3.038502 l 0.434921,0.381865 0.786556,-0.950898 c 2.682786,-3.243324 6.782643,-4.980655 11.753647,-4.980655 1.661712,0 1.780614,-0.0163 1.780614,-0.244035 0,-0.195805 -0.248209,-0.322128 -1.255877,-0.639167 -0.690734,-0.217322 -1.596137,-0.454607 -2.012005,-0.527301 -3.610064,-0.631035 -7.357167,0.05846 -10.460109,1.924753 l -1.0404,0.625755 -1.278145,-0.436663 C 7.7968457,17.955 6.1997224,17.730587 4.1041375,17.818375 3.1477374,17.858447 2.0308172,17.973004 1.622092,18.072963 1.2133659,18.17292 0.85047605,18.208627 0.81567125,18.15231 0.7808645,18.095999 0.68488516,17.431701 0.60238155,16.676104 0.22869288,13.253728 1.2475211,9.5070806 3.3015687,6.7500871 8.7720918,-0.5925828 19.216499,-1.2499873 25.487984,5.3536028 c 5.29248,5.5727432 5.292521,14.2414062 9.5e-5,19.8135502 -3.260301,3.432614 -7.725108,5.026828 -12.431782,4.438915 z m 5.646672,-18.095793 c 0.867798,-0.780226 1.722255,-1.262951 2.983465,-1.6855103 0.925555,-0.3101013 1.223887,-0.3460385 2.930329,-0.3529999 1.325916,-0.00543 1.899879,-0.051881 1.899918,-0.1538361 8e-5,-0.2113128 -1.662807,-0.7957112 -2.74437,-0.9644696 C 22.127631,8.0968365 19.929572,8.4311198 18.508502,9.153989 18.037509,9.3935728 18.032679,9.3932674 17.34923,9.0805264 15.143507,8.0711988 12.420974,8.0520143 10.148091,9.0297803 9.7941422,9.1820447 9.5284278,9.3710192 9.5576141,9.4497231 c 0.029193,0.078708 0.1327668,0.1232692 0.2301785,0.099033 0.097411,-0.024239 0.7857294,-0.043639 1.5295954,-0.043125 1.491867,0.00107 2.835168,0.2525936 4.057453,0.7598259 0.863072,0.358162 2.311015,1.337065 2.427772,1.641332 0.109933,0.28648 0.170244,0.25992 0.900356,-0.396514 z"
       id="path837" />
  </g>
</svg>
