<?xml version="1.0" encoding="UTF-8" standalone="no"?>
<svg
   xmlns:dc="http://purl.org/dc/elements/1.1/"
   xmlns:cc="http://creativecommons.org/ns#"
   xmlns:rdf="http://www.w3.org/1999/02/22-rdf-syntax-ns#"
   xmlns:svg="http://www.w3.org/2000/svg"
   xmlns="http://www.w3.org/2000/svg"
   xmlns:xlink="http://www.w3.org/1999/xlink"
   xmlns:sodipodi="http://sodipodi.sourceforge.net/DTD/sodipodi-0.dtd"
   xmlns:inkscape="http://www.inkscape.org/namespaces/inkscape"
   version="1.1"
   id="svg2"
   width="280"
   height="280"
   viewBox="0 0 280 280"
   sodipodi:docname="photo.svg"
   inkscape:version="1.0.1 (3bc2e813f5, 2020-09-07)">
  <metadata
     id="metadata8">
    <rdf:RDF>
      <cc:Work
         rdf:about="">
        <dc:format>image/svg+xml</dc:format>
        <dc:type
           rdf:resource="http://purl.org/dc/dcmitype/StillImage" />
        <dc:title />
      </cc:Work>
    </rdf:RDF>
  </metadata>
  <defs
     id="defs6">
    <linearGradient
       inkscape:collect="always"
       id="linearGradient872">
      <stop
         style="stop-color:#c00000;stop-opacity:1"
         offset="0"
         id="stop868" />
      <stop
         style="stop-color:#631111;stop-opacity:1"
         offset="1"
         id="stop870" />
    </linearGradient>
    <linearGradient
       inkscape:collect="always"
       id="linearGradient837">
      <stop
         style="stop-color:#4c525a;stop-opacity:1;"
         offset="0"
         id="stop833" />
      <stop
         style="stop-color:#333333;stop-opacity:1"
         offset="1"
         id="stop835" />
    </linearGradient>
    <clipPath
       clipPathUnits="userSpaceOnUse"
       id="clipPath843">
      <path
         style="opacity:0.993;fill:#ffffff;fill-rule:evenodd;stroke:#4c956c;stroke-width:0.559;stroke-linecap:round;paint-order:fill markers stroke"
         id="path845"
         sodipodi:type="arc"
         sodipodi:cx="246.35289"
         sodipodi:cy="228.50124"
         sodipodi:rx="204.69904"
         sodipodi:ry="204.69904"
         sodipodi:start="0.051149492"
         sodipodi:end="0"
         sodipodi:open="true"
         sodipodi:arc-type="arc"
         d="M 450.78421,238.96692 A 204.69904,204.69904 0 0 1 238.50213,433.04967 204.69904,204.69904 0 0 1 41.720794,223.26668 204.69904,204.69904 0 0 1 248.97038,23.818936 204.69904,204.69904 0 0 1 451.05193,228.50124" />
    </clipPath>
    <linearGradient
       inkscape:collect="always"
       xlink:href="#linearGradient837"
       id="linearGradient839"
       x1="41.653854"
       y1="228.50124"
       x2="451.05194"
       y2="228.50124"
       gradientUnits="userSpaceOnUse" />
    <clipPath
       clipPathUnits="userSpaceOnUse"
       id="clipPath843-9">
      <path
         style="opacity:0.993;fill:#ffffff;fill-rule:evenodd;stroke:#4c956c;stroke-width:0.559;stroke-linecap:round;paint-order:fill markers stroke"
         id="path845-3"
         sodipodi:type="arc"
         sodipodi:cx="246.35289"
         sodipodi:cy="228.50124"
         sodipodi:rx="204.69904"
         sodipodi:ry="204.69904"
         sodipodi:start="0.051149492"
         sodipodi:end="0"
         sodipodi:open="true"
         sodipodi:arc-type="arc"
         d="M 450.78421,238.96692 A 204.69904,204.69904 0 0 1 238.50213,433.04967 204.69904,204.69904 0 0 1 41.720794,223.26668 204.69904,204.69904 0 0 1 248.97038,23.818936 204.69904,204.69904 0 0 1 451.05193,228.50124" />
    </clipPath>
    <linearGradient
       inkscape:collect="always"
       xlink:href="#linearGradient872"
       id="linearGradient866"
       gradientUnits="userSpaceOnUse"
       x1="41.653854"
       y1="228.50124"
       x2="451.05194"
       y2="228.50124" />
    <filter
       inkscape:collect="always"
       style="color-interpolation-filters:sRGB"
       id="filter950"
       x="-0.046093191"
       width="1.0921864"
       y="-0.050071381"
       height="1.1001428">
      <feGaussianBlur
         inkscape:collect="always"
         stdDeviation="9.1865661"
         id="feGaussianBlur952" />
    </filter>
  </defs>
  <sodipodi:namedview
     pagecolor="#ffffff"
     bordercolor="#666666"
     borderopacity="1"
     objecttolerance="10"
     gridtolerance="10"
     guidetolerance="10"
     inkscape:pageopacity="0"
     inkscape:pageshadow="2"
     inkscape:window-width="1920"
     inkscape:window-height="1017"
     id="namedview4"
     showgrid="false"
     inkscape:zoom="0.88572846"
     inkscape:cx="228.2345"
     inkscape:cy="189.60741"
     inkscape:window-x="-8"
     inkscape:window-y="-8"
     inkscape:window-maximized="1"
     inkscape:current-layer="g10"
     inkscape:document-rotation="0" />
  <g
     inkscape:groupmode="layer"
     inkscape:label="Image"
     id="g10">
    <path
       style="opacity:0.9;fill:url(#linearGradient866);fill-opacity:1;filter:url(#filter950)"
       d="M 2.6716473,221.14877 V 1.19529 L 128.42165,0.89875901 c 69.1625,-0.163092 176.69527,-0.164257 238.96171,-0.0026 l 113.2117,0.29394199 0.2883,107.206069 c 0.15856,58.96333 0.15767,157.94356 -0.002,219.95606 l -0.29024,112.75 H 241.63139 2.6716473 Z M 239.67165,394.04322 c 0,-0.51754 -0.45,-0.94098 -1,-0.94098 -0.55,0 -1,0.70156 -1,1.55902 0,0.85746 0.45,1.2809 1,0.94098 0.55,-0.33992 1,-1.04148 1,-1.55902 z m -17,-1.38196 c 0,-0.24254 -0.45,-0.7191 -1,-1.05902 -0.55,-0.33992 -1,-0.14148 -1,0.44098 0,0.58246 0.45,1.05902 1,1.05902 0.55,0 1,-0.19844 1,-0.44098 z m -29.54271,-30.48992 c 0.31644,-0.512 0.11799,-1.21356 -0.44098,-1.55902 -0.55897,-0.34546 -1.01631,0.0734 -1.01631,0.9309 0,1.75653 0.60006,2.01516 1.45729,0.62812 z m 3.54271,-13.0691 c 0,-0.55 -0.19844,-1 -0.44098,-1 -0.24254,0 -0.7191,0.45 -1.05902,1 -0.33992,0.55 -0.14148,1 0.44098,1 0.58246,0 1.05902,-0.45 1.05902,-1 z m 57.8,-15.2 c 2.00051,-2.00051 1.37213,-4.40475 -2.3,-8.8 -1.925,-2.30407 -3.5,-3.84665 -3.5,-3.42795 0,0.41871 -0.23759,0.52369 -0.52798,0.2333 -0.29039,-0.29038 -0.0947,-1.66765 0.43492,-3.06059 0.78329,-2.0602 0.50342,-3.15541 -1.50036,-5.87139 -1.85295,-2.51152 -2.30587,-4.05542 -1.82799,-6.23118 0.43686,-1.989 0.28954,-2.67872 -0.47166,-2.20828 -0.69546,0.42982 -1.10693,-0.23672 -1.10693,-1.79311 0,-3.78631 -1.02147,-5.6408 -3.10699,-5.6408 -1.04115,0 -1.89301,-0.34971 -1.89301,-0.77714 0,-0.42743 -1.35,-2.2552 -3,-4.06172 -1.65,-1.80652 -3.02782,-3.8193 -3.06182,-4.47286 -0.16294,-3.13169 -1.86536,-15.48272 -2.45111,-17.78268 -0.61138,-2.40061 -0.42901,-2.58062 2.4415,-2.40985 1.70622,0.1015 4.1974,1.21342 5.53595,2.47092 1.5204,1.42834 3.06485,2.04417 4.1155,1.641 1.05189,-0.40365 3.03726,0.39167 5.30088,2.12348 1.99051,1.52287 4.5191,2.84621 5.6191,2.94076 4.02438,0.34593 8.25759,-1.94035 9.87577,-5.33373 1.02721,-2.15408 2.30704,-3.33818 3.60805,-3.33818 1.16402,0 2.01618,-0.66247 2.01618,-1.56739 0,-1.07002 0.58712,-1.38104 1.85024,-0.98014 1.36792,0.43416 2.56726,-0.44742 4.60082,-3.38185 2.41496,-3.48479 2.6694,-4.55933 2.08527,-8.8065 -0.56697,-4.12234 -0.36014,-5.11359 1.39918,-6.70575 2.02993,-1.83707 2.69353,-4.596 1.41337,-5.87616 -0.35812,-0.35812 -1.25084,0.12938 -1.98382,1.08333 -1.15422,1.50219 -1.30846,0.99793 -1.15177,-3.76554 0.13158,-4.00003 -0.3501,-6.30598 -1.76619,-8.45531 -1.54032,-2.3379 -1.9721,-4.8557 -2.06678,-12.05173 -0.0658,-5.00302 -0.48726,-10.19813 -0.93652,-11.54468 -1.06208,-3.18333 -0.72383,-6.05107 1.62813,-13.80362 1.99216,-6.56658 2.60623,-16.14466 1.03506,-16.14466 -1.8356,0 -2.11813,-3.5596 -1.08706,-13.69594 l 1.06058,-10.42643 -2.8999,-2.70891 c -3.57451,-3.3391 -4.78062,-6.74082 -3.10561,-8.75909 1.71916,-2.07146 -0.0844,-3.65156 -3.69579,-3.23781 -1.95888,0.22443 -3.27919,1.19756 -4.17639,3.07818 -0.72157,1.5125 -1.72689,2.75 -2.23405,2.75 -1.15687,0 -4.96877,7.77053 -4.96877,10.12881 0,0.96424 -0.424,2.0152 -0.94222,2.33548 -0.83384,0.51534 -1.29065,2.8122 -2.50885,12.61449 -0.17627,1.41833 -1.04689,3.98348 -1.93471,5.70034 -0.88782,1.71686 -1.64711,4.15641 -1.68731,5.42122 -0.0885,2.7849 -3.30567,8.37824 -4.65841,8.09908 -0.53458,-0.11032 -2.47696,1.35218 -4.3164,3.25 -2.14671,2.21484 -4.28804,3.45058 -5.97929,3.45058 -1.78236,0 -3.06487,0.8035 -3.96394,2.48343 -0.731,1.36589 -2.20938,2.76282 -3.2853,3.1043 -2.32877,0.73913 -9.69568,-2.54977 -9.7121,-4.33589 -0.0159,-1.72982 -8.99471,-7.20964 -11.85118,-7.23284 -1.28684,-0.0104 -3.19019,0.9935 -4.22968,2.231 -1.2609,1.50108 -2.14638,1.88376 -2.66029,1.1497 -1.37477,-1.96367 -5.6817,-3.80285 -9.58458,-4.09287 -2.09784,-0.15589 -4.78546,-0.9637 -5.9725,-1.79513 -1.18704,-0.83144 -3.42225,-1.5117 -4.96713,-1.5117 -1.57429,0 -3.06188,-0.6593 -3.38448,-1.5 -0.31659,-0.825 -1.13272,-1.5 -1.81363,-1.5 -0.68091,0 -2.05251,-0.9 -3.048,-2 -0.99549,-1.1 -2.30273,-1.96447 -2.90499,-1.92105 -0.6373,0.046 -0.57485,0.289 0.1494,0.58147 0.89533,0.36155 0.52294,1.73361 -1.3275,4.89115 -1.41455,2.41374 -2.27329,4.87179 -1.90832,5.46233 0.36498,0.59054 0.12338,1.72462 -0.53687,2.52018 -0.66026,0.79556 -1.43453,4.36244 -1.72061,7.92642 -0.40714,5.07212 -0.1482,7.04762 1.19187,9.09281 1.61256,2.46108 1.61302,2.68526 0.008,3.85895 -1.39824,1.02242 -1.49558,1.6357 -0.54231,3.41691 0.63899,1.19395 1.77218,2.17083 2.51821,2.17083 0.74602,0 1.64518,1.15057 1.99812,2.55681 0.48701,1.94041 1.09642,2.41251 2.52776,1.95822 2.60882,-0.82801 3.85451,3.10637 1.67393,5.28695 -1.81523,1.81523 -2.6665,1.31826 -2.89303,-1.68895 -0.17948,-2.38272 -2.50804,-2.86431 -3.34195,-0.69117 -0.30009,0.78202 -0.0274,2.39024 0.60607,3.57381 0.63343,1.18357 1.32185,4.4375 1.52983,7.23096 0.20798,2.79346 0.84937,5.55025 1.42531,6.12619 0.57595,0.57595 1.04718,2.55453 1.04718,4.39684 0,1.84231 0.71045,4.72352 1.57878,6.40269 1.29663,2.5074 1.36424,3.571 0.37831,5.95125 -0.85363,2.06084 -0.89292,3.26879 -0.13599,4.18084 0.67472,0.81299 0.72489,1.8196 0.13701,2.7491 -0.51012,0.80655 -0.90275,2.14146 -0.87251,2.96646 0.0362,0.98906 0.34772,0.81874 0.9144,-0.5 0.70021,-1.62949 0.87245,-1.3407 0.92971,1.55887 0.0387,1.95738 0.71883,4.43238 1.51149,5.5 0.79266,1.06762 1.1986,2.93479 0.9021,4.14927 -0.33096,1.35557 0.2709,3.34569 1.5588,5.15437 1.15384,1.62043 2.0979,3.40032 2.0979,3.95531 0,0.555 2.80655,3.35418 6.23677,6.22041 3.43023,2.86622 7.03023,6.51605 8,8.11071 2.0053,3.29746 2.35249,10.8618 0.5799,12.63439 -1.68118,1.68118 -0.18199,2.76475 1.68333,1.21667 0.85158,-0.70675 1.82686,-1.00647 2.16729,-0.66604 0.34043,0.34043 -0.12044,0.9027 -1.02416,1.24949 -2.34863,0.90125 -2.0379,2.75305 0.35687,2.1268 1.34936,-0.35286 2,-0.0307 2,0.99036 0,0.95093 0.57154,1.29405 1.53785,0.92324 0.88238,-0.3386 1.78531,0.0547 2.11843,0.92281 0.36469,0.95036 1.28022,1.29088 2.46214,0.91575 1.0655,-0.33817 1.88158,-0.11898 1.88158,0.50539 0,1.27482 4.01519,-0.54114 5.23469,-2.3675 0.52919,-0.79254 0.73897,-0.78491 0.75,0.0273 0.008,0.62015 -0.65969,1.68775 -1.48469,2.37244 -0.825,0.68469 -1.5,1.71823 -1.5,2.29676 0,0.57853 1.03235,0.082 2.29412,-1.10334 l 2.29411,-2.15521 1.73253,2.02344 c 0.95289,1.1129 2.1104,1.78991 2.57224,1.50448 0.46184,-0.28543 1.64459,0.37042 2.62834,1.45745 0.98375,1.08703 2.54389,1.97642 3.46698,1.97642 0.92309,0 1.97657,0.29823 2.34107,0.66272 0.3645,0.3645 2.08572,0.81851 3.82494,1.00891 1.73922,0.1904 3.69489,0.78827 4.34595,1.3286 0.65106,0.54033 1.47911,0.68704 1.84013,0.32603 1.33912,-1.33912 6.0526,-1.17439 8.92694,0.31199 1.63145,0.84366 3.81326,1.31243 4.84846,1.04171 1.03521,-0.27071 2.1342,-0.0845 2.44221,0.41392 0.78435,1.2691 2.82003,1.12807 4.24198,-0.29388 z m -14.8,-12.85902 c 0,-0.58246 0.45,-0.7809 1,-0.44098 0.55,0.33992 1,0.81648 1,1.05902 0,0.24254 -0.45,0.44098 -1,0.44098 -0.55,0 -1,-0.47656 -1,-1.05902 z m -12.60699,-10.52277 c 0.33385,-0.86998 0.65305,-3.00748 0.70935,-4.75 l 0.10236,-3.16821 0.80434,3.41135 c 0.8661,3.67328 0.38092,6.08865 -1.22304,6.08865 -0.55,0 -0.72685,-0.7118 -0.39301,-1.58179 z m 3.60699,0.0818 c 0,-0.825 0.675,-1.5 1.5,-1.5 0.825,0 1.5,0.675 1.5,1.5 0,0.825 -0.675,1.5 -1.5,1.5 -0.825,0 -1.5,-0.675 -1.5,-1.5 z M 198.30062,185.44442 c 0.59355,-2.3649 0.80066,-2.47511 1.87929,-1 1.91394,2.61747 2.63747,1.95992 2.30211,-2.09218 -0.25994,-3.14072 -0.71656,-3.80438 -2.81037,-4.08468 -1.375,-0.18407 -2.9275,-0.74657 -3.45,-1.25 -0.5225,-0.50342 -1.7049,-0.91532 -2.62756,-0.91532 -0.92265,0 -2.23775,-0.675 -2.92244,-1.5 -0.68469,-0.825 -1.8102,-1.5 -2.50112,-1.5 -1.70882,0 -3.88949,5.54396 -3.04134,7.73204 0.64906,1.67448 0.75732,1.67013 2.04735,-0.0822 1.46076,-1.98424 3.49511,-1.45506 3.49511,0.90916 0,0.79254 0.60277,1.44098 1.33948,1.44098 0.73672,0 1.85207,1.125 2.47857,2.5 1.47667,3.24094 2.97344,3.17896 3.81092,-0.15782 z m 8.37103,-1.84218 c 0,-0.825 -0.45,-1.5 -1,-1.5 -0.55,0 -1,0.675 -1,1.5 0,0.825 0.45,1.5 1,1.5 0.55,0 1,-0.675 1,-1.5 z m -25.88194,-14.82639 c -1.85096,-1.85095 -2.11806,-1.90087 -2.11806,-0.39583 0,0.94722 0.675,1.72222 1.5,1.72222 0.825,0 1.53553,0.7875 1.57895,1.75 0.0545,1.20716 0.24617,1.32995 0.61805,0.39583 0.29651,-0.74479 -0.41401,-2.30729 -1.57894,-3.47222 z m 99.79826,-15.07278 c 0.63866,-0.76954 1.30744,-3.02884 1.48617,-5.02068 0.17873,-1.99183 1.06129,-4.43514 1.96124,-5.42957 2.13034,-2.354 2.08221,-3.51986 -0.11373,-2.75512 -1.63049,0.56783 -1.63464,0.51942 -0.0608,-0.70881 2.16434,-1.68903 4.61962,-10.91704 3.04438,-11.44212 -1.07491,-0.3583 0.29395,-5.6959 2.75551,-10.74453 1.51935,-3.11618 3.14661,-10.61803 3.19678,-14.73751 0.025,-2.05563 0.38562,-3.527325 0.80128,-3.270425 0.41567,0.25689 0.80514,-2.56123 0.8655,-6.2625 0.0604,-3.70127 0.38544,-8.58941 0.72241,-10.86254 0.37906,-2.557068 0.19557,-4.390746 -0.48121,-4.809019 -1.79583,-1.109883 -1.24197,-5.409914 0.98345,-7.635336 2.37364,-2.373625 1.89544,-4.922682 -0.92347,-4.922682 -3.01048,0 -4.41876,-2.353456 -2.22725,-3.722076 2.69208,-1.681227 3.53327,-7.646472 1.51306,-10.729701 -1.29003,-1.968834 -1.49442,-3.768245 -0.95546,-8.411899 0.90227,-7.774003 -0.94893,-11.648927 -6.24086,-13.063331 -36.33723,-9.712067 -68.13021,-6.907645 -100.74332,8.886448 l -12,5.811438 0.35679,5.860162 c 0.23205,3.811424 1.0612,6.849414 2.37167,8.689796 1.89092,2.655565 1.92406,3.114165 0.53868,7.454934 -1.42755,4.472903 -1.39861,4.708965 0.87834,7.164546 2.84271,3.065739 3.21549,7.291919 0.60452,6.853521 -2.44026,-0.409736 -3.26608,-1.881582 -2.58292,-4.603498 0.41595,-1.65731 -0.008,-2.740616 -1.47321,-3.767105 -1.13139,-0.792455 -2.20035,-2.41412 -2.37547,-3.603702 -0.17512,-1.189582 -0.85509,-2.33952 -1.51104,-2.555419 -1.33176,-0.438329 -2.37021,4.019928 -2.38421,10.235886 -0.005,2.2 -0.009,7.135217 -0.008,10.967147 3.3e-4,3.83193 -0.32025,7.20693 -0.7124,7.5 -1.45108,1.08446 -3.19255,7.781435 -2.83098,10.886805 0.20534,1.76356 1.10578,4.0158 2.00099,5.005 2.37665,2.62616 2.02084,3.16679 -1.62234,2.46508 l -3.25,-0.62597 2.5,2.1177 c 2.2588,1.91339 2.31248,2.12092 0.55636,2.15098 -1.41887,0.0243 0.0661,1.92191 5.5,7.02843 4.094,3.84733 7.78114,6.99733 8.19364,7 1.33903,0.009 0.79169,-2.04193 -0.69757,-2.61341 -0.79616,-0.30552 -2.65527,-2.13886 -4.13134,-4.07409 -3.54751,-4.65103 -0.88796,-3.22395 6.73917,3.61615 3.64992,3.27329 6.55909,5.07619 8.19098,5.07619 1.3919,0 2.83722,0.49592 3.21182,1.10203 0.3746,0.60612 2.24048,1.75359 4.14639,2.54993 2.65663,1.11001 3.79239,1.17644 4.86692,0.28466 0.77088,-0.63978 1.15501,-1.56225 0.8536,-2.04993 -0.92699,-1.49991 1.80871,-0.98066 3.65993,0.69467 1.6017,1.44952 1.91901,1.40973 3.80606,-0.47732 1.94833,-1.94875 1.94651,-5.10404 -0.003,-5.10404 -0.49115,0 -0.89301,-0.46156 -0.89301,-1.02568 0,-0.58409 1.2916,-0.35777 3,0.52568 2.69142,1.39179 4.44849,0.51325 2,-1 -0.55,-0.33992 -1,-1.02625 -1,-1.52518 0,-1.12684 7.8559,4.10348 10.42152,6.93846 1.03865,1.1477 2.26871,2.08672 2.73347,2.08672 1.41221,0 0.94642,-3.40481 -0.82459,-6.02749 l -1.66959,-2.47251 2.91959,2.49281 c 1.60578,1.37105 4.7196,4.28656 6.9196,6.47891 3.79946,3.78626 4.01643,3.87124 4.3277,1.69501 l 0.3277,-2.2911 2.47087,2.66612 c 1.61808,1.74593 3.14438,2.48998 4.4223,2.1558 1.22218,-0.31961 1.95143,-0.007 1.95143,0.83705 0,0.74105 0.46245,1.63318 1.02767,1.9825 0.66128,0.40869 0.83882,-0.55072 0.49798,-2.69098 l -0.5297,-3.32612 2.02703,2.39166 c 1.11486,1.31542 2.18054,2.21542 2.36816,2 1.09889,-1.26167 7.60886,-15.50337 7.60886,-16.64572 0,-1.81362 4.67222,-11.97688 7.02488,-15.28088 2.77816,-3.90157 4.41132,-11.281515 3.05669,-13.812655 -0.84579,-1.58037 -0.72436,-3.00469 0.52163,-6.11873 1.4305,-3.57518 1.45079,-4.31977 0.17025,-6.24837 -1.27384,-1.918501 -1.26913,-2.659615 0.0381,-5.987416 1.7209,-4.380967 2.39485,-4.591525 5.32329,-1.663094 1.91827,1.918273 1.96898,2.227604 0.5,3.04969 -2.03327,1.137858 -2.16019,4.8155 -0.16622,4.8155 0.89459,0 1.24363,-0.58629 0.89301,-1.5 -0.31659,-0.824997 -0.0775,-1.499997 0.53138,-1.499997 0.60885,0 1.10699,1.26 1.10699,2.799997 0,1.54 0.50079,3.30079 1.11287,3.91287 1.32593,1.32593 0.34524,3.28713 -1.64372,3.28713 -1.03669,0 -1.32307,1.05841 -1.07574,3.97573 0.18539,2.18666 -0.0212,3.75432 -0.45907,3.48369 -1.17585,-0.72671 -2.36224,1.6539 -1.19724,2.40239 2.23943,1.438795 3.05589,6.378635 3.22738,19.526565 0.0764,5.85883 0.59597,9.57371 1.52431,10.8991 1.22044,1.74242 1.19736,2.41878 -0.173,5.06876 -0.86975,1.68191 -1.68318,4.87732 -1.80762,7.1009 -0.12444,2.22359 -0.68721,5.70785 -1.25061,7.74282 -0.56339,2.03496 -0.77683,3.94746 -0.47429,4.25 0.98441,0.98441 2.94578,0.58146 4.13305,-0.84911 z m -86.91632,-21.10083 c -0.69443,-0.83674 -0.80272,-1.5 -0.24489,-1.5 0.55,0 1.5602,0.675 2.24489,1.5 0.69443,0.83674 0.80272,1.5 0.24489,1.5 -0.55,0 -1.5602,-0.675 -2.24489,-1.5 z m -7,-4.5 c -0.90129,-0.58246 -1.02463,-0.97549 -0.30902,-0.98469 0.65504,-0.008 1.4691,0.43469 1.80902,0.98469 0.7673,1.24153 0.42112,1.24153 -1.5,0 z m 60,-1.5 c 0,-0.825 0.45,-1.5 1,-1.5 0.55,0 1,0.675 1,1.5 0,0.825 -0.45,1.5 -1,1.5 -0.55,0 -1,-0.675 -1,-1.5 z m -57.65794,-3.95308 c -2.07308,-1.89919 -3.47043,-3.75189 -3.10521,-4.1171 0.75769,-0.7577 5.95031,3.19362 7.64859,5.82018 1.86419,2.88317 -0.50774,1.99405 -4.54338,-1.70308 z M 171.30098,85.311495 c -0.72509,-1.17323 2.12639,-3.786877 3.08531,-2.82796 0.36647,0.36647 -0.0412,1.37378 -0.90584,2.23846 -0.93519,0.93519 -1.81821,1.17403 -2.17947,0.5895 z m 97.37067,-20.709267 c 0,-0.825 0.1882,-1.5 0.41821,-1.5 0.23002,0 1.13002,-0.273144 2,-0.606988 1.13395,-0.435137 1.58179,-0.01046 1.58179,1.5 0,1.440321 -0.63281,2.106988 -2,2.106988 -1.11111,0 -2,-0.666667 -2,-1.5 z m 8.5,-3.71322 c -3.84244,-1.351674 -5.5,-2.680503 -5.5,-4.409224 0,-1.802056 3.90385,-1.772695 5.92126,0.04453 2.15386,1.940149 7.07874,3.113369 7.07874,1.686322 0,-0.609623 0.45,-1.108408 1,-1.108408 1.63123,0 1.13678,3.733537 -0.58179,4.393012 -2.1388,0.820734 -4.34104,0.652127 -7.91821,-0.606232 z m -9.9427,-4.368541 c -1.06676,-0.780031 -1.51605,-1.411347 -0.99843,-1.402926 1.38226,0.02249 3.96096,1.798195 3.4106,2.348554 -0.25994,0.259937 -1.34542,-0.165596 -2.41217,-0.945628 z m -47.5573,77.616953 c 0,-0.53065 -0.9,-1.44648 -2,-2.03518 -2.40154,-1.28526 -2.57251,-0.71537 -0.42857,1.42857 1.81138,1.81138 2.42857,1.96555 2.42857,0.60661 z m 76,-101.035192 c 0,-0.549999 -0.45,-1 -1,-1 -0.55,0 -1,0.450001 -1,1 0,0.55 0.45,1 1,1 0.55,0 1,-0.45 1,-1 z"
       id="path837-5"
       clip-path="url(#clipPath843-9)"
       transform="matrix(0.65950482,0,0,0.65950482,-23.563448,-13.230109)"
       inkscape:export-xdpi="100"
       inkscape:export-ydpi="100" />
    <path
       style="fill:url(#linearGradient839);fill-opacity:1"
       d="M 2.6716473,221.14877 V 1.19529 L 128.42165,0.89875901 c 69.1625,-0.163092 176.69527,-0.164257 238.96171,-0.0026 l 113.2117,0.29394199 0.2883,107.206069 c 0.15856,58.96333 0.15767,157.94356 -0.002,219.95606 l -0.29024,112.75 H 241.63139 2.6716473 Z M 239.67165,394.04322 c 0,-0.51754 -0.45,-0.94098 -1,-0.94098 -0.55,0 -1,0.70156 -1,1.55902 0,0.85746 0.45,1.2809 1,0.94098 0.55,-0.33992 1,-1.04148 1,-1.55902 z m -17,-1.38196 c 0,-0.24254 -0.45,-0.7191 -1,-1.05902 -0.55,-0.33992 -1,-0.14148 -1,0.44098 0,0.58246 0.45,1.05902 1,1.05902 0.55,0 1,-0.19844 1,-0.44098 z m -29.54271,-30.48992 c 0.31644,-0.512 0.11799,-1.21356 -0.44098,-1.55902 -0.55897,-0.34546 -1.01631,0.0734 -1.01631,0.9309 0,1.75653 0.60006,2.01516 1.45729,0.62812 z m 3.54271,-13.0691 c 0,-0.55 -0.19844,-1 -0.44098,-1 -0.24254,0 -0.7191,0.45 -1.05902,1 -0.33992,0.55 -0.14148,1 0.44098,1 0.58246,0 1.05902,-0.45 1.05902,-1 z m 57.8,-15.2 c 2.00051,-2.00051 1.37213,-4.40475 -2.3,-8.8 -1.925,-2.30407 -3.5,-3.84665 -3.5,-3.42795 0,0.41871 -0.23759,0.52369 -0.52798,0.2333 -0.29039,-0.29038 -0.0947,-1.66765 0.43492,-3.06059 0.78329,-2.0602 0.50342,-3.15541 -1.50036,-5.87139 -1.85295,-2.51152 -2.30587,-4.05542 -1.82799,-6.23118 0.43686,-1.989 0.28954,-2.67872 -0.47166,-2.20828 -0.69546,0.42982 -1.10693,-0.23672 -1.10693,-1.79311 0,-3.78631 -1.02147,-5.6408 -3.10699,-5.6408 -1.04115,0 -1.89301,-0.34971 -1.89301,-0.77714 0,-0.42743 -1.35,-2.2552 -3,-4.06172 -1.65,-1.80652 -3.02782,-3.8193 -3.06182,-4.47286 -0.16294,-3.13169 -1.86536,-15.48272 -2.45111,-17.78268 -0.61138,-2.40061 -0.42901,-2.58062 2.4415,-2.40985 1.70622,0.1015 4.1974,1.21342 5.53595,2.47092 1.5204,1.42834 3.06485,2.04417 4.1155,1.641 1.05189,-0.40365 3.03726,0.39167 5.30088,2.12348 1.99051,1.52287 4.5191,2.84621 5.6191,2.94076 4.02438,0.34593 8.25759,-1.94035 9.87577,-5.33373 1.02721,-2.15408 2.30704,-3.33818 3.60805,-3.33818 1.16402,0 2.01618,-0.66247 2.01618,-1.56739 0,-1.07002 0.58712,-1.38104 1.85024,-0.98014 1.36792,0.43416 2.56726,-0.44742 4.60082,-3.38185 2.41496,-3.48479 2.6694,-4.55933 2.08527,-8.8065 -0.56697,-4.12234 -0.36014,-5.11359 1.39918,-6.70575 2.02993,-1.83707 2.69353,-4.596 1.41337,-5.87616 -0.35812,-0.35812 -1.25084,0.12938 -1.98382,1.08333 -1.15422,1.50219 -1.30846,0.99793 -1.15177,-3.76554 0.13158,-4.00003 -0.3501,-6.30598 -1.76619,-8.45531 -1.54032,-2.3379 -1.9721,-4.8557 -2.06678,-12.05173 -0.0658,-5.00302 -0.48726,-10.19813 -0.93652,-11.54468 -1.06208,-3.18333 -0.72383,-6.05107 1.62813,-13.80362 1.99216,-6.56658 2.60623,-16.14466 1.03506,-16.14466 -1.8356,0 -2.11813,-3.5596 -1.08706,-13.69594 l 1.06058,-10.42643 -2.8999,-2.70891 c -3.57451,-3.3391 -4.78062,-6.74082 -3.10561,-8.75909 1.71916,-2.07146 -0.0844,-3.65156 -3.69579,-3.23781 -1.95888,0.22443 -3.27919,1.19756 -4.17639,3.07818 -0.72157,1.5125 -1.72689,2.75 -2.23405,2.75 -1.15687,0 -4.96877,7.77053 -4.96877,10.12881 0,0.96424 -0.424,2.0152 -0.94222,2.33548 -0.83384,0.51534 -1.29065,2.8122 -2.50885,12.61449 -0.17627,1.41833 -1.04689,3.98348 -1.93471,5.70034 -0.88782,1.71686 -1.64711,4.15641 -1.68731,5.42122 -0.0885,2.7849 -3.30567,8.37824 -4.65841,8.09908 -0.53458,-0.11032 -2.47696,1.35218 -4.3164,3.25 -2.14671,2.21484 -4.28804,3.45058 -5.97929,3.45058 -1.78236,0 -3.06487,0.8035 -3.96394,2.48343 -0.731,1.36589 -2.20938,2.76282 -3.2853,3.1043 -2.32877,0.73913 -9.69568,-2.54977 -9.7121,-4.33589 -0.0159,-1.72982 -8.99471,-7.20964 -11.85118,-7.23284 -1.28684,-0.0104 -3.19019,0.9935 -4.22968,2.231 -1.2609,1.50108 -2.14638,1.88376 -2.66029,1.1497 -1.37477,-1.96367 -5.6817,-3.80285 -9.58458,-4.09287 -2.09784,-0.15589 -4.78546,-0.9637 -5.9725,-1.79513 -1.18704,-0.83144 -3.42225,-1.5117 -4.96713,-1.5117 -1.57429,0 -3.06188,-0.6593 -3.38448,-1.5 -0.31659,-0.825 -1.13272,-1.5 -1.81363,-1.5 -0.68091,0 -2.05251,-0.9 -3.048,-2 -0.99549,-1.1 -2.30273,-1.96447 -2.90499,-1.92105 -0.6373,0.046 -0.57485,0.289 0.1494,0.58147 0.89533,0.36155 0.52294,1.73361 -1.3275,4.89115 -1.41455,2.41374 -2.27329,4.87179 -1.90832,5.46233 0.36498,0.59054 0.12338,1.72462 -0.53687,2.52018 -0.66026,0.79556 -1.43453,4.36244 -1.72061,7.92642 -0.40714,5.07212 -0.1482,7.04762 1.19187,9.09281 1.61256,2.46108 1.61302,2.68526 0.008,3.85895 -1.39824,1.02242 -1.49558,1.6357 -0.54231,3.41691 0.63899,1.19395 1.77218,2.17083 2.51821,2.17083 0.74602,0 1.64518,1.15057 1.99812,2.55681 0.48701,1.94041 1.09642,2.41251 2.52776,1.95822 2.60882,-0.82801 3.85451,3.10637 1.67393,5.28695 -1.81523,1.81523 -2.6665,1.31826 -2.89303,-1.68895 -0.17948,-2.38272 -2.50804,-2.86431 -3.34195,-0.69117 -0.30009,0.78202 -0.0274,2.39024 0.60607,3.57381 0.63343,1.18357 1.32185,4.4375 1.52983,7.23096 0.20798,2.79346 0.84937,5.55025 1.42531,6.12619 0.57595,0.57595 1.04718,2.55453 1.04718,4.39684 0,1.84231 0.71045,4.72352 1.57878,6.40269 1.29663,2.5074 1.36424,3.571 0.37831,5.95125 -0.85363,2.06084 -0.89292,3.26879 -0.13599,4.18084 0.67472,0.81299 0.72489,1.8196 0.13701,2.7491 -0.51012,0.80655 -0.90275,2.14146 -0.87251,2.96646 0.0362,0.98906 0.34772,0.81874 0.9144,-0.5 0.70021,-1.62949 0.87245,-1.3407 0.92971,1.55887 0.0387,1.95738 0.71883,4.43238 1.51149,5.5 0.79266,1.06762 1.1986,2.93479 0.9021,4.14927 -0.33096,1.35557 0.2709,3.34569 1.5588,5.15437 1.15384,1.62043 2.0979,3.40032 2.0979,3.95531 0,0.555 2.80655,3.35418 6.23677,6.22041 3.43023,2.86622 7.03023,6.51605 8,8.11071 2.0053,3.29746 2.35249,10.8618 0.5799,12.63439 -1.68118,1.68118 -0.18199,2.76475 1.68333,1.21667 0.85158,-0.70675 1.82686,-1.00647 2.16729,-0.66604 0.34043,0.34043 -0.12044,0.9027 -1.02416,1.24949 -2.34863,0.90125 -2.0379,2.75305 0.35687,2.1268 1.34936,-0.35286 2,-0.0307 2,0.99036 0,0.95093 0.57154,1.29405 1.53785,0.92324 0.88238,-0.3386 1.78531,0.0547 2.11843,0.92281 0.36469,0.95036 1.28022,1.29088 2.46214,0.91575 1.0655,-0.33817 1.88158,-0.11898 1.88158,0.50539 0,1.27482 4.01519,-0.54114 5.23469,-2.3675 0.52919,-0.79254 0.73897,-0.78491 0.75,0.0273 0.008,0.62015 -0.65969,1.68775 -1.48469,2.37244 -0.825,0.68469 -1.5,1.71823 -1.5,2.29676 0,0.57853 1.03235,0.082 2.29412,-1.10334 l 2.29411,-2.15521 1.73253,2.02344 c 0.95289,1.1129 2.1104,1.78991 2.57224,1.50448 0.46184,-0.28543 1.64459,0.37042 2.62834,1.45745 0.98375,1.08703 2.54389,1.97642 3.46698,1.97642 0.92309,0 1.97657,0.29823 2.34107,0.66272 0.3645,0.3645 2.08572,0.81851 3.82494,1.00891 1.73922,0.1904 3.69489,0.78827 4.34595,1.3286 0.65106,0.54033 1.47911,0.68704 1.84013,0.32603 1.33912,-1.33912 6.0526,-1.17439 8.92694,0.31199 1.63145,0.84366 3.81326,1.31243 4.84846,1.04171 1.03521,-0.27071 2.1342,-0.0845 2.44221,0.41392 0.78435,1.2691 2.82003,1.12807 4.24198,-0.29388 z m -14.8,-12.85902 c 0,-0.58246 0.45,-0.7809 1,-0.44098 0.55,0.33992 1,0.81648 1,1.05902 0,0.24254 -0.45,0.44098 -1,0.44098 -0.55,0 -1,-0.47656 -1,-1.05902 z m -12.60699,-10.52277 c 0.33385,-0.86998 0.65305,-3.00748 0.70935,-4.75 l 0.10236,-3.16821 0.80434,3.41135 c 0.8661,3.67328 0.38092,6.08865 -1.22304,6.08865 -0.55,0 -0.72685,-0.7118 -0.39301,-1.58179 z m 3.60699,0.0818 c 0,-0.825 0.675,-1.5 1.5,-1.5 0.825,0 1.5,0.675 1.5,1.5 0,0.825 -0.675,1.5 -1.5,1.5 -0.825,0 -1.5,-0.675 -1.5,-1.5 z M 198.30062,185.44442 c 0.59355,-2.3649 0.80066,-2.47511 1.87929,-1 1.91394,2.61747 2.63747,1.95992 2.30211,-2.09218 -0.25994,-3.14072 -0.71656,-3.80438 -2.81037,-4.08468 -1.375,-0.18407 -2.9275,-0.74657 -3.45,-1.25 -0.5225,-0.50342 -1.7049,-0.91532 -2.62756,-0.91532 -0.92265,0 -2.23775,-0.675 -2.92244,-1.5 -0.68469,-0.825 -1.8102,-1.5 -2.50112,-1.5 -1.70882,0 -3.88949,5.54396 -3.04134,7.73204 0.64906,1.67448 0.75732,1.67013 2.04735,-0.0822 1.46076,-1.98424 3.49511,-1.45506 3.49511,0.90916 0,0.79254 0.60277,1.44098 1.33948,1.44098 0.73672,0 1.85207,1.125 2.47857,2.5 1.47667,3.24094 2.97344,3.17896 3.81092,-0.15782 z m 8.37103,-1.84218 c 0,-0.825 -0.45,-1.5 -1,-1.5 -0.55,0 -1,0.675 -1,1.5 0,0.825 0.45,1.5 1,1.5 0.55,0 1,-0.675 1,-1.5 z m -25.88194,-14.82639 c -1.85096,-1.85095 -2.11806,-1.90087 -2.11806,-0.39583 0,0.94722 0.675,1.72222 1.5,1.72222 0.825,0 1.53553,0.7875 1.57895,1.75 0.0545,1.20716 0.24617,1.32995 0.61805,0.39583 0.29651,-0.74479 -0.41401,-2.30729 -1.57894,-3.47222 z m 99.79826,-15.07278 c 0.63866,-0.76954 1.30744,-3.02884 1.48617,-5.02068 0.17873,-1.99183 1.06129,-4.43514 1.96124,-5.42957 2.13034,-2.354 2.08221,-3.51986 -0.11373,-2.75512 -1.63049,0.56783 -1.63464,0.51942 -0.0608,-0.70881 2.16434,-1.68903 4.61962,-10.91704 3.04438,-11.44212 -1.07491,-0.3583 0.29395,-5.6959 2.75551,-10.74453 1.51935,-3.11618 3.14661,-10.61803 3.19678,-14.73751 0.025,-2.05563 0.38562,-3.527325 0.80128,-3.270425 0.41567,0.25689 0.80514,-2.56123 0.8655,-6.2625 0.0604,-3.70127 0.38544,-8.58941 0.72241,-10.86254 0.37906,-2.557068 0.19557,-4.390746 -0.48121,-4.809019 -1.79583,-1.109883 -1.24197,-5.409914 0.98345,-7.635336 2.37364,-2.373625 1.89544,-4.922682 -0.92347,-4.922682 -3.01048,0 -4.41876,-2.353456 -2.22725,-3.722076 2.69208,-1.681227 3.53327,-7.646472 1.51306,-10.729701 -1.29003,-1.968834 -1.49442,-3.768245 -0.95546,-8.411899 0.90227,-7.774003 -0.94893,-11.648927 -6.24086,-13.063331 -36.33723,-9.712067 -68.13021,-6.907645 -100.74332,8.886448 l -12,5.811438 0.35679,5.860162 c 0.23205,3.811424 1.0612,6.849414 2.37167,8.689796 1.89092,2.655565 1.92406,3.114165 0.53868,7.454934 -1.42755,4.472903 -1.39861,4.708965 0.87834,7.164546 2.84271,3.065739 3.21549,7.291919 0.60452,6.853521 -2.44026,-0.409736 -3.26608,-1.881582 -2.58292,-4.603498 0.41595,-1.65731 -0.008,-2.740616 -1.47321,-3.767105 -1.13139,-0.792455 -2.20035,-2.41412 -2.37547,-3.603702 -0.17512,-1.189582 -0.85509,-2.33952 -1.51104,-2.555419 -1.33176,-0.438329 -2.37021,4.019928 -2.38421,10.235886 -0.005,2.2 -0.009,7.135217 -0.008,10.967147 3.3e-4,3.83193 -0.32025,7.20693 -0.7124,7.5 -1.45108,1.08446 -3.19255,7.781435 -2.83098,10.886805 0.20534,1.76356 1.10578,4.0158 2.00099,5.005 2.37665,2.62616 2.02084,3.16679 -1.62234,2.46508 l -3.25,-0.62597 2.5,2.1177 c 2.2588,1.91339 2.31248,2.12092 0.55636,2.15098 -1.41887,0.0243 0.0661,1.92191 5.5,7.02843 4.094,3.84733 7.78114,6.99733 8.19364,7 1.33903,0.009 0.79169,-2.04193 -0.69757,-2.61341 -0.79616,-0.30552 -2.65527,-2.13886 -4.13134,-4.07409 -3.54751,-4.65103 -0.88796,-3.22395 6.73917,3.61615 3.64992,3.27329 6.55909,5.07619 8.19098,5.07619 1.3919,0 2.83722,0.49592 3.21182,1.10203 0.3746,0.60612 2.24048,1.75359 4.14639,2.54993 2.65663,1.11001 3.79239,1.17644 4.86692,0.28466 0.77088,-0.63978 1.15501,-1.56225 0.8536,-2.04993 -0.92699,-1.49991 1.80871,-0.98066 3.65993,0.69467 1.6017,1.44952 1.91901,1.40973 3.80606,-0.47732 1.94833,-1.94875 1.94651,-5.10404 -0.003,-5.10404 -0.49115,0 -0.89301,-0.46156 -0.89301,-1.02568 0,-0.58409 1.2916,-0.35777 3,0.52568 2.69142,1.39179 4.44849,0.51325 2,-1 -0.55,-0.33992 -1,-1.02625 -1,-1.52518 0,-1.12684 7.8559,4.10348 10.42152,6.93846 1.03865,1.1477 2.26871,2.08672 2.73347,2.08672 1.41221,0 0.94642,-3.40481 -0.82459,-6.02749 l -1.66959,-2.47251 2.91959,2.49281 c 1.60578,1.37105 4.7196,4.28656 6.9196,6.47891 3.79946,3.78626 4.01643,3.87124 4.3277,1.69501 l 0.3277,-2.2911 2.47087,2.66612 c 1.61808,1.74593 3.14438,2.48998 4.4223,2.1558 1.22218,-0.31961 1.95143,-0.007 1.95143,0.83705 0,0.74105 0.46245,1.63318 1.02767,1.9825 0.66128,0.40869 0.83882,-0.55072 0.49798,-2.69098 l -0.5297,-3.32612 2.02703,2.39166 c 1.11486,1.31542 2.18054,2.21542 2.36816,2 1.09889,-1.26167 7.60886,-15.50337 7.60886,-16.64572 0,-1.81362 4.67222,-11.97688 7.02488,-15.28088 2.77816,-3.90157 4.41132,-11.281515 3.05669,-13.812655 -0.84579,-1.58037 -0.72436,-3.00469 0.52163,-6.11873 1.4305,-3.57518 1.45079,-4.31977 0.17025,-6.24837 -1.27384,-1.918501 -1.26913,-2.659615 0.0381,-5.987416 1.7209,-4.380967 2.39485,-4.591525 5.32329,-1.663094 1.91827,1.918273 1.96898,2.227604 0.5,3.04969 -2.03327,1.137858 -2.16019,4.8155 -0.16622,4.8155 0.89459,0 1.24363,-0.58629 0.89301,-1.5 -0.31659,-0.824997 -0.0775,-1.499997 0.53138,-1.499997 0.60885,0 1.10699,1.26 1.10699,2.799997 0,1.54 0.50079,3.30079 1.11287,3.91287 1.32593,1.32593 0.34524,3.28713 -1.64372,3.28713 -1.03669,0 -1.32307,1.05841 -1.07574,3.97573 0.18539,2.18666 -0.0212,3.75432 -0.45907,3.48369 -1.17585,-0.72671 -2.36224,1.6539 -1.19724,2.40239 2.23943,1.438795 3.05589,6.378635 3.22738,19.526565 0.0764,5.85883 0.59597,9.57371 1.52431,10.8991 1.22044,1.74242 1.19736,2.41878 -0.173,5.06876 -0.86975,1.68191 -1.68318,4.87732 -1.80762,7.1009 -0.12444,2.22359 -0.68721,5.70785 -1.25061,7.74282 -0.56339,2.03496 -0.77683,3.94746 -0.47429,4.25 0.98441,0.98441 2.94578,0.58146 4.13305,-0.84911 z m -86.91632,-21.10083 c -0.69443,-0.83674 -0.80272,-1.5 -0.24489,-1.5 0.55,0 1.5602,0.675 2.24489,1.5 0.69443,0.83674 0.80272,1.5 0.24489,1.5 -0.55,0 -1.5602,-0.675 -2.24489,-1.5 z m -7,-4.5 c -0.90129,-0.58246 -1.02463,-0.97549 -0.30902,-0.98469 0.65504,-0.008 1.4691,0.43469 1.80902,0.98469 0.7673,1.24153 0.42112,1.24153 -1.5,0 z m 60,-1.5 c 0,-0.825 0.45,-1.5 1,-1.5 0.55,0 1,0.675 1,1.5 0,0.825 -0.45,1.5 -1,1.5 -0.55,0 -1,-0.675 -1,-1.5 z m -57.65794,-3.95308 c -2.07308,-1.89919 -3.47043,-3.75189 -3.10521,-4.1171 0.75769,-0.7577 5.95031,3.19362 7.64859,5.82018 1.86419,2.88317 -0.50774,1.99405 -4.54338,-1.70308 z M 171.30098,85.311495 c -0.72509,-1.17323 2.12639,-3.786877 3.08531,-2.82796 0.36647,0.36647 -0.0412,1.37378 -0.90584,2.23846 -0.93519,0.93519 -1.81821,1.17403 -2.17947,0.5895 z m 97.37067,-20.709267 c 0,-0.825 0.1882,-1.5 0.41821,-1.5 0.23002,0 1.13002,-0.273144 2,-0.606988 1.13395,-0.435137 1.58179,-0.01046 1.58179,1.5 0,1.440321 -0.63281,2.106988 -2,2.106988 -1.11111,0 -2,-0.666667 -2,-1.5 z m 8.5,-3.71322 c -3.84244,-1.351674 -5.5,-2.680503 -5.5,-4.409224 0,-1.802056 3.90385,-1.772695 5.92126,0.04453 2.15386,1.940149 7.07874,3.113369 7.07874,1.686322 0,-0.609623 0.45,-1.108408 1,-1.108408 1.63123,0 1.13678,3.733537 -0.58179,4.393012 -2.1388,0.820734 -4.34104,0.652127 -7.91821,-0.606232 z m -9.9427,-4.368541 c -1.06676,-0.780031 -1.51605,-1.411347 -0.99843,-1.402926 1.38226,0.02249 3.96096,1.798195 3.4106,2.348554 -0.25994,0.259937 -1.34542,-0.165596 -2.41217,-0.945628 z m -47.5573,77.616953 c 0,-0.53065 -0.9,-1.44648 -2,-2.03518 -2.40154,-1.28526 -2.57251,-0.71537 -0.42857,1.42857 1.81138,1.81138 2.42857,1.96555 2.42857,0.60661 z m 76,-101.035192 c 0,-0.549999 -0.45,-1 -1,-1 -0.55,0 -1,0.450001 -1,1 0,0.55 0.45,1 1,1 0.55,0 1,-0.45 1,-1 z"
       id="path837"
       clip-path="url(#clipPath843)"
       transform="matrix(0.65950482,0,0,0.65950482,-23.563692,-13.230109)"
       inkscape:export-xdpi="100"
       inkscape:export-ydpi="100" />
  </g>
</svg>
