<?xml version="1.0" encoding="UTF-8" standalone="no"?>
<svg
   xmlns:dc="http://purl.org/dc/elements/1.1/"
   xmlns:cc="http://creativecommons.org/ns#"
   xmlns:rdf="http://www.w3.org/1999/02/22-rdf-syntax-ns#"
   xmlns:svg="http://www.w3.org/2000/svg"
   xmlns="http://www.w3.org/2000/svg"
   xmlns:sodipodi="http://sodipodi.sourceforge.net/DTD/sodipodi-0.dtd"
   xmlns:inkscape="http://www.inkscape.org/namespaces/inkscape"
   version="1.1"
   id="svg2"
   width="200"
   height="100"
   viewBox="0 0 200.00001 100"
   sodipodi:docname="revolverg.svg"
   inkscape:version="1.0.1 (3bc2e813f5, 2020-09-07)">
  <metadata
     id="metadata8">
    <rdf:RDF>
      <cc:Work
         rdf:about="">
        <dc:format>image/svg+xml</dc:format>
        <dc:type
           rdf:resource="http://purl.org/dc/dcmitype/StillImage" />
        <dc:title></dc:title>
      </cc:Work>
    </rdf:RDF>
  </metadata>
  <defs
     id="defs6" />
  <sodipodi:namedview
     pagecolor="#ffffff"
     bordercolor="#666666"
     borderopacity="1"
     objecttolerance="10"
     gridtolerance="10"
     guidetolerance="10"
     inkscape:pageopacity="0"
     inkscape:pageshadow="2"
     inkscape:window-width="1920"
     inkscape:window-height="1017"
     id="namedview4"
     showgrid="false"
     showguides="true"
     inkscape:guide-bbox="true"
     inkscape:zoom="2.2283644"
     inkscape:cx="108.35149"
     inkscape:cy="132.00731"
     inkscape:window-x="-8"
     inkscape:window-y="-8"
     inkscape:window-maximized="1"
     inkscape:current-layer="g10" />
  <g
     inkscape:groupmode="layer"
     inkscape:label="Image"
     id="g10">
    <path
       id="path1699"
       style="fill:#e6e6e6;stroke-width:0.34288"
       d="m -1173.3427,1494.0132 c -6.1504,-0.9191 -11.1014,-2.8918 -14.693,-5.8547 -2.4842,-2.0495 -3.5626,-3.5669 -4.4319,-6.2366 -0.5358,-1.6455 -0.5846,-3.329 -0.3638,-12.5459 0.1406,-5.8549 0.5972,-29.328 1.0154,-52.1624 0.418,-22.8344 0.8584,-41.9277 0.9786,-42.4295 0.2952,-1.2339 1.8093,-4.9204 4.0857,-9.9482 l 1.8877,-4.169 0.3637,-13.624 c 0.2426,-9.0904 0.5636,-14.7877 0.9648,-17.1217 1.9198,-11.1701 5.7067,-21.131 11.4893,-30.2207 2.7967,-4.3963 4.6722,-6.6655 5.9559,-7.206 1.2863,-0.5418 3.3081,-0.4707 4.5295,0.1591 2.5751,1.3276 9.201,13.9658 12.443,23.7328 3.4426,10.3718 4.1336,15.8066 4.0224,31.6321 l -0.085,12.1662 1.9466,5.0185 c 1.0705,2.7602 2.3373,6.2504 2.8149,7.7559 l 0.8685,2.7374 -0.8353,47.6001 c -0.4596,26.1801 -0.9713,50.2257 -1.1374,53.4347 l -0.3022,5.8344 -1.423,2.2657 c -2.6232,4.1764 -8.0344,7.3003 -15.1481,8.7451 -4.0839,0.8294 -10.9706,1.0306 -14.9456,0.4367 z m 14.0188,-10.1607 c 3.1896,-0.7926 6.6821,-2.5758 7.4561,-3.8069 0.5088,-0.8095 0.7125,-7.8744 1.5006,-52.0346 l 0.912,-51.0979 -1.6921,-4.7144 c -3.2096,-8.9434 -4.3633,-11.681 -5.2307,-12.4128 -1.6714,-1.4098 -3.7047,-1.9858 -7.5052,-2.1264 -4.3287,-0.1599 -6.1377,0.3976 -8.7725,2.7036 -1.4563,1.2744 -4.1019,5.329 -4.1019,6.2863 0,0.1495 1.8698,0.274 4.1553,0.2767 2.6985,0 5.036,0.1896 6.6677,0.5318 2.7283,0.5722 7.3459,2.2366 8.8902,3.2045 l 0.9665,0.6056 -1.5463,-0.3405 c -2.1786,-0.4796 -8.4895,-0.4671 -11.0162,0.022 -3.535,0.684 -7.0291,2.3127 -9.7913,4.564 -1.828,1.49 -2.5708,2.3369 -2.7142,3.0944 -0.1698,0.8976 -1.4576,71.4163 -1.4224,77.8915 l 0.014,2.3308 1.1291,-0.3353 c 1.1078,-0.3291 1.1331,-0.3873 1.3476,-3.0912 0.1207,-1.5158 0.6654,-17.8115 1.2114,-36.2128 0.546,-18.4013 1.115,-34.0044 1.2643,-34.6736 0.1717,-0.7683 1.4576,11.7299 3.4893,33.9131 1.7696,19.3214 3.3338,36.0083 3.4758,37.082 l 0.2585,1.9519 2.7057,0.4294 c 2.5298,0.4013 10.0635,2.6436 10.4238,3.1023 0.09,0.1141 -0.741,0.105 -1.8451,-0.018 -3.2689,-0.3668 -8.0088,-0.2897 -10.7992,0.1756 -3.6966,0.6164 -8.311,2.5904 -10.6983,4.5766 -2.674,2.2248 -2.6135,2.6641 0.2597,1.8845 1.4075,-0.3819 3.6405,-0.652 6.0879,-0.7365 3.2341,-0.1118 4.4653,-0.011 7.5375,0.6189 2.0197,0.4138 4.9768,1.2296 6.5712,1.8129 l 2.899,1.0607 -5.025,-0.1505 c -7.773,-0.2327 -12.9367,1.0223 -17.3933,4.2274 -2.4885,1.7895 -3.2863,2.8346 -3.2863,4.304 0,2.0113 4.6735,4.5185 10.2544,5.501 3.6507,0.6429 9.9239,0.4552 13.3637,-0.3995 z m -11.4425,-135.3097 c 2.4133,-0.6642 3.1655,-0.7294 6.9576,-0.6036 2.7995,0.092 4.9916,0.343 6.417,0.732 l 2.1651,0.5909 0.2311,-4.8799 c 0.5083,-10.7332 -1.1811,-24.3741 -4.2206,-34.0789 -1.0543,-3.3667 -3.9612,-10.4933 -4.2799,-10.4933 -0.1119,0 -0.081,0.3764 0.069,0.8365 0.9908,3.062 2.1969,8.5805 2.7009,12.3567 0.614,4.6007 0.7816,14.6798 0.3387,20.3742 -0.2435,3.132 -0.281,3.2385 -1.0629,3.0129 -0.4458,-0.1286 -2.0282,-0.2339 -3.5163,-0.2339 -3.2795,0 -5.6537,0.8346 -7.9497,2.7947 -1.3353,1.1399 -1.5204,1.4781 -1.5204,2.7781 0,0.8141 -0.1156,2.9618 -0.256,4.7726 -0.2461,3.1654 -0.2274,3.2827 0.4831,3.0391 0.4066,-0.1394 1.9569,-0.5885 3.4449,-0.9981 z m 63.0839,145.4644 c -9.9151,-1.4812 -17.094,-6.0036 -19.0457,-11.9981 -0.5499,-1.6891 -0.6026,-3.1797 -0.3922,-11.0941 0.1333,-5.0286 0.5943,-28.5783 1.0237,-52.3327 0.8878,-49.1307 0.3818,-43.3932 4.6597,-52.8231 l 2.3615,-5.2053 0.3271,-13.4154 c 0.2149,-8.8056 0.5283,-14.6097 0.9119,-16.8913 1.9045,-11.3272 5.6415,-21.3126 11.3267,-30.2648 4.1185,-6.4851 5.6563,-7.9281 8.3853,-7.8672 2.3429,0.052 3.2079,0.8264 6.023,5.3907 5.5009,8.9185 9.4659,19.0744 11.6466,29.8301 0.7901,3.8975 0.8712,5.456 0.9575,18.4013 l 0.094,14.1432 2.5784,6.9955 c 1.4183,3.8476 2.6695,7.8305 2.7804,8.851 0.2638,2.4265 -1.3565,95.8578 -1.7703,102.0828 -0.3102,4.667 -0.3525,4.8388 -1.7323,7.0355 -3.5778,5.6963 -11.8553,9.1876 -22.4834,9.483 -3.1236,0.087 -5.6226,-0.018 -7.6522,-0.3211 z m 11.8701,-9.7274 c 4.926,-0.8211 9.573,-3.0155 10.0465,-4.7443 0.1105,-0.4019 0.6174,-23.6563 1.1272,-51.6765 l 0.927,-50.9459 -1.856,-5.1706 c -4.1752,-11.6325 -4.4088,-12.0468 -7.5051,-13.3148 -1.8843,-0.7717 -7.485,-1.0899 -9.5848,-0.5446 -1.6461,0.4275 -4.5513,2.3813 -5.6825,3.8214 -0.7593,0.9666 -2.7065,4.581 -2.7065,5.0237 0,0.106 1.8698,0.1952 4.1553,0.1979 4.9472,0.011 7.8676,0.5432 12.3461,2.2719 3.6807,1.4207 4.9383,2.2592 2.5633,1.7092 -0.8126,-0.1881 -3.2167,-0.344 -5.3427,-0.3461 -6.4989,-0.011 -11.1456,1.4878 -15.3965,4.9525 l -2.4947,2.0333 -0.2181,2.5726 c -0.1804,2.126 -1.4595,71.374 -1.4223,76.9985 l 0.014,1.7331 1.1319,-0.3105 c 1.0506,-0.2882 1.1466,-0.4454 1.3384,-2.1893 0.1131,-1.0334 0.6505,-16.7292 1.1934,-34.8796 0.5429,-18.1503 1.1007,-34.3009 1.2395,-35.8902 0.2117,-2.4256 0.7955,2.9452 3.6369,33.457 1.8616,19.9905 3.4412,36.8148 3.5102,37.3873 0.1233,1.027 0.1609,1.0463 2.7891,1.4627 2.7036,0.4281 8.8569,2.2228 10.127,2.9536 0.585,0.3366 0.3299,0.3534 -1.6022,0.1049 -3.4059,-0.4377 -9.9774,-0.1083 -12.6475,0.6335 -3.7851,1.0519 -6.805,2.4997 -8.8043,4.2211 -2.57,2.2126 -2.5055,2.5836 0.3103,1.785 1.8243,-0.5174 3.1227,-0.6292 7.2476,-0.6242 4.6327,0 5.3039,0.082 8.6005,0.976 1.9667,0.5335 4.4018,1.3035 5.4115,1.7114 l 1.8359,0.7415 -5.0251,-0.1612 c -5.7903,-0.1856 -8.8394,0.2369 -12.8094,1.7747 -4.3521,1.6859 -7.8701,4.6052 -7.8701,6.5309 0,1.4101 1.8532,2.9662 5.0338,4.2265 4.6634,1.848 10.9242,2.4278 16.3849,1.5175 z m -11.1179,-135.18 c 0.8556,-0.3253 2.3739,-0.7535 3.3742,-0.9517 2.5529,-0.5058 9.1505,-0.2134 11.8756,0.5264 l 2.1652,0.5878 0.2528,-5.3364 c 0.5417,-11.4349 -1.4969,-26.1568 -4.9926,-36.0558 -1.1399,-3.2278 -3.3032,-8.1297 -3.5145,-7.9634 -0.081,0.064 0.2133,1.313 0.6548,2.7757 2.2333,7.399 3.2256,19.2083 2.5044,29.8042 -0.2522,3.7034 -0.3542,4.1424 -0.9191,3.9496 -0.3495,-0.1193 -1.7021,-0.2802 -3.0057,-0.3575 -1.9924,-0.1182 -2.7473,-0.012 -4.7342,0.6941 -1.4102,0.4981 -2.9878,1.3674 -3.9109,2.1555 l -1.5471,1.3207 v 3.1243 c 0,1.7184 -0.1131,3.843 -0.2472,4.7212 -0.1435,0.9418 -0.093,1.5968 0.1245,1.5968 0.2022,0 1.0679,-0.2662 1.9233,-0.5915 z m 66.1553,145.0619 c -6.3898,-0.7993 -11.4099,-2.6526 -15.2247,-5.621 -5.0457,-3.926 -5.7109,-5.9382 -5.4019,-16.3436 0.1207,-4.0609 0.5767,-27.5032 1.0135,-52.0941 l 0.7944,-44.7107 0.9611,-2.688 c 0.5286,-1.4783 1.9343,-4.7631 3.1237,-7.2997 l 2.1627,-4.6117 0.3037,-13.2307 c 0.1672,-7.2769 0.5037,-14.5309 0.7476,-16.1201 1.9609,-12.7735 6.6414,-24.7081 13.5242,-34.4843 3.2403,-4.6027 5.1343,-5.6624 8.0881,-4.5256 1.141,0.4392 1.7461,1.076 3.3975,3.5759 4.0574,6.1416 8.4943,15.9415 10.7487,23.7404 2.5046,8.6644 3.1901,15.7853 2.8967,30.0949 l -0.1933,9.4288 2.1717,5.931 c 4.0327,11.0141 3.7165,3.2451 2.5845,63.4968 -0.9682,51.544 -1.0122,52.8851 -1.7885,54.5859 -2.9557,6.478 -11.9061,10.7223 -23.2608,11.0307 -2.4448,0.066 -5.4368,0 -6.6489,-0.1549 z m 10.6736,-9.8819 c 3.5011,-0.5836 7.1,-1.9307 8.8619,-3.3171 l 1.4154,-1.1137 0.014,-4.0198 c 0.014,-2.211 0.4225,-25.3716 0.9208,-51.4681 l 0.9057,-47.448 -1.2785,-3.6499 c -2.854,-8.1478 -4.7671,-12.6953 -5.6559,-13.4448 -1.7111,-1.4428 -3.7192,-2.0174 -7.5442,-2.1589 -3.0801,-0.114 -3.7867,-0.042 -5.3063,0.5365 -2.6229,0.9991 -5.0004,3.2694 -6.3874,6.0994 -0.6492,1.3249 -1.1805,2.5326 -1.1805,2.6836 0,0.1622 0.7526,0.1581 1.836,-0.011 4.668,-0.7237 14.2318,1.2289 17.8773,3.6501 l 0.9663,0.6418 -1.546,-0.3479 c -0.8505,-0.1914 -3.2857,-0.3497 -5.4117,-0.352 -4.135,0 -7.0055,0.4988 -10.2693,1.8002 -1.9601,0.7816 -5.6774,3.3183 -6.9928,4.7719 -0.8243,0.9108 -0.8298,1.0426 -1.5243,37.1497 -0.3834,19.9296 -0.7054,38.1105 -0.7154,40.4019 l -0.019,4.1663 1.1484,-0.315 c 0.8748,-0.24 1.1919,-0.5443 1.3303,-1.2769 0.1003,-0.5289 0.6392,-16.2227 1.1986,-34.8749 0.5592,-18.6523 1.1346,-35.282 1.2789,-36.9547 0.225,-2.6122 0.7465,2.2401 3.6938,34.3694 1.8875,20.576 3.4753,37.4513 3.5286,37.5007 0.053,0.049 1.4656,0.3479 3.1392,0.6633 2.9706,0.56 9.6344,2.583 9.9869,3.0318 0.097,0.124 -0.8164,0.097 -2.0308,-0.059 -3.325,-0.428 -9.9147,-0.09 -12.5573,0.6447 -3.785,1.0518 -6.8049,2.4997 -8.8042,4.221 -2.57,2.2126 -2.5055,2.5837 0.3102,1.785 1.8244,-0.5173 3.1228,-0.6292 7.2475,-0.6241 4.6329,0.011 5.3041,0.082 8.6006,0.976 1.9667,0.5335 4.4015,1.3 5.4107,1.7036 l 1.8347,0.7337 -5.024,-0.1524 c -5.912,-0.1793 -8.7792,0.2381 -12.9268,1.8816 -3.0199,1.1967 -5.0441,2.4845 -6.6585,4.2362 -2.2325,2.4222 -0.9262,4.4852 4.0664,6.4216 4.8515,1.882 10.7621,2.4334 16.2591,1.517 z m -7.7772,-136.1256 c 2.5943,-0.5132 9.1657,-0.2245 11.9222,0.5239 l 2.1786,0.5912 0.2641,-5.4919 c 0.5555,-11.5503 -1.3875,-25.4334 -5.0421,-36.0255 -1.0831,-3.1393 -3.2552,-8.04 -3.4835,-7.8603 -0.08,0.063 0.2864,1.6097 0.8134,3.4378 2.205,7.6499 3.0465,16.7923 2.4697,26.8296 -0.198,3.4446 -0.4195,6.3096 -0.4921,6.3668 -0.072,0.057 -0.6025,-0.036 -1.1772,-0.2088 -0.5748,-0.172 -1.9627,-0.3126 -3.0842,-0.3126 -2.4807,0 -5.9547,1.2617 -7.9669,2.8934 l -1.3466,1.092 -0.1931,4.9529 -0.1934,4.9527 1.7394,-0.6874 c 0.9567,-0.3781 2.5731,-0.8524 3.5917,-1.0538 z"
       inkscape:export-filename="C:\wamp64\www\lamanu\cv\assets\img\cartouche.png"
       inkscape:export-xdpi="33.210449"
       inkscape:export-ydpi="33.210449" />
    <path
       id="path2133"
       style="fill:#4c525a;fill-opacity:1;stroke-width:0.109117"
       d="m 40.222048,92.437217 c 1.14909,-0.333596 2.0413,-1.099167 2.59816,-2.22947 0.46984,-0.953683 0.43082,-1.733521 -0.21784,-4.348827 -1.14052,-4.598537 -2.00436,-11.051415 -1.86098,-13.901582 0.11775,-2.341097 0.67526,-4.251002 1.91407,-6.557066 1.57534,-2.932479 3.50462,-4.886711 5.92729,-6.003987 1.18381,-0.545951 2.25929,-0.781012 4.99183,-1.091028 l 1.78743,-0.202796 0.8158,0.373945 c 0.9992,0.45806 1.9999,1.285176 2.50993,2.074601 0.23677,0.36647 0.50828,1.042929 0.712,1.774115 0.73095,2.622827 2.07409,4.397861 4.30347,5.687133 1.49215,0.862932 3.92905,1.433647 5.46271,1.279367 1.33064,-0.133859 8.46258,-1.328038 9.20945,-1.542032 3.49478,-1.001352 6.08806,-3.978877 6.46355,-7.421154 0.12567,-1.152427 -0.0398,-2.590898 -0.51474,-4.474346 -0.28508,-1.13054 -0.18394,-2.084296 0.32138,-3.031213 0.41855,-0.784284 1.3812,-1.939824 1.89166,-2.270687 0.18388,-0.119191 2.99614,-0.635015 8.588509,-1.575323 9.246553,-1.554696 9.214413,-1.546758 10.367753,-2.560354 0.63114,-0.554708 1.20733,-1.434023 1.41437,-2.1586 0.0662,-0.231411 0.22603,-1.485751 0.35534,-2.787426 0.43307,-4.359637 0.77472,-5.212452 2.61975,-6.539858 1.55911,-1.121669 2.13445,-2.147006 2.22021,-3.956777 l 0.0513,-1.082507 21.06919,0.05924 c 11.5881,0.03261 23.47359,0.08744 26.4122,0.121915 l 5.34288,0.06267 0.25552,0.34653 c 0.62758,0.851054 1.62545,1.142493 3.72009,1.086476 1.27813,-0.03414 1.47426,-0.06616 2.06866,-0.337384 0.4385,-0.20009 0.75235,-0.434095 0.94492,-0.704448 l 0.28827,-0.404824 3.46957,-0.03184 c 3.86218,-0.03544 3.81803,-0.0279 4.6872,-0.801747 0.61111,-0.54411 0.8939,-1.313514 0.96259,-2.618888 l 0.0567,-1.074696 6.06948,-0.02976 6.06948,-0.02976 0.52578,-0.287199 c 1.0118,-0.552754 1.39518,-1.24029 1.86336,-3.341713 0.54067,-2.426742 0.47506,-5.001065 -0.19009,-7.458395 -0.34569,-1.27699 -0.65278,-1.824273 -1.26854,-2.26072 -0.72841,-0.516286 -1.17119,-0.589098 -3.5824,-0.589098 h -2.22727 l -0.19558,-0.50535 c -0.3051,-0.788416 -1.058,-1.7904675 -1.97276,-2.6255838 -1.36232,-1.2437004 -3.42241,-2.0231712 -5.34716,-2.0231712 -1.45881,0 -3.72631,0.6482939 -4.33235,1.2386338 -0.46094,0.4490237 -0.535,0.775291 -0.535,2.3582402 v 1.479465 l -26.74184,-0.06664 c -14.70806,-0.03666 -29.21867,-0.09603 -32.24581,-0.131959 l -5.5039,-0.06534 -0.18684,-0.364148 c -0.24998,-0.487108 -1.25557,-1.4627953 -1.83001,-1.7756419 -0.2548,-0.138798 -0.7649,-0.3552691 -1.1335,-0.481041 l -0.6701,-0.2286753 -15.507451,-0.089999 c -8.529171,-0.049509 -17.519531,-0.073653 -19.978621,-0.05367 -5.02204,0.040818 -5.34295,0.080434 -7.03334,0.868949 -1.15323,0.5379322 -3.24909,1.8847662 -4.76718,3.0634252 -0.7003,0.543755 -1.47768,1.100515 -1.72754,1.23724 -1.21028,0.662392 -2.73887,0.749571 -3.96875,0.226355 -1.02681,-0.436851 -2.66365,-1.495736 -4.40236,-2.847974 -2.13921,-1.6636838 -2.66233,-1.9312639 -4.23114,-2.1641525 -1.48451,-0.2203649 -3.08347,0.2836812 -3.71554,1.1712587 -0.2014,0.2828208 -0.31942,0.6125188 -0.35269,0.9854258 -0.0961,1.077153 0.31907,1.68565 1.81473,2.659548 1.11348,0.72502 1.34301,1.008711 1.90672,2.356332 1.41925,3.392849 3.5546,5.835896 6.17883,7.069223 0.32223,0.151447 0.61695,0.366418 0.65501,0.477708 0.0379,0.111296 -0.07,0.92878 -0.23992,1.816625 -0.44387,2.318784 -0.3932,4.68522 0.14276,6.669612 0.0482,0.177665 -0.0704,0.292681 -0.63361,0.615753 -1.57568,0.903761 -2.94662,2.254835 -3.86386,3.807803 l -0.4443,0.752313 -0.98743,0.07257 c -6.54594,0.481112 -12.55667,2.640329 -17.46476,6.27382 -3.79003,2.80582 -8.63177,8.232395 -11.48194,12.868933 -1.53793,2.501823 -3.68686,6.808041 -6.56421,13.153744 -3.0340597,6.691272 -7.3520197,16.905401 -7.7594697,18.354934 -0.16848,0.599238 -0.0728,1.480951 0.24705,2.276339 0.33983,0.845106 1.36591,1.801 2.3051,2.147414 l 0.67916,0.250521 8.4894797,0.06919 c 14.9913,0.122133 24.38412,0.100087 24.93041,-0.05845 z m -1.43919,-7.419779 c -0.65279,-2.406866 -1.29804,-6.092353 -1.58374,-9.045989 -0.34434,-3.559666 0.068,-6.807505 1.12506,-8.861219 0.1863,-0.361956 0.31474,-0.56344 0.28546,-0.447735 -0.58213,2.299073 -0.79131,4.197688 -0.69546,6.311162 0.10612,2.339641 0.85625,8.328542 1.60074,12.780073 0.21771,1.301681 0.39072,2.437683 0.38448,2.524465 -0.017,0.236809 -0.74278,-1.882747 -1.11654,-3.260757 z m -25.69488,2.45693 -2.43004,-0.06255 -0.37148,-0.345204 c -0.27274,-0.253443 -0.3715097,-0.43935 -0.3715097,-0.699338 0,-0.67687 4.6986797,-11.576071 8.2907497,-19.231476 2.79385,-5.954214 3.91666,-7.979232 6.09554,-10.993175 2.60453,-3.602762 6.21044,-7.340245 8.8851,-9.209255 3.92753,-2.744562 8.89069,-4.510668 13.48269,-4.797757 l 1.04165,-0.06513 0.4016,0.373169 0.4016,0.373164 v 5.348701 c 0,6.251848 0.0838,5.811933 -1.20455,6.287837 -2.44546,0.90339 -4.93388,2.619885 -6.62983,4.57328 -2.6828,3.090063 -4.67079,7.374732 -5.17647,11.156787 -0.38984,2.915426 0.14874,8.659489 1.37237,14.637437 0.40359,1.971677 0.37282,2.247151 -0.29399,2.630957 -0.33831,0.194711 -0.65508,0.198926 -10.70579,0.142826 -5.69645,-0.03178 -11.45072,-0.08594 -12.78722,-0.120321 z m 15.61213,-1.452483 c -0.0907,-0.112846 -0.63586,-0.702971 -1.21158,-1.311386 -0.80467,-0.85045 -1.01403,-1.132589 -0.90554,-1.220344 0.0776,-0.06281 0.55854,-0.484133 1.06867,-0.936339 l 0.92752,-0.822191 1.22316,0.983599 c 1.33663,1.074841 1.33484,1.028829 -0.014,-0.359433 l -0.8998,-0.926079 1.13144,-1.051397 1.13143,-1.051407 1.23879,1.019624 c 1.74705,1.43797 1.78691,1.460849 0.84028,0.482567 -0.46564,-0.481229 -1.05821,-1.096572 -1.3168,-1.367413 l -0.47015,-0.492436 0.58654,-0.578526 c 0.3226,-0.318192 0.81109,-0.8287 1.08556,-1.134473 0.29742,-0.331429 0.56136,-0.533707 0.65352,-0.50084 0.23511,0.08385 0.11082,-0.05717 -1.02061,-1.157816 -0.57411,-0.558515 -1.0608,-1.05788 -1.08156,-1.109683 -0.0208,-0.0518 0.28334,-0.413722 0.67571,-0.804237 0.39244,-0.390516 0.91879,-0.913869 1.16969,-1.163025 0.2509,-0.249144 0.37541,-0.424564 0.27667,-0.389813 -0.12657,0.04452 -0.50737,-0.265825 -1.29091,-1.052099 l -1.11135,-1.115281 0.55436,-0.546024 c 0.30494,-0.300321 0.85798,-0.841045 1.22911,-1.201626 l 0.6747,-0.655584 0.2762,0.234843 0.27621,0.234852 -0.19416,-0.282212 c -0.16054,-0.23335 -0.1703,-0.324391 -0.0565,-0.525922 0.13397,-0.237036 0.13159,-0.238667 -0.086,-0.05945 -0.21632,0.178179 -0.23563,0.170503 -0.58357,-0.231811 -0.19789,-0.228852 -0.64431,-0.701633 -0.992,-1.050623 l -0.63221,-0.634526 0.34073,-0.395896 c 0.1874,-0.217745 0.54387,-0.578544 0.79219,-0.801779 l 0.45142,-0.405873 0.94481,0.717637 c 0.99008,0.752079 0.98779,0.729373 -0.0382,-0.382621 l -0.63407,-0.687112 0.4049,-0.417336 c 1.66497,-1.716195 1.59489,-1.66065 1.86693,-1.479723 0.82353,0.547618 0.82586,0.547981 0.40105,0.06273 l -0.41472,-0.473736 1.00461,-1.051461 c 0.55254,-0.578299 1.07231,-1.046573 1.15509,-1.040601 0.0828,0.0064 0.15047,-0.07337 0.15047,-0.176357 0,-0.102959 -0.0347,-0.16718 -0.0775,-0.142699 -0.0426,0.02449 -0.50792,-0.417437 -1.03402,-0.982023 l -0.9566,-1.026526 1.05479,-1.037485 1.05477,-1.037478 0.65441,0.518511 c 1.97327,1.563536 2.14233,1.575344 0.6602,0.04607 -0.47011,-0.485045 -0.85477,-0.912168 -0.85477,-0.949131 0,-0.03697 0.39557,-0.43264 0.87895,-0.879228 l 0.87901,-0.812006 0.71061,0.575897 c 0.39082,0.316754 0.88638,0.700495 1.10121,0.852754 l 0.3906,0.276849 -0.31988,0.382467 c -0.53759,0.642757 -0.52339,0.683743 0.10145,0.2927 0.45949,-0.287519 0.63762,-0.349037 0.753,-0.260034 0.11784,0.09086 0.13563,0.07893 0.0807,-0.05408 -0.047,-0.11453 0.0542,-0.265514 0.30866,-0.459206 0.20854,-0.158714 0.75084,-0.619476 1.20514,-1.023903 0.61094,-0.543879 0.86581,-0.7089 0.97882,-0.633826 0.084,0.05583 0.3235,0.219249 0.53229,0.363157 l 0.37952,0.261656 -0.42518,-0.483712 -0.42523,-0.483705 0.46311,-0.540543 c 0.25474,-0.297304 0.42976,-0.540544 0.38904,-0.540544 -0.0409,0 -0.29622,0.142001 -0.56768,0.315555 -0.27144,0.173557 -0.54006,0.315561 -0.59687,0.315561 -0.0567,0 -0.55201,-0.453369 -1.10034,-1.007485 l -0.99715,-1.007479 0.99697,-0.930727 0.99696,-0.930733 0.57391,0.406706 c 0.31572,0.223693 0.59404,0.388111 0.61847,0.365368 0.0247,-0.02271 -0.14668,-0.283319 -0.38032,-0.579069 l -0.42475,-0.537726 0.3829,-0.38759 0.38297,-0.387592 -0.40444,0.344469 -0.40449,0.34447 -1.1475,-1.080562 -1.14749,-1.080566 0.42005,-0.415235 0.41999,-0.415231 -0.42844,0.336136 c -0.23556,0.184875 -0.47649,0.336131 -0.5353,0.336131 -0.0591,0 -0.37336,-0.187331 -0.69889,-0.416302 -0.32557,-0.228965 -0.61388,-0.39589 -0.64075,-0.370937 -0.0267,0.02495 0.16741,0.311473 0.43165,0.636723 0.26427,0.325243 0.43696,0.625096 0.38376,0.666331 -0.0532,0.04125 -0.54238,0.444844 -1.08711,0.896906 -1.12944,0.937341 -0.89237,0.946483 -2.23146,-0.08605 -0.44176,-0.340596 -0.82349,-0.600363 -0.84836,-0.577254 -0.025,0.02315 0.33198,0.443779 0.793,0.934825 0.46102,0.491052 0.82667,0.916487 0.81258,0.945412 -0.014,0.02889 -0.49412,0.4729 -1.06675,0.986608 l -1.04107,0.934015 -1.02468,-0.822939 c -0.56357,-0.452614 -1.02467,-0.842442 -1.02467,-0.866284 0,-0.02379 0.16468,-0.239492 0.36593,-0.479225 l 0.36598,-0.435883 -0.5109,0.382557 -0.51089,0.382559 -0.44617,-0.329965 -0.44622,-0.329966 0.33403,0.409595 0.33402,0.409601 -1.07019,0.921563 -1.07014,0.921563 -0.45354,-0.331896 -0.4536,-0.331896 0.258,0.338675 c 0.14189,0.18627 0.31202,0.369689 0.37799,0.407592 0.10938,0.06281 -2.00628,2.146345 -2.17938,2.146345 -0.0399,0 -0.34633,-0.200938 -0.68128,-0.446536 l -0.60908,-0.44653 0.49269,0.552913 c 0.27098,0.304104 0.46807,0.611546 0.43797,0.683204 -0.0301,0.07166 -0.47686,0.566065 -0.99276,1.098687 l -0.93796,0.968394 -0.38113,-0.310981 c -0.52291,-0.426631 -0.57262,-0.389723 -0.14725,0.109324 l 0.35822,0.420312 -0.49448,0.552661 c -0.84055,0.939453 -0.85124,0.994051 -0.0724,0.368575 0.41424,-0.332649 0.77525,-0.604819 0.80229,-0.604819 0.0271,0 0.44409,0.403188 0.9268,0.895979 l 0.87773,0.895962 -0.9282,0.944789 c -0.51048,0.519621 -0.99285,0.944777 -1.07184,0.944777 -0.0791,0 -0.21224,-0.07675 -0.29603,-0.170585 -0.23796,-0.266425 -2.14627,-1.7513 -2.1939,-1.707063 -0.0233,0.02176 0.44133,0.550548 1.03271,1.175142 l 1.07523,1.135611 -0.75382,0.782715 c -0.74372,0.77219 -0.88779,0.871043 -1.00737,0.691245 -0.0335,-0.05026 -0.58403,-0.488131 -1.2235,-0.972956 -1.21289,-0.919578 -1.17426,-0.810137 0.21597,0.61243 l 0.81266,0.831567 -1.2469,1.230595 -1.24693,1.230596 -0.64109,-0.495423 c -1.08661,-0.839725 -1.10681,-0.843038 -0.36831,-0.06036 l 0.71694,0.759781 -0.98988,1.002089 c -0.54443,0.551141 -1.03274,1.00208 -1.08517,1.00208 -0.0524,0 -0.28813,-0.151448 -0.52376,-0.336555 l -0.42838,-0.336545 0.36785,0.367854 c 0.20236,0.202314 0.36789,0.411993 0.36789,0.465953 0,0.05399 -0.4457,0.522317 -0.99043,1.0408 l -0.99046,0.942712 0.90558,-0.724265 c 0.49803,-0.398354 0.99633,-0.794842 1.10728,-0.881104 0.18452,-0.143473 0.2552,-0.10814 0.82951,0.41475 0.3453,0.314378 0.77386,0.740782 0.95231,0.947574 l 0.32447,0.375985 -1.04324,0.965372 -1.04318,0.965371 -1.07295,-0.860773 c -1.02399,-0.82149 -0.9552,-0.692183 0.27162,0.510572 l 0.55522,0.544339 -1.16846,1.162015 c -1.27915,1.272064 -1.1544,1.232452 -1.89159,0.600466 -0.4968,-0.425939 -0.4712,-0.198089 0.0284,0.251813 0.21788,0.196259 0.39615,0.409825 0.39615,0.474593 0,0.06482 -0.47906,0.554363 -1.06462,1.087978 l -1.06466,0.970206 0.42697,0.442882 c 0.23486,0.243583 0.79283,0.821553 1.24002,1.284365 l 0.813,0.841492 -1.1092,0.96966 c -0.61005,0.533314 -1.13539,0.971152 -1.16743,0.972974 -0.0318,0.0018 -0.37583,-0.235517 -0.76406,-0.527397 -0.38818,-0.291889 -0.70581,-0.496734 -0.70581,-0.45521 0,0.04152 0.26186,0.355282 0.58192,0.697217 l 0.5819,0.621708 -0.78002,0.744312 -0.77997,0.744323 0.86615,-0.64617 0.86609,-0.646161 0.98228,0.959172 0.98224,0.959182 -0.4941,0.485435 c -0.88108,0.865662 -0.95706,1.024221 -0.1677,0.350083 l 0.77105,-0.658543 0.27796,0.203142 c 0.15284,0.111736 0.70249,0.576624 1.22141,1.03309 l 0.94352,0.829938 -0.46441,0.487192 c -1.60073,1.679259 -1.88283,1.992826 -1.53405,1.705115 0.21478,-0.177158 0.82671,-0.683797 1.35984,-1.12587 l 0.96934,-0.803772 0.61536,0.474838 c 1.22685,0.946691 1.3208,0.959982 0.5294,0.07493 l -0.76512,-0.855677 1.04379,-0.905101 c 0.57411,-0.497809 1.07902,-0.892675 1.12205,-0.87748 0.0431,0.0152 0.50929,0.413066 1.03606,0.884153 l 0.95783,0.856513 -0.77709,0.843822 c -0.4274,0.464095 -0.77708,0.87728 -0.77708,0.918185 0,0.04097 0.34382,-0.200702 0.76405,-0.536893 0.42023,-0.336198 0.85231,-0.679891 0.96017,-0.763768 0.17746,-0.13801 0.29033,-0.07429 1.18852,0.67077 1.708,1.416858 1.77893,1.472457 1.61008,1.262287 z m -8.62252,-3.794782 -1.10008,-1.054757 1.05414,-0.909518 1.05415,-0.909509 1.08656,1.017595 1.08658,1.017611 -0.97141,0.97688 c -0.53425,0.537284 -1.00257,0.963278 -1.0406,0.946663 -0.0381,-0.01657 -0.5643,-0.504837 -1.16934,-1.084965 z m 5.02909,0.0671 -0.92281,-0.935101 0.96394,-0.859954 0.96393,-0.859955 0.9021,0.75573 c 0.49616,0.415642 0.93044,0.798265 0.96504,0.850258 0.0573,0.0864 -1.73644,1.970657 -1.88505,1.980053 -0.0352,0.0018 -0.4796,-0.416726 -0.98715,-0.931031 z m 2.36377,-2.232294 -0.83839,-0.847937 1.0648,-0.982314 1.06475,-0.982315 0.96216,0.83154 0.96216,0.831541 -1.07311,1.001397 c -0.59019,0.550767 -1.12504,1.000186 -1.18854,0.998703 -0.0634,-0.0018 -0.49273,-0.384252 -0.95383,-0.850615 z m -4.85756,-0.127012 -1.05053,-0.980311 0.93261,-0.849404 0.93265,-0.849393 1.10827,0.961931 1.10821,0.96193 -0.929,0.867785 c -0.51094,0.477277 -0.9566,0.867784 -0.9903,0.867784 -0.0339,0 -0.53407,-0.441144 -1.11191,-0.980322 z m -4.93498,0.13883 -0.96857,-0.788896 0.37842,-0.315552 c 0.20811,-0.173562 0.73434,-0.609652 1.16929,-0.969104 l 0.79089,-0.653554 0.81788,0.837613 0.81784,0.837604 -0.94001,0.947163 c -0.51696,0.520943 -0.97535,0.93511 -1.01856,0.920389 -0.0433,-0.01475 -0.51447,-0.381766 -1.04718,-0.815663 z m 7.32252,-2.340387 -1.04012,-0.972965 1.07616,-0.933188 1.07613,-0.933189 0.87175,0.769012 c 0.47943,0.422954 0.9736,0.857123 1.09811,0.964826 0.2242,0.193892 0.21593,0.204935 -0.84896,1.132571 -0.59142,0.515224 -1.10181,0.938824 -1.13415,0.941336 -0.0323,0.0018 -0.5269,-0.433268 -1.09892,-0.968403 z m 5.12931,0.0091 c -0.47232,-0.472444 -0.85876,-0.911265 -0.85876,-0.975169 0,-0.06391 0.45496,-0.536964 1.01093,-1.051242 l 1.01093,-0.935064 1.08605,0.855183 c 0.59733,0.47036 1.09032,0.886112 1.09549,0.923912 0.0106,0.07784 -2.29491,2.023416 -2.4108,2.034295 -0.0411,0.0036 -0.46152,-0.37948 -0.93384,-0.851915 z m -9.8962,-0.0018 -0.80021,-0.703699 0.85289,-0.768904 c 0.46905,-0.422898 0.91627,-0.802106 0.99382,-0.842702 0.0877,-0.04588 0.43279,0.199473 0.91321,0.649366 l 0.77225,0.723163 -0.83732,0.848576 c -0.46052,0.466717 -0.89513,0.837176 -0.96585,0.823237 -0.0707,-0.01393 -0.48865,-0.341999 -0.92879,-0.729037 z m -2.26343,-1.939867 c -0.60156,-0.499401 -1.18686,-0.989552 -1.30063,-1.089225 -0.19878,-0.174144 -0.18108,-0.203843 0.45279,-0.76029 0.3628,-0.318492 0.85846,-0.738988 1.10155,-0.934436 l 0.44192,-0.355364 1.17342,1.151489 1.17342,1.151489 -0.93368,0.872172 c -0.51352,0.47969 -0.95201,0.872172 -0.97433,0.872172 -0.0225,0 -0.53289,-0.408605 -1.13446,-0.908007 z m 9.60212,-2.299344 c 0.52691,-0.492192 1.01008,-0.892848 1.07373,-0.890327 0.0635,0.0018 0.59955,0.429746 1.19101,0.949403 l 1.07533,0.944843 -1.07533,0.93968 -1.07536,0.93968 -1.07371,-0.994187 -1.0737,-0.994177 z m -4.64005,0.41993 1.07213,-1.000441 0.79233,0.736302 0.79237,0.736292 -1.07214,1.000441 -1.0721,1.000442 -0.79236,-0.736302 -0.79237,-0.736302 z m -2.82479,-0.445086 -1.22448,-1.023602 1.20397,-1.0714 1.20399,-1.071408 0.65967,0.596106 c 0.3628,0.32786 0.86734,0.824485 1.12125,1.10361 l 0.46162,0.507504 -1.06243,0.991392 c -0.58433,0.545277 -1.07969,0.991401 -1.10078,0.991401 -0.0212,0 -0.58934,-0.460618 -1.26281,-1.023603 z m 9.94463,-2.279179 0.94764,-0.885192 1.29129,1.006924 1.29133,1.006915 -0.59922,0.481274 c -0.32961,0.264705 -0.82845,0.681112 -1.1086,0.92535 l -0.50938,0.444084 -1.13033,-1.047082 -1.13032,-1.047081 z m -4.79652,2.043217 -0.78346,-0.733643 0.89454,-0.870443 c 0.49197,-0.478744 0.93567,-0.916008 0.98597,-0.97169 0.0538,-0.05954 0.44053,0.220977 0.93928,0.681348 l 0.84783,0.782597 -0.98838,0.922728 c -0.54362,0.507504 -1.01627,0.922737 -1.05036,0.922737 -0.0339,0 -0.41453,-0.330136 -0.84542,-0.733634 z m -2.76758,-2.443929 -0.84041,-0.728736 1.03852,-0.965062 1.03852,-0.965063 1.09276,1.015445 1.09276,1.015454 -0.93978,0.952298 -0.93979,0.952308 -0.35108,-0.273954 c -0.1931,-0.150683 -0.72924,-0.601887 -1.1915,-1.00269 z m 5.24618,0.112336 -0.83363,-0.751141 0.86346,-0.852944 c 0.47491,-0.469121 0.90311,-0.852945 0.9515,-0.852945 0.0484,0 0.50245,0.349401 1.00894,0.776451 l 0.92089,0.776443 -0.94183,0.82249 c -0.51798,0.452369 -0.98546,0.824804 -1.03877,0.827634 -0.0533,0.0028 -0.4721,-0.332857 -0.93056,-0.745988 z m 1.84445,-3.396446 c 0.94302,-0.984209 1.84486,-1.847759 1.92602,-1.844245 0.0478,0.0018 0.55848,0.416244 1.13491,0.92038 l 1.04804,0.91661 -1.32564,1.080931 -1.32563,1.080932 -0.93389,-0.863297 -0.93389,-0.863304 z m -4.31134,1.228675 -1.08364,-0.92037 0.94878,-0.883854 0.94884,-0.883844 1.07557,0.927982 1.07553,0.92799 -0.86295,0.876242 c -0.47469,0.481921 -0.89802,0.876233 -0.94077,0.876233 -0.0428,0 -0.56539,-0.414168 -1.16136,-0.920379 z m 2.33496,-2.216652 -1.04625,-0.917666 1.21815,-1.128465 1.21817,-1.128465 1.00515,0.938388 1.00511,0.938396 -1.11373,1.112969 c -0.61256,0.612129 -1.14222,1.110611 -1.17703,1.107735 -0.0347,-0.0028 -0.53411,-0.418174 -1.10957,-0.922892 z m -4.86046,0.119493 c -0.54892,-0.444759 -0.99805,-0.835265 -0.99805,-0.867785 0,-0.06764 2.03478,-1.899899 2.10988,-1.899899 0.0272,0 0.44044,0.397106 0.91844,0.882451 l 0.86911,0.882451 -0.91191,0.905703 c -0.5015,0.498145 -0.92933,0.905712 -0.95065,0.905712 -0.0212,0 -0.48788,-0.363885 -1.03682,-0.808633 z m 2.3552,-2.262138 -0.92862,-0.756685 1.21943,-1.136658 c 0.67067,-0.625167 1.27246,-1.136668 1.33735,-1.136668 0.0649,0 0.49761,0.355172 0.96165,0.789278 l 0.84368,0.78927 -1.18411,1.104075 c -0.65123,0.60724 -1.2148,1.104065 -1.25241,1.104065 -0.0377,0 -0.48624,-0.340496 -0.99697,-0.756677 z m 5.101,-2.153833 0.75531,-0.701869 1.02867,0.872682 c 1.16429,0.987723 1.15317,0.829438 0.12777,1.820629 l -0.62708,0.606112 -1.01997,-0.947838 -1.02001,-0.947837 z m 2.15213,-2.0252 c 0.50368,-0.49616 0.9515,-0.915472 0.99522,-0.931814 0.0436,-0.01639 0.54439,0.362319 1.11272,0.841482 l 1.03338,0.871207 -1.04217,0.972965 -1.04217,0.972966 -0.98639,-0.91235 -0.98635,-0.912358 z m -4.44298,-0.05354 0.7961,-0.739798 0.84989,0.78449 c 0.46743,0.431475 0.84988,0.81944 0.84988,0.862167 0,0.0427 -0.31071,0.386327 -0.69049,0.763577 l -0.69045,0.685919 -0.95554,-0.808288 -0.95549,-0.808279 z m 6.00827,-1.376782 c 0,-0.05908 0.41684,-0.494585 0.93045,-0.967666 l 0.93385,-0.860164 0.68263,0.546925 c 0.37545,0.300812 0.88482,0.704173 1.13195,0.896363 l 0.44926,0.349445 -1.13194,0.993377 -1.1319,0.993377 -0.93046,-0.922073 c -0.5117,-0.50714 -0.93193,-0.970452 -0.93384,-1.029584 z m -3.82402,-0.676596 c 0.5107,-0.494376 0.94405,-0.920007 0.96305,-0.945853 0.0191,-0.02586 0.44057,0.328134 0.93687,0.786611 l 0.90238,0.833607 -0.98825,0.922592 -0.98818,0.922582 -0.87718,-0.810337 -0.87717,-0.810327 z m 2.35712,-0.649047 -0.84093,-0.827963 0.91377,-0.869923 0.91372,-0.869924 0.94595,0.810537 0.94589,0.810546 -0.95966,0.900677 c -0.52778,0.495379 -0.98621,0.894688 -1.01873,0.88735 -0.0326,-0.0073 -0.4375,-0.385909 -0.90001,-0.8413 z m -2.33784,-2.061208 -0.9549,-0.812111 0.98912,-0.923447 c 0.54404,-0.507905 1.02743,-0.923453 1.07425,-0.923453 0.0468,0 0.46213,0.365466 0.92303,0.812135 l 0.83791,0.812149 -0.90824,0.92342 c -0.49954,0.507886 -0.93029,0.923429 -0.95725,0.923429 -0.0272,0 -0.47872,-0.365452 -1.00392,-0.812122 z m 4.79669,-1.981854 0.97935,-0.97271 1.00079,0.84902 1.00078,0.849029 -1.05198,0.981669 -1.05202,0.981659 -0.92811,-0.857978 -0.92811,-0.85797 z m 6.42234,-1.074464 -0.31181,-0.34471 0.9431,-0.917521 c 0.51871,-0.504635 0.9853,-0.934058 1.03686,-0.954273 0.0515,-0.02019 0.35929,0.192793 0.68386,0.473337 0.32459,0.280552 0.80615,0.687592 1.07018,0.904539 l 0.48012,0.394445 -0.48145,0.388209 c -0.26475,0.213511 -0.78696,0.679034 -1.16052,1.03447 l -0.67916,0.646271 -0.63468,-0.640025 c -0.34905,-0.352023 -0.77496,-0.795152 -0.9465,-0.984742 z m -8.85232,0.772841 -0.88584,-0.781501 1.07532,-1.010226 1.07537,-1.010221 0.8689,0.871351 0.8689,0.871351 -0.97974,0.92038 c -0.53886,0.506211 -1.01517,0.92038 -1.05842,0.92038 -0.0433,0 -0.47733,-0.351687 -0.96449,-0.781514 z m 4.75402,-1.969511 c 0.44668,-0.453851 0.83762,-0.822884 0.86873,-0.820068 0.031,0.0028 0.51451,0.404514 1.07413,0.892667 l 1.01756,0.88755 -0.90189,0.843029 -0.90191,0.843039 -0.98441,-0.910519 -0.98435,-0.910518 z m 1.45392,-1.271378 c -0.0476,-0.09937 1.7962,-1.973194 1.94167,-1.973194 0.0598,0 0.5629,0.437837 1.11807,0.972969 l 1.00944,0.972968 -1.03279,0.932391 -1.03275,0.93239 -0.98312,-0.879798 c -0.54073,-0.483885 -0.99994,-0.914867 -1.02052,-0.957726 z m -3.68139,0.955002 c -0.50716,-0.414317 -0.93235,-0.781151 -0.94483,-0.815186 -0.0123,-0.03403 0.39908,-0.481724 0.91461,-0.994859 l 0.93733,-0.93297 0.56799,0.564823 c 0.31241,0.310648 0.7258,0.730485 0.91873,0.932971 l 0.35069,0.368147 -0.86856,0.815192 c -0.47765,0.448352 -0.8877,0.815191 -0.91117,0.815191 -0.0233,0 -0.45762,-0.338993 -0.96479,-0.753309 z m 7.16191,-2.425868 -1.12423,-0.97027 1.02155,-0.953246 1.02158,-0.953251 1.13493,1.054627 1.13488,1.054635 -0.99545,0.86403 c -0.54748,0.475215 -1.01204,0.866213 -1.03225,0.868889 -0.0205,0.0028 -0.54269,-0.431764 -1.16101,-0.965414 z m -8.69999,36.941514 c 0.82789,-0.211218 1.18573,-0.688824 1.09247,-1.458001 -0.14585,-1.202372 -1.88814,-1.554012 -2.5677,-0.518246 -0.2691,0.410143 -0.28991,0.798674 -0.0691,1.289772 0.22743,0.505838 0.96581,0.834053 1.54433,0.686475 z m -18.62153,-0.14554 c 0.93185,-0.377187 1.06598,-1.586242 0.24695,-2.226622 -0.30964,-0.242144 -0.43184,-0.271742 -0.95544,-0.231391 -1.07468,0.08285 -1.61271,0.900095 -1.18458,1.799479 0.33419,0.702007 1.1148,0.973557 1.89307,0.658534 z m -0.38712,-4.243646 c 0.14079,-0.166825 0.13681,-0.170549 -0.0427,-0.0397 -0.10891,0.07938 -0.19805,0.162236 -0.19805,0.184077 0,0.08658 0.093,0.03086 0.2408,-0.144356 z m -4.38482,-1.030304 c 1.30055,-3.368049 2.79546,-6.986866 4.25633,-10.303477 4.57452,-10.385652 6.72631,-14.066659 11.02653,-18.862691 4.59724,-5.127268 8.81388,-7.959727 14.26523,-9.582423 1.53228,-0.456116 1.58143,-0.395924 0.11559,0.141605 -3.91544,1.435796 -6.95564,3.310353 -10.07126,6.209761 -3.53429,3.289103 -6.69672,7.242782 -9.10336,11.381164 -1.36456,2.346397 -3.5511,6.814042 -7.84272,16.024471 -1.1187,2.400875 -2.3928,5.135428 -2.8313697,6.076783 -0.4386,0.941364 -0.81359,1.696575 -0.83333,1.67823 -0.0195,-0.0183 0.43853,-1.261877 1.0183597,-2.763423 z m 56.67077,-12.929815 c -2.12878,-0.528935 -3.95675,-2.060852 -4.77332,-4.000372 -0.45871,-1.089617 -0.57655,-2.754291 -0.2717,-3.839292 0.36083,-1.284183 0.58597,-1.642214 1.25226,-1.991652 0.83099,-0.435818 1.27601,-0.820051 2.20965,-1.908056 0.82045,-0.956077 1.19412,-1.26916 1.74842,-1.464991 l 0.31324,-0.110653 -0.0585,0.76081 c -0.0825,1.070962 0.0859,2.786228 0.36661,3.737444 0.45606,1.54478 1.46936,3.02982 3.26139,4.7797 0.95817,0.935628 1.38053,1.145553 1.53793,0.764388 0.12658,-0.306584 0.072,-0.459325 -0.66455,-1.858875 -0.80583,-1.531326 -1.30351,-3.049386 -1.30399,-3.977449 0,-0.754838 0.29267,-1.777858 1.02151,-3.566858 l 0.58561,-1.437207 2.73361,-0.461538 c 1.50343,-0.253848 2.87058,-0.4538 3.038,-0.444352 0.88304,0.04984 2.62825,1.276523 3.44707,2.422877 1.09256,1.52954 1.73333,4.770105 1.2941,6.544584 -0.52499,2.12114 -2.40312,4.049007 -4.66874,4.792419 -0.26953,0.08841 -2.19646,0.439815 -4.28199,0.780848 -2.0856,0.341043 -3.91929,0.643166 -4.07495,0.671399 -0.46456,0.08421 -2.04948,-0.02867 -2.71154,-0.193174 z m -8.38595,-12.388947 c 1.00933,-1.994247 1.476,-3.798611 1.476,-5.706333 0,-5.186274 -3.77557,-9.717152 -8.88186,-10.658586 -0.50014,-0.09221 -0.92659,-0.177593 -0.9477,-0.189755 -0.0806,-0.04635 0.89565,-1.482649 1.36172,-2.003667 1.08489,-1.212799 2.88897,-2.256651 4.57618,-2.647852 0.97121,-0.225192 2.53055,-0.479378 2.57747,-0.420161 0.17725,0.223561 0.7529,1.172168 0.7263,1.196868 -0.0193,0.01789 -0.45804,0.08637 -0.97512,0.15216 -1.39044,0.176904 -2.58214,0.482863 -3.47404,0.891922 -0.81453,0.373553 -1.90016,1.149879 -2.324,1.661874 -0.22731,0.274495 -0.22906,0.29303 -0.0332,0.356548 2.73174,0.886226 4.89526,2.418481 6.46185,4.576347 1.58842,2.187946 2.29077,4.360058 2.29077,7.084302 0,1.792941 -0.32651,3.471648 -0.98557,5.067719 -0.0793,0.191826 0.56377,0.183896 0.97134,-0.01193 0.17278,-0.08303 0.62733,-0.527215 1.01017,-0.987067 1.13887,-1.367998 2.28196,-2.206315 3.54327,-2.598441 0.2864,-0.08905 8.64684,-1.528513 18.57874,-3.198779 9.931835,-1.67099 18.165742,-3.0912 18.297572,-3.156748 0.50394,-0.250647 0.59,-0.54783 0.81508,-2.815126 0.47324,-4.766201 1.00528,-6.274159 2.8596,-8.104486 l 0.55948,-0.552223 h -2.90284 -2.90285 V 31.782868 31.03568 l 3.62221,0.0372 3.62221,0.0372 v -3.024097 -3.02409 h -3.62221 -3.62221 V 23.431507 21.80113 h 3.61172 3.61172 l 0.0386,-0.578665 0.0386,-0.578664 -3.6505,1.03e-4 -3.65049,1.04e-4 V 20.065492 19.48697 h 3.68191 3.68192 l -0.0314,-1.498899 -0.0314,-1.498899 -3.5806,-0.02779 -3.58053,-0.02774 -0.0585,-1.33966 c -0.0319,-0.736815 -0.0958,-1.448917 -0.14143,-1.582446 l -0.083,-0.242791 3.69374,0.07496 3.69373,0.07496 v -0.418819 c 0,-0.48457 -0.27977,-0.782984 -0.90559,-0.966043 -0.28008,-0.08192 -5.85177,-0.124251 -19.016462,-0.144433 l -18.62029,-0.02856 -0.45274,0.21827 c -0.24907,0.120054 -0.62805,0.4359 -0.84233,0.701888 -0.36113,0.448482 -0.44339,0.492906 -1.13188,0.611594 -0.40834,0.07039 -1.09635,0.238189 -1.529,0.372891 -0.4326,0.134706 -0.7985,0.23379 -0.81315,0.22019 -0.0854,-0.07935 0.68861,-1.533021 1.05202,-1.975831 0.51082,-0.62246 1.41871,-1.231741 2.03266,-1.364089 0.49747,-0.107266 29.136979,-0.113804 35.642432,-0.0081 3.77564,0.06131 4.22717,0.08723 4.58438,0.263181 0.55206,0.271978 1.00113,0.680469 1.2578,1.144144 0.21156,0.382366 0.21735,0.688966 0.18768,9.992659 l -0.0308,9.598261 -0.25306,0.439915 c -0.13919,0.241954 -0.52118,0.64429 -0.84896,0.894078 -2.77264,2.113256 -3.33424,3.444732 -3.82967,9.079406 -0.15029,1.709006 -0.36542,2.302185 -1.02574,2.82736 -0.23948,0.190487 -0.62703,0.402264 -0.86115,0.470608 -0.23418,0.06834 -8.473812,1.472845 -18.310312,3.121112 -9.83648,1.648261 -18.11375,3.073291 -18.39389,3.166718 -1.10395,0.368164 -1.82765,0.934097 -3.10644,2.429169 -0.95155,1.112533 -1.15498,1.202628 -3.17545,1.406242 -0.934,0.09413 -1.78381,0.177723 -1.88845,0.185753 -0.15209,0.01165 -0.081,-0.201348 0.35546,-1.063552 z m -2.19674,-1.66522 c 1.54155,-4.169802 0.898,-7.784085 -1.85903,-10.440274 -1.24959,-1.203936 -2.70877,-1.991871 -4.40743,-2.380026 l -0.87067,-0.198973 0.79228,-0.0061 c 3.1887,-0.0244 6.32958,2.276882 7.56339,5.541564 0.3095,0.818961 0.35214,1.079691 0.39435,2.412513 0.0537,1.7032 -0.10379,2.60068 -0.6895,3.922758 -0.36559,0.825366 -1.08689,2.045009 -1.16596,1.971566 -0.0253,-0.02349 0.0839,-0.393875 0.24257,-0.823065 z m -4.37457,-4.361773 c -1.40482,-0.675079 -0.72377,-2.733511 0.83986,-2.538612 0.60979,0.07599 1.00451,0.369761 1.20479,0.896566 0.44002,1.157701 -0.86742,2.207734 -2.04465,1.642046 z m 12.59774,-2.930712 c -0.68028,-0.330276 -1.26775,-1.178754 -1.26775,-1.831068 0,-0.394797 0.21614,-0.965747 0.36558,-0.965747 0.0644,0 0.70894,0.505841 1.43216,1.124082 0.72328,0.618252 1.41056,1.205316 1.52726,1.304586 0.20595,0.175186 0.20264,0.185323 -0.1132,0.344304 -0.41082,0.206793 -1.53871,0.220623 -1.94405,0.02379 z m 17.49034,-0.52176 c -0.63541,-0.251601 -0.91018,-0.626027 -0.96368,-1.313138 -0.0439,-0.569342 -0.0223,-0.640295 0.3147,-0.996526 0.68481,-0.7248 1.7276,-0.757084 2.43063,-0.07526 0.4628,0.448943 0.53342,1.26989 0.15409,1.792837 -0.28671,0.395344 -0.89421,0.735874 -1.31317,0.736137 -0.14208,9.2e-5 -0.42221,-0.06473 -0.62257,-0.144056 z M 65.236978,43.11166 c -0.60634,-0.515317 -1.10245,-0.969221 -1.10245,-1.008678 0,-0.101649 0.47686,-0.290826 0.93401,-0.370516 0.84378,-0.147098 1.97113,0.429252 2.30887,1.180357 0.18725,0.416506 0.19906,1.29464 0.0223,1.65522 l -0.13069,0.266393 -0.4648,-0.39292 c -0.25565,-0.216108 -0.96096,-0.814545 -1.56725,-1.329856 z m 14.41623,-4.953691 c 0.24279,-1.207525 1.37938,-2.517249 2.67353,-3.080787 l 0.65442,-0.284944 7.21614,-0.02927 7.215998,-0.02927 v -1.084347 -1.084363 l -4.602821,-0.0697 c -2.531637,-0.03834 -8.669517,-0.0697 -13.639797,-0.0697 h -9.03693 v -2.156475 -2.156307 h 4.57322 4.57328 l -0.15873,-0.490051 c -0.0873,-0.269528 -0.15868,-0.665122 -0.15868,-0.879098 v -0.389041 l -0.69577,-0.06758 c -0.38266,-0.03715 -2.36924,-0.06758 -4.41456,-0.06758 h -3.71876 v -0.683708 -0.683706 h 4.50688 4.50694 l 0.26354,-0.590916 c 0.41,-0.919247 1.41052,-1.841068 2.58557,-2.382229 l 0.96705,-0.445397 7.28139,-0.02998 7.281382,-0.02998 v -0.925777 -0.925781 l -6.367095,-0.06972 c -3.501957,-0.03834 -9.665347,-0.06976 -13.696377,-0.06982 l -7.32928,-9.9e-5 v -1.367419 -1.36742 h 4.97802 4.97801 l -0.44622,-0.641603 c -0.24547,-0.352889 -0.477,-0.731556 -0.51456,-0.84149 -0.0656,-0.191927 -0.24576,-0.199876 -4.53173,-0.199876 h -4.46352 v -0.359553 c 0,-0.745206 -0.38133,-0.692308 4.99045,-0.692308 h 4.85303 l 0.0732,0.289261 c 0.13986,0.55276 0.7582,1.501837 1.25678,1.928852 0.27573,0.236236 0.84167,0.579304 1.25749,0.762379 l 0.7561,0.332865 7.716095,0.05258 c 4.243803,0.02894 7.733039,0.07626 7.753726,0.105191 0.02052,0.02894 0.02112,1.129433 0,2.445573 l -0.03623,2.392976 h -7.507662 c -7.165419,0 -7.540709,0.0096 -8.234089,0.208504 -1.40013,0.40187 -2.54787,1.445912 -2.9836,2.714062 -0.28092,0.817718 -0.18455,2.0249 0.22369,2.800229 0.43669,0.829432 1.26256,1.579759 2.18626,1.986356 l 0.76688,0.337565 5.20688,0.06642 c 2.863764,0.03654 6.365711,0.07204 7.782067,0.07889 l 2.575127,0.01247 v 2.62704 2.62703 l -7.668866,-0.02369 -7.668818,-0.02369 -0.71321,0.306007 c -0.87526,0.375576 -1.61596,1.105257 -1.94073,1.911924 -0.12786,0.317562 -0.23248,0.622942 -0.23248,0.678625 0,0.05568 -0.22267,0.101238 -0.49472,0.101238 h -0.49477 z m -13.41553,-0.601008 c -1.67652,-0.511448 -3.16399,-1.397724 -4.48873,-2.674573 -1.05516,-1.016928 -1.66609,-1.84798 -2.37604,-3.232031 -0.83612,-1.629995 -1.13712,-2.830035 -1.20805,-4.81584 -0.0654,-1.830849 0.0542,-2.869404 0.49297,-4.27599 1.24452,-3.990849 4.80063,-7.227323 8.6744,-7.894765 l 0.53764,-0.09264 v 0.801613 0.801606 l -0.90794,0.23499 c -3.6473,0.943954 -6.27899,3.663443 -6.6049,6.825386 l -0.0636,0.618192 0.14986,-0.631114 c 0.68902,-2.901443 3.2946,-5.192401 6.55641,-5.764714 l 0.87201,-0.153012 v 8.042437 8.042438 l -0.36788,-0.06835 c -1.77846,-0.330464 -3.54707,-1.273648 -4.95993,-2.645166 -1.5436,-1.498357 -2.45674,-3.097188 -2.99529,-5.244725 l -0.26373,-1.051859 -0.008,1.403489 c -0.0175,3.07583 1.05252,5.760764 3.09789,7.774662 1.44403,1.421775 2.98637,2.305194 4.73889,2.714264 l 0.75802,0.176937 v 0.73276 0.73276 l -0.47675,-0.07485 c -0.26216,-0.04114 -0.78214,-0.168019 -1.15545,-0.281908 z M 55.112198,29.95714 c -0.12163,-0.599312 -0.15498,-1.248934 -0.1162,-2.262805 0.0567,-1.476894 0.2209,-2.239104 0.67479,-3.127612 0.22417,-0.43881 0.26223,-0.470581 0.29611,-0.247468 0.0574,0.376069 -0.19467,6.436987 -0.28477,6.855297 l -0.0769,0.356925 -0.1612,-0.366839 c -0.0887,-0.201763 -0.23792,-0.745141 -0.33183,-1.207498 z m 28.32176,-1.014266 c -0.56775,-0.13458 -1.49379,-0.750842 -1.67079,-1.111859 -0.12551,-0.256042 -0.0967,-0.304985 0.46178,-0.782125 0.96765,-0.826839 0.99462,-0.830182 6.69114,-0.829886 2.712396,1.04e-4 6.039508,0.03134 7.393622,0.06935 l 2.461934,0.06909 v 1.41505 1.415056 l -7.442468,-0.06866 c -4.427458,-0.04087 -7.625868,-0.112144 -7.895218,-0.176002 z m 83.932712,-3.039683 v -1.367419 h 1.24513 1.24514 v 1.367419 1.36741 h -1.24514 -1.24513 z m 3.87038,0.131479 -0.035,-0.447039 h 3.52294 c 2.21195,0 3.60442,0.04054 3.74186,0.108889 0.24552,0.122101 0.29081,0.518511 0.0815,0.71301 -0.10319,0.09592 -1.02531,0.120766 -3.70706,0.09992 l -3.56968,-0.02774 z m -37.96984,0.33008 -22.15753,-0.06678 v -0.456716 -0.456711 l 9.93269,0.05082 c 5.46301,0.02796 17.81517,0.07947 27.44932,0.11448 l 17.5167,0.06365 v 0.434105 0.434105 l -5.2918,-0.02511 c -2.9105,-0.01379 -15.26271,-0.05514 -27.44938,-0.09187 z M 81.609798,25.19034 c 0.265,-0.47622 1.25298,-1.245548 1.85311,-1.443034 1.00861,-0.33189 6.17453,-0.455355 12.50721,-0.298911 l 2.801526,0.0692 v 0.390754 c 0,0.35349 -0.03373,0.397017 -0.353774,0.456493 -0.523244,0.09724 -7.247906,0.07433 -11.056662,-0.03769 -3.05639,-0.08987 -3.36866,-0.08264 -3.97296,0.09215 -0.69121,0.199904 -1.68069,0.767457 -1.78702,1.025014 -0.0349,0.08379 -0.0859,0.131052 -0.11391,0.105004 -0.0277,-0.02603 0.0271,-0.187594 0.12248,-0.359005 z M 175.5232,23.483912 h -4.25732 l 0.0434,-0.420745 0.0434,-0.420746 h 10.832 c 8.27401,0 10.86409,0.02982 10.96782,0.126222 0.0747,0.06943 0.13582,0.225623 0.13582,0.347117 0,0.514347 0.16639,0.503881 -6.89511,0.433786 -3.63668,-0.0361 -8.52797,-0.06563 -10.86958,-0.06563 z m -54.1978,-0.172696 -10.21572,-0.06325 v -0.425384 -0.425389 l 19.27109,0.07 c 10.59915,0.03852 22.95137,0.07001 27.44938,0.07002 l 8.17824,3.3e-5 v 0.478234 0.47824 L 148.77472,23.4341 c -9.47856,-0.03276 -21.83071,-0.08809 -27.44932,-0.122878 z m 46.06274,-0.32694 0.035,-0.394447 1.11523,-0.03026 c 1.23537,-0.03348 1.43161,0.0373 1.43161,0.516449 v 0.30268 h -1.30852 -1.30858 z m -23.05625,-3.446247 c -13.01157,-0.02998 -25.80947,-0.08299 -28.43978,-0.117813 l -4.78243,-0.06332 V 18.308355 17.25981 l 5.6314,0.06128 c 3.09722,0.03371 15.76774,0.08521 28.15675,0.114436 12.389,0.02922 28.47234,0.08374 35.74076,0.121128 l 13.2153,0.06796 v 0.568182 c 0,0.664822 -0.21917,1.117906 -0.6523,1.348479 -0.27803,0.148034 -1.58715,0.159124 -12.76105,0.108102 -6.84825,-0.03128 -23.09714,-0.08138 -36.10865,-0.11135 z M 55.248808,17.005954 c -0.89908,-0.196298 -2.74882,-1.058639 -3.73534,-1.741367 -0.43579,-0.301603 -1.64747,-1.354338 -2.69262,-2.33941 -1.04509,-0.985075 -2.03832,-1.875717 -2.20724,-1.979211 -0.20174,-0.123606 -0.24509,-0.188399 -0.12647,-0.188853 0.28038,-0.0011 1.40085,0.716424 2.70588,1.732657 1.28452,1.000324 2.61239,1.947147 3.34834,2.387494 2.09604,1.254188 4.41309,1.767999 5.89803,1.30788 0.7009,-0.217187 1.66982,-0.783838 2.97847,-1.741853 2.13982,-1.566499 2.2128,-1.573742 0.74264,-0.07368 -1.10064,1.123004 -2.39365,2.113857 -3.21668,2.46499 -1.02194,0.435998 -2.22691,0.491878 -3.69501,0.171357 z m 28.07557,-1.1672 c -0.66327,-0.201386 -1.64384,-1.050043 -1.85082,-1.601846 l -0.13461,-0.358797 8.61246,0.06382 c 6.349385,0.04705 8.654628,0.09635 8.772886,0.187599 0.114716,0.08845 0.160544,0.370286 0.160544,0.987451 0,0.475016 -0.02112,0.883392 -0.04704,0.907491 -0.02592,0.02412 -3.400453,0.03058 -7.499035,0.01443 -6.511435,-0.02565 -7.522935,-0.05094 -8.014325,-0.200145 z m 62.309222,-0.71841 c -12.73144,-0.02987 -25.70761,-0.0829 -28.83595,-0.117887 l -5.68797,-0.0636 v -0.67121 -0.671207 l 3.02793,0.0062 c 1.66537,0.0033 20.0557,0.06625 40.8675,0.139673 33.40072,0.117823 37.85953,0.152044 38.00982,0.291685 0.0937,0.08701 0.24166,0.409765 0.32892,0.717233 l 0.15874,0.55903 -12.36054,-0.06781 c -6.79825,-0.03729 -22.77708,-0.09222 -35.50845,-0.122075 z m 40.01376,-3.419006 c -0.52318,-0.63594 -1.79588,-1.537743 -2.82082,-1.9987484 -0.94088,-0.4231851 -2.44191,-0.8395145 -3.02672,-0.8395145 -0.487,0 -0.38489,-0.1705636 0.18141,-0.303071 1.08224,-0.2532287 2.43201,-0.075995 3.59621,0.4721942 1.15968,0.5461019 2.26948,1.7831097 2.51416,2.8023747 0.0952,0.396628 -0.0422,0.35541 -0.44424,-0.133235 z" />
    <path
       id="path2002"
       style="fill:#000000;stroke-width:0.266667"
       d="m -1250.7109,886.49384 -17.6,-0.13888 -1.5425,-0.62261 c -2.1619,-0.87258 -4.4347,-3.0412 -5.4172,-5.16885 -0.673,-1.45744 -0.7734,-1.98719 -0.7717,-4.07521 0,-2.70489 -0.3987,-1.4597 4.9353,-15.33333 7.9438,-20.66182 18.6789,-46.23142 24.2387,-57.73333 6.6279,-13.71149 15.5539,-26.18324 26.0609,-36.41314 12.8182,-12.48022 28.4612,-19.47653 46.7941,-20.92866 l 2.2975,-0.18199 0.4556,-0.95538 c 1.9718,-4.13474 6.7419,-9.19437 10.4374,-11.07065 l 0.8214,-0.41704 -0.4855,-2.61657 c -0.267,-1.43911 -0.557,-4.23657 -0.6445,-6.21657 -0.1385,-3.13416 -0.07,-4.11512 0.5307,-7.58082 0.3794,-2.18945 0.6898,-4.49794 0.6898,-5.12998 v -1.14916 l -1.8195,-0.91631 c -5.8233,-2.93257 -10.7274,-8.96345 -14.0877,-17.32463 -0.649,-1.6148 -1.4116,-3.31075 -1.6946,-3.76877 -0.2831,-0.45803 -1.6568,-1.65589 -3.0528,-2.66191 -2.7889,-2.00994 -3.7152,-3.12026 -4.1184,-4.93678 -1.0736,-4.83645 4.0039,-8.33713 10.2404,-7.06021 2.9839,0.61095 4.9157,1.64735 7.9993,4.29156 4.2874,3.67657 8.0757,6.41251 10.7597,7.77077 2.4446,1.23713 2.5584,1.26624 4.9523,1.26624 2.2967,0 2.5746,-0.0623 4.4358,-0.99508 1.1457,-0.57419 3.1134,-1.957 4.6522,-3.2693 3.3958,-2.89604 8.5634,-6.51242 11.2483,-7.87169 1.1468,-0.58059 3.045,-1.32748 4.2184,-1.65977 l 2.1333,-0.60416 46.1333,0.0886 c 49.5949,0.0953 48.0924,0.0524 51.1542,1.45771 1.7371,0.79725 4.0723,2.92692 5.1079,4.6584 l 0.7955,1.32988 12.9379,0.16513 c 7.1158,0.0908 41.21231,0.24107 75.76991,0.33388 l 62.832,0.16875 0.1192,-3.83451 c 0.1457,-4.69033 0.4412,-5.491 2.4549,-6.65345 0.749,-0.43237 2.3218,-1.10742 3.4952,-1.50012 1.877,-0.6282 2.5499,-0.714 5.6,-0.714 3.0416,0 3.7282,0.087 5.6,0.70971 1.1733,0.39033 2.898,1.16277 3.8325,1.71652 3.1274,1.85307 6.3983,5.64908 7.8184,9.07349 l 0.5805,1.4 h 5.2508 c 5.7948,0 6.7172,0.17391 8.5278,1.6079 1.3623,1.07901 2.2467,2.96779 3.0461,6.50557 1.599,7.0766 1.4329,14.07669 -0.4993,21.04631 -0.6987,2.52022 -1.5368,3.98013 -2.8366,4.94104 -1.8279,1.35148 -2.0048,1.36585 -16.8204,1.36585 h -13.8332 v 1.8 c -0.01,3.52013 -1.0946,6.59474 -2.84,8.03343 -1.8521,1.52663 -2.5822,1.63323 -11.1856,1.63323 -7.4617,0 -7.8082,0.0223 -7.9638,0.51259 -0.3017,0.95046 -2.1986,2.38413 -3.7519,2.8357 -1.1454,0.33298 -2.3318,0.41442 -5.0111,0.34399 -3.2725,-0.086 -3.6187,-0.14648 -5.1103,-0.89228 -1.052,-0.52601 -1.8138,-1.13178 -2.2244,-1.76874 l -0.6245,-0.96875 -12.8422,-0.15881 c -7.0632,-0.0873 -35.0722,-0.22663 -62.2422,-0.30953 l -49.40001,-0.15072 v 1.86515 c 0,5.10056 -1.5877,7.96256 -6.6576,12.00082 -3.0273,2.41133 -4.0762,5.8069 -4.9497,16.02392 -0.232,2.71333 -0.5394,5.45949 -0.6831,6.10258 -0.743,3.32506 -3.3656,6.60061 -6.4292,8.02986 -1.6739,0.78096 -3.6405,1.16201 -37.8137,7.32692 l -3.6,0.64945 -1.4454,1.54005 c -1.8191,1.93834 -3.3243,4.25415 -3.9087,6.01354 -0.6749,2.03207 -0.6008,4.1824 0.2784,8.07093 0.6797,3.00583 0.7835,3.9984 0.7811,7.46667 0,3.64855 -0.068,4.19915 -0.744,6.26666 -2.396,7.32605 -7.8704,12.76799 -14.8678,14.77966 -1.571,0.45165 -18.6089,3.46844 -21.1603,3.74673 -0.88,0.096 -2.6568,0.0426 -3.9484,-0.11864 -9.5598,-1.19338 -16.8507,-7.86364 -19.1424,-17.51304 -0.9598,-4.04129 -2.704,-6.67768 -5.7548,-8.69888 -2.3777,-1.5752 -3.4541,-1.99826 -4.7544,-1.86853 -3.7909,0.37821 -9.3902,1.20982 -11.1137,1.65062 -3.8569,0.98644 -7.4392,3.17933 -10.8863,6.66402 -3.5654,3.60432 -6.4708,8.26464 -8.7695,14.06664 -3.2642,8.23867 -3.4977,14.27613 -1.2134,31.37354 0.9761,7.30577 2.0335,13.13833 3.3692,18.58455 1.3923,5.67692 0.9857,8.62378 -1.5842,11.4821 -1.4297,1.59024 -2.6049,2.38455 -4.4496,3.00747 -1.1882,0.40123 -3.3348,0.43789 -22.4,0.38264 -11.5972,-0.0336 -29.0058,-0.12363 -38.6858,-0.2 z m 59.4837,-16.428 c -1.2864,-8.20009 -2.5934,-18.46391 -3.4739,-27.28157 -0.7468,-7.47921 -0.4328,-14.61118 0.8845,-20.08785 0.2724,-1.1322 0.4004,-1.99998 0.2846,-1.9284 -0.408,0.25218 -1.9124,4.55461 -2.6062,7.45361 -0.6697,2.79804 -0.7018,3.2654 -0.6956,10.13333 0,5.97871 0.1099,7.96896 0.6168,11.73333 0.9194,6.8292 1.8297,11.982 2.8619,16.20061 1.0277,4.20007 2.7476,9.91827 2.9287,9.73715 0.064,-0.0638 -0.2966,-2.74589 -0.8008,-5.96021 z m -6.724,3.35539 c 0.5014,-0.44022 0.9722,-1.11698 1.0461,-1.50391 0.074,-0.38693 -0.2741,-2.86007 -0.7734,-5.49586 -0.9116,-4.81163 -2.4482,-15.69413 -3.0595,-21.6665 -0.4756,-4.64695 -0.4144,-12.72278 0.1223,-16.13333 1.4565,-9.25659 6.0858,-19.67389 11.9139,-26.8101 4.1723,-5.10871 10.2983,-9.65891 15.767,-11.71106 0.6835,-0.25649 1.5835,-0.82196 2,-1.2566 l 0.7573,-0.79025 0.074,-13.73563 0.074,-13.73562 -0.9531,-0.95309 -0.9531,-0.95308 -2.454,0.16521 c -11.8061,0.79486 -24.601,6.00989 -33.9206,13.8256 -4.506,3.77891 -11.2428,11.16783 -15.8615,17.39706 -6.1731,8.32559 -10.3053,15.94582 -17.0764,31.49089 -8.5783,19.694 -19.7287,47.49192 -19.7287,49.18366 0,1.08834 0.4845,2.05426 1.3077,2.60693 0.7121,0.47806 7.7329,0.591 51.283,0.82492 l 9.524,0.0512 z m -21.5249,-5.53294 c -1.5941,-1.43 -3.0507,-2.71095 -3.2369,-2.84656 -0.2377,-0.17319 -0.883,0.22708 -2.1682,1.34481 -1.0063,0.87526 -2.0697,1.76259 -2.363,1.97183 -0.6081,0.43379 -0.7135,0.57134 2.0024,-2.61456 l 1.4303,-1.67781 -2.2438,-2.25552 c -1.2341,-1.24054 -2.3583,-2.25552 -2.4981,-2.25552 -0.2347,0 -4.7246,4.18524 -4.9032,4.57046 -0.043,0.0938 0.6572,1.02376 1.557,2.06667 0.8999,1.04291 1.556,1.8962 1.4581,1.8962 -0.098,0 -1.0435,-0.70727 -2.1014,-1.57172 l -1.9235,-1.57172 -2.9099,2.5675 c -3.3206,2.92988 -3.3669,2.79217 -0.2203,-0.65495 1.2205,-1.33699 2.2191,-2.49219 2.2191,-2.56711 0,-0.0749 -1.2673,-1.30973 -2.8162,-2.74403 l -2.8162,-2.60782 -1.3922,1.37493 c -1.8574,1.83431 -2.178,1.75687 -0.4689,-0.11323 0.7481,-0.81849 1.3546,-1.56849 1.3478,-1.66667 -0.01,-0.0982 -0.9968,-1.23036 -2.2,-2.51595 l -2.1877,-2.33744 -2.5333,2.03094 -2.5333,2.03095 2.3493,-2.22684 2.3493,-2.22684 -1.5029,-1.8 c -0.8265,-0.99 -1.4399,-1.8 -1.3631,-1.8 0.077,0 0.8606,0.6 1.7418,1.33334 0.8812,0.73333 1.6998,1.33333 1.8191,1.33333 0.1194,0 1.3441,-1.13181 2.7217,-2.51514 l 2.5047,-2.51514 -2.7454,-3.09416 c -2.7068,-3.0508 -2.7532,-3.08757 -3.3099,-2.6242 -0.3106,0.25847 0.7854,-0.91892 2.4354,-2.61643 1.65,-1.6975 3,-3.16994 3,-3.27207 0,-0.10214 -0.5699,-0.81057 -1.2665,-1.57428 -1.2153,-1.33259 -0.8314,-1.15745 0.875,0.39915 l 0.8086,0.73757 2.8539,-2.86282 2.854,-2.86283 -1.9959,-2.23565 c -1.0977,-1.22961 -1.9958,-2.28844 -1.9958,-2.35295 0,-0.0645 1.0354,0.8039 2.3009,1.92982 l 2.3009,2.04712 2.4797,-2.4694 2.4797,-2.46942 -2.1623,-2.35792 c -1.1893,-1.29685 -2.2657,-2.35791 -2.3921,-2.35791 -0.1263,0 -0.8545,0.56533 -1.6182,1.2563 -2.9318,2.65252 -3.1783,2.78921 -1.0212,0.56631 l 2.234,-2.30223 -0.7552,-1.02686 -0.7552,-1.02686 0.8622,0.7906 0.8622,0.79059 2.5858,-2.58583 2.5859,-2.58584 -1.0664,-1.13809 c -2.2188,-2.36821 -2.3243,-2.65728 -0.3874,-1.06162 l 2,1.64763 2.9622,-3.12872 2.9622,-3.12872 -2.4762,-2.66379 c -1.3619,-1.46509 -2.4306,-2.70936 -2.3749,-2.76505 0.056,-0.0557 1.3743,0.94575 2.9301,2.22542 1.5559,1.27968 2.8563,2.28395 2.8897,2.23172 0.033,-0.0522 0.8701,-0.94859 1.8592,-1.9919 l 1.7983,-1.89694 -1.542,-1.71021 c -0.848,-0.94062 -2.0812,-2.36699 -2.7403,-3.16973 l -1.1983,-1.45952 1.3317,1.05274 c 0.7324,0.57901 2.1397,1.75965 3.1274,2.62365 0.9876,0.86401 1.8912,1.53028 2.0079,1.4806 0.1167,-0.0497 1.2023,-1.12689 2.4124,-2.39381 l 2.2002,-2.3035 -1.7774,-1.96317 c -0.9775,-1.07975 -1.937,-2.13476 -2.1322,-2.34448 -0.3038,-0.32635 -0.5838,-0.18223 -1.9431,1 -0.8734,0.75972 -1.6667,1.38131 -1.7627,1.38131 -0.096,0 0.4878,-0.798 1.2974,-1.77334 l 1.4719,-1.77333 -0.9851,-1.2203 -0.985,-1.2203 1.2026,0.97327 1.2026,0.97326 2.3617,-2.66329 2.3617,-2.66328 -0.8757,-1.11635 c -1.4883,-1.89741 -1.4934,-1.94519 -0.083,-0.78075 0.7537,0.62209 1.4526,1.13107 1.553,1.13107 0.2246,0 5.21,-5.11157 5.21,-5.3418 0,-0.0909 -0.2995,-0.44662 -0.6656,-0.79054 -0.9247,-0.86875 -0.623,-0.99569 0.4481,-0.18849 l 0.8842,0.66635 2.527,-2.35799 2.527,-2.35799 -0.5937,-0.63196 c -0.8796,-0.93633 -0.7198,-1.12091 0.2983,-0.34441 l 0.8919,0.68032 0.5051,-0.55811 c 0.2778,-0.30696 0.7383,-0.68292 1.0233,-0.83546 0.3644,-0.19502 0.2742,0.0187 -0.3039,0.72003 l -0.8221,0.99738 1.8729,1.638 c 1.0301,0.9009 2.1616,1.8605 2.5144,2.13245 l 0.6416,0.49444 2.5289,-2.47998 2.5289,-2.47998 -0.8902,-0.9478 c -0.4896,-0.52128 -1.481,-1.66728 -2.2031,-2.54666 l -1.313,-1.59887 1.0667,0.78093 c 0.5866,0.42952 1.7429,1.35901 2.5695,2.06554 0.8266,0.70653 1.5893,1.2846 1.6949,1.2846 0.1057,0 1.3136,-1.02952 2.6844,-2.28783 l 2.4924,-2.28784 -1.1773,-1.49996 c -0.6475,-0.82497 -1.123,-1.55416 -1.0568,-1.62041 0.066,-0.0663 0.8224,0.43098 1.6803,1.10496 l 1.5597,1.22542 0.6332,-0.58383 c 0.5694,-0.52497 0.5872,-0.52794 0.1764,-0.0295 -0.2512,0.30488 -0.4563,0.60488 -0.4557,0.66667 5e-4,0.0618 1.1898,1.32726 2.643,2.81217 2.4608,2.51464 2.6732,2.67013 3.0968,2.26667 0.4252,-0.40493 0.4338,-0.39218 0.1323,0.19541 -0.2816,0.54891 -0.2236,0.7686 0.4575,1.73333 0.429,0.60761 0.8817,1.27835 1.0061,1.49053 0.2325,0.39646 -1.1774,-0.49432 -2.1479,-1.35709 -0.5354,-0.47599 -0.5842,-0.44422 -2.9221,1.90455 l -2.3775,2.38861 0.7887,0.87188 c 0.4338,0.47953 1.5334,1.66488 2.4435,2.6341 l 1.6547,1.76224 1.2574,-0.894 c 0.6916,-0.4917 1.3139,-0.83751 1.383,-0.76847 0.069,0.069 -0.3256,0.676 -0.8769,1.34879 l -1.0024,1.22328 0.844,1.05016 c 0.4641,0.5776 0.7329,1.05017 0.5973,1.05017 -0.1356,0 -0.4014,-0.18655 -0.5906,-0.41456 -0.9455,-1.13927 -1.2224,-1.04782 -3.6964,1.22101 -1.2989,1.19117 -2.6216,2.34783 -2.9393,2.57035 -0.4902,0.34335 -0.5253,0.47159 -0.2316,0.84723 0.3061,0.39158 0.2945,0.40233 -0.1007,0.0932 -0.382,-0.2988 -0.61,-0.23115 -1.5733,0.46666 -1.529,1.10756 -1.7906,1.02549 -0.7837,-0.24582 0.4626,-0.58407 0.7775,-1.16486 0.6997,-1.29066 -0.078,-0.1258 -1.2068,-1.13999 -2.5091,-2.25376 l -2.3678,-2.02503 -2.0428,2.05492 c -1.1236,1.13021 -2.0429,2.15305 -2.0429,2.27298 0,0.11993 0.8664,1.19727 1.9253,2.3941 2.7949,3.15889 2.9287,3.34155 1.9413,2.64947 -0.44,-0.30841 -1.7563,-1.35905 -2.9253,-2.33476 l -2.1253,-1.77402 -2.5062,2.54306 -2.5061,2.54306 1.1648,1.37751 c 3.3173,3.92308 3.9714,4.75753 3.6249,4.62456 -0.2408,-0.0924 -1.1484,0.70934 -2.4916,2.20091 -3.0959,3.43784 -2.9269,3.03955 -1.841,4.33923 1.2346,1.47777 1.1855,1.59278 -0.1807,0.42333 -0.616,-0.52723 -1.2163,-0.92647 -1.334,-0.88722 -0.1178,0.0393 -1.2288,1.19884 -2.4689,2.57687 l -2.2547,2.5055 0.5887,0.73079 c 0.3238,0.40194 1.11,1.34436 1.7469,2.09428 0.637,0.74991 1.0901,1.36348 1.0069,1.36348 -0.083,0 -0.9981,-0.72878 -2.033,-1.61951 -1.0349,-0.89072 -1.9778,-1.58072 -2.0953,-1.53333 -0.305,0.12299 -3.5034,3.58605 -3.5034,3.79329 0,0.0949 1.0412,1.37063 2.3137,2.83502 l 2.3136,2.66253 0.6864,-0.60234 0.6863,-0.60233 -0.6465,0.73333 -0.6465,0.73334 0.6465,0.71862 c 0.5899,0.65572 0.5531,0.64553 -0.4202,-0.11644 -0.5866,-0.45929 -2.1308,-1.80267 -3.4315,-2.98529 -1.3008,-1.18263 -2.4456,-2.15022 -2.5442,-2.15022 -0.099,0 -1.3516,1.28024 -2.7845,2.84499 l -2.6051,2.845 2.2059,2.2174 2.2058,2.2174 0.6768,-0.61172 c 3.8991,-3.52413 5.3831,-4.76241 5.5305,-4.61495 0.096,0.0961 -1.0466,1.41598 -2.5394,2.93301 -1.4929,1.51702 -2.7143,2.84977 -2.7143,2.96167 0,0.2448 1.057,1.4786 3.4889,4.07252 1.8302,1.95207 2.4295,2.69624 1.9159,2.37878 -0.2552,-0.15768 -4.8714,4.59691 -4.8714,5.01739 0,0.43323 4.631,5.17751 4.9026,5.02258 0.1636,-0.0933 0.2084,-0.0714 0.1,0.0486 -0.1087,0.12002 -0.062,0.382 0.1044,0.58219 0.2351,0.28331 0.2153,0.33067 -0.089,0.2137 -0.2613,-0.10029 -1.2519,0.82683 -2.9778,2.78718 l -2.5863,2.93745 2.7861,3.00524 c 1.5323,1.65289 2.7422,3.04901 2.6888,3.10251 -0.053,0.0535 -1.4319,-1.08584 -3.0631,-2.53186 -1.6312,-1.44602 -3.0481,-2.62803 -3.1487,-2.62669 -0.1005,10e-4 -1.3114,1.16771 -2.6907,2.59192 l -2.5079,2.58948 0.9079,1.06364 c 0.4993,0.58501 1.6874,1.93864 2.6402,3.00808 l 1.7324,1.94444 -1.8657,-1.5882 c -1.0261,-0.87351 -2.3795,-2.04952 -3.0076,-2.61336 l -1.1418,-1.02517 -2.5248,2.32201 c -1.3887,1.2771 -2.5248,2.40843 -2.5248,2.51405 0,0.10562 0.1956,0.35442 0.4348,0.55289 0.4887,0.40556 5.2504,5.83778 5.1172,5.83778 -0.047,0 -1.3897,-1.17 -2.9839,-2.6 z m -12.4689,-7.05158 2.2326,-2.31825 -2.4894,-2.68036 -2.4894,-2.68037 -1.0765,0.99601 c -0.5921,0.5478 -1.6985,1.5852 -2.4588,2.30533 l -1.3823,1.30933 2.5703,2.76396 c 1.4136,1.52018 2.6356,2.73215 2.7156,2.69328 0.08,-0.0389 1.15,-1.11389 2.3779,-2.38893 z m 13.632,-2.60952 c -10e-4,-0.0764 -1.032,-1.0872 -2.2907,-2.24623 l -2.2887,-2.10734 -2.2549,2.25493 -2.255,2.25493 2.1878,2.33832 2.1877,2.33832 2.358,-2.34702 c 1.2969,-1.29086 2.357,-2.40952 2.3558,-2.48591 z m 6.072,-6.12926 c -0.038,-0.0786 -1.0641,-1.09793 -2.2794,-2.26511 l -2.2094,-2.12214 -2.5868,2.58671 -2.5867,2.58671 2.2473,2.25904 2.2473,2.25904 2.6188,-2.58065 c 1.4403,-1.41935 2.5873,-2.64497 2.5489,-2.7236 z m -25.5564,2.59091 2.2467,-2.33279 -2.0377,-2.094 -2.0378,-2.094 -2.6787,2.39255 -2.6786,2.39256 2.203,2.09265 c 1.2116,1.15096 2.323,2.06636 2.4696,2.03423 0.1467,-0.0321 1.2777,-1.10817 2.5135,-2.3912 z m 11.6221,0.33051 2.1231,-2.13562 -2.5293,-2.51307 -2.5294,-2.51306 -2.2666,2.1037 -2.2667,2.1037 2.5281,2.54498 c 1.3904,1.39974 2.5932,2.54498 2.6729,2.54498 0.08,0 1.1002,-0.96103 2.2679,-2.13561 z m 5.8644,-5.86439 2.3889,-2.4 -2.3889,-2.4 c -1.3139,-1.32 -2.4776,-2.4 -2.5861,-2.4 -0.1085,0 -1.311,1.07216 -2.6723,2.38257 l -2.4749,2.38256 2.3944,2.41744 c 1.317,1.32959 2.5195,2.41743 2.6723,2.41743 0.1527,0 1.3527,-1.08 2.6666,-2.4 z m 12.4358,-0.78195 c 1.227,-1.09007 2.2641,-2.05973 2.3047,-2.15479 0.041,-0.0951 -1.0823,-1.16948 -2.4954,-2.38761 l -2.5692,-2.21477 -2.5675,2.56747 -2.5674,2.56746 2.2442,2.25599 c 2.5933,2.60677 1.9177,2.68253 5.6506,-0.63375 z m -24.4362,0.51573 2.1204,-2.13288 -1.8529,-1.86711 c -1.019,-1.02692 -1.916,-1.86125 -1.9933,-1.85407 -0.077,0.007 -1.1604,0.97673 -2.4071,2.15455 l -2.2667,2.1415 2,1.84005 c 1.1,1.01203 2.0628,1.84248 2.1396,1.84545 0.077,0.003 1.0938,-0.9544 2.26,-2.12749 z m -5.3312,-9.71168 c -1.4394,-1.55215 -2.719,-2.8221 -2.8438,-2.8221 -0.2449,0 -4.8405,4.18744 -4.9691,4.52787 -0.043,0.11336 1.2766,1.42065 2.9321,2.90509 l 3.01,2.69899 2.2439,-2.24387 2.2439,-2.24388 z m 11.7296,-0.40646 -1.8646,-1.85163 -2.6149,2.52749 -2.6149,2.52749 1.9482,1.83972 1.9482,1.83973 2.5314,-2.51559 2.5313,-2.51559 z m 11.8687,4.49237 2.5333,-2.3988 -1.8666,-1.72742 c -1.0267,-0.95008 -2.2642,-2.04464 -2.7501,-2.43236 l -0.8835,-0.70495 -2.3835,2.37247 -2.3835,2.37248 2.4617,2.47195 c 1.3539,1.35958 2.524,2.46598 2.6003,2.45869 0.076,-0.007 1.2786,-1.09273 2.6719,-2.41206 z m -17.355,-4.88626 2.5011,-2.51158 -2.6126,-2.80954 -2.6126,-2.80954 -2.9056,2.70194 c -2.7831,2.58812 -2.8854,2.7216 -2.4271,3.16897 1.1096,1.08311 5.2897,4.76072 5.4171,4.7658 0.076,0.003 1.2641,-1.12468 2.6397,-2.50605 z m 23.7899,-0.99499 2.3015,-2.0405 -2.4523,-2.01775 c -1.3488,-1.10976 -2.6774,-2.2664 -2.9524,-2.5703 -0.4997,-0.5522 -0.5015,-0.55108 -2.8496,1.78612 l -2.3496,2.33867 2.5853,2.59503 c 2.1797,2.18784 2.6504,2.54436 3.0004,2.27213 0.2283,-0.1776 1.4508,-1.24112 2.7167,-2.3634 z m -11.4188,-1.49838 1.0162,-1.05062 -2.0828,-1.89272 -2.0828,-1.89272 -1.421,1.38717 c -0.7815,0.76295 -1.789,1.84654 -2.2389,2.40797 l -0.8179,1.0208 1.8183,1.83233 1.8183,1.83234 1.4872,-1.29696 c 0.818,-0.71333 1.9446,-1.76974 2.5034,-2.34759 z m -6.7971,-8.50592 -2.5774,-2.57745 -2.5338,2.3775 -2.5337,2.37749 2.7129,2.57929 2.713,2.57929 2.3982,-2.37934 2.3983,-2.37933 z m 11.3031,4.26505 c 1.2162,-1.1252 2.2415,-2.06548 2.2785,-2.08951 0.037,-0.024 -0.9715,-0.98935 -2.2413,-2.14517 l -2.3085,-2.1015 -2.08,2.25767 -2.08,2.25767 1.9146,1.93333 c 1.053,1.06333 2.0025,1.93333 2.11,1.93333 0.1075,0 1.1905,-0.92062 2.4067,-2.04582 z m -5.5218,-5.15452 2.1212,-2.13369 -2.3885,-2.39965 c -1.3137,-1.31981 -2.4556,-2.39965 -2.5376,-2.39965 -0.082,0 -1.1644,0.95593 -2.4055,2.12429 l -2.2566,2.12429 2.5334,2.39746 c 1.3933,1.31861 2.5961,2.40268 2.6729,2.40905 0.077,0.006 1.0941,-0.94858 2.2607,-2.1221 z m -6.0731,-5.87828 2.1939,-2.27862 -2.1939,-2.16641 -2.1939,-2.1664 -2.5333,2.37197 -2.5333,2.37197 1.4649,1.27306 c 0.8057,0.70018 1.8857,1.65958 2.4,2.13201 0.5143,0.47242 0.9951,0.83242 1.0684,0.8 0.073,-0.0324 1.1206,-1.08434 2.3272,-2.33758 z m 12.2061,-0.44897 2.6667,-2.78818 -2.5174,-2.3964 -2.5174,-2.3964 -2.7451,2.88762 -2.7451,2.88762 2.4625,2.33023 c 1.3544,1.28162 2.5225,2.31525 2.5958,2.29696 0.073,-0.0183 1.3334,-1.28794 2.8,-2.82145 z m -5.3292,-10.53716 c -1.0779,-1.16031 -2.0122,-2.13042 -2.0762,-2.15579 -0.064,-0.0254 -1.4772,1.25793 -3.1405,2.85178 l -3.0242,2.8979 2.2517,2.08287 2.2518,2.08288 2.8487,-2.82499 2.8487,-2.82498 z m 10.8603,4.66476 1.7835,-1.8 -2.3698,-2.2 c -1.3034,-1.21 -2.466,-2.2 -2.5835,-2.2 -0.1175,0 -0.9674,0.74707 -1.8887,1.66016 l -1.675,1.66017 2.329,2.33983 c 1.2809,1.28691 2.3947,2.33984 2.475,2.33984 0.08,0 0.9486,-0.81 1.9295,-1.8 z m 5.0745,-5.07195 c 1.2803,-1.28623 2.3278,-2.42142 2.3278,-2.52264 0,-0.17694 -1.2449,-1.37394 -3.6844,-3.54282 l -1.1511,-1.02334 -2.2956,2.29565 -2.2957,2.29565 2.2467,2.40043 c 1.2357,1.32024 2.3092,2.40836 2.3856,2.41806 0.076,0.01 1.1864,-1.03475 2.4667,-2.32099 z m -11.0028,-0.73084 1.7207,-1.73613 -2.0592,-2.05921 -2.0593,-2.05922 -1.8871,1.86201 -1.8871,1.862 2.0381,1.93334 c 1.121,1.06333 2.1225,1.93333 2.2257,1.93333 0.1031,0 0.9618,-0.78126 1.9082,-1.73612 z m 16.9219,-5.14171 2.5855,-2.47783 -0.7527,-0.58884 c -0.414,-0.32386 -1.6046,-1.33043 -2.6459,-2.23682 l -1.8932,-1.64798 -2.293,2.31465 -2.2929,2.31465 2.1837,2.45364 c 1.2011,1.34951 2.2601,2.42951 2.3534,2.4 0.093,-0.0295 1.3331,-1.16867 2.7551,-2.53147 z m -11.6088,-4.45171 -2.1543,-2.13713 -2.2378,2.4 -2.2378,2.4 2.0512,2.06716 2.0513,2.06716 2.3409,-2.33003 2.3408,-2.33003 z m 5.5568,-1.27619 2.1943,-2.20573 -2.2124,-2.20087 -2.2123,-2.20088 -2.167,2.36294 -2.1669,2.36294 2.0437,2.04366 c 1.124,1.12402 2.1072,2.04367 2.185,2.04367 0.078,0 1.1288,-0.99258 2.3356,-2.20573 z m -5.6358,-5.27835 c 1.153,-1.1829 2.1283,-2.23842 2.1672,-2.34558 0.096,-0.26572 -3.6851,-4.34609 -3.9373,-4.24833 -0.1106,0.0429 -1.2627,1.08579 -2.5601,2.31755 l -2.359,2.23957 2.2595,2.08762 c 1.2427,1.14819 2.2761,2.09038 2.2964,2.09377 0.02,0.003 0.9802,-0.96169 2.1333,-2.1446 z m 11.4835,-0.58259 2.4432,-2.46666 -2.36,-2.20277 -2.3601,-2.20277 -2.2218,2.42269 c -1.2219,1.33248 -2.2217,2.45943 -2.2217,2.50434 0,0.18297 3.9238,4.41184 4.0936,4.41184 0.101,0 1.2831,-1.11 2.6268,-2.46667 z m -5.5557,-5.55012 2.2313,-2.40897 -1.8167,-1.92045 c -0.9991,-1.05625 -1.8977,-2.01895 -1.9968,-2.13933 -0.099,-0.12038 -1.3248,0.95771 -2.7237,2.39575 l -2.5434,2.61462 2.0423,1.9251 c 1.1233,1.0588 2.1623,1.92895 2.309,1.93367 0.1467,0.005 1.2708,-1.07546 2.498,-2.40039 z m 22.5941,-0.19799 2.6357,-2.48144 -1.7306,-1.5899 c -0.9518,-0.87444 -2.1348,-1.91287 -2.6288,-2.30763 l -0.8983,-0.71774 -2.385,2.4587 -2.385,2.45871 2.2166,2.39284 c 1.2192,1.31606 2.2893,2.36473 2.3781,2.33037 0.089,-0.0344 1.3476,-1.17911 2.7973,-2.54391 z m -9.6493,-1.35684 c 0.2802,-0.31074 0.4566,-0.59425 0.392,-0.63002 -0.065,-0.0358 -1.162,-1.08045 -2.4385,-2.32152 l -2.321,-2.25649 -0.9613,0.92316 c -0.5288,0.50773 -1.4512,1.50422 -2.0498,2.21441 l -1.0884,1.29126 2.2454,2.17541 2.2455,2.17541 1.7333,-1.50332 c 0.9533,-0.82682 1.9626,-1.75756 2.2428,-2.0683 z m 4.0223,-8.80992 -2.5685,-2.55179 -2.4151,2.53057 -2.415,2.53057 2.4914,2.30881 2.4914,2.30881 2.4921,-2.28759 2.4921,-2.2876 z m -11.454,0.40229 c -1.1422,-1.25808 -2.1519,-2.2785 -2.2439,-2.2676 -0.2514,0.0298 -4.1672,4.56167 -4.1672,4.82285 0,0.12446 0.96,1.0611 2.1333,2.08141 l 2.1334,1.85512 2.1105,-2.10219 2.1106,-2.10218 z m 18.2009,-1.7644 1.9102,-1.74365 -2.7278,-2.7122 -2.7277,-2.71219 -2.3334,2.5008 -2.3334,2.50081 2.5794,2.40489 c 2.965,2.76446 2.3127,2.79207 5.6327,-0.23846 z m -27.6459,93.85683 c -1.4551,-0.31188 -2.2325,-1.3013 -2.3753,-3.02333 -0.1161,-1.40013 -0.074,-1.52656 0.7956,-2.39629 2.1206,-2.12062 5.2467,-1.15005 5.7216,1.77642 0.3676,2.26514 -1.7756,4.15035 -4.1419,3.6432 z m -45.3661,-0.43255 c -2.0677,-1.06476 -2.4145,-3.76406 -0.687,-5.34714 0.7427,-0.68066 1.1786,-0.86683 2.0297,-0.86683 2.153,0 3.4573,1.30429 3.4573,3.45735 0,0.85105 -0.1862,1.28697 -0.8668,2.02969 -1.0834,1.18216 -2.53,1.44952 -3.9332,0.72693 z m -6.7988,-14.88063 c 14.3621,-33.38105 20.7297,-47.38497 24.6751,-54.26667 8.3048,-14.48541 20.2904,-28.25617 30.5926,-35.1489 4.4812,-2.99818 10.8149,-6.2074 14.8156,-7.50695 1.7655,-0.57347 0.9042,-0.55646 -1.1418,0.0226 -4.9618,1.40413 -11.8575,4.68306 -16.8094,7.99281 -9.1971,6.14724 -20.0328,18.08337 -27.6347,30.44112 -4.6036,7.48367 -10.3334,19.92406 -17.901,38.86604 -4.6701,11.68963 -10.9891,28.86563 -10.3992,28.26666 0.072,-0.0733 1.7835,-3.97333 3.8028,-8.66666 z m 148.0044,-32.3813 c 4.9897,-0.87959 9.604,-1.78687 10.2539,-2.01616 3.8319,-1.35197 7.4123,-4.46083 9.2866,-8.06347 1.9902,-3.82539 2.3775,-7.34912 1.3954,-12.69485 -0.6119,-3.33015 -1.0819,-4.81666 -2.1632,-6.84202 -1.599,-2.99508 -4.7023,-5.83657 -7.5295,-6.89437 l -1.4044,-0.52545 -6.75,1.24214 -6.75,1.24215 -1.3031,3.46666 c -2.3921,6.3638 -2.8247,8.56023 -2.2364,11.35677 0.6022,2.86243 1.3554,4.91287 3.1084,8.46115 1.4136,2.86151 1.5846,3.36815 1.327,3.93334 -0.5024,1.10273 -1.2458,0.7889 -3.3585,-1.41792 -4.1543,-4.33919 -6.6106,-8.0063 -7.7336,-11.54563 -0.7987,-2.51731 -1.2974,-6.69475 -1.1751,-9.84401 0.052,-1.32585 0.059,-2.41057 0.016,-2.4105 -0.043,7e-5 -0.5225,0.22997 -1.0667,0.51087 -1.0991,0.56737 -2.1827,1.66142 -4.3408,4.3824 -1.4923,1.88164 -4.1024,4.05975 -5.1928,4.33342 -0.7564,0.18985 -1.743,2.48652 -2.368,5.51232 -0.5214,2.52413 -0.524,3.24486 -0.021,5.92779 1.5089,8.05433 9.097,14.1018 17.0669,13.60175 1.0267,-0.0644 5.9492,-0.83679 10.9389,-1.71638 z m -31.8723,-28.04672 c 1.98,-0.17451 3.9177,-0.4763 4.306,-0.67066 0.3882,-0.19435 1.4082,-1.1526 2.2666,-2.12945 4.7826,-5.44253 5.9762,-6.38585 9.0555,-7.15657 0.8645,-0.2164 20.2319,-3.76038 43.0386,-7.8755 22.8067,-4.11513 41.9927,-7.6761 42.6357,-7.91328 1.6897,-0.6233 3.1263,-2.17172 3.6024,-3.88269 0.2159,-0.77577 0.5249,-3.0905 0.6868,-5.14383 0.9588,-12.16102 2.6037,-17.00166 6.9757,-20.528 2.8519,-2.30024 3.4159,-2.86895 3.9597,-3.99217 l 0.578,-1.19405 0.047,-24.51488 0.047,-24.5149 -0.8336,-1.16133 c -0.4585,-0.63873 -1.409,-1.52133 -2.1122,-1.96133 l -1.2785,-0.8 -12.1545,-0.20074 c -6.685,-0.1104 -27.8745,-0.1704 -47.0879,-0.13333 l -34.9333,0.0674 -1.1259,0.60164 c -1.592,0.85066 -2.8281,2.00216 -3.8753,3.61 -0.9197,1.41212 -2.1853,4.15736 -2.0015,4.34126 0.056,0.0556 0.7176,-0.13313 1.4711,-0.41942 0.7534,-0.28629 2.3796,-0.71891 3.6136,-0.96137 1.9377,-0.38074 2.3029,-0.54114 2.6782,-1.17658 0.6872,-1.16324 2.1992,-2.34541 3.4363,-2.68672 1.4904,-0.41116 86.9837,-0.10215 88.5675,0.32012 1.4603,0.38937 2.3027,1.31613 2.3027,2.53347 v 0.98663 l -8.7032,-0.19006 -8.703,-0.19005 0.1697,0.84887 c 0.093,0.46688 0.1698,2.27388 0.1698,4.01554 v 3.16667 h 8.5333 8.5334 v 3.86667 3.86666 h -8.5334 -8.5333 v 1.46667 1.46667 h 8.5333 8.5334 v 1.46666 1.46667 h -8.5334 -8.5333 v 4.13333 4.13334 h 8.5374 8.5375 l -0.071,7.66102 -0.071,7.66101 -8.4667,-0.0872 -8.4667,-0.0872 v 1.89283 1.89283 h 6.8423 6.8423 l -1.59,1.66666 c -4.0922,4.2897 -5.4497,8.39398 -6.4936,19.6325 -0.5676,6.11002 -0.8352,7.21495 -1.883,7.77572 -0.2987,0.15987 -19.7075,3.75815 -43.1306,7.99616 -23.423,4.23802 -43.0759,7.87787 -43.673,8.08857 -3.193,1.12666 -4.9063,2.50762 -9.5811,7.72225 -1.4345,1.6002 -1.7034,1.7848 -2.6,1.7848 -0.55,0 -0.9999,-0.10121 -0.9999,-0.22492 0,-0.1237 0.2479,-0.9337 0.551,-1.8 1.6646,-4.7584 2.2937,-11.65321 1.4853,-16.27793 -1.9054,-10.90125 -8.8422,-19.85559 -18.3916,-23.74082 -1.2785,-0.52015 -2.1487,-1.02456 -2.107,-1.22125 0.039,-0.18429 0.8089,-1.02825 1.7107,-1.87546 2.9446,-2.76626 6.3203,-4.08716 13.219,-5.17256 l 1.4008,-0.22039 -0.8913,-1.46667 -0.8912,-1.46666 -1.3095,0.0785 c -2.151,0.12887 -6.7582,1.34228 -8.7657,2.30861 -3.7257,1.79345 -6.9124,4.75533 -9.0615,8.42212 -0.522,0.89066 -0.949,1.71373 -0.949,1.82905 0,0.11532 0.8668,0.36459 1.9262,0.55392 12.5158,2.23669 21.9687,14.9487 21.1731,28.47302 -0.2778,4.72211 -1.4673,9.09303 -3.6635,13.46223 -0.5697,1.13341 -1.0358,2.13295 -1.0358,2.22119 0,0.0882 0.33,0.096 0.7333,0.0172 0.4033,-0.0788 2.3533,-0.286 4.3333,-0.4605 z m -7.6061,-7.57198 c 1.6241,-3.25205 2.2913,-5.93558 2.4671,-9.92173 0.1217,-2.76119 0.053,-3.64435 -0.4494,-5.82087 -1.4582,-6.31012 -5.4974,-11.51167 -11.0782,-14.26592 -2.6865,-1.32584 -4.7963,-1.86442 -7.1894,-1.8353 l -1.8773,0.0229 1.8781,0.48589 c 8.2037,2.1224 14.1245,8.13237 16.1585,16.40174 1.1613,4.72107 0.7523,9.93118 -1.2505,15.93268 -1.0842,3.2486 -0.6003,2.88801 1.3411,-0.99935 z m -8.4916,-9.90143 c 2.07,-0.9823 2.4141,-3.85697 0.6625,-5.53511 -2.1441,-2.05416 -5.6314,-0.4944 -5.6314,2.51871 0,2.6665 2.5035,4.18629 4.9689,3.0164 z m 31.0463,-7.43977 0.7887,-0.40786 -3.802,-3.47382 -3.8019,-3.47383 -0.3214,0.74836 c -0.9163,2.13417 0,4.96698 2.012,6.24526 0.9818,0.62267 1.5121,0.76976 2.7748,0.76976 0.8794,0 1.9054,-0.1781 2.3498,-0.40787 z m 40.4339,-1.87819 c 1.551,-1.18304 1.8212,-3.72316 0.5657,-5.3192 -1.7356,-2.20656 -5.2464,-1.74756 -6.3889,0.83529 -1.6162,3.65351 2.6277,6.92126 5.8232,4.48391 z m -37.5278,-2.79077 c 0.016,-1.65974 -0.9069,-3.38732 -2.3443,-4.38627 -0.9831,-0.68318 -1.4043,-0.80357 -2.8117,-0.80357 -1.1377,0 -1.8819,0.14835 -2.3793,0.47428 l -0.7238,0.47427 3.8022,3.47408 3.8022,3.47408 0.3213,-0.74836 c 0.1767,-0.41159 0.3267,-1.29292 0.3334,-1.95851 z m 31.0271,-14.69671 c 0.3995,-1.35941 0.764,-1.9214 2.1334,-3.28996 2.827,-2.82522 1.5754,-2.68029 22.5182,-2.60753 l 17.9333,0.0623 v -6.61886 -6.61886 l -11.6438,-0.17678 c -6.404,-0.0972 -14.4222,-0.17677 -17.8182,-0.17677 -6.8237,0 -8.0425,-0.19388 -10.3239,-1.6423 -3.4462,-2.18784 -5.4363,-6.42378 -4.7487,-10.10746 0.654,-3.50358 2.7918,-6.24539 6.0867,-7.80637 l 1.7812,-0.84387 18.3382,-0.0754 18.3383,-0.0754 -0.072,-6.19124 -0.072,-6.19124 -18.1334,-0.13333 -18.1333,-0.13334 -1.5324,-0.61882 c -2.7172,-1.09726 -5.2814,-3.89863 -6.0876,-6.65064 l -0.3328,-1.13614 -11.4902,0.0695 -11.4903,0.0695 -0.081,1.26667 -0.081,1.26667 h 10.5218 10.5219 l 0.2894,0.83013 c 0.1591,0.45657 0.7107,1.41657 1.2256,2.13333 l 0.9363,1.3032 h -11.7329 -11.7329 v 3.46667 3.46667 h 17.2894 c 9.5092,0 23.9692,0.0796 32.1334,0.17699 l 14.8439,0.17698 v 2.35635 2.35634 h -16.344 c -17.8143,0 -18.0063,0.0142 -20.8145,1.54211 -1.9366,1.05361 -4.1926,3.43431 -5.2068,5.49447 l -0.8682,1.76342 h -10.5166 -10.5166 v 1.71354 1.71354 l 10.1114,0.0865 c 5.5613,0.0476 10.1849,0.16009 10.2747,0.25008 0.09,0.09 0.2692,0.80998 0.3986,1.59999 0.1294,0.79002 0.3188,1.76639 0.4209,2.16972 l 0.1857,0.73334 h -10.6671 c -9.4809,0 -10.685,0.0469 -10.8289,0.42181 -0.089,0.23199 -0.1618,2.69199 -0.1618,5.46666 v 5.04486 h 21.4229 c 11.7827,0 26.3027,0.0795 32.2667,0.1767 l 10.8437,0.1767 v 2.74906 2.74905 l -17,0.0742 -17,0.0742 -1.7976,0.8515 c -3.1174,1.47678 -5.6438,4.69412 -6.1889,7.88183 l -0.171,1 1.1454,-2.6e-4 1.1454,-2.7e-4 0.4818,-1.63946 z m -30.4818,-2.08285 v -1.85639 l -1.1333,-0.29195 c -2.1683,-0.55855 -3.0111,-0.86727 -4.8667,-1.78267 -6.3021,-3.10904 -11.2052,-9.43373 -13.1827,-17.00496 -0.7534,-2.88451 -1.2194,-7.61001 -0.9473,-9.60764 l 0.2178,-1.6 0.2359,1.33333 c 1.4421,8.15271 6.7701,15.6613 13.5218,19.05601 2.1061,1.05894 5.8044,2.31636 6.0602,2.06051 0.079,-0.0792 0.2113,-9.25758 0.2935,-20.39634 l 0.1495,-20.2523 -1.5743,0.24679 c -4.1615,0.65235 -7.8566,2.58697 -11.0676,5.79453 -1.841,1.839 -2.5113,2.73785 -3.3987,4.55747 -0.6079,1.24667 -1.278,2.92667 -1.4891,3.73333 -0.2356,0.90005 -0.3907,1.19984 -0.4014,0.77599 -0.028,-1.1125 0.9544,-4.60589 1.7302,-6.15042 2.6048,-5.18639 7.1983,-9.08067 12.8554,-10.89856 1.3584,-0.43652 2.6484,-0.79367 2.8667,-0.79367 0.3181,0 0.3968,-0.42167 0.3968,-2.12667 v -2.12667 l -0.8667,0.15441 c -2.023,0.36044 -6.2307,1.99031 -8.2552,3.19767 -2.5463,1.51859 -6.7775,5.5355 -8.4245,7.9978 -2.3574,3.52446 -4.0708,7.62256 -5.0045,11.97012 -0.6369,2.96559 -0.6532,9.33593 -0.032,12.45595 2.2651,11.37367 9.9948,20.32506 19.7631,22.8867 2.6979,0.70747 2.553,0.78309 2.553,-1.33237 z m -28.0391,-25.01245 c 0.1271,-4.36214 0.1964,-7.97279 0.1538,-8.02367 -0.043,-0.0509 -0.3332,0.40883 -0.6458,1.02158 -2.0351,3.989 -2.3243,12.32639 -0.5784,16.67093 l 0.4286,1.06666 0.2053,-1.40217 c 0.1128,-0.77119 0.3093,-4.97119 0.4365,-9.33333 z m 101.1058,1.17797 v -3.55753 l -5.8,-0.17515 c -7.3401,-0.22165 -28.405,-0.22484 -29.7382,-0.005 -1.2991,0.21471 -3.5676,1.5958 -4.3841,2.66906 l -0.6398,0.84101 0.8509,0.96919 c 0.4681,0.53305 1.4045,1.2946 2.0811,1.69233 l 1.2301,0.72314 9.8667,0.14261 c 5.4266,0.0784 13.6166,0.16843 18.2,0.2 l 8.3333,0.0574 z m 167.46661,-4.70913 v -3.46667 h -2.9038 -2.9039 l -0.191,3.17976 c -0.1051,1.74886 -0.1113,3.30886 -0.014,3.46666 0.109,0.17649 1.3002,0.28691 3.0949,0.28691 h 2.9176 v -3.46666 z m -9.1196,0.36748 0.08,-1.09919 -40.4804,-0.16279 c -22.2641,-0.0895 -51.4003,-0.19489 -64.747,-0.23414 l -24.26661,-0.0714 -0.082,1.13333 -0.082,1.13334 21.282,0.0386 c 11.70511,0.0213 40.12201,0.11967 63.14861,0.21871 23.0267,0.099 42.5867,0.17167 43.4667,0.16137 l 1.6,-0.0187 0.08,-1.09919 z m 29.5996,0.91252 c 0.443,-0.4429 0.4001,-1.16188 -0.099,-1.66095 -0.3631,-0.36318 -1.5365,-0.41905 -8.8,-0.41905 h -8.3809 v 1.2 1.2 h 8.48 c 6.24,0 8.5645,-0.0845 8.8,-0.32 z m -225.31191,-4.6953 c 1.7823,-0.81752 0.5218,-0.78837 20.2986,-0.46934 7.9934,0.12895 15.1034,0.14839 15.8,0.0432 1.2539,-0.18931 1.2667,-0.20141 1.2667,-1.19887 v -1.00763 l -6.6,-0.17545 c -8.713,-0.23163 -19.2026,-0.20395 -24.3596,0.0643 -3.612,0.18786 -4.3544,0.30553 -5.6395,0.89385 -1.6217,0.74245 -3.3841,2.34289 -4.094,3.71774 l -0.4549,0.88085 1.142,-1.03062 c 0.6281,-0.56684 1.8164,-1.33995 2.6407,-1.71801 z m 259.61291,-2.87041 c 0.2305,-0.23048 0.419,-0.58191 0.419,-0.78096 0,-0.19904 -0.1885,-0.55047 -0.419,-0.78095 -0.3751,-0.37513 -3.1002,-0.41905 -26,-0.41905 h -25.581 v 1.0645 1.0645 l 15.4,0.071 c 8.47,0.0391 19.9815,0.10005 25.581,0.1355 8.9564,0.0567 10.2313,0.014 10.6,-0.35459 z m -63.8476,-0.89855 c 0,-0.57801 -0.09,-1.10352 -0.2,-1.1678 -0.11,-0.0643 -29.27,-0.20424 -64.8,-0.31102 l -64.60001,-0.19415 v 1.09528 1.09528 l 7.2667,0.0387 c 10.5202,0.056 88.53581,0.37831 106.80001,0.44117 l 15.5333,0.0535 z m 9.0161,-0.21574 -0.083,-1 h -2.8 -2.8 l -0.083,1 -0.083,1 h 2.9655 2.9655 z m 55.1136,-8.91144 c 0.9409,-0.74011 1.4703,-2.01715 1.4703,-3.54666 v -1.20857 l -8.3334,-0.0158 c -4.5833,-0.009 -48.4133,-0.17139 -97.3999,-0.36161 -48.9867,-0.19023 -89.09261,-0.32726 -89.12421,-0.30451 -0.1113,0.08 -0.4199,5.21558 -0.3152,5.24503 0.1264,0.0355 152.61131,0.66342 176.40341,0.72636 l 16.564,0.0438 0.735,-0.5781 z m -317.61951,-6.2605 c 1.9666,-0.60144 4.0126,-2.02862 6.7815,-4.73022 2.4172,-2.35851 4.7707,-4.96451 4.4834,-4.96451 -0.078,0 -1.2684,0.88109 -2.646,1.95797 -7.1814,5.61371 -9.1047,6.48593 -13.2181,5.99466 -4.8722,-0.58192 -8.7478,-2.74563 -16.8582,-9.41196 -3.9597,-3.25472 -5.2847,-4.19555 -6.3861,-4.53468 -0.5673,-0.17465 -0.5233,-0.0899 0.2954,0.56842 0.5291,0.42553 2.5691,2.43934 4.5333,4.47513 7.0309,7.28719 12.0134,10.41053 17.6297,11.05139 2.2383,0.25542 3.5438,0.15694 5.3851,-0.4062 z m 95.0328,-4.82806 -0.076,-2.6 -6.8,-0.16231 c -8.8928,-0.21226 -34.1334,-0.27964 -34.1334,-0.0911 0,0.0806 0.1933,0.53061 0.4294,1 0.6047,1.20184 2.1811,2.79603 3.4373,3.47602 1.0543,0.57069 1.2666,0.57902 18.2667,0.7164 9.46,0.0765 17.5943,0.16645 18.0763,0.2 l 0.8763,0.061 z m 222.86541,-0.53333 c -0.1014,-0.55 -0.3262,-1.3 -0.4995,-1.66667 l -0.3152,-0.66667 -7.8635,-0.16538 c -4.325,-0.091 -35.1636,-0.24114 -68.5302,-0.33373 -33.3667,-0.0926 -73.2367,-0.24663 -88.6,-0.34231 l -27.93331,-0.17397 v 1.77436 c 0,1.50135 0.072,1.77871 0.4666,1.80257 0.5662,0.0342 154.71471,0.66725 177.36301,0.72836 l 16.0964,0.0434 z m -17.9925,-9.8081 c -1.8381,-3.73372 -6.4957,-6.52524 -10.8872,-6.52524 -1.4897,0 -3.7954,0.46938 -3.7954,0.77264 0,0.0968 0.81,0.30849 1.8,0.47044 4.3878,0.71777 9.0591,3.17532 11.9599,6.29214 1.261,1.35485 1.5911,1.58961 1.6625,1.18206 0.049,-0.27971 -0.284,-1.26612 -0.7398,-2.19204 z" />
  </g>
</svg>
