<?xml version="1.0" encoding="UTF-8" standalone="no"?>
<svg
   xmlns:dc="http://purl.org/dc/elements/1.1/"
   xmlns:cc="http://creativecommons.org/ns#"
   xmlns:rdf="http://www.w3.org/1999/02/22-rdf-syntax-ns#"
   xmlns:svg="http://www.w3.org/2000/svg"
   xmlns="http://www.w3.org/2000/svg"
   xmlns:sodipodi="http://sodipodi.sourceforge.net/DTD/sodipodi-0.dtd"
   xmlns:inkscape="http://www.inkscape.org/namespaces/inkscape"
   version="1.1"
   id="svg2"
   width="200"
   height="100"
   viewBox="0 0 200.00001 100"
   sodipodi:docname="revolverd.svg"
   inkscape:version="1.0.1 (3bc2e813f5, 2020-09-07)">
  <metadata
     id="metadata8">
    <rdf:RDF>
      <cc:Work
         rdf:about="">
        <dc:format>image/svg+xml</dc:format>
        <dc:type
           rdf:resource="http://purl.org/dc/dcmitype/StillImage" />
        <dc:title></dc:title>
      </cc:Work>
    </rdf:RDF>
  </metadata>
  <defs
     id="defs6" />
  <sodipodi:namedview
     pagecolor="#ffffff"
     bordercolor="#666666"
     borderopacity="1"
     objecttolerance="10"
     gridtolerance="10"
     guidetolerance="10"
     inkscape:pageopacity="0"
     inkscape:pageshadow="2"
     inkscape:window-width="1920"
     inkscape:window-height="1017"
     id="namedview4"
     showgrid="false"
     showguides="true"
     inkscape:guide-bbox="true"
     inkscape:zoom="2.2283644"
     inkscape:cx="171.85532"
     inkscape:cy="140.89789"
     inkscape:window-x="-8"
     inkscape:window-y="-8"
     inkscape:window-maximized="1"
     inkscape:current-layer="g10" />
  <g
     inkscape:groupmode="layer"
     inkscape:label="Image"
     id="g10">
    <path
       id="path1699"
       style="fill:#e6e6e6;stroke-width:0.34288"
       d="m -1173.3427,1494.0132 c -6.1504,-0.9191 -11.1014,-2.8918 -14.693,-5.8547 -2.4842,-2.0495 -3.5626,-3.5669 -4.4319,-6.2366 -0.5358,-1.6455 -0.5846,-3.329 -0.3638,-12.5459 0.1406,-5.8549 0.5972,-29.328 1.0154,-52.1624 0.418,-22.8344 0.8584,-41.9277 0.9786,-42.4295 0.2952,-1.2339 1.8093,-4.9204 4.0857,-9.9482 l 1.8877,-4.169 0.3637,-13.624 c 0.2426,-9.0904 0.5636,-14.7877 0.9648,-17.1217 1.9198,-11.1701 5.7067,-21.131 11.4893,-30.2207 2.7967,-4.3963 4.6722,-6.6655 5.9559,-7.206 1.2863,-0.5418 3.3081,-0.4707 4.5295,0.1591 2.5751,1.3276 9.201,13.9658 12.443,23.7328 3.4426,10.3718 4.1336,15.8066 4.0224,31.6321 l -0.085,12.1662 1.9466,5.0185 c 1.0705,2.7602 2.3373,6.2504 2.8149,7.7559 l 0.8685,2.7374 -0.8353,47.6001 c -0.4596,26.1801 -0.9713,50.2257 -1.1374,53.4347 l -0.3022,5.8344 -1.423,2.2657 c -2.6232,4.1764 -8.0344,7.3003 -15.1481,8.7451 -4.0839,0.8294 -10.9706,1.0306 -14.9456,0.4367 z m 14.0188,-10.1607 c 3.1896,-0.7926 6.6821,-2.5758 7.4561,-3.8069 0.5088,-0.8095 0.7125,-7.8744 1.5006,-52.0346 l 0.912,-51.0979 -1.6921,-4.7144 c -3.2096,-8.9434 -4.3633,-11.681 -5.2307,-12.4128 -1.6714,-1.4098 -3.7047,-1.9858 -7.5052,-2.1264 -4.3287,-0.1599 -6.1377,0.3976 -8.7725,2.7036 -1.4563,1.2744 -4.1019,5.329 -4.1019,6.2863 0,0.1495 1.8698,0.274 4.1553,0.2767 2.6985,0 5.036,0.1896 6.6677,0.5318 2.7283,0.5722 7.3459,2.2366 8.8902,3.2045 l 0.9665,0.6056 -1.5463,-0.3405 c -2.1786,-0.4796 -8.4895,-0.4671 -11.0162,0.022 -3.535,0.684 -7.0291,2.3127 -9.7913,4.564 -1.828,1.49 -2.5708,2.3369 -2.7142,3.0944 -0.1698,0.8976 -1.4576,71.4163 -1.4224,77.8915 l 0.014,2.3308 1.1291,-0.3353 c 1.1078,-0.3291 1.1331,-0.3873 1.3476,-3.0912 0.1207,-1.5158 0.6654,-17.8115 1.2114,-36.2128 0.546,-18.4013 1.115,-34.0044 1.2643,-34.6736 0.1717,-0.7683 1.4576,11.7299 3.4893,33.9131 1.7696,19.3214 3.3338,36.0083 3.4758,37.082 l 0.2585,1.9519 2.7057,0.4294 c 2.5298,0.4013 10.0635,2.6436 10.4238,3.1023 0.09,0.1141 -0.741,0.105 -1.8451,-0.018 -3.2689,-0.3668 -8.0088,-0.2897 -10.7992,0.1756 -3.6966,0.6164 -8.311,2.5904 -10.6983,4.5766 -2.674,2.2248 -2.6135,2.6641 0.2597,1.8845 1.4075,-0.3819 3.6405,-0.652 6.0879,-0.7365 3.2341,-0.1118 4.4653,-0.011 7.5375,0.6189 2.0197,0.4138 4.9768,1.2296 6.5712,1.8129 l 2.899,1.0607 -5.025,-0.1505 c -7.773,-0.2327 -12.9367,1.0223 -17.3933,4.2274 -2.4885,1.7895 -3.2863,2.8346 -3.2863,4.304 0,2.0113 4.6735,4.5185 10.2544,5.501 3.6507,0.6429 9.9239,0.4552 13.3637,-0.3995 z m -11.4425,-135.3097 c 2.4133,-0.6642 3.1655,-0.7294 6.9576,-0.6036 2.7995,0.092 4.9916,0.343 6.417,0.732 l 2.1651,0.5909 0.2311,-4.8799 c 0.5083,-10.7332 -1.1811,-24.3741 -4.2206,-34.0789 -1.0543,-3.3667 -3.9612,-10.4933 -4.2799,-10.4933 -0.1119,0 -0.081,0.3764 0.069,0.8365 0.9908,3.062 2.1969,8.5805 2.7009,12.3567 0.614,4.6007 0.7816,14.6798 0.3387,20.3742 -0.2435,3.132 -0.281,3.2385 -1.0629,3.0129 -0.4458,-0.1286 -2.0282,-0.2339 -3.5163,-0.2339 -3.2795,0 -5.6537,0.8346 -7.9497,2.7947 -1.3353,1.1399 -1.5204,1.4781 -1.5204,2.7781 0,0.8141 -0.1156,2.9618 -0.256,4.7726 -0.2461,3.1654 -0.2274,3.2827 0.4831,3.0391 0.4066,-0.1394 1.9569,-0.5885 3.4449,-0.9981 z m 63.0839,145.4644 c -9.9151,-1.4812 -17.094,-6.0036 -19.0457,-11.9981 -0.5499,-1.6891 -0.6026,-3.1797 -0.3922,-11.0941 0.1333,-5.0286 0.5943,-28.5783 1.0237,-52.3327 0.8878,-49.1307 0.3818,-43.3932 4.6597,-52.8231 l 2.3615,-5.2053 0.3271,-13.4154 c 0.2149,-8.8056 0.5283,-14.6097 0.9119,-16.8913 1.9045,-11.3272 5.6415,-21.3126 11.3267,-30.2648 4.1185,-6.4851 5.6563,-7.9281 8.3853,-7.8672 2.3429,0.052 3.2079,0.8264 6.023,5.3907 5.5009,8.9185 9.4659,19.0744 11.6466,29.8301 0.7901,3.8975 0.8712,5.456 0.9575,18.4013 l 0.094,14.1432 2.5784,6.9955 c 1.4183,3.8476 2.6695,7.8305 2.7804,8.851 0.2638,2.4265 -1.3565,95.8578 -1.7703,102.0828 -0.3102,4.667 -0.3525,4.8388 -1.7323,7.0355 -3.5778,5.6963 -11.8553,9.1876 -22.4834,9.483 -3.1236,0.087 -5.6226,-0.018 -7.6522,-0.3211 z m 11.8701,-9.7274 c 4.926,-0.8211 9.573,-3.0155 10.0465,-4.7443 0.1105,-0.4019 0.6174,-23.6563 1.1272,-51.6765 l 0.927,-50.9459 -1.856,-5.1706 c -4.1752,-11.6325 -4.4088,-12.0468 -7.5051,-13.3148 -1.8843,-0.7717 -7.485,-1.0899 -9.5848,-0.5446 -1.6461,0.4275 -4.5513,2.3813 -5.6825,3.8214 -0.7593,0.9666 -2.7065,4.581 -2.7065,5.0237 0,0.106 1.8698,0.1952 4.1553,0.1979 4.9472,0.011 7.8676,0.5432 12.3461,2.2719 3.6807,1.4207 4.9383,2.2592 2.5633,1.7092 -0.8126,-0.1881 -3.2167,-0.344 -5.3427,-0.3461 -6.4989,-0.011 -11.1456,1.4878 -15.3965,4.9525 l -2.4947,2.0333 -0.2181,2.5726 c -0.1804,2.126 -1.4595,71.374 -1.4223,76.9985 l 0.014,1.7331 1.1319,-0.3105 c 1.0506,-0.2882 1.1466,-0.4454 1.3384,-2.1893 0.1131,-1.0334 0.6505,-16.7292 1.1934,-34.8796 0.5429,-18.1503 1.1007,-34.3009 1.2395,-35.8902 0.2117,-2.4256 0.7955,2.9452 3.6369,33.457 1.8616,19.9905 3.4412,36.8148 3.5102,37.3873 0.1233,1.027 0.1609,1.0463 2.7891,1.4627 2.7036,0.4281 8.8569,2.2228 10.127,2.9536 0.585,0.3366 0.3299,0.3534 -1.6022,0.1049 -3.4059,-0.4377 -9.9774,-0.1083 -12.6475,0.6335 -3.7851,1.0519 -6.805,2.4997 -8.8043,4.2211 -2.57,2.2126 -2.5055,2.5836 0.3103,1.785 1.8243,-0.5174 3.1227,-0.6292 7.2476,-0.6242 4.6327,0 5.3039,0.082 8.6005,0.976 1.9667,0.5335 4.4018,1.3035 5.4115,1.7114 l 1.8359,0.7415 -5.0251,-0.1612 c -5.7903,-0.1856 -8.8394,0.2369 -12.8094,1.7747 -4.3521,1.6859 -7.8701,4.6052 -7.8701,6.5309 0,1.4101 1.8532,2.9662 5.0338,4.2265 4.6634,1.848 10.9242,2.4278 16.3849,1.5175 z m -11.1179,-135.18 c 0.8556,-0.3253 2.3739,-0.7535 3.3742,-0.9517 2.5529,-0.5058 9.1505,-0.2134 11.8756,0.5264 l 2.1652,0.5878 0.2528,-5.3364 c 0.5417,-11.4349 -1.4969,-26.1568 -4.9926,-36.0558 -1.1399,-3.2278 -3.3032,-8.1297 -3.5145,-7.9634 -0.081,0.064 0.2133,1.313 0.6548,2.7757 2.2333,7.399 3.2256,19.2083 2.5044,29.8042 -0.2522,3.7034 -0.3542,4.1424 -0.9191,3.9496 -0.3495,-0.1193 -1.7021,-0.2802 -3.0057,-0.3575 -1.9924,-0.1182 -2.7473,-0.012 -4.7342,0.6941 -1.4102,0.4981 -2.9878,1.3674 -3.9109,2.1555 l -1.5471,1.3207 v 3.1243 c 0,1.7184 -0.1131,3.843 -0.2472,4.7212 -0.1435,0.9418 -0.093,1.5968 0.1245,1.5968 0.2022,0 1.0679,-0.2662 1.9233,-0.5915 z m 66.1553,145.0619 c -6.3898,-0.7993 -11.4099,-2.6526 -15.2247,-5.621 -5.0457,-3.926 -5.7109,-5.9382 -5.4019,-16.3436 0.1207,-4.0609 0.5767,-27.5032 1.0135,-52.0941 l 0.7944,-44.7107 0.9611,-2.688 c 0.5286,-1.4783 1.9343,-4.7631 3.1237,-7.2997 l 2.1627,-4.6117 0.3037,-13.2307 c 0.1672,-7.2769 0.5037,-14.5309 0.7476,-16.1201 1.9609,-12.7735 6.6414,-24.7081 13.5242,-34.4843 3.2403,-4.6027 5.1343,-5.6624 8.0881,-4.5256 1.141,0.4392 1.7461,1.076 3.3975,3.5759 4.0574,6.1416 8.4943,15.9415 10.7487,23.7404 2.5046,8.6644 3.1901,15.7853 2.8967,30.0949 l -0.1933,9.4288 2.1717,5.931 c 4.0327,11.0141 3.7165,3.2451 2.5845,63.4968 -0.9682,51.544 -1.0122,52.8851 -1.7885,54.5859 -2.9557,6.478 -11.9061,10.7223 -23.2608,11.0307 -2.4448,0.066 -5.4368,0 -6.6489,-0.1549 z m 10.6736,-9.8819 c 3.5011,-0.5836 7.1,-1.9307 8.8619,-3.3171 l 1.4154,-1.1137 0.014,-4.0198 c 0.014,-2.211 0.4225,-25.3716 0.9208,-51.4681 l 0.9057,-47.448 -1.2785,-3.6499 c -2.854,-8.1478 -4.7671,-12.6953 -5.6559,-13.4448 -1.7111,-1.4428 -3.7192,-2.0174 -7.5442,-2.1589 -3.0801,-0.114 -3.7867,-0.042 -5.3063,0.5365 -2.6229,0.9991 -5.0004,3.2694 -6.3874,6.0994 -0.6492,1.3249 -1.1805,2.5326 -1.1805,2.6836 0,0.1622 0.7526,0.1581 1.836,-0.011 4.668,-0.7237 14.2318,1.2289 17.8773,3.6501 l 0.9663,0.6418 -1.546,-0.3479 c -0.8505,-0.1914 -3.2857,-0.3497 -5.4117,-0.352 -4.135,0 -7.0055,0.4988 -10.2693,1.8002 -1.9601,0.7816 -5.6774,3.3183 -6.9928,4.7719 -0.8243,0.9108 -0.8298,1.0426 -1.5243,37.1497 -0.3834,19.9296 -0.7054,38.1105 -0.7154,40.4019 l -0.019,4.1663 1.1484,-0.315 c 0.8748,-0.24 1.1919,-0.5443 1.3303,-1.2769 0.1003,-0.5289 0.6392,-16.2227 1.1986,-34.8749 0.5592,-18.6523 1.1346,-35.282 1.2789,-36.9547 0.225,-2.6122 0.7465,2.2401 3.6938,34.3694 1.8875,20.576 3.4753,37.4513 3.5286,37.5007 0.053,0.049 1.4656,0.3479 3.1392,0.6633 2.9706,0.56 9.6344,2.583 9.9869,3.0318 0.097,0.124 -0.8164,0.097 -2.0308,-0.059 -3.325,-0.428 -9.9147,-0.09 -12.5573,0.6447 -3.785,1.0518 -6.8049,2.4997 -8.8042,4.221 -2.57,2.2126 -2.5055,2.5837 0.3102,1.785 1.8244,-0.5173 3.1228,-0.6292 7.2475,-0.6241 4.6329,0.011 5.3041,0.082 8.6006,0.976 1.9667,0.5335 4.4015,1.3 5.4107,1.7036 l 1.8347,0.7337 -5.024,-0.1524 c -5.912,-0.1793 -8.7792,0.2381 -12.9268,1.8816 -3.0199,1.1967 -5.0441,2.4845 -6.6585,4.2362 -2.2325,2.4222 -0.9262,4.4852 4.0664,6.4216 4.8515,1.882 10.7621,2.4334 16.2591,1.517 z m -7.7772,-136.1256 c 2.5943,-0.5132 9.1657,-0.2245 11.9222,0.5239 l 2.1786,0.5912 0.2641,-5.4919 c 0.5555,-11.5503 -1.3875,-25.4334 -5.0421,-36.0255 -1.0831,-3.1393 -3.2552,-8.04 -3.4835,-7.8603 -0.08,0.063 0.2864,1.6097 0.8134,3.4378 2.205,7.6499 3.0465,16.7923 2.4697,26.8296 -0.198,3.4446 -0.4195,6.3096 -0.4921,6.3668 -0.072,0.057 -0.6025,-0.036 -1.1772,-0.2088 -0.5748,-0.172 -1.9627,-0.3126 -3.0842,-0.3126 -2.4807,0 -5.9547,1.2617 -7.9669,2.8934 l -1.3466,1.092 -0.1931,4.9529 -0.1934,4.9527 1.7394,-0.6874 c 0.9567,-0.3781 2.5731,-0.8524 3.5917,-1.0538 z"
       inkscape:export-filename="C:\wamp64\www\lamanu\cv\assets\img\cartouche.png"
       inkscape:export-xdpi="33.210449"
       inkscape:export-ydpi="33.210449" />
    <path
       id="path2133"
       style="fill:#4c525a;stroke-width:0.107608;fill-opacity:1"
       d="m 161.57054,93.286756 c -1.14813,-0.324706 -2.0396,-1.069874 -2.596,-2.170054 -0.46945,-0.928267 -0.43046,-1.687321 0.21766,-4.232928 1.13957,-4.475983 2.0027,-10.756888 1.85944,-13.531097 -0.11766,-2.278705 -0.6747,-4.13771 -1.91249,-6.382316 -1.57403,-2.854327 -3.50171,-4.756478 -5.92237,-5.843978 -1.18282,-0.531401 -2.25741,-0.760197 -4.98768,-1.061951 l -1.78595,-0.197391 -0.81512,0.363979 c -0.99837,0.445852 -1.99824,1.250925 -2.50785,2.019311 -0.23657,0.356704 -0.50786,1.015135 -0.71141,1.726834 -0.73034,2.552927 -2.07236,4.280656 -4.29989,5.535568 -1.49092,0.839934 -3.92579,1.395439 -5.45818,1.245271 -1.32954,-0.130292 -8.45556,-1.292645 -9.20181,-1.500936 -3.49187,-0.974665 -6.083,-3.872838 -6.45818,-7.223376 -0.12557,-1.121714 0.0398,-2.521849 0.51431,-4.355102 0.28485,-1.100411 0.18379,-2.028748 -0.32111,-2.95043 -0.4182,-0.763382 -1.38005,-1.888126 -1.89009,-2.210171 -0.18373,-0.116015 -2.99365,-0.618092 -8.58138,-1.53334 -9.238878,-1.513263 -9.206761,-1.505536 -10.35915,-2.492119 -0.630608,-0.539925 -1.20632,-1.395806 -1.413188,-2.101072 -0.06611,-0.225244 -0.22585,-1.446155 -0.355045,-2.71314 -0.432719,-4.24345 -0.774084,-5.073537 -2.617581,-6.365567 -1.55781,-1.091776 -2.132678,-2.089787 -2.218367,-3.851326 l -0.05122,-1.053658 -21.051702,0.05766 c -11.578482,0.03174 -23.4541,0.08511 -26.39027,0.118666 l -5.338444,0.061 -0.255317,0.337295 c -0.627053,0.828373 -1.624094,1.112045 -3.717002,1.05752 -1.277065,-0.03323 -1.473027,-0.0644 -2.066936,-0.328392 -0.438142,-0.194758 -0.751729,-0.422526 -0.944135,-0.685674 l -0.288037,-0.394035 -3.466687,-0.03099 c -3.858972,-0.0345 -3.814862,-0.02716 -4.683312,-0.78038 -0.610602,-0.529609 -0.893155,-1.278508 -0.96179,-2.549093 L 20.477614,28.225289 14.413171,28.196319 8.3487283,28.167349 7.823392,27.887804 C 6.8124307,27.349781 6.4293659,26.680568 5.9615761,24.635149 5.4213571,22.273081 5.4869181,19.767366 6.1515121,17.375525 6.4969158,16.132567 6.8037535,15.59987 7.4189956,15.175054 8.1468008,14.672528 8.5892204,14.601656 10.998427,14.601656 h 2.225417 l 0.195419,-0.491882 c 0.304849,-0.767404 1.05712,-1.742751 1.971125,-2.555611 1.361185,-1.210555 3.419565,-1.9692525 5.342723,-1.9692525 1.4576,0 3.723209,0.6310165 4.32875,1.2056235 0.460557,0.437057 0.534555,0.754629 0.534555,2.295392 v 1.440037 l 26.719644,-0.06486 c 14.695849,-0.03568 29.19441,-0.09347 32.219039,-0.128443 l 5.499336,-0.0636 0.186682,-0.354444 c 0.249773,-0.474126 1.254527,-1.423811 1.828492,-1.72832 0.254593,-0.135099 0.764262,-0.345801 1.132563,-0.468221 l 0.669536,-0.222581 15.494582,-0.0876 c 8.52209,-0.04819 17.50499,-0.07169 19.96204,-0.05224 5.01787,0.03973 5.33851,0.07829 7.0275,0.845791 1.15227,0.523596 3.24639,1.834536 4.76322,2.981784 0.69972,0.529263 1.47646,1.071185 1.72611,1.204266 1.20927,0.644739 2.73659,0.729595 3.96545,0.220323 1.02596,-0.425209 2.66144,-1.455874 4.39871,-2.772074 2.13743,-1.619346 2.66012,-1.879795 4.22763,-2.106477 1.48327,-0.214492 3.08091,0.276121 3.71245,1.140044 0.20124,0.275284 0.31916,0.596195 0.3524,0.959164 0.096,1.048446 -0.31881,1.640727 -1.81322,2.58867 -1.11256,0.705697 -1.3419,0.981828 -1.90514,2.293534 -1.41807,3.302428 -3.55165,5.680366 -6.1737,6.880824 -0.32196,0.147411 -0.61644,0.356653 -0.65447,0.464977 -0.0379,0.10833 0.0699,0.904027 0.23972,1.768211 0.4435,2.256987 0.39288,4.560356 -0.14264,6.491863 -0.0482,0.17293 0.0703,0.284881 0.63308,0.599343 1.57438,0.879675 2.94418,2.194742 3.86066,3.706323 l 0.44393,0.732263 0.98661,0.07064 c 6.54051,0.46829 12.54625,2.569963 17.45026,6.106619 3.78689,2.731043 8.62461,8.012997 11.47241,12.525968 1.53665,2.435148 3.6838,6.626603 6.55876,12.80319 3.03154,6.512945 7.34592,16.454862 7.75303,17.865764 0.16834,0.583268 0.0727,1.441483 -0.24684,2.215673 -0.33955,0.822584 -1.36478,1.753003 -2.30319,2.090185 l -0.6786,0.243844 -8.48243,0.06735 c -14.97886,0.118878 -24.36388,0.09742 -24.90972,-0.05689 z m 1.438,-7.222038 c 0.65225,-2.342722 1.29696,-5.929988 1.58243,-8.804908 0.34405,-3.464799 -0.068,-6.626081 -1.12413,-8.625063 -0.18615,-0.352309 -0.31448,-0.548424 -0.28522,-0.435802 0.58164,2.237801 0.79065,4.085817 0.69488,6.142966 -0.10603,2.277288 -0.85554,8.106581 -1.59941,12.439476 -0.21753,1.266991 -0.3904,2.372718 -0.38416,2.457187 0.017,0.230498 0.74216,-1.832571 1.11561,-3.173856 z m 25.67355,2.391451 2.42802,-0.06088 0.37118,-0.336004 c 0.27251,-0.246688 0.3712,-0.427641 0.3712,-0.6807 0,-0.658831 -4.69478,-11.267562 -8.28387,-18.718946 -2.79153,-5.795531 -3.91341,-7.766581 -6.09048,-10.700201 -2.60237,-3.506746 -6.20529,-7.144623 -8.87773,-8.963823 -3.92427,-2.671418 -8.88331,-4.390456 -13.47149,-4.669894 l -1.04079,-0.06339 -0.40127,0.363224 -0.40126,0.363219 v 5.206155 c 0,6.085232 -0.0837,5.657041 1.20355,6.120262 2.44343,0.879314 4.92978,2.550064 6.62432,4.4514 2.68058,3.007711 4.66692,7.178191 5.17218,10.859452 0.38951,2.837728 -0.14862,8.428708 -1.37123,14.247341 -0.40326,1.91913 -0.37251,2.187263 0.29374,2.56084 0.33803,0.189522 0.65454,0.193625 10.69691,0.13902 5.69172,-0.03093 11.44121,-0.08365 12.7766,-0.117115 z m -15.59917,-1.413773 c 0.0906,-0.109839 0.63533,-0.684237 1.21057,-1.276437 0.80401,-0.827785 1.01319,-1.102405 0.90479,-1.187821 -0.0775,-0.06114 -0.55807,-0.471231 -1.06778,-0.911385 l -0.92675,-0.800279 -1.22214,0.957385 c -1.33553,1.046196 -1.33374,1.00141 0.014,-0.349854 l 0.89906,-0.901398 -1.1305,-1.023377 -1.1305,-1.023386 -1.23776,0.99245 c -1.7456,1.399648 -1.78542,1.421917 -0.83958,0.469707 0.46525,-0.468404 1.05733,-1.067348 1.31571,-1.330971 l 0.46976,-0.479312 -0.58606,-0.563108 c -0.32233,-0.309712 -0.81041,-0.806615 -1.08465,-1.104239 -0.29718,-0.322596 -0.5609,-0.519483 -0.65298,-0.487492 -0.23492,0.08161 -0.11073,-0.05565 1.01976,-1.12696 0.57363,-0.54363 1.05992,-1.029687 1.08066,-1.080109 0.0208,-0.05042 -0.2831,-0.402696 -0.67515,-0.782804 -0.39211,-0.380108 -0.91802,-0.889514 -1.16872,-1.132029 -0.25069,-0.242505 -0.37509,-0.41325 -0.27644,-0.379425 0.12647,0.04333 0.50695,-0.25874 1.28984,-1.02406 l 1.11043,-1.085558 -0.5539,-0.531472 c -0.30469,-0.292317 -0.85727,-0.818631 -1.22809,-1.169602 l -0.67414,-0.638112 -0.27597,0.228584 -0.27598,0.228593 0.194,-0.274691 c 0.1604,-0.227131 0.17016,-0.315746 0.0564,-0.511906 -0.13386,-0.230719 -0.13148,-0.232306 0.0859,-0.05787 0.21614,0.17343 0.23543,0.165959 0.58309,-0.225633 0.19772,-0.222753 0.64377,-0.682934 0.99117,-1.022624 l 0.63169,-0.617615 -0.34045,-0.385345 c -0.18724,-0.211942 -0.54342,-0.563126 -0.79153,-0.780411 l -0.45105,-0.395057 -0.94402,0.698512 c -0.98926,0.732036 -0.98697,0.709935 0.0382,-0.372424 l 0.63355,-0.6688 -0.40457,-0.406214 c -1.66358,-1.670457 -1.59356,-1.616393 -1.86538,-1.440287 -0.82284,0.533023 -0.82517,0.533377 -0.40071,0.06106 l 0.41437,-0.461111 -1.00377,-1.023439 c -0.55208,-0.562887 -1.07142,-1.018681 -1.15413,-1.012868 -0.0827,0.0062 -0.15035,-0.07142 -0.15035,-0.171657 0,-0.100215 0.0347,-0.162725 0.0774,-0.138896 0.0426,0.02384 0.50749,-0.406312 1.03316,-0.955852 l 0.9558,-0.999168 -1.05391,-1.009836 -1.05389,-1.009828 -0.65387,0.504692 c -1.97163,1.521867 -2.14055,1.53336 -0.65965,0.04484 0.46972,-0.472118 0.85406,-0.887858 0.85406,-0.923836 0,-0.03598 -0.39524,-0.42111 -0.87822,-0.855796 l -0.87828,-0.790365 -0.71002,0.560549 c -0.3905,0.308312 -0.88565,0.681826 -1.1003,0.830027 l -0.39028,0.269471 0.31962,0.372274 c 0.53714,0.625627 0.52295,0.665521 -0.10137,0.2849 -0.45911,-0.279857 -0.63709,-0.339735 -0.75237,-0.253104 -0.11774,0.08844 -0.13552,0.07683 -0.0806,-0.05264 0.047,-0.111478 -0.0542,-0.258438 -0.30841,-0.446968 -0.20837,-0.154484 -0.75022,-0.602967 -1.20414,-0.996615 -0.61043,-0.529385 -0.86509,-0.690008 -0.97801,-0.616935 -0.0839,0.05434 -0.32323,0.213406 -0.53184,0.353479 l -0.37921,0.254683 0.42483,-0.470821 0.42488,-0.470814 -0.46273,-0.526137 c -0.25453,-0.289381 -0.4294,-0.526138 -0.38872,-0.526138 0.0409,0 0.29598,0.138216 0.56721,0.307145 0.27122,0.168931 0.53961,0.307151 0.59638,0.307151 0.0566,0 0.55155,-0.441286 1.09942,-0.980635 l 0.99632,-0.980629 -0.99614,-0.905923 -0.99613,-0.905928 -0.57343,0.395867 c -0.31546,0.217731 -0.59355,0.377768 -0.61796,0.355631 -0.0247,-0.0221 0.14656,-0.275769 0.38,-0.563637 l 0.4244,-0.523395 -0.38258,-0.377261 -0.38265,-0.377262 0.4041,0.335289 0.40416,0.335289 1.14654,-1.051764 1.14654,-1.051768 -0.4197,-0.404169 -0.41964,-0.404165 0.42808,0.327178 c 0.23537,0.179948 0.4761,0.327173 0.53486,0.327173 0.059,0 0.37305,-0.182339 0.69831,-0.405208 0.3253,-0.222863 0.61337,-0.385339 0.64022,-0.361051 0.0267,0.02428 -0.16728,0.303172 -0.4313,0.619754 -0.26405,0.316575 -0.43659,0.608437 -0.38344,0.648573 0.0532,0.04015 0.54193,0.432989 1.08621,0.873003 1.1285,0.91236 0.89163,0.921259 2.22961,-0.08376 0.44139,-0.331519 0.8228,-0.584363 0.84765,-0.56187 0.025,0.02253 -0.3317,0.431952 -0.79234,0.909912 -0.46064,0.477965 -0.82598,0.892062 -0.8119,0.920216 0.014,0.02812 0.49371,0.460297 1.06586,0.960314 l 1.04021,0.909123 1.02383,-0.801007 c 0.5631,-0.440551 1.02382,-0.81999 1.02382,-0.843197 0,-0.02316 -0.16455,-0.233109 -0.36563,-0.466453 l -0.36568,-0.424267 0.51048,0.372362 0.51047,0.372363 0.44579,-0.321171 0.44585,-0.321172 -0.33375,0.398679 -0.33374,0.398685 1.0693,0.897003 1.06925,0.897003 0.45317,-0.323051 0.45322,-0.323051 -0.25779,0.329649 c -0.14177,0.181306 -0.31176,0.359837 -0.37767,0.39673 -0.10929,0.06114 2.00461,2.089143 2.17757,2.089143 0.0399,0 0.34604,-0.195583 0.68071,-0.434635 l 0.60858,-0.43463 -0.49228,0.538178 c -0.27076,0.295999 -0.46769,0.595247 -0.43761,0.664996 0.0301,0.06975 0.47646,0.550979 0.99194,1.069406 l 0.93718,0.942586 0.38081,-0.302693 c 0.52248,-0.415261 0.57215,-0.379337 0.14713,0.10641 l -0.35792,0.409111 0.49407,0.537932 c 0.83985,0.914416 0.85053,0.967559 0.0723,0.358752 -0.4139,-0.323784 -0.77461,-0.5887 -0.80163,-0.5887 -0.0271,0 -0.44372,0.392443 -0.92603,0.872101 l -0.877,0.872084 0.92743,0.919609 c 0.51005,0.505773 0.99202,0.919599 1.07095,0.919599 0.079,0 0.21206,-0.0747 0.29578,-0.166039 0.23777,-0.259325 2.14449,-1.704627 2.19208,-1.661569 0.0233,0.02118 -0.44096,0.535876 -1.03185,1.143824 l -1.07434,1.105346 0.7532,0.761855 c 0.7431,0.751611 0.88705,0.84783 1.00653,0.672823 0.0335,-0.04892 0.58354,-0.475122 1.22248,-0.947026 1.21189,-0.895071 1.17329,-0.788546 -0.21579,0.596108 l -0.81198,0.809406 1.24586,1.197799 1.2459,1.1978 0.64056,-0.48222 c 1.0857,-0.817346 1.10589,-0.820571 0.368,-0.05875 l -0.71634,0.739533 0.98905,0.975383 c 0.54398,0.536452 1.03189,0.975374 1.08427,0.975374 0.0524,0 0.28789,-0.147412 0.52333,-0.327586 l 0.42802,-0.327576 -0.36754,0.358051 c -0.20219,0.196922 -0.36759,0.401013 -0.36759,0.453535 0,0.05255 0.44533,0.508397 0.98961,1.013062 l 0.98964,0.917588 -0.90483,-0.704963 c -0.49762,-0.387738 -0.9955,-0.773659 -1.10636,-0.857622 -0.18437,-0.139649 -0.25499,-0.105258 -0.82882,0.403697 -0.34502,0.305999 -0.77322,0.721039 -0.95152,0.92232 l -0.3242,0.365965 1.04237,0.939644 1.04232,0.939644 1.07206,-0.837833 c 1.02314,-0.799597 0.9544,-0.673736 -0.2714,0.496965 l -0.55476,0.529832 1.16749,1.131046 c 1.27809,1.238163 1.15344,1.199607 1.89002,0.584464 0.49639,-0.414588 0.47081,-0.19281 -0.0284,0.245102 -0.2177,0.191028 -0.39583,0.398903 -0.39583,0.461944 0,0.06309 0.47867,0.539589 1.06374,1.058983 l 1.06378,0.94435 -0.42662,0.431079 c -0.23466,0.237091 -0.79217,0.799658 -1.23899,1.250136 l -0.81232,0.819065 1.10827,0.943818 c 0.60955,0.519101 1.13445,0.945271 1.16647,0.947044 0.0318,0.0018 0.37551,-0.22924 0.76342,-0.513342 0.38786,-0.28411 0.70523,-0.483495 0.70523,-0.443078 0,0.04041 -0.26165,0.345814 -0.58144,0.678636 l -0.58142,0.605139 0.77937,0.724476 0.77933,0.724486 -0.86543,-0.628949 -0.86538,-0.628941 -0.98146,0.93361 -0.98142,0.933619 0.49368,0.472498 c 0.88035,0.842592 0.95627,0.996925 0.16757,0.340753 l -0.77041,-0.640992 -0.27773,0.197728 c -0.15272,0.108758 -0.70191,0.561256 -1.2204,1.005557 l -0.94274,0.80782 0.46403,0.474208 c 1.5994,1.634506 1.88127,1.939716 1.53277,1.659673 -0.2146,-0.172437 -0.82602,-0.665574 -1.35871,-1.095865 l -0.96853,-0.782351 -0.61485,0.462183 c -1.22583,0.921461 -1.3197,0.934398 -0.52896,0.07293 l 0.76448,-0.832872 -1.04292,-0.88098 c -0.57363,-0.484542 -1.07812,-0.868885 -1.12112,-0.854095 -0.0431,0.0148 -0.50887,0.402058 -1.0352,0.86059 l -0.95703,0.833687 0.77644,0.821333 c 0.42705,0.451727 0.77644,0.8539 0.77644,0.893715 0,0.03988 -0.34354,-0.195353 -0.76342,-0.522584 -0.41988,-0.327239 -0.8516,-0.661772 -0.95937,-0.743414 -0.17732,-0.134332 -0.29009,-0.07231 -1.18754,0.652894 -1.70658,1.379098 -1.77745,1.433215 -1.60874,1.228646 z m 8.61536,-3.693649 1.09917,-1.026647 -1.05327,-0.885279 -1.05327,-0.88527 -1.08566,0.990475 -1.08568,0.990492 0.97061,0.950845 c 0.5338,0.522965 1.00173,0.937606 1.03973,0.921434 0.0381,-0.01613 0.56383,-0.491383 1.16837,-1.05605 z m -5.02491,0.06531 0.92204,-0.91018 -0.96314,-0.837036 -0.96313,-0.837037 -0.90135,0.73559 c -0.49575,0.404565 -0.92967,0.77699 -0.96424,0.827598 -0.0573,0.0841 1.735,1.918138 1.88349,1.927283 0.0352,0.0018 0.4792,-0.40562 0.98633,-0.906218 z m -2.36181,-2.172802 0.83769,-0.825339 -1.06391,-0.956135 -1.06387,-0.956136 -0.96136,0.809379 -0.96136,0.80938 1.07222,0.974709 c 0.5897,0.536089 1.1241,0.973531 1.18755,0.972087 0.0634,-0.0018 0.49232,-0.374011 0.95304,-0.827945 z m 4.85353,-0.123627 1.04966,-0.954186 -0.93184,-0.826766 -0.93188,-0.826757 -1.10735,0.936295 -1.10729,0.936294 0.92823,0.844658 c 0.51052,0.464558 0.95581,0.844657 0.98948,0.844657 0.0339,0 0.53363,-0.429387 1.11099,-0.954195 z m 4.93088,0.13513 0.96777,-0.767872 -0.37811,-0.307142 c -0.20794,-0.168937 -0.73373,-0.593405 -1.16832,-0.943277 l -0.79023,-0.636136 -0.8172,0.81529 -0.81716,0.815281 0.93923,0.921921 c 0.51653,0.507059 0.97454,0.910189 1.01771,0.89586 0.0433,-0.01436 0.51404,-0.371592 1.04631,-0.793925 z m -7.31644,-2.278015 1.03926,-0.947035 -1.07527,-0.908318 -1.07524,-0.908319 -0.87102,0.748518 c -0.47904,0.411682 -0.9728,0.83428 -1.0972,0.939113 -0.22402,0.188724 -0.21575,0.199473 0.84825,1.102387 0.59093,0.501493 1.1009,0.913804 1.13321,0.916249 0.0323,0.0018 0.52646,-0.421721 1.09801,-0.942595 z m -5.12505,0.0089 c 0.47192,-0.459853 0.85804,-0.88698 0.85804,-0.94918 0,-0.06221 -0.45458,-0.522654 -1.01009,-1.023226 l -1.01009,-0.910144 -1.08515,0.832392 c -0.59683,0.457824 -1.08941,0.862496 -1.09458,0.899289 -0.0106,0.07577 2.29301,1.969491 2.4088,1.98008 0.0411,0.0035 0.46114,-0.369367 0.93307,-0.829211 z m 9.88798,-0.0018 0.79955,-0.684945 -0.85218,-0.748412 c -0.46866,-0.411628 -0.91551,-0.78073 -0.993,-0.820244 -0.0876,-0.04466 -0.43243,0.194157 -0.91245,0.63206 l -0.77161,0.703891 0.83662,0.82596 c 0.46014,0.454279 0.89439,0.814865 0.96505,0.801298 0.0706,-0.01356 0.48825,-0.332885 0.92802,-0.709608 z m 2.26155,-1.888168 c 0.60106,-0.486092 1.18588,-0.96318 1.29955,-1.060197 0.19862,-0.169503 0.18093,-0.19841 -0.45241,-0.740028 -0.3625,-0.310004 -0.85775,-0.719293 -1.10064,-0.909533 l -0.44155,-0.345893 -1.17245,1.120801 -1.17244,1.120801 0.9329,0.848929 c 0.5131,0.466906 0.95122,0.848928 0.97353,0.848928 0.0225,0 0.53244,-0.397716 1.13351,-0.883808 z m -9.59415,-2.238066 c -0.52647,-0.479074 -1.00924,-0.869053 -1.07283,-0.866599 -0.0635,0.0018 -0.59906,0.418293 -1.19003,0.924101 l -1.07443,0.919662 1.07443,0.914637 1.07447,0.914637 1.07282,-0.967691 1.07281,-0.967682 z m 4.6362,0.408739 -1.07124,-0.973779 -0.79167,0.716679 -0.79171,0.71667 1.07125,0.973779 1.07121,0.973779 0.7917,-0.716679 0.79171,-0.716679 z m 2.82245,-0.433224 1.22346,-0.996323 -1.20297,-1.042846 -1.20299,-1.042855 -0.65912,0.58022 c -0.3625,0.319122 -0.86662,0.802512 -1.12032,1.074198 l -0.46124,0.493979 1.06155,0.964971 c 0.58384,0.530745 1.07879,0.964979 1.09987,0.964979 0.0212,0 0.58885,-0.448342 1.26176,-0.996323 z m -9.93638,-2.218438 -0.94685,-0.861601 -1.29022,0.980089 -1.29026,0.98008 0.59873,0.468448 c 0.32933,0.25765 0.82776,0.66296 1.10768,0.900689 l 0.50895,0.432249 1.12939,-1.019177 1.12939,-1.019176 z m 4.79254,1.988764 0.78281,-0.714091 -0.8938,-0.847245 c -0.49156,-0.465985 -0.93489,-0.891596 -0.98515,-0.945794 -0.0538,-0.05795 -0.44016,0.215088 -0.9385,0.66319 l -0.84713,0.76174 0.98756,0.898137 c 0.54317,0.493979 1.01543,0.898146 1.04949,0.898146 0.0339,0 0.41419,-0.321338 0.84472,-0.714083 z m 2.76528,-2.378797 0.83972,-0.709314 -1.03766,-0.939343 -1.03766,-0.939343 -1.09185,0.988382 -1.09186,0.988392 0.939,0.926919 0.93901,0.926928 0.35079,-0.266653 c 0.19294,-0.146667 0.72864,-0.585846 1.19051,-0.975968 z m -5.24182,0.109343 0.83294,-0.731123 -0.86275,-0.830213 c -0.47451,-0.456618 -0.90236,-0.830213 -0.95071,-0.830213 -0.0484,0 -0.50203,0.340089 -1.0081,0.755758 l -0.92013,0.75575 0.94105,0.800571 c 0.51755,0.440313 0.98464,0.802822 1.03791,0.805577 0.0533,0.0027 0.47171,-0.323987 0.92979,-0.726107 z m -1.84292,-3.305929 c -0.94224,-0.957979 -1.84333,-1.798515 -1.92442,-1.795095 -0.0478,0.0018 -0.55802,0.405151 -1.13397,0.895851 l -1.04717,0.892182 1.32454,1.052124 1.32453,1.052124 0.93311,-0.840289 0.93312,-0.840297 z m 4.30776,1.19593 1.08274,-0.895842 -0.94799,-0.860298 -0.94805,-0.860289 -1.07468,0.90325 -1.07464,0.903259 0.86224,0.852889 c 0.47429,0.469078 0.89727,0.852881 0.93998,0.852881 0.0428,0 0.56493,-0.40313 1.1604,-0.89585 z m -2.33302,-2.157577 1.04538,-0.89321 -1.21714,-1.09839 -1.21716,-1.098391 -1.00431,0.913379 -1.00428,0.913387 1.11281,1.083308 c 0.61205,0.595816 1.14127,1.081013 1.17605,1.078213 0.0347,-0.0027 0.53367,-0.407029 1.10865,-0.898296 z m 4.85642,0.116308 c 0.54847,-0.432905 0.99723,-0.813004 0.99723,-0.844658 0,-0.06584 -2.0331,-1.849265 -2.10813,-1.849265 -0.0272,0 -0.44008,0.386523 -0.91768,0.858933 l -0.86839,0.858933 0.91115,0.881566 c 0.50109,0.484869 0.92856,0.881574 0.94986,0.881574 0.0212,0 0.48748,-0.354187 1.03596,-0.787083 z m -2.35324,-2.20185 0.92785,-0.736519 -1.21842,-1.106366 c -0.67011,-0.608506 -1.2714,-1.106375 -1.33624,-1.106375 -0.0648,0 -0.4972,0.345707 -0.96085,0.768244 l -0.84298,0.768235 1.18313,1.074651 c 0.65069,0.591057 1.21379,1.074641 1.25137,1.074641 0.0377,0 0.48583,-0.331422 0.99614,-0.736511 z m -5.09677,-2.096432 -0.75468,-0.683164 -1.02782,0.849424 c -1.16332,0.9614 -1.15221,0.807333 -0.12766,1.772109 l 0.62656,0.589958 1.01912,-0.922577 1.01917,-0.922577 z m -2.15034,-1.971228 c -0.50326,-0.482937 -0.95071,-0.891074 -0.99439,-0.90698 -0.0436,-0.01595 -0.54394,0.352663 -1.1118,0.819056 l -1.03252,0.847989 1.0413,0.947035 1.04131,0.947035 0.98557,-0.888035 0.98553,-0.888043 z m 4.43929,-0.05211 -0.79544,-0.720082 -0.84918,0.763583 c -0.46704,0.419976 -0.84918,0.797602 -0.84918,0.83919 0,0.04156 0.31046,0.376031 0.68992,0.743227 l 0.68988,0.667639 0.95474,-0.786747 0.9547,-0.786738 z m -6.00328,-1.34009 c 0,-0.05751 -0.41649,-0.481404 -0.92968,-0.941877 l -0.93307,-0.83724 -0.68207,0.532349 c -0.37513,0.292795 -0.88408,0.685406 -1.13101,0.872474 l -0.44888,0.340133 1.131,0.966902 1.13096,0.966903 0.92968,-0.897499 c 0.51128,-0.493624 0.93116,-0.944589 0.93307,-1.002145 z m 3.82084,-0.658564 c -0.51027,-0.481201 -0.94326,-0.895488 -0.96225,-0.920646 -0.0191,-0.02517 -0.4402,0.319389 -0.93609,0.765648 l -0.90163,0.811391 0.98743,0.898004 0.98736,0.897995 0.87645,-0.788741 0.87644,-0.788732 z m -2.35516,-0.63175 0.84023,-0.805897 -0.91301,-0.846739 -0.91296,-0.84674 -0.94516,0.788936 -0.94511,0.788944 0.95886,0.876674 c 0.52735,0.482176 0.9854,0.870844 1.01789,0.863701 0.0326,-0.0071 0.43714,-0.375624 0.89926,-0.818879 z m 2.3359,-2.006275 0.95411,-0.790468 -0.9883,-0.898837 c -0.54359,-0.494369 -1.02658,-0.898842 -1.07336,-0.898842 -0.0468,0 -0.46175,0.355726 -0.92226,0.790491 l -0.83722,0.790505 0.90749,0.89881 c 0.49912,0.494351 0.92952,0.898819 0.95645,0.898819 0.0272,0 0.47833,-0.355712 1.00309,-0.790478 z m -4.79271,-1.929037 -0.97853,-0.946786 -0.99996,0.826393 -0.99995,0.826402 1.0511,0.955507 1.05115,0.955497 0.92734,-0.835113 0.92734,-0.835104 z m -6.41701,-1.045829 0.31155,-0.335523 -0.94231,-0.893068 c -0.51828,-0.491187 -0.98448,-0.909165 -1.036,-0.928842 -0.0515,-0.01965 -0.35899,0.187655 -0.68329,0.460723 -0.32432,0.273075 -0.80548,0.669267 -1.0693,0.880432 l -0.47972,0.383933 0.48105,0.377863 c 0.26453,0.207821 0.78631,0.660937 1.15956,1.006901 l 0.6786,0.629047 0.63415,-0.622968 c 0.34876,-0.342641 0.77432,-0.77396 0.94571,-0.958498 z m 8.84498,0.752245 0.8851,-0.760674 -1.07443,-0.983303 -1.07447,-0.983298 -0.86818,0.848129 -0.86818,0.848129 0.97892,0.895852 c 0.53842,0.49272 1.01433,0.895851 1.05755,0.895851 0.0433,0 0.47693,-0.342314 0.96369,-0.760686 z m -4.75008,-1.917023 c -0.44631,-0.441755 -0.83692,-0.800953 -0.86801,-0.798212 -0.031,0.0027 -0.51408,0.393733 -1.07324,0.868876 l -1.01671,0.863897 0.90114,0.820562 0.90116,0.820571 0.98359,-0.886253 0.98354,-0.886252 z m -1.45271,-1.237495 c 0.0476,-0.09672 -1.79471,-1.920607 -1.94006,-1.920607 -0.0597,0 -0.56243,0.426168 -1.11714,0.947039 l -1.0086,0.947038 1.03193,0.907542 1.03189,0.907541 0.98231,-0.856351 c 0.54028,-0.470989 0.99911,-0.890485 1.01967,-0.932202 z m 3.67833,0.929551 c 0.50674,-0.403275 0.93158,-0.760333 0.94405,-0.793461 0.0123,-0.03312 -0.39875,-0.468886 -0.91385,-0.968345 l -0.93655,-0.908106 -0.56752,0.54977 c -0.31215,0.302369 -0.7252,0.711017 -0.91797,0.908107 l -0.3504,0.358335 0.86784,0.793467 c 0.47725,0.436403 0.88696,0.793466 0.91041,0.793466 0.0233,0 0.45724,-0.329959 0.96399,-0.733233 z m -7.15596,-2.361217 1.12329,-0.944412 -1.0207,-0.927842 -1.02073,-0.927846 -1.13399,1.026521 -1.13394,1.026528 0.99463,0.841003 c 0.54702,0.46255 1.0112,0.843128 1.03139,0.845733 0.0205,0.0027 0.54224,-0.420257 1.16005,-0.939685 z m 8.69277,35.957001 c -0.82721,-0.205589 -1.18475,-0.670466 -1.09157,-1.419144 0.14573,-1.170328 1.88658,-1.512597 2.56557,-0.504435 0.26888,0.399213 0.28967,0.777389 0.069,1.255399 -0.22724,0.492357 -0.965,0.811825 -1.54304,0.66818 z m 18.60607,-0.141661 c -0.93108,-0.367135 -1.0651,-1.543968 -0.24675,-2.167281 0.30939,-0.235691 0.43149,-0.2645 0.95465,-0.225225 1.07379,0.08064 1.61137,0.876107 1.1836,1.751522 -0.33392,0.683298 -1.11388,0.947611 -1.8915,0.640984 z m 0.3868,-4.130551 c -0.14068,-0.162379 -0.1367,-0.166003 0.0427,-0.03864 0.10882,0.07727 0.19789,0.157913 0.19789,0.179172 0,0.08427 -0.0929,0.03004 -0.2406,-0.140509 z m 4.38118,-1.002845 c -1.29947,-3.278289 -2.79314,-6.800662 -4.2528,-10.028884 -4.57072,-10.108868 -6.72073,-13.691774 -11.01738,-18.359989 -4.59342,-4.990624 -8.80656,-7.747596 -14.25339,-9.327046 -1.531,-0.44396 -1.58011,-0.385373 -0.11549,0.137831 3.91219,1.397531 6.94987,3.22213 10.0629,6.044267 3.53136,3.201447 6.69116,7.049758 9.0958,11.07785 1.36343,2.283864 3.54816,6.632444 7.83621,15.597409 1.11778,2.336891 2.39082,4.998566 2.82902,5.914834 0.43824,0.916276 0.81292,1.65136 0.83264,1.633504 0.0195,-0.01781 -0.43816,-1.228247 -1.01751,-2.689776 z M 135.07154,68.51034 c 2.12701,-0.514839 3.95346,-2.005929 4.76936,-3.89376 0.45833,-1.060578 0.57607,-2.680888 0.27147,-3.736973 -0.36053,-1.249959 -0.58548,-1.598448 -1.25122,-1.938573 -0.8303,-0.424203 -1.27495,-0.798196 -2.20781,-1.857205 -0.81977,-0.930597 -1.19313,-1.235337 -1.74697,-1.425949 l -0.31298,-0.107704 0.0585,0.740534 c 0.0824,1.042421 -0.0858,2.711974 -0.36631,3.637839 -0.45568,1.503611 -1.46814,2.949074 -3.25868,4.652319 -0.95738,0.910693 -1.37938,1.115023 -1.53665,0.744016 -0.12648,-0.298413 -0.0719,-0.447083 0.66399,-1.809335 0.80517,-1.490515 1.30243,-2.968118 1.30291,-3.871447 0,-0.734721 -0.29243,-1.730477 -1.02066,-3.4718 l -0.58512,-1.398904 -2.73134,-0.449238 c -1.50219,-0.247083 -2.8682,-0.441706 -3.03548,-0.43251 -0.88231,0.04851 -2.62607,1.242503 -3.44421,2.358306 -1.09165,1.488777 -1.73189,4.642979 -1.29303,6.370167 0.52456,2.064611 2.40113,3.941099 4.66487,4.664699 0.2693,0.08605 2.19463,0.428093 4.27843,0.760038 2.08387,0.331954 3.91604,0.626025 4.07157,0.653505 0.46417,0.08197 2.04778,-0.02791 2.70929,-0.188025 z m 8.37899,-12.058775 c -1.00849,-1.941099 -1.47478,-3.697376 -1.47478,-5.554256 0,-5.048057 3.77244,-9.458184 8.87449,-10.374528 0.49973,-0.08975 0.92582,-0.17286 0.94691,-0.184698 0.0805,-0.04511 -0.8949,-1.443136 -1.36059,-1.950268 -1.08399,-1.180478 -2.88657,-2.19651 -4.57238,-2.577286 -0.9704,-0.21919 -2.52845,-0.466602 -2.57533,-0.408963 -0.1771,0.217603 -0.75227,1.140929 -0.72569,1.164971 0.0193,0.01741 0.45766,0.08407 0.97431,0.148105 1.38928,0.172189 2.57999,0.469994 3.47115,0.868151 0.81386,0.363598 1.89858,1.119234 2.32207,1.617584 0.22712,0.26718 0.22887,0.285221 0.0332,0.347046 -2.72948,0.862608 -4.8912,2.354027 -6.45649,4.454385 -1.5871,2.129636 -2.28887,4.24386 -2.28887,6.895501 0,1.745158 0.32624,3.379127 0.98475,4.932662 0.0792,0.186713 -0.5633,0.178995 -0.97053,-0.01161 -0.17264,-0.08082 -0.62681,-0.513164 -1.00933,-0.960761 -1.13793,-1.33154 -2.28007,-2.147515 -3.54033,-2.529191 -0.28616,-0.08668 -8.63966,-1.487777 -18.56332,-3.113529 -9.92359,-1.626458 -18.150658,-3.008818 -18.282385,-3.072619 -0.503521,-0.243967 -0.589511,-0.53323 -0.814396,-2.740102 -0.472852,-4.639179 -1.004454,-6.106949 -2.85723,-7.888496 l -0.559021,-0.537506 h 2.900435 2.900437 v -0.727279 -0.727275 l -3.619203,0.03621 -3.619203,0.03621 V 30.65052 27.707024 h 3.619203 3.619203 v -1.586937 -1.586926 h -3.608718 -3.608718 l -0.03857,-0.563243 -0.03856,-0.563243 3.647464,1.01e-4 3.647462,1.01e-4 v -0.563098 -0.563104 h -3.678857 -3.678859 l 0.03133,-1.458953 0.03133,-1.458952 3.577624,-0.02705 3.577562,-0.027 0.0585,-1.303957 c 0.0319,-0.717178 0.0957,-1.410302 0.14131,-1.540273 l 0.0829,-0.23632 -3.690672,0.07296 -3.690669,0.07296 v -0.407657 c 0,-0.471656 0.27954,-0.762117 0.904846,-0.940297 0.279842,-0.07974 5.846905,-0.12094 19.000675,-0.140584 l 18.60483,-0.0278 0.45237,0.212453 c 0.24886,0.116855 0.62753,0.424283 0.84163,0.683182 0.36083,0.43653 0.44302,0.47977 1.13094,0.595295 0.408,0.06851 1.09544,0.231841 1.52773,0.362953 0.43224,0.131116 0.79784,0.22756 0.81248,0.214322 0.0853,-0.07723 -0.68804,-1.492165 -1.05115,-1.923174 -0.5104,-0.605871 -1.41753,-1.198914 -2.03097,-1.327735 -0.49706,-0.104407 -29.1128,-0.110771 -35.612855,-0.0079 -3.772501,0.05968 -4.223658,0.08491 -4.580571,0.256167 -0.551608,0.26473 -1.000296,0.662334 -1.256757,1.113652 -0.211387,0.372176 -0.217172,0.670605 -0.187525,9.726349 l 0.03073,9.342462 0.252846,0.428191 c 0.139077,0.235506 0.520756,0.627119 0.848262,0.87025 2.770337,2.056937 3.331467,3.352928 3.826492,8.837435 0.150166,1.66346 0.365109,2.24083 1.024882,2.752009 0.239287,0.185411 0.626511,0.391544 0.860435,0.458066 0.233985,0.06652 8.466781,1.433593 18.295111,3.037933 9.82832,1.604334 18.09872,2.991386 18.37862,3.082323 1.10304,0.358352 1.82614,0.909203 3.10387,2.36443 0.95076,1.082883 1.15402,1.170577 3.17281,1.368765 0.93322,0.09162 1.78233,0.172987 1.88688,0.180803 0.15197,0.01134 0.0809,-0.195982 -0.35516,-1.035208 z m 2.19491,-1.620841 c -1.54027,-4.058674 -0.89725,-7.576634 1.85749,-10.162034 1.24855,-1.171851 2.70652,-1.938787 4.40377,-2.316597 l 0.86995,-0.193671 -0.79162,-0.0059 c -3.18606,-0.02375 -6.32433,2.216202 -7.55711,5.393878 -0.30925,0.797135 -0.35185,1.050917 -0.39403,2.348218 -0.0536,1.657809 0.10371,2.531371 0.68893,3.818214 0.36529,0.80337 1.08599,1.990509 1.16499,1.919023 0.0253,-0.02286 -0.0838,-0.383378 -0.24237,-0.80113 z m 4.37094,-4.245529 c 1.40366,-0.657088 0.72317,-2.660661 -0.83916,-2.470957 -0.60928,0.07397 -1.00368,0.359907 -1.20379,0.872672 -0.43965,1.126848 0.8667,2.148897 2.04295,1.598285 z M 137.4291,47.732588 c 0.67972,-0.321474 1.2667,-1.147339 1.2667,-1.782269 0,-0.384275 -0.21596,-0.940009 -0.36528,-0.940009 -0.0643,0 -0.70835,0.49236 -1.43097,1.094124 -0.72268,0.601776 -1.40939,1.173194 -1.52599,1.269818 -0.20578,0.170518 -0.20247,0.180385 0.1131,0.335129 0.41048,0.201281 1.53744,0.214743 1.94244,0.02316 z m -17.47582,-0.507855 c 0.63488,-0.244895 0.90942,-0.609343 0.96288,-1.278142 0.0439,-0.554168 0.0223,-0.623231 -0.31444,-0.969968 -0.68424,-0.705483 -1.72617,-0.736907 -2.42861,-0.07325 -0.46242,0.436978 -0.53298,1.236047 -0.15396,1.745057 0.28647,0.384808 0.89346,0.716262 1.31208,0.716518 0.14196,9e-5 0.42186,-0.06301 0.62205,-0.140217 z m 16.6231,-1.948985 c 0.60584,-0.501583 1.10153,-0.943391 1.10153,-0.981796 0,-0.09894 -0.47646,-0.283075 -0.93323,-0.360642 -0.84308,-0.143177 -1.96949,0.417813 -2.30695,1.1489 -0.1871,0.405406 -0.1989,1.260137 -0.0223,1.611108 l 0.13059,0.259293 0.46441,-0.382448 c 0.25544,-0.210349 0.96016,-0.792837 1.56595,-1.294415 z m -14.40426,-4.821672 c -0.24259,-1.175344 -1.37824,-2.450163 -2.67132,-2.998682 l -0.65387,-0.277351 -7.21015,-0.02849 -7.21001,-0.02849 V 36.065614 35.01015 l 4.599,-0.06784 c 2.52954,-0.03732 8.66232,-0.06784 13.62848,-0.06784 h 9.02942 v -2.099004 -2.09884 h -4.56942 -4.56948 l 0.15859,-0.476991 c 0.0872,-0.262345 0.15855,-0.647396 0.15855,-0.855669 v -0.378673 l 0.6952,-0.06578 c 0.38234,-0.03616 2.36727,-0.06578 4.41089,-0.06578 h 3.71567 v -0.665487 -0.665485 h -4.50314 -4.50319 l -0.26333,-0.575167 c -0.40965,-0.894749 -1.40934,-1.792003 -2.58342,-2.318742 l -0.96625,-0.433527 -7.27534,-0.02918 -7.27534,-0.02918 v -0.901104 -0.901109 l 6.36181,-0.06786 c 3.49905,-0.03732 9.65732,-0.0679 13.68501,-0.06796 l 7.32319,-9.6e-5 v -1.330977 -1.330977 h -4.97388 -4.97388 l 0.44585,-0.624504 c 0.24526,-0.343484 0.4766,-0.71206 0.51413,-0.819064 0.0655,-0.186812 0.24556,-0.194549 4.52797,-0.194549 h 4.45981 v -0.349971 c 0,-0.725346 0.38102,-0.673857 -4.9863,-0.673857 h -4.84901 l -0.0731,0.281552 c -0.13975,0.538028 -0.75758,1.461812 -1.25574,1.877447 -0.2755,0.22994 -0.84097,0.563865 -1.25645,0.742061 l -0.75547,0.323994 -7.70969,0.05118 c -4.24028,0.02817 -7.72662,0.07423 -7.74729,0.102387 -0.0205,0.02817 -0.0211,1.099333 0,2.380397 l 0.0362,2.329202 h 7.50143 c 7.15947,0 7.53445,0.0093 8.22725,0.202947 1.39897,0.39116 2.54576,1.407378 2.98113,2.641731 0.28068,0.795925 0.18439,1.970935 -0.22351,2.725601 -0.43632,0.807327 -1.26151,1.537658 -2.18444,1.933419 l -0.76625,0.328568 -5.20255,0.06465 c -2.86139,0.03557 -6.36043,0.07012 -7.77561,0.07679 l -2.57299,0.01214 v 2.557028 2.557018 l 7.6625,-0.02306 7.66245,-0.02306 0.71262,0.297852 c 0.87453,0.365567 1.61462,1.075801 1.93912,1.86097 0.12775,0.309099 0.23229,0.60634 0.23229,0.660539 0,0.0542 0.22248,0.09854 0.49431,0.09854 h 0.49436 z m 13.40439,-0.584991 c 1.67513,-0.497818 3.16136,-1.360474 4.485,-2.603294 1.05429,-0.989826 1.66471,-1.79873 2.37407,-3.145896 0.83543,-1.586554 1.13618,-2.754613 1.20705,-4.687495 0.0653,-1.782056 -0.0542,-2.792932 -0.49256,-4.162032 -1.24349,-3.884491 -4.79665,-7.034711 -8.6672,-7.684365 l -0.5372,-0.09017 v 0.780249 0.780243 l 0.90719,0.228727 c 3.64427,0.918798 6.27378,3.565811 6.59942,6.643486 l 0.0636,0.601717 -0.14974,-0.614295 c -0.68845,-2.824117 -3.29187,-5.05402 -6.55097,-5.611081 l -0.87128,-0.148934 v 7.828102 7.828102 l 0.36757,-0.06653 c 1.77698,-0.321657 3.54413,-1.239705 4.95581,-2.574671 1.54232,-1.458425 2.4547,-3.014646 2.99281,-5.10495 l 0.26351,-1.023827 0.008,1.366086 c 0.0175,2.993857 -1.05164,5.607236 -3.09532,7.567462 -1.44283,1.383884 -2.98389,2.24376 -4.73495,2.641928 l -0.75739,0.172221 v 0.713232 0.713231 l 0.47635,-0.07285 c 0.26194,-0.04004 0.78149,-0.163541 1.15449,-0.274395 z m 11.11624,-7.397281 c 0.12153,-0.58334 0.15486,-1.21565 0.11611,-2.2025 -0.0566,-1.437534 -0.22072,-2.179431 -0.67423,-3.04426 -0.22399,-0.427115 -0.26201,-0.458039 -0.29587,-0.240873 -0.0573,0.366047 0.19451,6.265438 0.28454,6.6726 l 0.0768,0.347413 0.16107,-0.357063 c 0.0886,-0.196386 0.23772,-0.725282 0.33155,-1.175317 z M 118.3945,31.484568 c 0.56728,-0.130993 1.49255,-0.730831 1.66941,-1.082227 0.1254,-0.249218 0.0966,-0.296857 -0.4614,-0.761281 -0.96685,-0.804803 -0.99379,-0.808057 -6.68559,-0.807769 -2.71014,1.01e-4 -6.03449,0.03051 -7.38748,0.0675 l -2.45989,0.06725 v 1.377338 1.377344 l 7.43629,-0.06683 c 4.42378,-0.03978 7.61954,-0.109155 7.88866,-0.171311 z M 34.531466,28.525895 V 27.194918 H 33.287363 32.04326 v 1.330977 1.330967 h 1.244103 1.244103 z m -3.867167,0.127975 0.03495,-0.435125 h -3.520016 c -2.210111,0 -3.601426,0.03946 -3.738756,0.105987 -0.245313,0.118847 -0.290567,0.504692 -0.08147,0.694007 0.103103,0.09336 1.02446,0.117548 3.703987,0.09726 l 3.566716,-0.027 z m 37.938321,0.321283 22.139133,-0.065 v -0.444545 -0.444539 l -9.92444,0.04947 c -5.45848,0.02721 -17.80038,0.07735 -27.426539,0.111429 l -17.50216,0.06195 v 0.422536 0.422536 l 5.287406,-0.02444 c 2.908088,-0.01342 15.250049,-0.05367 27.4266,-0.08942 z m 51.61453,-1.143111 c -0.26478,-0.463529 -1.25194,-1.212354 -1.85157,-1.404577 -1.00777,-0.323045 -6.16941,-0.443219 -12.49683,-0.290945 l -2.7992,0.06736 v 0.38034 c 0,0.34407 0.0337,0.386437 0.35348,0.444327 0.52281,0.09465 7.24189,0.07235 11.04748,-0.03669 3.05386,-0.08748 3.36587,-0.08044 3.96967,0.08969 0.69063,0.194577 1.67929,0.747004 1.78553,0.997697 0.0349,0.08156 0.0858,0.127559 0.11382,0.102206 0.0277,-0.02534 -0.0271,-0.182595 -0.12238,-0.349438 z M 26.381708,26.171096 h 4.253787 l -0.04339,-0.409532 -0.04339,-0.409533 h -10.82301 c -8.267142,0 -10.8550763,0.02902 -10.9587211,0.122858 -0.074659,0.06758 -0.1357024,0.21961 -0.1357024,0.337866 0,0.50064 -0.1662544,0.490452 6.8893855,0.422226 3.633664,-0.03514 8.520891,-0.06388 10.860559,-0.06388 z m 54.15281,-0.168094 10.207235,-0.06156 v -0.414048 -0.414052 l -19.255088,0.06813 c -10.590359,0.03749 -22.93232,0.06814 -27.4266,0.06815 l -8.171451,3.2e-5 v 0.465489 0.465494 l 17.219367,-0.05803 c 9.47069,-0.03189 21.81259,-0.08574 27.426537,-0.119603 z m -46.024504,-0.318227 -0.03495,-0.383934 -1.114306,-0.02945 c -1.23434,-0.03259 -1.430422,0.03631 -1.430422,0.502685 v 0.294614 h 1.307434 1.307495 z m 23.037109,-3.354402 c 13.00077,-0.02918 25.788043,-0.08078 28.416168,-0.114673 l 4.778462,-0.06163 v -1.0206 -1.0206 l -5.626724,0.05965 c -3.09465,0.03281 -15.754655,0.08294 -28.133374,0.111387 -12.378718,0.02844 -28.448709,0.08151 -35.711096,0.117899 l -13.2043242,0.06615 v 0.55304 c 0,0.647104 0.2189807,1.088113 0.6517588,1.312541 0.2777931,0.144089 1.5858304,0.154883 12.7504554,0.105221 6.842564,-0.03045 23.077965,-0.07921 36.078674,-0.108382 z m 89.009137,-2.464594 c 0.89833,-0.191067 2.74654,-1.030426 3.73224,-1.694959 0.43543,-0.293565 1.6461,-1.318244 2.69038,-2.277063 1.04422,-0.958822 2.03663,-1.825728 2.20541,-1.926464 0.20157,-0.120312 0.24489,-0.183378 0.12636,-0.18382 -0.28014,-0.0011 -1.39968,0.697331 -2.70363,1.686481 -1.28345,0.973665 -2.61022,1.895254 -3.34556,2.323866 -2.0943,1.220763 -4.40943,1.720881 -5.89313,1.273024 -0.70032,-0.211399 -1.66844,-0.762948 -2.976,-1.695432 -2.13805,-1.52475 -2.21096,-1.5318 -0.74202,-0.07172 1.09972,1.093075 2.39166,2.057522 3.21401,2.399297 1.02109,0.424378 2.22506,0.478769 3.69194,0.166789 z m -28.05227,-1.136093 c 0.66272,-0.196019 1.64248,-1.022059 1.84929,-1.559156 l 0.13449,-0.349235 -8.60531,0.06212 c -6.34411,0.0458 -8.64744,0.09378 -8.7656,0.182599 -0.11462,0.08609 -0.16041,0.360418 -0.16041,0.961135 0,0.462357 0.0211,0.859849 0.047,0.883306 0.0259,0.02348 3.39763,0.02977 7.49281,0.01405 6.50603,-0.02497 7.51669,-0.04958 8.00767,-0.194811 z M 56.246498,18.030422 c 12.720868,-0.02907 25.686265,-0.08069 28.812009,-0.114746 l 5.683246,-0.06191 v -0.653321 -0.653319 l -3.025413,0.006 c -1.663985,0.0032 -20.039054,0.06449 -40.833573,0.135951 -33.372996,0.114683 -37.8281076,0.147992 -37.978273,0.283911 -0.093582,0.08469 -0.2414562,0.398845 -0.3286513,0.698119 l -0.1586006,0.544131 12.3502769,-0.066 c 6.792609,-0.0363 22.758171,-0.08976 35.478979,-0.118821 z m -39.98055,-3.327888 c 0.522744,-0.618992 1.794385,-1.496761 2.818483,-1.945481 0.940097,-0.411907 2.439878,-0.817141 3.024207,-0.817141 0.48659,0 0.384571,-0.166018 -0.181258,-0.294994 -1.081344,-0.24648 -2.429995,-0.07397 -3.593231,0.45961 -1.158716,0.531548 -2.267598,1.735589 -2.512068,2.72769 -0.09515,0.386058 0.04218,0.345938 0.443867,-0.129684 z" />
    <path
       id="path2002"
       style="fill:#000000;stroke-width:0.266667"
       d="m -1250.7109,886.49384 -17.6,-0.13888 -1.5425,-0.62261 c -2.1619,-0.87258 -4.4347,-3.0412 -5.4172,-5.16885 -0.673,-1.45744 -0.7734,-1.98719 -0.7717,-4.07521 0,-2.70489 -0.3987,-1.4597 4.9353,-15.33333 7.9438,-20.66182 18.6789,-46.23142 24.2387,-57.73333 6.6279,-13.71149 15.5539,-26.18324 26.0609,-36.41314 12.8182,-12.48022 28.4612,-19.47653 46.7941,-20.92866 l 2.2975,-0.18199 0.4556,-0.95538 c 1.9718,-4.13474 6.7419,-9.19437 10.4374,-11.07065 l 0.8214,-0.41704 -0.4855,-2.61657 c -0.267,-1.43911 -0.557,-4.23657 -0.6445,-6.21657 -0.1385,-3.13416 -0.07,-4.11512 0.5307,-7.58082 0.3794,-2.18945 0.6898,-4.49794 0.6898,-5.12998 v -1.14916 l -1.8195,-0.91631 c -5.8233,-2.93257 -10.7274,-8.96345 -14.0877,-17.32463 -0.649,-1.6148 -1.4116,-3.31075 -1.6946,-3.76877 -0.2831,-0.45803 -1.6568,-1.65589 -3.0528,-2.66191 -2.7889,-2.00994 -3.7152,-3.12026 -4.1184,-4.93678 -1.0736,-4.83645 4.0039,-8.33713 10.2404,-7.06021 2.9839,0.61095 4.9157,1.64735 7.9993,4.29156 4.2874,3.67657 8.0757,6.41251 10.7597,7.77077 2.4446,1.23713 2.5584,1.26624 4.9523,1.26624 2.2967,0 2.5746,-0.0623 4.4358,-0.99508 1.1457,-0.57419 3.1134,-1.957 4.6522,-3.2693 3.3958,-2.89604 8.5634,-6.51242 11.2483,-7.87169 1.1468,-0.58059 3.045,-1.32748 4.2184,-1.65977 l 2.1333,-0.60416 46.1333,0.0886 c 49.5949,0.0953 48.0924,0.0524 51.1542,1.45771 1.7371,0.79725 4.0723,2.92692 5.1079,4.6584 l 0.7955,1.32988 12.9379,0.16513 c 7.1158,0.0908 41.21231,0.24107 75.76991,0.33388 l 62.832,0.16875 0.1192,-3.83451 c 0.1457,-4.69033 0.4412,-5.491 2.4549,-6.65345 0.749,-0.43237 2.3218,-1.10742 3.4952,-1.50012 1.877,-0.6282 2.5499,-0.714 5.6,-0.714 3.0416,0 3.7282,0.087 5.6,0.70971 1.1733,0.39033 2.898,1.16277 3.8325,1.71652 3.1274,1.85307 6.3983,5.64908 7.8184,9.07349 l 0.5805,1.4 h 5.2508 c 5.7948,0 6.7172,0.17391 8.5278,1.6079 1.3623,1.07901 2.2467,2.96779 3.0461,6.50557 1.599,7.0766 1.4329,14.07669 -0.4993,21.04631 -0.6987,2.52022 -1.5368,3.98013 -2.8366,4.94104 -1.8279,1.35148 -2.0048,1.36585 -16.8204,1.36585 h -13.8332 v 1.8 c -0.01,3.52013 -1.0946,6.59474 -2.84,8.03343 -1.8521,1.52663 -2.5822,1.63323 -11.1856,1.63323 -7.4617,0 -7.8082,0.0223 -7.9638,0.51259 -0.3017,0.95046 -2.1986,2.38413 -3.7519,2.8357 -1.1454,0.33298 -2.3318,0.41442 -5.0111,0.34399 -3.2725,-0.086 -3.6187,-0.14648 -5.1103,-0.89228 -1.052,-0.52601 -1.8138,-1.13178 -2.2244,-1.76874 l -0.6245,-0.96875 -12.8422,-0.15881 c -7.0632,-0.0873 -35.0722,-0.22663 -62.2422,-0.30953 l -49.40001,-0.15072 v 1.86515 c 0,5.10056 -1.5877,7.96256 -6.6576,12.00082 -3.0273,2.41133 -4.0762,5.8069 -4.9497,16.02392 -0.232,2.71333 -0.5394,5.45949 -0.6831,6.10258 -0.743,3.32506 -3.3656,6.60061 -6.4292,8.02986 -1.6739,0.78096 -3.6405,1.16201 -37.8137,7.32692 l -3.6,0.64945 -1.4454,1.54005 c -1.8191,1.93834 -3.3243,4.25415 -3.9087,6.01354 -0.6749,2.03207 -0.6008,4.1824 0.2784,8.07093 0.6797,3.00583 0.7835,3.9984 0.7811,7.46667 0,3.64855 -0.068,4.19915 -0.744,6.26666 -2.396,7.32605 -7.8704,12.76799 -14.8678,14.77966 -1.571,0.45165 -18.6089,3.46844 -21.1603,3.74673 -0.88,0.096 -2.6568,0.0426 -3.9484,-0.11864 -9.5598,-1.19338 -16.8507,-7.86364 -19.1424,-17.51304 -0.9598,-4.04129 -2.704,-6.67768 -5.7548,-8.69888 -2.3777,-1.5752 -3.4541,-1.99826 -4.7544,-1.86853 -3.7909,0.37821 -9.3902,1.20982 -11.1137,1.65062 -3.8569,0.98644 -7.4392,3.17933 -10.8863,6.66402 -3.5654,3.60432 -6.4708,8.26464 -8.7695,14.06664 -3.2642,8.23867 -3.4977,14.27613 -1.2134,31.37354 0.9761,7.30577 2.0335,13.13833 3.3692,18.58455 1.3923,5.67692 0.9857,8.62378 -1.5842,11.4821 -1.4297,1.59024 -2.6049,2.38455 -4.4496,3.00747 -1.1882,0.40123 -3.3348,0.43789 -22.4,0.38264 -11.5972,-0.0336 -29.0058,-0.12363 -38.6858,-0.2 z m 59.4837,-16.428 c -1.2864,-8.20009 -2.5934,-18.46391 -3.4739,-27.28157 -0.7468,-7.47921 -0.4328,-14.61118 0.8845,-20.08785 0.2724,-1.1322 0.4004,-1.99998 0.2846,-1.9284 -0.408,0.25218 -1.9124,4.55461 -2.6062,7.45361 -0.6697,2.79804 -0.7018,3.2654 -0.6956,10.13333 0,5.97871 0.1099,7.96896 0.6168,11.73333 0.9194,6.8292 1.8297,11.982 2.8619,16.20061 1.0277,4.20007 2.7476,9.91827 2.9287,9.73715 0.064,-0.0638 -0.2966,-2.74589 -0.8008,-5.96021 z m -6.724,3.35539 c 0.5014,-0.44022 0.9722,-1.11698 1.0461,-1.50391 0.074,-0.38693 -0.2741,-2.86007 -0.7734,-5.49586 -0.9116,-4.81163 -2.4482,-15.69413 -3.0595,-21.6665 -0.4756,-4.64695 -0.4144,-12.72278 0.1223,-16.13333 1.4565,-9.25659 6.0858,-19.67389 11.9139,-26.8101 4.1723,-5.10871 10.2983,-9.65891 15.767,-11.71106 0.6835,-0.25649 1.5835,-0.82196 2,-1.2566 l 0.7573,-0.79025 0.074,-13.73563 0.074,-13.73562 -0.9531,-0.95309 -0.9531,-0.95308 -2.454,0.16521 c -11.8061,0.79486 -24.601,6.00989 -33.9206,13.8256 -4.506,3.77891 -11.2428,11.16783 -15.8615,17.39706 -6.1731,8.32559 -10.3053,15.94582 -17.0764,31.49089 -8.5783,19.694 -19.7287,47.49192 -19.7287,49.18366 0,1.08834 0.4845,2.05426 1.3077,2.60693 0.7121,0.47806 7.7329,0.591 51.283,0.82492 l 9.524,0.0512 z m -21.5249,-5.53294 c -1.5941,-1.43 -3.0507,-2.71095 -3.2369,-2.84656 -0.2377,-0.17319 -0.883,0.22708 -2.1682,1.34481 -1.0063,0.87526 -2.0697,1.76259 -2.363,1.97183 -0.6081,0.43379 -0.7135,0.57134 2.0024,-2.61456 l 1.4303,-1.67781 -2.2438,-2.25552 c -1.2341,-1.24054 -2.3583,-2.25552 -2.4981,-2.25552 -0.2347,0 -4.7246,4.18524 -4.9032,4.57046 -0.043,0.0938 0.6572,1.02376 1.557,2.06667 0.8999,1.04291 1.556,1.8962 1.4581,1.8962 -0.098,0 -1.0435,-0.70727 -2.1014,-1.57172 l -1.9235,-1.57172 -2.9099,2.5675 c -3.3206,2.92988 -3.3669,2.79217 -0.2203,-0.65495 1.2205,-1.33699 2.2191,-2.49219 2.2191,-2.56711 0,-0.0749 -1.2673,-1.30973 -2.8162,-2.74403 l -2.8162,-2.60782 -1.3922,1.37493 c -1.8574,1.83431 -2.178,1.75687 -0.4689,-0.11323 0.7481,-0.81849 1.3546,-1.56849 1.3478,-1.66667 -0.01,-0.0982 -0.9968,-1.23036 -2.2,-2.51595 l -2.1877,-2.33744 -2.5333,2.03094 -2.5333,2.03095 2.3493,-2.22684 2.3493,-2.22684 -1.5029,-1.8 c -0.8265,-0.99 -1.4399,-1.8 -1.3631,-1.8 0.077,0 0.8606,0.6 1.7418,1.33334 0.8812,0.73333 1.6998,1.33333 1.8191,1.33333 0.1194,0 1.3441,-1.13181 2.7217,-2.51514 l 2.5047,-2.51514 -2.7454,-3.09416 c -2.7068,-3.0508 -2.7532,-3.08757 -3.3099,-2.6242 -0.3106,0.25847 0.7854,-0.91892 2.4354,-2.61643 1.65,-1.6975 3,-3.16994 3,-3.27207 0,-0.10214 -0.5699,-0.81057 -1.2665,-1.57428 -1.2153,-1.33259 -0.8314,-1.15745 0.875,0.39915 l 0.8086,0.73757 2.8539,-2.86282 2.854,-2.86283 -1.9959,-2.23565 c -1.0977,-1.22961 -1.9958,-2.28844 -1.9958,-2.35295 0,-0.0645 1.0354,0.8039 2.3009,1.92982 l 2.3009,2.04712 2.4797,-2.4694 2.4797,-2.46942 -2.1623,-2.35792 c -1.1893,-1.29685 -2.2657,-2.35791 -2.3921,-2.35791 -0.1263,0 -0.8545,0.56533 -1.6182,1.2563 -2.9318,2.65252 -3.1783,2.78921 -1.0212,0.56631 l 2.234,-2.30223 -0.7552,-1.02686 -0.7552,-1.02686 0.8622,0.7906 0.8622,0.79059 2.5858,-2.58583 2.5859,-2.58584 -1.0664,-1.13809 c -2.2188,-2.36821 -2.3243,-2.65728 -0.3874,-1.06162 l 2,1.64763 2.9622,-3.12872 2.9622,-3.12872 -2.4762,-2.66379 c -1.3619,-1.46509 -2.4306,-2.70936 -2.3749,-2.76505 0.056,-0.0557 1.3743,0.94575 2.9301,2.22542 1.5559,1.27968 2.8563,2.28395 2.8897,2.23172 0.033,-0.0522 0.8701,-0.94859 1.8592,-1.9919 l 1.7983,-1.89694 -1.542,-1.71021 c -0.848,-0.94062 -2.0812,-2.36699 -2.7403,-3.16973 l -1.1983,-1.45952 1.3317,1.05274 c 0.7324,0.57901 2.1397,1.75965 3.1274,2.62365 0.9876,0.86401 1.8912,1.53028 2.0079,1.4806 0.1167,-0.0497 1.2023,-1.12689 2.4124,-2.39381 l 2.2002,-2.3035 -1.7774,-1.96317 c -0.9775,-1.07975 -1.937,-2.13476 -2.1322,-2.34448 -0.3038,-0.32635 -0.5838,-0.18223 -1.9431,1 -0.8734,0.75972 -1.6667,1.38131 -1.7627,1.38131 -0.096,0 0.4878,-0.798 1.2974,-1.77334 l 1.4719,-1.77333 -0.9851,-1.2203 -0.985,-1.2203 1.2026,0.97327 1.2026,0.97326 2.3617,-2.66329 2.3617,-2.66328 -0.8757,-1.11635 c -1.4883,-1.89741 -1.4934,-1.94519 -0.083,-0.78075 0.7537,0.62209 1.4526,1.13107 1.553,1.13107 0.2246,0 5.21,-5.11157 5.21,-5.3418 0,-0.0909 -0.2995,-0.44662 -0.6656,-0.79054 -0.9247,-0.86875 -0.623,-0.99569 0.4481,-0.18849 l 0.8842,0.66635 2.527,-2.35799 2.527,-2.35799 -0.5937,-0.63196 c -0.8796,-0.93633 -0.7198,-1.12091 0.2983,-0.34441 l 0.8919,0.68032 0.5051,-0.55811 c 0.2778,-0.30696 0.7383,-0.68292 1.0233,-0.83546 0.3644,-0.19502 0.2742,0.0187 -0.3039,0.72003 l -0.8221,0.99738 1.8729,1.638 c 1.0301,0.9009 2.1616,1.8605 2.5144,2.13245 l 0.6416,0.49444 2.5289,-2.47998 2.5289,-2.47998 -0.8902,-0.9478 c -0.4896,-0.52128 -1.481,-1.66728 -2.2031,-2.54666 l -1.313,-1.59887 1.0667,0.78093 c 0.5866,0.42952 1.7429,1.35901 2.5695,2.06554 0.8266,0.70653 1.5893,1.2846 1.6949,1.2846 0.1057,0 1.3136,-1.02952 2.6844,-2.28783 l 2.4924,-2.28784 -1.1773,-1.49996 c -0.6475,-0.82497 -1.123,-1.55416 -1.0568,-1.62041 0.066,-0.0663 0.8224,0.43098 1.6803,1.10496 l 1.5597,1.22542 0.6332,-0.58383 c 0.5694,-0.52497 0.5872,-0.52794 0.1764,-0.0295 -0.2512,0.30488 -0.4563,0.60488 -0.4557,0.66667 5e-4,0.0618 1.1898,1.32726 2.643,2.81217 2.4608,2.51464 2.6732,2.67013 3.0968,2.26667 0.4252,-0.40493 0.4338,-0.39218 0.1323,0.19541 -0.2816,0.54891 -0.2236,0.7686 0.4575,1.73333 0.429,0.60761 0.8817,1.27835 1.0061,1.49053 0.2325,0.39646 -1.1774,-0.49432 -2.1479,-1.35709 -0.5354,-0.47599 -0.5842,-0.44422 -2.9221,1.90455 l -2.3775,2.38861 0.7887,0.87188 c 0.4338,0.47953 1.5334,1.66488 2.4435,2.6341 l 1.6547,1.76224 1.2574,-0.894 c 0.6916,-0.4917 1.3139,-0.83751 1.383,-0.76847 0.069,0.069 -0.3256,0.676 -0.8769,1.34879 l -1.0024,1.22328 0.844,1.05016 c 0.4641,0.5776 0.7329,1.05017 0.5973,1.05017 -0.1356,0 -0.4014,-0.18655 -0.5906,-0.41456 -0.9455,-1.13927 -1.2224,-1.04782 -3.6964,1.22101 -1.2989,1.19117 -2.6216,2.34783 -2.9393,2.57035 -0.4902,0.34335 -0.5253,0.47159 -0.2316,0.84723 0.3061,0.39158 0.2945,0.40233 -0.1007,0.0932 -0.382,-0.2988 -0.61,-0.23115 -1.5733,0.46666 -1.529,1.10756 -1.7906,1.02549 -0.7837,-0.24582 0.4626,-0.58407 0.7775,-1.16486 0.6997,-1.29066 -0.078,-0.1258 -1.2068,-1.13999 -2.5091,-2.25376 l -2.3678,-2.02503 -2.0428,2.05492 c -1.1236,1.13021 -2.0429,2.15305 -2.0429,2.27298 0,0.11993 0.8664,1.19727 1.9253,2.3941 2.7949,3.15889 2.9287,3.34155 1.9413,2.64947 -0.44,-0.30841 -1.7563,-1.35905 -2.9253,-2.33476 l -2.1253,-1.77402 -2.5062,2.54306 -2.5061,2.54306 1.1648,1.37751 c 3.3173,3.92308 3.9714,4.75753 3.6249,4.62456 -0.2408,-0.0924 -1.1484,0.70934 -2.4916,2.20091 -3.0959,3.43784 -2.9269,3.03955 -1.841,4.33923 1.2346,1.47777 1.1855,1.59278 -0.1807,0.42333 -0.616,-0.52723 -1.2163,-0.92647 -1.334,-0.88722 -0.1178,0.0393 -1.2288,1.19884 -2.4689,2.57687 l -2.2547,2.5055 0.5887,0.73079 c 0.3238,0.40194 1.11,1.34436 1.7469,2.09428 0.637,0.74991 1.0901,1.36348 1.0069,1.36348 -0.083,0 -0.9981,-0.72878 -2.033,-1.61951 -1.0349,-0.89072 -1.9778,-1.58072 -2.0953,-1.53333 -0.305,0.12299 -3.5034,3.58605 -3.5034,3.79329 0,0.0949 1.0412,1.37063 2.3137,2.83502 l 2.3136,2.66253 0.6864,-0.60234 0.6863,-0.60233 -0.6465,0.73333 -0.6465,0.73334 0.6465,0.71862 c 0.5899,0.65572 0.5531,0.64553 -0.4202,-0.11644 -0.5866,-0.45929 -2.1308,-1.80267 -3.4315,-2.98529 -1.3008,-1.18263 -2.4456,-2.15022 -2.5442,-2.15022 -0.099,0 -1.3516,1.28024 -2.7845,2.84499 l -2.6051,2.845 2.2059,2.2174 2.2058,2.2174 0.6768,-0.61172 c 3.8991,-3.52413 5.3831,-4.76241 5.5305,-4.61495 0.096,0.0961 -1.0466,1.41598 -2.5394,2.93301 -1.4929,1.51702 -2.7143,2.84977 -2.7143,2.96167 0,0.2448 1.057,1.4786 3.4889,4.07252 1.8302,1.95207 2.4295,2.69624 1.9159,2.37878 -0.2552,-0.15768 -4.8714,4.59691 -4.8714,5.01739 0,0.43323 4.631,5.17751 4.9026,5.02258 0.1636,-0.0933 0.2084,-0.0714 0.1,0.0486 -0.1087,0.12002 -0.062,0.382 0.1044,0.58219 0.2351,0.28331 0.2153,0.33067 -0.089,0.2137 -0.2613,-0.10029 -1.2519,0.82683 -2.9778,2.78718 l -2.5863,2.93745 2.7861,3.00524 c 1.5323,1.65289 2.7422,3.04901 2.6888,3.10251 -0.053,0.0535 -1.4319,-1.08584 -3.0631,-2.53186 -1.6312,-1.44602 -3.0481,-2.62803 -3.1487,-2.62669 -0.1005,10e-4 -1.3114,1.16771 -2.6907,2.59192 l -2.5079,2.58948 0.9079,1.06364 c 0.4993,0.58501 1.6874,1.93864 2.6402,3.00808 l 1.7324,1.94444 -1.8657,-1.5882 c -1.0261,-0.87351 -2.3795,-2.04952 -3.0076,-2.61336 l -1.1418,-1.02517 -2.5248,2.32201 c -1.3887,1.2771 -2.5248,2.40843 -2.5248,2.51405 0,0.10562 0.1956,0.35442 0.4348,0.55289 0.4887,0.40556 5.2504,5.83778 5.1172,5.83778 -0.047,0 -1.3897,-1.17 -2.9839,-2.6 z m -12.4689,-7.05158 2.2326,-2.31825 -2.4894,-2.68036 -2.4894,-2.68037 -1.0765,0.99601 c -0.5921,0.5478 -1.6985,1.5852 -2.4588,2.30533 l -1.3823,1.30933 2.5703,2.76396 c 1.4136,1.52018 2.6356,2.73215 2.7156,2.69328 0.08,-0.0389 1.15,-1.11389 2.3779,-2.38893 z m 13.632,-2.60952 c -10e-4,-0.0764 -1.032,-1.0872 -2.2907,-2.24623 l -2.2887,-2.10734 -2.2549,2.25493 -2.255,2.25493 2.1878,2.33832 2.1877,2.33832 2.358,-2.34702 c 1.2969,-1.29086 2.357,-2.40952 2.3558,-2.48591 z m 6.072,-6.12926 c -0.038,-0.0786 -1.0641,-1.09793 -2.2794,-2.26511 l -2.2094,-2.12214 -2.5868,2.58671 -2.5867,2.58671 2.2473,2.25904 2.2473,2.25904 2.6188,-2.58065 c 1.4403,-1.41935 2.5873,-2.64497 2.5489,-2.7236 z m -25.5564,2.59091 2.2467,-2.33279 -2.0377,-2.094 -2.0378,-2.094 -2.6787,2.39255 -2.6786,2.39256 2.203,2.09265 c 1.2116,1.15096 2.323,2.06636 2.4696,2.03423 0.1467,-0.0321 1.2777,-1.10817 2.5135,-2.3912 z m 11.6221,0.33051 2.1231,-2.13562 -2.5293,-2.51307 -2.5294,-2.51306 -2.2666,2.1037 -2.2667,2.1037 2.5281,2.54498 c 1.3904,1.39974 2.5932,2.54498 2.6729,2.54498 0.08,0 1.1002,-0.96103 2.2679,-2.13561 z m 5.8644,-5.86439 2.3889,-2.4 -2.3889,-2.4 c -1.3139,-1.32 -2.4776,-2.4 -2.5861,-2.4 -0.1085,0 -1.311,1.07216 -2.6723,2.38257 l -2.4749,2.38256 2.3944,2.41744 c 1.317,1.32959 2.5195,2.41743 2.6723,2.41743 0.1527,0 1.3527,-1.08 2.6666,-2.4 z m 12.4358,-0.78195 c 1.227,-1.09007 2.2641,-2.05973 2.3047,-2.15479 0.041,-0.0951 -1.0823,-1.16948 -2.4954,-2.38761 l -2.5692,-2.21477 -2.5675,2.56747 -2.5674,2.56746 2.2442,2.25599 c 2.5933,2.60677 1.9177,2.68253 5.6506,-0.63375 z m -24.4362,0.51573 2.1204,-2.13288 -1.8529,-1.86711 c -1.019,-1.02692 -1.916,-1.86125 -1.9933,-1.85407 -0.077,0.007 -1.1604,0.97673 -2.4071,2.15455 l -2.2667,2.1415 2,1.84005 c 1.1,1.01203 2.0628,1.84248 2.1396,1.84545 0.077,0.003 1.0938,-0.9544 2.26,-2.12749 z m -5.3312,-9.71168 c -1.4394,-1.55215 -2.719,-2.8221 -2.8438,-2.8221 -0.2449,0 -4.8405,4.18744 -4.9691,4.52787 -0.043,0.11336 1.2766,1.42065 2.9321,2.90509 l 3.01,2.69899 2.2439,-2.24387 2.2439,-2.24388 z m 11.7296,-0.40646 -1.8646,-1.85163 -2.6149,2.52749 -2.6149,2.52749 1.9482,1.83972 1.9482,1.83973 2.5314,-2.51559 2.5313,-2.51559 z m 11.8687,4.49237 2.5333,-2.3988 -1.8666,-1.72742 c -1.0267,-0.95008 -2.2642,-2.04464 -2.7501,-2.43236 l -0.8835,-0.70495 -2.3835,2.37247 -2.3835,2.37248 2.4617,2.47195 c 1.3539,1.35958 2.524,2.46598 2.6003,2.45869 0.076,-0.007 1.2786,-1.09273 2.6719,-2.41206 z m -17.355,-4.88626 2.5011,-2.51158 -2.6126,-2.80954 -2.6126,-2.80954 -2.9056,2.70194 c -2.7831,2.58812 -2.8854,2.7216 -2.4271,3.16897 1.1096,1.08311 5.2897,4.76072 5.4171,4.7658 0.076,0.003 1.2641,-1.12468 2.6397,-2.50605 z m 23.7899,-0.99499 2.3015,-2.0405 -2.4523,-2.01775 c -1.3488,-1.10976 -2.6774,-2.2664 -2.9524,-2.5703 -0.4997,-0.5522 -0.5015,-0.55108 -2.8496,1.78612 l -2.3496,2.33867 2.5853,2.59503 c 2.1797,2.18784 2.6504,2.54436 3.0004,2.27213 0.2283,-0.1776 1.4508,-1.24112 2.7167,-2.3634 z m -11.4188,-1.49838 1.0162,-1.05062 -2.0828,-1.89272 -2.0828,-1.89272 -1.421,1.38717 c -0.7815,0.76295 -1.789,1.84654 -2.2389,2.40797 l -0.8179,1.0208 1.8183,1.83233 1.8183,1.83234 1.4872,-1.29696 c 0.818,-0.71333 1.9446,-1.76974 2.5034,-2.34759 z m -6.7971,-8.50592 -2.5774,-2.57745 -2.5338,2.3775 -2.5337,2.37749 2.7129,2.57929 2.713,2.57929 2.3982,-2.37934 2.3983,-2.37933 z m 11.3031,4.26505 c 1.2162,-1.1252 2.2415,-2.06548 2.2785,-2.08951 0.037,-0.024 -0.9715,-0.98935 -2.2413,-2.14517 l -2.3085,-2.1015 -2.08,2.25767 -2.08,2.25767 1.9146,1.93333 c 1.053,1.06333 2.0025,1.93333 2.11,1.93333 0.1075,0 1.1905,-0.92062 2.4067,-2.04582 z m -5.5218,-5.15452 2.1212,-2.13369 -2.3885,-2.39965 c -1.3137,-1.31981 -2.4556,-2.39965 -2.5376,-2.39965 -0.082,0 -1.1644,0.95593 -2.4055,2.12429 l -2.2566,2.12429 2.5334,2.39746 c 1.3933,1.31861 2.5961,2.40268 2.6729,2.40905 0.077,0.006 1.0941,-0.94858 2.2607,-2.1221 z m -6.0731,-5.87828 2.1939,-2.27862 -2.1939,-2.16641 -2.1939,-2.1664 -2.5333,2.37197 -2.5333,2.37197 1.4649,1.27306 c 0.8057,0.70018 1.8857,1.65958 2.4,2.13201 0.5143,0.47242 0.9951,0.83242 1.0684,0.8 0.073,-0.0324 1.1206,-1.08434 2.3272,-2.33758 z m 12.2061,-0.44897 2.6667,-2.78818 -2.5174,-2.3964 -2.5174,-2.3964 -2.7451,2.88762 -2.7451,2.88762 2.4625,2.33023 c 1.3544,1.28162 2.5225,2.31525 2.5958,2.29696 0.073,-0.0183 1.3334,-1.28794 2.8,-2.82145 z m -5.3292,-10.53716 c -1.0779,-1.16031 -2.0122,-2.13042 -2.0762,-2.15579 -0.064,-0.0254 -1.4772,1.25793 -3.1405,2.85178 l -3.0242,2.8979 2.2517,2.08287 2.2518,2.08288 2.8487,-2.82499 2.8487,-2.82498 z m 10.8603,4.66476 1.7835,-1.8 -2.3698,-2.2 c -1.3034,-1.21 -2.466,-2.2 -2.5835,-2.2 -0.1175,0 -0.9674,0.74707 -1.8887,1.66016 l -1.675,1.66017 2.329,2.33983 c 1.2809,1.28691 2.3947,2.33984 2.475,2.33984 0.08,0 0.9486,-0.81 1.9295,-1.8 z m 5.0745,-5.07195 c 1.2803,-1.28623 2.3278,-2.42142 2.3278,-2.52264 0,-0.17694 -1.2449,-1.37394 -3.6844,-3.54282 l -1.1511,-1.02334 -2.2956,2.29565 -2.2957,2.29565 2.2467,2.40043 c 1.2357,1.32024 2.3092,2.40836 2.3856,2.41806 0.076,0.01 1.1864,-1.03475 2.4667,-2.32099 z m -11.0028,-0.73084 1.7207,-1.73613 -2.0592,-2.05921 -2.0593,-2.05922 -1.8871,1.86201 -1.8871,1.862 2.0381,1.93334 c 1.121,1.06333 2.1225,1.93333 2.2257,1.93333 0.1031,0 0.9618,-0.78126 1.9082,-1.73612 z m 16.9219,-5.14171 2.5855,-2.47783 -0.7527,-0.58884 c -0.414,-0.32386 -1.6046,-1.33043 -2.6459,-2.23682 l -1.8932,-1.64798 -2.293,2.31465 -2.2929,2.31465 2.1837,2.45364 c 1.2011,1.34951 2.2601,2.42951 2.3534,2.4 0.093,-0.0295 1.3331,-1.16867 2.7551,-2.53147 z m -11.6088,-4.45171 -2.1543,-2.13713 -2.2378,2.4 -2.2378,2.4 2.0512,2.06716 2.0513,2.06716 2.3409,-2.33003 2.3408,-2.33003 z m 5.5568,-1.27619 2.1943,-2.20573 -2.2124,-2.20087 -2.2123,-2.20088 -2.167,2.36294 -2.1669,2.36294 2.0437,2.04366 c 1.124,1.12402 2.1072,2.04367 2.185,2.04367 0.078,0 1.1288,-0.99258 2.3356,-2.20573 z m -5.6358,-5.27835 c 1.153,-1.1829 2.1283,-2.23842 2.1672,-2.34558 0.096,-0.26572 -3.6851,-4.34609 -3.9373,-4.24833 -0.1106,0.0429 -1.2627,1.08579 -2.5601,2.31755 l -2.359,2.23957 2.2595,2.08762 c 1.2427,1.14819 2.2761,2.09038 2.2964,2.09377 0.02,0.003 0.9802,-0.96169 2.1333,-2.1446 z m 11.4835,-0.58259 2.4432,-2.46666 -2.36,-2.20277 -2.3601,-2.20277 -2.2218,2.42269 c -1.2219,1.33248 -2.2217,2.45943 -2.2217,2.50434 0,0.18297 3.9238,4.41184 4.0936,4.41184 0.101,0 1.2831,-1.11 2.6268,-2.46667 z m -5.5557,-5.55012 2.2313,-2.40897 -1.8167,-1.92045 c -0.9991,-1.05625 -1.8977,-2.01895 -1.9968,-2.13933 -0.099,-0.12038 -1.3248,0.95771 -2.7237,2.39575 l -2.5434,2.61462 2.0423,1.9251 c 1.1233,1.0588 2.1623,1.92895 2.309,1.93367 0.1467,0.005 1.2708,-1.07546 2.498,-2.40039 z m 22.5941,-0.19799 2.6357,-2.48144 -1.7306,-1.5899 c -0.9518,-0.87444 -2.1348,-1.91287 -2.6288,-2.30763 l -0.8983,-0.71774 -2.385,2.4587 -2.385,2.45871 2.2166,2.39284 c 1.2192,1.31606 2.2893,2.36473 2.3781,2.33037 0.089,-0.0344 1.3476,-1.17911 2.7973,-2.54391 z m -9.6493,-1.35684 c 0.2802,-0.31074 0.4566,-0.59425 0.392,-0.63002 -0.065,-0.0358 -1.162,-1.08045 -2.4385,-2.32152 l -2.321,-2.25649 -0.9613,0.92316 c -0.5288,0.50773 -1.4512,1.50422 -2.0498,2.21441 l -1.0884,1.29126 2.2454,2.17541 2.2455,2.17541 1.7333,-1.50332 c 0.9533,-0.82682 1.9626,-1.75756 2.2428,-2.0683 z m 4.0223,-8.80992 -2.5685,-2.55179 -2.4151,2.53057 -2.415,2.53057 2.4914,2.30881 2.4914,2.30881 2.4921,-2.28759 2.4921,-2.2876 z m -11.454,0.40229 c -1.1422,-1.25808 -2.1519,-2.2785 -2.2439,-2.2676 -0.2514,0.0298 -4.1672,4.56167 -4.1672,4.82285 0,0.12446 0.96,1.0611 2.1333,2.08141 l 2.1334,1.85512 2.1105,-2.10219 2.1106,-2.10218 z m 18.2009,-1.7644 1.9102,-1.74365 -2.7278,-2.7122 -2.7277,-2.71219 -2.3334,2.5008 -2.3334,2.50081 2.5794,2.40489 c 2.965,2.76446 2.3127,2.79207 5.6327,-0.23846 z m -27.6459,93.85683 c -1.4551,-0.31188 -2.2325,-1.3013 -2.3753,-3.02333 -0.1161,-1.40013 -0.074,-1.52656 0.7956,-2.39629 2.1206,-2.12062 5.2467,-1.15005 5.7216,1.77642 0.3676,2.26514 -1.7756,4.15035 -4.1419,3.6432 z m -45.3661,-0.43255 c -2.0677,-1.06476 -2.4145,-3.76406 -0.687,-5.34714 0.7427,-0.68066 1.1786,-0.86683 2.0297,-0.86683 2.153,0 3.4573,1.30429 3.4573,3.45735 0,0.85105 -0.1862,1.28697 -0.8668,2.02969 -1.0834,1.18216 -2.53,1.44952 -3.9332,0.72693 z m -6.7988,-14.88063 c 14.3621,-33.38105 20.7297,-47.38497 24.6751,-54.26667 8.3048,-14.48541 20.2904,-28.25617 30.5926,-35.1489 4.4812,-2.99818 10.8149,-6.2074 14.8156,-7.50695 1.7655,-0.57347 0.9042,-0.55646 -1.1418,0.0226 -4.9618,1.40413 -11.8575,4.68306 -16.8094,7.99281 -9.1971,6.14724 -20.0328,18.08337 -27.6347,30.44112 -4.6036,7.48367 -10.3334,19.92406 -17.901,38.86604 -4.6701,11.68963 -10.9891,28.86563 -10.3992,28.26666 0.072,-0.0733 1.7835,-3.97333 3.8028,-8.66666 z m 148.0044,-32.3813 c 4.9897,-0.87959 9.604,-1.78687 10.2539,-2.01616 3.8319,-1.35197 7.4123,-4.46083 9.2866,-8.06347 1.9902,-3.82539 2.3775,-7.34912 1.3954,-12.69485 -0.6119,-3.33015 -1.0819,-4.81666 -2.1632,-6.84202 -1.599,-2.99508 -4.7023,-5.83657 -7.5295,-6.89437 l -1.4044,-0.52545 -6.75,1.24214 -6.75,1.24215 -1.3031,3.46666 c -2.3921,6.3638 -2.8247,8.56023 -2.2364,11.35677 0.6022,2.86243 1.3554,4.91287 3.1084,8.46115 1.4136,2.86151 1.5846,3.36815 1.327,3.93334 -0.5024,1.10273 -1.2458,0.7889 -3.3585,-1.41792 -4.1543,-4.33919 -6.6106,-8.0063 -7.7336,-11.54563 -0.7987,-2.51731 -1.2974,-6.69475 -1.1751,-9.84401 0.052,-1.32585 0.059,-2.41057 0.016,-2.4105 -0.043,7e-5 -0.5225,0.22997 -1.0667,0.51087 -1.0991,0.56737 -2.1827,1.66142 -4.3408,4.3824 -1.4923,1.88164 -4.1024,4.05975 -5.1928,4.33342 -0.7564,0.18985 -1.743,2.48652 -2.368,5.51232 -0.5214,2.52413 -0.524,3.24486 -0.021,5.92779 1.5089,8.05433 9.097,14.1018 17.0669,13.60175 1.0267,-0.0644 5.9492,-0.83679 10.9389,-1.71638 z m -31.8723,-28.04672 c 1.98,-0.17451 3.9177,-0.4763 4.306,-0.67066 0.3882,-0.19435 1.4082,-1.1526 2.2666,-2.12945 4.7826,-5.44253 5.9762,-6.38585 9.0555,-7.15657 0.8645,-0.2164 20.2319,-3.76038 43.0386,-7.8755 22.8067,-4.11513 41.9927,-7.6761 42.6357,-7.91328 1.6897,-0.6233 3.1263,-2.17172 3.6024,-3.88269 0.2159,-0.77577 0.5249,-3.0905 0.6868,-5.14383 0.9588,-12.16102 2.6037,-17.00166 6.9757,-20.528 2.8519,-2.30024 3.4159,-2.86895 3.9597,-3.99217 l 0.578,-1.19405 0.047,-24.51488 0.047,-24.5149 -0.8336,-1.16133 c -0.4585,-0.63873 -1.409,-1.52133 -2.1122,-1.96133 l -1.2785,-0.8 -12.1545,-0.20074 c -6.685,-0.1104 -27.8745,-0.1704 -47.0879,-0.13333 l -34.9333,0.0674 -1.1259,0.60164 c -1.592,0.85066 -2.8281,2.00216 -3.8753,3.61 -0.9197,1.41212 -2.1853,4.15736 -2.0015,4.34126 0.056,0.0556 0.7176,-0.13313 1.4711,-0.41942 0.7534,-0.28629 2.3796,-0.71891 3.6136,-0.96137 1.9377,-0.38074 2.3029,-0.54114 2.6782,-1.17658 0.6872,-1.16324 2.1992,-2.34541 3.4363,-2.68672 1.4904,-0.41116 86.9837,-0.10215 88.5675,0.32012 1.4603,0.38937 2.3027,1.31613 2.3027,2.53347 v 0.98663 l -8.7032,-0.19006 -8.703,-0.19005 0.1697,0.84887 c 0.093,0.46688 0.1698,2.27388 0.1698,4.01554 v 3.16667 h 8.5333 8.5334 v 3.86667 3.86666 h -8.5334 -8.5333 v 1.46667 1.46667 h 8.5333 8.5334 v 1.46666 1.46667 h -8.5334 -8.5333 v 4.13333 4.13334 h 8.5374 8.5375 l -0.071,7.66102 -0.071,7.66101 -8.4667,-0.0872 -8.4667,-0.0872 v 1.89283 1.89283 h 6.8423 6.8423 l -1.59,1.66666 c -4.0922,4.2897 -5.4497,8.39398 -6.4936,19.6325 -0.5676,6.11002 -0.8352,7.21495 -1.883,7.77572 -0.2987,0.15987 -19.7075,3.75815 -43.1306,7.99616 -23.423,4.23802 -43.0759,7.87787 -43.673,8.08857 -3.193,1.12666 -4.9063,2.50762 -9.5811,7.72225 -1.4345,1.6002 -1.7034,1.7848 -2.6,1.7848 -0.55,0 -0.9999,-0.10121 -0.9999,-0.22492 0,-0.1237 0.2479,-0.9337 0.551,-1.8 1.6646,-4.7584 2.2937,-11.65321 1.4853,-16.27793 -1.9054,-10.90125 -8.8422,-19.85559 -18.3916,-23.74082 -1.2785,-0.52015 -2.1487,-1.02456 -2.107,-1.22125 0.039,-0.18429 0.8089,-1.02825 1.7107,-1.87546 2.9446,-2.76626 6.3203,-4.08716 13.219,-5.17256 l 1.4008,-0.22039 -0.8913,-1.46667 -0.8912,-1.46666 -1.3095,0.0785 c -2.151,0.12887 -6.7582,1.34228 -8.7657,2.30861 -3.7257,1.79345 -6.9124,4.75533 -9.0615,8.42212 -0.522,0.89066 -0.949,1.71373 -0.949,1.82905 0,0.11532 0.8668,0.36459 1.9262,0.55392 12.5158,2.23669 21.9687,14.9487 21.1731,28.47302 -0.2778,4.72211 -1.4673,9.09303 -3.6635,13.46223 -0.5697,1.13341 -1.0358,2.13295 -1.0358,2.22119 0,0.0882 0.33,0.096 0.7333,0.0172 0.4033,-0.0788 2.3533,-0.286 4.3333,-0.4605 z m -7.6061,-7.57198 c 1.6241,-3.25205 2.2913,-5.93558 2.4671,-9.92173 0.1217,-2.76119 0.053,-3.64435 -0.4494,-5.82087 -1.4582,-6.31012 -5.4974,-11.51167 -11.0782,-14.26592 -2.6865,-1.32584 -4.7963,-1.86442 -7.1894,-1.8353 l -1.8773,0.0229 1.8781,0.48589 c 8.2037,2.1224 14.1245,8.13237 16.1585,16.40174 1.1613,4.72107 0.7523,9.93118 -1.2505,15.93268 -1.0842,3.2486 -0.6003,2.88801 1.3411,-0.99935 z m -8.4916,-9.90143 c 2.07,-0.9823 2.4141,-3.85697 0.6625,-5.53511 -2.1441,-2.05416 -5.6314,-0.4944 -5.6314,2.51871 0,2.6665 2.5035,4.18629 4.9689,3.0164 z m 31.0463,-7.43977 0.7887,-0.40786 -3.802,-3.47382 -3.8019,-3.47383 -0.3214,0.74836 c -0.9163,2.13417 0,4.96698 2.012,6.24526 0.9818,0.62267 1.5121,0.76976 2.7748,0.76976 0.8794,0 1.9054,-0.1781 2.3498,-0.40787 z m 40.4339,-1.87819 c 1.551,-1.18304 1.8212,-3.72316 0.5657,-5.3192 -1.7356,-2.20656 -5.2464,-1.74756 -6.3889,0.83529 -1.6162,3.65351 2.6277,6.92126 5.8232,4.48391 z m -37.5278,-2.79077 c 0.016,-1.65974 -0.9069,-3.38732 -2.3443,-4.38627 -0.9831,-0.68318 -1.4043,-0.80357 -2.8117,-0.80357 -1.1377,0 -1.8819,0.14835 -2.3793,0.47428 l -0.7238,0.47427 3.8022,3.47408 3.8022,3.47408 0.3213,-0.74836 c 0.1767,-0.41159 0.3267,-1.29292 0.3334,-1.95851 z m 31.0271,-14.69671 c 0.3995,-1.35941 0.764,-1.9214 2.1334,-3.28996 2.827,-2.82522 1.5754,-2.68029 22.5182,-2.60753 l 17.9333,0.0623 v -6.61886 -6.61886 l -11.6438,-0.17678 c -6.404,-0.0972 -14.4222,-0.17677 -17.8182,-0.17677 -6.8237,0 -8.0425,-0.19388 -10.3239,-1.6423 -3.4462,-2.18784 -5.4363,-6.42378 -4.7487,-10.10746 0.654,-3.50358 2.7918,-6.24539 6.0867,-7.80637 l 1.7812,-0.84387 18.3382,-0.0754 18.3383,-0.0754 -0.072,-6.19124 -0.072,-6.19124 -18.1334,-0.13333 -18.1333,-0.13334 -1.5324,-0.61882 c -2.7172,-1.09726 -5.2814,-3.89863 -6.0876,-6.65064 l -0.3328,-1.13614 -11.4902,0.0695 -11.4903,0.0695 -0.081,1.26667 -0.081,1.26667 h 10.5218 10.5219 l 0.2894,0.83013 c 0.1591,0.45657 0.7107,1.41657 1.2256,2.13333 l 0.9363,1.3032 h -11.7329 -11.7329 v 3.46667 3.46667 h 17.2894 c 9.5092,0 23.9692,0.0796 32.1334,0.17699 l 14.8439,0.17698 v 2.35635 2.35634 h -16.344 c -17.8143,0 -18.0063,0.0142 -20.8145,1.54211 -1.9366,1.05361 -4.1926,3.43431 -5.2068,5.49447 l -0.8682,1.76342 h -10.5166 -10.5166 v 1.71354 1.71354 l 10.1114,0.0865 c 5.5613,0.0476 10.1849,0.16009 10.2747,0.25008 0.09,0.09 0.2692,0.80998 0.3986,1.59999 0.1294,0.79002 0.3188,1.76639 0.4209,2.16972 l 0.1857,0.73334 h -10.6671 c -9.4809,0 -10.685,0.0469 -10.8289,0.42181 -0.089,0.23199 -0.1618,2.69199 -0.1618,5.46666 v 5.04486 h 21.4229 c 11.7827,0 26.3027,0.0795 32.2667,0.1767 l 10.8437,0.1767 v 2.74906 2.74905 l -17,0.0742 -17,0.0742 -1.7976,0.8515 c -3.1174,1.47678 -5.6438,4.69412 -6.1889,7.88183 l -0.171,1 1.1454,-2.6e-4 1.1454,-2.7e-4 0.4818,-1.63946 z m -30.4818,-2.08285 v -1.85639 l -1.1333,-0.29195 c -2.1683,-0.55855 -3.0111,-0.86727 -4.8667,-1.78267 -6.3021,-3.10904 -11.2052,-9.43373 -13.1827,-17.00496 -0.7534,-2.88451 -1.2194,-7.61001 -0.9473,-9.60764 l 0.2178,-1.6 0.2359,1.33333 c 1.4421,8.15271 6.7701,15.6613 13.5218,19.05601 2.1061,1.05894 5.8044,2.31636 6.0602,2.06051 0.079,-0.0792 0.2113,-9.25758 0.2935,-20.39634 l 0.1495,-20.2523 -1.5743,0.24679 c -4.1615,0.65235 -7.8566,2.58697 -11.0676,5.79453 -1.841,1.839 -2.5113,2.73785 -3.3987,4.55747 -0.6079,1.24667 -1.278,2.92667 -1.4891,3.73333 -0.2356,0.90005 -0.3907,1.19984 -0.4014,0.77599 -0.028,-1.1125 0.9544,-4.60589 1.7302,-6.15042 2.6048,-5.18639 7.1983,-9.08067 12.8554,-10.89856 1.3584,-0.43652 2.6484,-0.79367 2.8667,-0.79367 0.3181,0 0.3968,-0.42167 0.3968,-2.12667 v -2.12667 l -0.8667,0.15441 c -2.023,0.36044 -6.2307,1.99031 -8.2552,3.19767 -2.5463,1.51859 -6.7775,5.5355 -8.4245,7.9978 -2.3574,3.52446 -4.0708,7.62256 -5.0045,11.97012 -0.6369,2.96559 -0.6532,9.33593 -0.032,12.45595 2.2651,11.37367 9.9948,20.32506 19.7631,22.8867 2.6979,0.70747 2.553,0.78309 2.553,-1.33237 z m -28.0391,-25.01245 c 0.1271,-4.36214 0.1964,-7.97279 0.1538,-8.02367 -0.043,-0.0509 -0.3332,0.40883 -0.6458,1.02158 -2.0351,3.989 -2.3243,12.32639 -0.5784,16.67093 l 0.4286,1.06666 0.2053,-1.40217 c 0.1128,-0.77119 0.3093,-4.97119 0.4365,-9.33333 z m 101.1058,1.17797 v -3.55753 l -5.8,-0.17515 c -7.3401,-0.22165 -28.405,-0.22484 -29.7382,-0.005 -1.2991,0.21471 -3.5676,1.5958 -4.3841,2.66906 l -0.6398,0.84101 0.8509,0.96919 c 0.4681,0.53305 1.4045,1.2946 2.0811,1.69233 l 1.2301,0.72314 9.8667,0.14261 c 5.4266,0.0784 13.6166,0.16843 18.2,0.2 l 8.3333,0.0574 z m 167.46661,-4.70913 v -3.46667 h -2.9038 -2.9039 l -0.191,3.17976 c -0.1051,1.74886 -0.1113,3.30886 -0.014,3.46666 0.109,0.17649 1.3002,0.28691 3.0949,0.28691 h 2.9176 v -3.46666 z m -9.1196,0.36748 0.08,-1.09919 -40.4804,-0.16279 c -22.2641,-0.0895 -51.4003,-0.19489 -64.747,-0.23414 l -24.26661,-0.0714 -0.082,1.13333 -0.082,1.13334 21.282,0.0386 c 11.70511,0.0213 40.12201,0.11967 63.14861,0.21871 23.0267,0.099 42.5867,0.17167 43.4667,0.16137 l 1.6,-0.0187 0.08,-1.09919 z m 29.5996,0.91252 c 0.443,-0.4429 0.4001,-1.16188 -0.099,-1.66095 -0.3631,-0.36318 -1.5365,-0.41905 -8.8,-0.41905 h -8.3809 v 1.2 1.2 h 8.48 c 6.24,0 8.5645,-0.0845 8.8,-0.32 z m -225.31191,-4.6953 c 1.7823,-0.81752 0.5218,-0.78837 20.2986,-0.46934 7.9934,0.12895 15.1034,0.14839 15.8,0.0432 1.2539,-0.18931 1.2667,-0.20141 1.2667,-1.19887 v -1.00763 l -6.6,-0.17545 c -8.713,-0.23163 -19.2026,-0.20395 -24.3596,0.0643 -3.612,0.18786 -4.3544,0.30553 -5.6395,0.89385 -1.6217,0.74245 -3.3841,2.34289 -4.094,3.71774 l -0.4549,0.88085 1.142,-1.03062 c 0.6281,-0.56684 1.8164,-1.33995 2.6407,-1.71801 z m 259.61291,-2.87041 c 0.2305,-0.23048 0.419,-0.58191 0.419,-0.78096 0,-0.19904 -0.1885,-0.55047 -0.419,-0.78095 -0.3751,-0.37513 -3.1002,-0.41905 -26,-0.41905 h -25.581 v 1.0645 1.0645 l 15.4,0.071 c 8.47,0.0391 19.9815,0.10005 25.581,0.1355 8.9564,0.0567 10.2313,0.014 10.6,-0.35459 z m -63.8476,-0.89855 c 0,-0.57801 -0.09,-1.10352 -0.2,-1.1678 -0.11,-0.0643 -29.27,-0.20424 -64.8,-0.31102 l -64.60001,-0.19415 v 1.09528 1.09528 l 7.2667,0.0387 c 10.5202,0.056 88.53581,0.37831 106.80001,0.44117 l 15.5333,0.0535 z m 9.0161,-0.21574 -0.083,-1 h -2.8 -2.8 l -0.083,1 -0.083,1 h 2.9655 2.9655 z m 55.1136,-8.91144 c 0.9409,-0.74011 1.4703,-2.01715 1.4703,-3.54666 v -1.20857 l -8.3334,-0.0158 c -4.5833,-0.009 -48.4133,-0.17139 -97.3999,-0.36161 -48.9867,-0.19023 -89.09261,-0.32726 -89.12421,-0.30451 -0.1113,0.08 -0.4199,5.21558 -0.3152,5.24503 0.1264,0.0355 152.61131,0.66342 176.40341,0.72636 l 16.564,0.0438 0.735,-0.5781 z m -317.61951,-6.2605 c 1.9666,-0.60144 4.0126,-2.02862 6.7815,-4.73022 2.4172,-2.35851 4.7707,-4.96451 4.4834,-4.96451 -0.078,0 -1.2684,0.88109 -2.646,1.95797 -7.1814,5.61371 -9.1047,6.48593 -13.2181,5.99466 -4.8722,-0.58192 -8.7478,-2.74563 -16.8582,-9.41196 -3.9597,-3.25472 -5.2847,-4.19555 -6.3861,-4.53468 -0.5673,-0.17465 -0.5233,-0.0899 0.2954,0.56842 0.5291,0.42553 2.5691,2.43934 4.5333,4.47513 7.0309,7.28719 12.0134,10.41053 17.6297,11.05139 2.2383,0.25542 3.5438,0.15694 5.3851,-0.4062 z m 95.0328,-4.82806 -0.076,-2.6 -6.8,-0.16231 c -8.8928,-0.21226 -34.1334,-0.27964 -34.1334,-0.0911 0,0.0806 0.1933,0.53061 0.4294,1 0.6047,1.20184 2.1811,2.79603 3.4373,3.47602 1.0543,0.57069 1.2666,0.57902 18.2667,0.7164 9.46,0.0765 17.5943,0.16645 18.0763,0.2 l 0.8763,0.061 z m 222.86541,-0.53333 c -0.1014,-0.55 -0.3262,-1.3 -0.4995,-1.66667 l -0.3152,-0.66667 -7.8635,-0.16538 c -4.325,-0.091 -35.1636,-0.24114 -68.5302,-0.33373 -33.3667,-0.0926 -73.2367,-0.24663 -88.6,-0.34231 l -27.93331,-0.17397 v 1.77436 c 0,1.50135 0.072,1.77871 0.4666,1.80257 0.5662,0.0342 154.71471,0.66725 177.36301,0.72836 l 16.0964,0.0434 z m -17.9925,-9.8081 c -1.8381,-3.73372 -6.4957,-6.52524 -10.8872,-6.52524 -1.4897,0 -3.7954,0.46938 -3.7954,0.77264 0,0.0968 0.81,0.30849 1.8,0.47044 4.3878,0.71777 9.0591,3.17532 11.9599,6.29214 1.261,1.35485 1.5911,1.58961 1.6625,1.18206 0.049,-0.27971 -0.284,-1.26612 -0.7398,-2.19204 z" />
  </g>
</svg>
