<?xml version="1.0" encoding="UTF-8" standalone="no"?>
<svg
   xmlns:dc="http://purl.org/dc/elements/1.1/"
   xmlns:cc="http://creativecommons.org/ns#"
   xmlns:rdf="http://www.w3.org/1999/02/22-rdf-syntax-ns#"
   xmlns:svg="http://www.w3.org/2000/svg"
   xmlns="http://www.w3.org/2000/svg"
   xmlns:xlink="http://www.w3.org/1999/xlink"
   xmlns:sodipodi="http://sodipodi.sourceforge.net/DTD/sodipodi-0.dtd"
   xmlns:inkscape="http://www.inkscape.org/namespaces/inkscape"
   version="1.1"
   id="svg2"
   width="30"
   height="30"
   viewBox="0 0 30 30"
   sodipodi:docname="vsc.svg"
   inkscape:version="1.0.1 (3bc2e813f5, 2020-09-07)">
  <metadata
     id="metadata8">
    <rdf:RDF>
      <cc:Work
         rdf:about="">
        <dc:format>image/svg+xml</dc:format>
        <dc:type
           rdf:resource="http://purl.org/dc/dcmitype/StillImage" />
        <dc:title></dc:title>
      </cc:Work>
    </rdf:RDF>
  </metadata>
  <defs
     id="defs6">
    <linearGradient
       inkscape:collect="always"
       id="linearGradient875">
      <stop
         style="stop-color:#c00000;stop-opacity:1"
         offset="0"
         id="stop871" />
      <stop
         style="stop-color:#631111;stop-opacity:1"
         offset="1"
         id="stop873" />
    </linearGradient>
    <linearGradient
       inkscape:collect="always"
       id="linearGradient843">
      <stop
         style="stop-color:#4c525a;stop-opacity:1"
         offset="0"
         id="stop839" />
      <stop
         style="stop-color:#000000;stop-opacity:1"
         offset="1"
         id="stop841" />
    </linearGradient>
    <linearGradient
       inkscape:collect="always"
       xlink:href="#linearGradient843"
       id="linearGradient845"
       x1="0.75178295"
       y1="14.782106"
       x2="29.511066"
       y2="14.782106"
       gradientUnits="userSpaceOnUse" />
    <linearGradient
       inkscape:collect="always"
       xlink:href="#linearGradient875"
       id="linearGradient845-1"
       x1="0.75178295"
       y1="14.782106"
       x2="29.511066"
       y2="14.782106"
       gradientUnits="userSpaceOnUse" />
    <filter
       inkscape:collect="always"
       style="color-interpolation-filters:sRGB"
       id="filter953"
       x="-0.047853359"
       width="1.0957067"
       y="-0.048147543"
       height="1.0962951">
      <feGaussianBlur
         inkscape:collect="always"
         stdDeviation="0.57342845"
         id="feGaussianBlur955" />
    </filter>
  </defs>
  <sodipodi:namedview
     pagecolor="#ffffff"
     bordercolor="#666666"
     borderopacity="1"
     objecttolerance="10"
     gridtolerance="10"
     guidetolerance="10"
     inkscape:pageopacity="0"
     inkscape:pageshadow="2"
     inkscape:window-width="1920"
     inkscape:window-height="1017"
     id="namedview4"
     showgrid="false"
     inkscape:zoom="13.205121"
     inkscape:cx="26.317615"
     inkscape:cy="19.872025"
     inkscape:window-x="-8"
     inkscape:window-y="-8"
     inkscape:window-maximized="1"
     inkscape:current-layer="g10" />
  <g
     inkscape:groupmode="layer"
     inkscape:label="Image"
     id="g10">
    <path
       style="opacity:0.9;fill:url(#linearGradient845-1);fill-opacity:1;stroke-width:0.128187;filter:url(#filter953)"
       d="m 21.031571,28.916041 c -0.15154,-0.0897 -2.818428,-2.486299 -5.926408,-5.32578 -3.107991,-2.83948 -5.733826,-5.194518 -5.835197,-5.233419 -0.111019,-0.04258 -1.193714,0.698243 -2.7211697,1.861876 -3.2406861,2.468783 -3.0476817,2.445948 -5.0263475,0.594652 -1.2449722,-1.164823 -1.1537976,-1.391675 1.5596038,-3.880625 1.2109108,-1.110746 2.2016643,-2.079227 2.2016643,-2.152181 0,-0.07296 -0.9907535,-1.041436 -2.2016643,-2.152181 C 0.3686512,10.139435 0.2774766,9.912581 1.5224488,8.747759 3.499671,6.897812 3.3049022,6.874835 6.5511334,9.340969 c 1.4052666,1.06757 2.6191676,1.90156 2.7145356,1.864964 0.09486,-0.03641 2.718305,-2.390796 5.829836,-5.231976 3.111532,-2.84118 5.80533,-5.244375 5.98621,-5.340433 0.664293,-0.352775 1.347889,-0.129877 4.710713,1.536011 2.298171,1.138475 3.276256,1.689219 3.461049,1.948857 0.252854,0.355261 0.257589,0.551269 0.257589,10.662172 0,10.119759 -0.0045,10.306599 -0.258233,10.662173 -0.184929,0.259176 -1.167427,0.812611 -3.461052,1.949587 -3.357916,1.664558 -4.113611,1.90645 -4.76021,1.523717 z m 1.365113,-14.135477 c 0,-3.560395 -0.04326,-6.470516 -0.09613,-6.466934 -0.168695,0.01146 -8.411005,6.33572 -8.419838,6.460504 -0.008,0.120105 8.239213,6.461131 8.419838,6.473365 0.05287,0.0036 0.09613,-2.906539 0.09613,-6.466935 z"
       id="path837-0" />
    <path
       style="fill:url(#linearGradient845);stroke-width:0.128187;fill-opacity:1"
       d="m 21.031571,28.916041 c -0.15154,-0.0897 -2.818428,-2.486299 -5.926408,-5.32578 -3.107991,-2.83948 -5.7338263,-5.194518 -5.8351976,-5.233419 -0.1110181,-0.04258 -1.1937138,0.698243 -2.7211693,1.861876 -3.240686,2.468783 -3.0476817,2.445948 -5.0263475,0.594652 -1.2449722,-1.164823 -1.1537976,-1.391675 1.5596039,-3.880625 1.2109107,-1.110746 2.2016642,-2.079227 2.2016642,-2.152181 0,-0.07296 -0.9907535,-1.041436 -2.2016642,-2.152181 C 0.368651,10.139435 0.2774764,9.9125809 1.5224486,8.7477581 3.4996708,6.8978114 3.3049021,6.8748344 6.5511332,9.3409689 c 1.4052669,1.0675701 2.619168,1.9015601 2.7145359,1.8649641 0.094864,-0.03641 2.7183049,-2.3907965 5.8298359,-5.2319767 3.111532,-2.84118 5.80533,-5.24437474 5.98621,-5.34043234 0.664293,-0.3527752 1.347889,-0.1298775 4.710713,1.53601044 2.298171,1.1384751 3.276256,1.6892189 3.461049,1.9488569 0.252854,0.3552613 0.257589,0.5512696 0.257589,10.6621727 0,10.119759 -0.0045,10.306599 -0.258233,10.662173 -0.184929,0.259176 -1.167427,0.812611 -3.461052,1.949587 -3.357916,1.664558 -4.113611,1.90645 -4.76021,1.523717 z m 1.365113,-14.135477 c 0,-3.560395 -0.04326,-6.4705163 -0.09613,-6.4669348 -0.168695,0.011457 -8.411005,6.3357208 -8.419838,6.4605048 -0.008,0.120105 8.239213,6.461131 8.419838,6.473365 0.05287,0.0036 0.09613,-2.906539 0.09613,-6.466935 z"
       id="path837" />
  </g>
</svg>
