<?xml version="1.0" encoding="UTF-8" standalone="no"?>
<svg
   xmlns:dc="http://purl.org/dc/elements/1.1/"
   xmlns:cc="http://creativecommons.org/ns#"
   xmlns:rdf="http://www.w3.org/1999/02/22-rdf-syntax-ns#"
   xmlns:svg="http://www.w3.org/2000/svg"
   xmlns="http://www.w3.org/2000/svg"
   xmlns:xlink="http://www.w3.org/1999/xlink"
   xmlns:sodipodi="http://sodipodi.sourceforge.net/DTD/sodipodi-0.dtd"
   xmlns:inkscape="http://www.inkscape.org/namespaces/inkscape"
   version="1.1"
   id="svg2"
   width="30"
   height="30"
   viewBox="0 0 30 30"
   sodipodi:docname="word.svg"
   inkscape:version="1.0.1 (3bc2e813f5, 2020-09-07)">
  <metadata
     id="metadata8">
    <rdf:RDF>
      <cc:Work
         rdf:about="">
        <dc:format>image/svg+xml</dc:format>
        <dc:type
           rdf:resource="http://purl.org/dc/dcmitype/StillImage" />
        <dc:title></dc:title>
      </cc:Work>
    </rdf:RDF>
  </metadata>
  <defs
     id="defs6">
    <linearGradient
       inkscape:collect="always"
       id="linearGradient875">
      <stop
         style="stop-color:#c00000;stop-opacity:1"
         offset="0"
         id="stop871" />
      <stop
         style="stop-color:#631111;stop-opacity:1"
         offset="1"
         id="stop873" />
    </linearGradient>
    <linearGradient
       inkscape:collect="always"
       id="linearGradient843">
      <stop
         style="stop-color:#4c525a;stop-opacity:1"
         offset="0"
         id="stop839" />
      <stop
         style="stop-color:#000000;stop-opacity:1"
         offset="1"
         id="stop841" />
    </linearGradient>
    <linearGradient
       inkscape:collect="always"
       xlink:href="#linearGradient843"
       id="linearGradient845"
       x1="1.6527955"
       y1="14.696515"
       x2="28.69041"
       y2="14.696515"
       gradientUnits="userSpaceOnUse" />
    <linearGradient
       inkscape:collect="always"
       xlink:href="#linearGradient875"
       id="linearGradient845-7"
       x1="1.6527956"
       y1="14.696515"
       x2="28.690411"
       y2="14.696515"
       gradientUnits="userSpaceOnUse"
       gradientTransform="translate(1e-6)" />
    <filter
       inkscape:collect="always"
       style="color-interpolation-filters:sRGB"
       id="filter953"
       x="-0.047926214"
       width="1.0958524"
       y="-0.048074013"
       height="1.096148">
      <feGaussianBlur
         inkscape:collect="always"
         stdDeviation="0.53992113"
         id="feGaussianBlur955" />
    </filter>
  </defs>
  <sodipodi:namedview
     pagecolor="#ffffff"
     bordercolor="#666666"
     borderopacity="1"
     objecttolerance="10"
     gridtolerance="10"
     guidetolerance="10"
     inkscape:pageopacity="0"
     inkscape:pageshadow="2"
     inkscape:window-width="1920"
     inkscape:window-height="1017"
     id="namedview4"
     showgrid="false"
     inkscape:zoom="6.060352"
     inkscape:cx="24.73441"
     inkscape:cy="21.323612"
     inkscape:window-x="-8"
     inkscape:window-y="-8"
     inkscape:window-maximized="1"
     inkscape:current-layer="g10" />
  <g
     inkscape:groupmode="layer"
     inkscape:label="Image"
     id="g10">
    <path
       style="opacity:0.9;fill:url(#linearGradient845-7);fill-opacity:1;stroke-width:0.0530248;filter:url(#filter953)"
       d="M 11.329866,27.083814 C 8.267667,26.491262 4.879368,25.83662 3.800307,25.629048 2.721252,25.421482 1.796626,25.239405 1.745591,25.224433 c -0.08797,-0.02579 -0.0928,-0.572547 -0.0928,-10.519025 0,-9.94652 0.005,-10.493217 0.0928,-10.518921 C 1.796611,4.171567 2.470709,4.037519 3.243548,3.888584 4.016388,3.739649 5.567369,3.438872 6.690173,3.22019 13.160569,1.95999 17.165842,1.196844 17.189127,1.21977 c 0.01462,0.01436 0.03326,6.084879 0.04155,13.490049 l 0.01499,13.463943 -0.174088,-0.0063 c -0.09575,-0.0038 -2.679521,-0.491102 -5.741719,-1.08366 z M 7.98935,19.833219 c 0.04882,-0.208187 0.804993,-3.889283 1.136145,-5.530653 0.177088,-0.877749 0.321979,-1.683068 0.321979,-1.789596 0,-0.106527 0.02385,-0.193688 0.05302,-0.193688 0.02918,0 0.05302,0.05335 0.05302,0.118543 0,0.317912 1.402045,7.40256 1.480513,7.481168 0.07603,0.07616 1.900884,0.122331 1.973285,0.04994 0.04236,-0.04236 0.263733,-1.091057 1.323751,-6.27099 0.668302,-3.265772 0.848635,-4.201121 0.816224,-4.233589 -0.05604,-0.05612 -1.413953,-0.07584 -1.616035,-0.02349 -0.180695,0.04682 -0.185527,0.05533 -0.250981,0.442346 -0.08138,0.481098 -0.982458,6.114528 -1.101866,6.888729 -0.04712,0.305429 -0.09118,0.560848 -0.09793,0.567597 -0.0067,0.0067 -0.05509,-0.243145 -0.107418,-0.555324 -0.05234,-0.312173 -0.175134,-0.997095 -0.272886,-1.522044 -1.027204,-5.516203 -1.073922,-5.758668 -1.117935,-5.8026 -0.0544,-0.05432 -1.869408,-0.03273 -1.92316,0.02287 -0.02818,0.02917 -0.195041,0.745001 -0.370786,1.590751 -0.175739,0.845749 -0.453114,2.170048 -0.616384,2.942887 -0.250637,1.186375 -0.433291,2.093342 -0.656745,3.26104 l -0.0406,0.2121 -0.03953,-0.318149 C 6.851781,16.501386 6.095173,11.720395 5.827881,10.174948 L 5.709214,9.488802 5.523624,9.440262 c -0.199961,-0.0523 -1.724141,-0.02769 -1.780579,0.02875 -0.01876,0.01877 0.432444,2.332088 1.002713,5.1407 0.570269,2.808609 1.044492,5.154095 1.053829,5.212207 0.02341,0.145694 0.165661,0.16216 1.242814,0.143856 0.898435,-0.01524 0.920171,-0.01832 0.946953,-0.132561 z m 10.313301,3.702935 v -1.566317 h 3.632216 3.632216 v -1.033988 -1.033988 h -3.632216 -3.632216 v -1.03399 -1.033986 h 3.632216 3.632216 v -1.033989 -1.033989 h -3.632216 -3.632216 v -1.060499 -1.0605 h 3.632216 3.632216 V 12.61092 11.576931 H 21.934867 18.302651 V 10.542942 9.508956 h 3.658728 3.658727 V 8.448455 7.387954 H 21.961379 18.302651 V 5.850229 4.312503 l 4.705975,0.0031 c 2.588281,0.0018 4.82368,0.02248 4.967543,0.04609 0.20776,0.0341 0.301998,0.08627 0.458089,0.253608 l 0.196516,0.210677 0.03658,0.710939 c 0.02008,0.391016 0.02874,4.816136 0.01913,9.833598 -0.01632,8.540333 -0.02328,9.131593 -0.109129,9.26259 -0.05045,0.07697 -0.179798,0.207139 -0.287478,0.289279 l -0.195775,0.149352 -4.895719,0.01531 -4.895718,0.01537 z"
       id="path837-4" />
    <path
       style="fill:url(#linearGradient845);stroke-width:0.0530248;fill-opacity:1"
       d="M 11.329865,27.083814 C 8.2676663,26.491262 4.8793676,25.83662 3.8003065,25.629048 2.7212516,25.421482 1.7966253,25.239405 1.7455905,25.224433 c -0.08797,-0.02579 -0.092795,-0.572547 -0.092795,-10.519025 0,-9.9465197 0.00502,-10.4932176 0.092795,-10.5189208 C 1.7966065,4.1715714 2.4707083,4.0375186 3.2435477,3.8885837 4.0163873,3.7396489 5.5673686,3.4388715 6.6901728,3.2201897 13.160568,1.9599902 17.165841,1.1968439 17.189127,1.2197703 c 0.01462,0.014358 0.03326,6.0848784 0.04155,13.4900487 l 0.01499,13.463943 -0.174088,-0.0063 c -0.09575,-0.0038 -2.679521,-0.491102 -5.741719,-1.08366 z M 7.9893497,19.833219 c 0.04882,-0.208187 0.8049928,-3.889283 1.1361449,-5.530653 0.177088,-0.877749 0.3219786,-1.683068 0.3219786,-1.789596 0,-0.106527 0.023848,-0.193688 0.053019,-0.193688 0.029182,0 0.053019,0.05335 0.053019,0.118543 0,0.317912 1.4020448,7.40256 1.4805128,7.481168 0.07603,0.07616 1.900884,0.122331 1.973285,0.04994 0.04236,-0.04236 0.263733,-1.091057 1.323751,-6.27099 0.668302,-3.265772 0.848635,-4.2011208 0.816224,-4.233589 -0.05604,-0.056118 -1.413953,-0.075838 -1.616035,-0.023487 -0.180695,0.046824 -0.185527,0.055334 -0.250981,0.442346 -0.08138,0.481098 -0.982458,6.114528 -1.101866,6.888729 -0.04712,0.305429 -0.09118,0.560848 -0.09793,0.567597 -0.0067,0.0067 -0.05509,-0.243145 -0.107418,-0.555324 C 11.920716,16.472042 11.79792,15.78712 11.700168,15.262171 10.672964,9.745968 10.626246,9.5035032 10.582233,9.4595711 10.527834,9.4052545 8.7128249,9.4268403 8.6590729,9.4824368 8.6308977,9.5116029 8.4640323,10.227438 8.2882874,11.073188 8.1125488,11.918937 7.8351736,13.243236 7.6719034,14.016075 7.421266,15.20245 7.2386123,16.109417 7.0151583,17.277115 l -0.040599,0.2121 -0.039533,-0.318149 C 6.8517738,16.501385 6.0951679,11.720394 5.8278767,10.174947 L 5.7092095,9.4888011 5.5236191,9.4402637 c -0.1999603,-0.052296 -1.724141,-0.027692 -1.7805786,0.028746 -0.018762,0.018769 0.4324439,2.3320887 1.0027128,5.1407007 0.5702688,2.808609 1.044492,5.154095 1.0538293,5.212207 0.023406,0.145694 0.1656607,0.16216 1.2428142,0.143856 0.8984343,-0.01524 0.920171,-0.01832 0.9469529,-0.132561 z m 10.3133013,3.702935 v -1.566317 h 3.632216 3.632216 v -1.033988 -1.033988 h -3.632216 -3.632216 v -1.03399 -1.033986 h 3.632216 3.632216 v -1.033989 -1.033989 h -3.632216 -3.632216 v -1.060499 -1.0605 h 3.632216 3.632216 V 12.61092 11.576931 H 21.934867 18.302651 V 10.542942 9.5089558 h 3.658728 3.658727 V 8.448455 7.3879541 H 21.961379 18.302651 V 5.8502291 4.312503 l 4.705975,0.00314 c 2.588281,0.00176 4.82368,0.022477 4.967542,0.04609 0.20776,0.034099 0.301999,0.086274 0.45809,0.2536075 l 0.196516,0.2106773 0.03658,0.7109389 c 0.02008,0.3910162 0.02874,4.8161363 0.01913,9.8335983 -0.01632,8.540333 -0.02328,9.131593 -0.109129,9.26259 -0.05045,0.07697 -0.179799,0.207139 -0.287478,0.289279 l -0.195775,0.149352 -4.895719,0.01531 -4.895718,0.01537 z"
       id="path837" />
  </g>
</svg>
